<svg width="27" height="27" viewBox="0 0 27 27" fill="none" xmlns="http://www.w3.org/2000/svg">
<g clip-path="url(#clip0_36_185)">
<circle cx="13.5" cy="13.5" r="12.913" stroke="#4D4D4D" stroke-width="1.17391"/>
<path fill-rule="evenodd" clip-rule="evenodd" d="M3.53857 22.6114C3.83527 17.5296 8.05039 13.5 13.2067 13.5C18.5554 13.5 22.8914 17.836 22.8914 23.1848C22.8914 23.1893 22.8914 23.1937 22.8914 23.1982C22.4997 23.5776 22.0851 23.9335 21.6498 24.2636C21.6945 23.9103 21.7175 23.5502 21.7175 23.1848C21.7175 18.4844 17.9071 14.6739 13.2067 14.6739C8.50624 14.6739 4.6958 18.4844 4.6958 23.1848C4.6958 23.3747 4.70202 23.5632 4.71427 23.7501C4.2998 23.3945 3.90714 23.0141 3.53857 22.6114Z" fill="#4D4D4D"/>
<circle cx="13.2062" cy="9.68481" r="4.40217" stroke="#4D4D4D" stroke-width="1.17391"/>
</g>
<defs>
<clipPath id="clip0_36_185">
<rect width="27" height="27" fill="white"/>
</clipPath>
</defs>
</svg>
