<svg width="209" height="19" viewBox="0 0 209 19" fill="none" xmlns="http://www.w3.org/2000/svg">
<g clip-path="url(#clip0_1_2)">
<path d="M179.077 14.7531H207.318C208.305 14.7531 208.799 15.4496 208.799 16.8421C208.799 18.1478 208.305 18.8003 207.318 18.8003H179.493C177.611 18.8003 176.237 18.3435 175.373 17.4298C174.385 16.3853 173.891 14.5794 173.891 12.0115V0.00056455H176.901V5.09235H197.781C198.275 5.09235 198.622 5.24463 198.823 5.54919C199.023 5.85375 199.123 6.35458 199.123 7.05055C199.123 8.39964 198.676 9.07418 197.781 9.07418H176.901V11.1632C176.901 12.5557 177.009 13.4694 177.225 13.9043C177.534 14.4705 178.151 14.7531 179.077 14.7531ZM142.363 14.7531H170.605C171.592 14.7531 172.086 15.4496 172.086 16.8421C172.086 18.1478 171.592 18.8003 170.605 18.8003H142.78C140.897 18.8003 139.524 18.3435 138.66 17.4298C137.672 16.3853 137.178 14.5794 137.178 12.0115V0.00056455H140.187V5.09235H161.067C161.561 5.09235 161.908 5.24463 162.109 5.54919C162.31 5.85375 162.41 6.35458 162.41 7.05055C162.41 8.39964 161.962 9.07418 161.067 9.07418H140.187V11.1632C140.187 12.5557 140.295 13.4694 140.511 13.9043C140.82 14.4705 141.437 14.7531 142.363 14.7531ZM133.659 4.04726H105.372C104.477 4.04726 103.891 4.30839 103.613 4.83065C103.335 5.35291 103.197 6.28858 103.197 7.63767V18.8003H100.187V6.85428C100.187 4.28696 100.665 2.50246 101.622 1.50136C102.579 0.500267 103.968 0 105.789 0H133.613C134.601 0 135.095 0.674542 135.095 2.02306C135.095 3.37215 134.616 4.04726 133.659 4.04726ZM70.2326 14.7531H96.483C97.563 14.7531 98.1034 15.4276 98.1034 16.7767C98.1034 18.1258 97.4862 18.8003 96.2514 18.8003H70.279C65.6182 18.8003 63.2882 15.6888 63.2882 9.46559C63.2882 6.37601 63.9054 4.02582 65.1402 2.4156C66.375 0.805388 68.0878 0.00056455 70.2794 0.00056455H93.1962C94.5234 0.00056455 95.6734 0.500831 96.6454 1.50193C97.6178 2.50303 98.1038 3.91754 98.1038 5.74546C98.1038 7.52939 97.6178 8.93318 96.6454 9.95571C95.673 10.9788 94.5386 11.4898 93.2426 11.4898H74.0294C73.1034 11.4898 72.6406 10.7932 72.6406 9.40073C72.6406 8.09507 73.1346 7.44253 74.1222 7.44253H93.937C94.709 7.44253 95.0946 6.87684 95.0946 5.74546C95.0946 4.61351 94.6934 4.04782 93.891 4.04782H70.6962C67.795 4.04782 66.3442 5.83231 66.3442 9.40073C66.3442 12.9697 67.6402 14.7531 70.2326 14.7531ZM50.7418 0.00056455H60.2326C61.1278 0.00056455 61.575 0.696541 61.575 2.08905C61.575 3.39471 61.1278 4.04726 60.2326 4.04726H51.9918C51.683 4.04726 51.405 4.17754 51.1586 4.43923C50.9118 4.70036 50.5798 5.30949 50.163 6.26716C49.7462 7.22426 49.183 8.62806 48.473 10.478C47.7634 12.3273 46.791 14.8405 45.5566 18.0175C45.2526 18.4529 44.8806 18.7095 44.4454 18.8009H44.3066C43.7218 18.8009 43.1266 17.9842 43.103 18.0175L38.427 6.26772C38.211 5.70203 37.9946 5.21248 37.779 4.79906C37.563 4.38565 37.3162 4.13581 37.0386 4.04839H28.0566C27.1306 4.04839 26.6678 3.37384 26.6678 2.02476C26.6678 0.676236 27.1306 0.00169365 28.0566 0.00169365H37.9182C39.1838 0.262825 40.2482 1.56848 41.1126 3.91866L44.307 12.2743L47.5014 3.91866C47.9642 2.69986 48.4582 1.74275 48.983 1.04621C49.5078 0.349675 50.0942 0.00169365 50.7422 0.00169365L50.7418 0.00056455ZM9.87458 12.179C9.87818 12.1265 9.87978 12.0724 9.87898 12.0194C9.87098 11.2777 10.0762 10.5141 10.4566 9.98955C10.641 9.73349 10.8246 9.47857 11.0034 9.21461C11.367 8.69348 11.8702 8.43009 12.3874 8.50228C12.4158 8.50623 12.4446 8.50849 12.4734 8.50962C12.9646 8.52541 13.435 7.99581 13.3146 7.25753C13.1958 6.52998 13.0434 5.69244 12.1546 5.71275C12.1262 5.71331 12.099 5.69751 12.0722 5.69244C11.5278 5.59317 11.0226 5.19781 10.6414 4.64904C10.4466 4.36253 10.255 4.07207 10.0662 3.77766C9.71058 3.21254 9.43299 2.51375 9.34019 1.76475C9.33459 1.71963 9.32738 1.67395 9.31858 1.6277C9.24338 1.2391 9.07058 0.891115 8.86938 0.610244C8.68058 0.346856 8.44219 0.107721 8.18019 0.0253772C7.65539 -0.139874 7.31658 0.531289 7.33218 1.20076C7.35178 2.05409 7.87978 2.77093 8.47499 2.87752C8.48178 2.87865 8.48898 2.87978 8.49618 2.8809C9.00178 2.95986 9.45338 3.35071 9.79658 3.86677C10.0658 4.28018 10.3278 4.70262 10.6046 5.10645C10.9466 5.61066 11.237 6.24008 11.2954 6.9479C11.2958 6.95072 11.2962 6.95354 11.2962 6.95692C11.2966 6.95974 11.2966 6.96313 11.297 6.96595C11.355 7.62188 11.1966 8.2434 10.8778 8.73183C10.6282 9.1052 10.3838 9.48477 10.1226 9.84235C9.75379 10.3516 9.24538 10.6207 8.73738 10.6477C8.72938 10.6483 8.72138 10.6489 8.71378 10.6489C8.06138 10.6945 7.46858 11.4165 7.45858 12.3679C7.44898 13.2653 7.98778 13.9719 8.62058 13.906C9.25018 13.84 9.81618 13.065 9.87498 12.1779L9.87458 12.179ZM8.65138 5.04384C8.61178 5.03933 8.57058 5.03764 8.53058 5.03933C7.96218 5.06245 7.37978 4.74718 6.99138 4.15442C6.81058 3.88088 6.63378 3.60226 6.45378 3.32816C6.10338 2.78164 5.92658 2.07213 5.99458 1.33724C5.99818 1.29776 6.00138 1.25659 6.00218 1.21711C6.02298 0.535796 5.68018 -0.139872 5.14938 0.0276354C4.88298 0.111107 4.53578 0.254359 4.34658 0.524515C4.14618 0.811026 4.08338 1.26843 4.01178 1.66097C4.00458 1.69989 3.99858 1.73768 3.99418 1.7749C3.90058 2.52559 3.61738 3.23904 3.25898 3.80304C3.07018 4.09463 2.87818 4.38227 2.68338 4.66596C2.30258 5.20909 1.80578 5.59599 1.26498 5.69357C1.23258 5.69921 1.20058 5.71782 1.16578 5.71839C0.481383 5.72459 0.129782 6.53393 0.0177822 7.26318C-0.0966178 8.00991 0.359784 8.50961 0.846984 8.51187C1.44378 8.51469 1.95218 7.81308 2.03458 6.98738C2.03538 6.9778 2.03618 6.96764 2.03738 6.95805C2.10058 6.24516 2.38618 5.61404 2.73258 5.10363C3.00938 4.70037 3.27298 4.28131 3.54058 3.86677C3.87938 3.35297 4.32978 2.94633 4.83378 2.87076C4.83618 2.87076 4.83818 2.87019 4.84019 2.86963C4.84259 2.86963 4.84458 2.86906 4.84658 2.8685C5.32098 2.79123 5.77138 3.02359 6.10938 3.50638C6.36978 3.8899 6.61818 4.28583 6.87098 4.67893C7.23058 5.23786 7.44298 5.96541 7.45658 6.7161C7.45698 6.72738 7.45698 6.73865 7.45738 6.74937C7.48378 7.71381 8.06538 8.48254 8.74739 8.48198C9.38859 8.48198 9.93338 7.77078 9.89019 6.84525C9.84778 5.9406 9.29379 5.11998 8.65018 5.04384H8.65138ZM4.86418 15.9792C4.85658 15.9775 4.84858 15.9764 4.84098 15.9753C4.30338 15.8901 3.81818 15.4637 3.45218 14.9172C3.23538 14.5867 3.02178 14.2523 2.79698 13.9325C2.42738 13.3995 2.11338 12.734 2.04618 11.9793C2.04578 11.976 2.04538 11.9731 2.04538 11.9697C2.04458 11.959 2.04298 11.9489 2.04218 11.9387C1.97178 11.236 2.13818 10.5648 2.50218 10.0668C2.68418 9.82486 2.86938 9.58742 3.04218 9.33249C3.43858 8.74537 4.00098 8.45096 4.56738 8.45603C4.57698 8.45603 4.58618 8.45603 4.59578 8.45603C5.27978 8.44757 5.86738 7.6653 5.88018 6.69297C5.89258 5.77309 5.37778 4.94627 4.70298 5.01169C4.04858 5.07486 3.48938 5.91634 3.44378 6.8272C3.44298 6.83961 3.44258 6.85202 3.44218 6.86499C3.41658 7.63542 3.20738 8.43799 2.81698 8.99071C2.63538 9.2462 2.45258 9.49944 2.26378 9.74534C1.88458 10.2264 1.38738 10.4441 0.880583 10.377C0.873783 10.3759 0.866985 10.3753 0.860185 10.3748C0.617785 10.3516 0.358583 10.4334 0.178983 10.685C0.0173834 10.9106 -0.0238166 11.2258 0.0189834 11.5349C0.163383 12.58 0.514983 12.9827 1.18658 13.1209C1.19978 13.1237 1.21258 13.1293 1.22538 13.1333C1.78138 13.2951 2.29458 13.704 2.69298 14.272C2.87538 14.5365 3.05538 14.8038 3.23298 15.0734C3.60018 15.6397 3.89418 16.343 4.00858 17.0976C4.01218 17.123 4.01698 17.149 4.02218 17.1749C4.15658 17.8788 4.64018 18.608 5.15298 18.7665C5.66978 18.9261 6.01778 18.2967 6.00178 17.6216C5.98178 16.7823 5.44338 16.088 4.86418 15.9792ZM12.0686 15.2584C11.8926 15.5844 11.6802 15.88 11.4738 16.171C11.2674 16.4614 11.0582 16.7604 10.827 17.0079C10.7498 17.0909 10.5514 17.3317 10.4434 17.2065C10.3282 17.0734 10.4346 16.7152 10.475 16.5714C10.6898 15.8032 11.189 15.1011 11.7322 14.7914C11.8374 14.7311 12.101 14.5692 12.2042 14.726C12.2994 14.871 12.125 15.1541 12.0686 15.2584ZM2.85978 16.5579C2.90018 16.7028 3.00578 17.0632 2.89098 17.2014C2.78258 17.3311 2.58658 17.0937 2.50698 17.0085C2.27618 16.7609 2.06698 16.4614 1.86018 16.1704C1.65378 15.8794 1.44138 15.5844 1.26538 15.2584C1.20738 15.1507 1.03538 14.8704 1.13058 14.7243C1.23298 14.5664 1.49858 14.7271 1.60258 14.7858C2.14498 15.092 2.64578 15.7903 2.85978 16.5579ZM12.0686 3.53345C12.1262 3.64061 12.299 3.92148 12.2066 4.07094C12.1066 4.23281 11.843 4.07828 11.737 4.01962C11.1886 3.71788 10.6902 3.00894 10.4766 2.23626C10.4358 2.08905 10.3286 1.7264 10.4438 1.58878C10.5514 1.46019 10.7498 1.70046 10.8266 1.78336C11.0578 2.03096 11.2674 2.32988 11.4738 2.6209C11.6802 2.91192 11.8926 3.20746 12.0686 3.53345ZM2.85778 2.25036C2.64538 3.02247 2.14538 3.72747 1.59698 4.02526C1.49258 4.08222 1.22698 4.23563 1.12738 4.07263C1.03498 3.92148 1.20578 3.64343 1.26538 3.53289C1.44138 3.20746 1.65338 2.91249 1.85978 2.62203C2.06658 2.33101 2.27578 2.03152 2.50698 1.78336C2.58618 1.6982 2.78258 1.46076 2.89018 1.59386C3.00498 1.73599 2.89858 2.10203 2.85778 2.25036ZM4.69418 13.9043C4.73338 13.9093 4.77418 13.9116 4.81338 13.911C5.36418 13.9026 5.95418 14.1801 6.34258 14.7514C6.52418 15.0165 6.70378 15.2849 6.88578 15.55C7.23538 16.0723 7.41298 16.7739 7.34218 17.4896C7.33818 17.5285 7.33538 17.568 7.33418 17.6075C7.31578 18.0795 7.49298 18.5956 7.82778 18.7479C8.20698 18.9205 8.74338 18.6424 9.02498 18.2894C9.18898 18.0841 9.25698 17.7936 9.31618 17.4947C9.37058 17.2211 9.33818 16.9589 9.39778 16.6814C9.52658 16.0819 9.76858 15.5241 10.0682 15.0633C10.259 14.77 10.4522 14.4795 10.6482 14.193C11.0254 13.6522 11.527 13.2585 12.0614 13.1423C12.0938 13.1355 12.1258 13.1203 12.1602 13.1135C12.879 12.9816 13.1982 12.2602 13.3154 11.5293C13.3642 11.2264 13.317 10.9049 13.159 10.6799C12.9818 10.4289 12.7242 10.3471 12.4834 10.3663C11.8974 10.4125 11.3774 11.1046 11.2926 11.9286C11.2918 11.9382 11.2906 11.9478 11.2898 11.9568C11.2278 12.6544 10.9394 13.2788 10.5974 13.7729C10.3174 14.1727 10.0534 14.5923 9.78218 15.0035C9.44098 15.5111 8.99618 15.9031 8.49538 15.9832C8.49338 15.9837 8.49098 15.9837 8.48898 15.9843C8.48698 15.9843 8.48458 15.9849 8.48258 15.9854C8.01418 16.0604 7.56938 15.8377 7.23098 15.369C6.97338 15.0018 6.72298 14.6251 6.46338 14.2607C6.10258 13.7582 5.89258 13.0633 5.87978 12.3555C5.87938 12.3448 5.87938 12.3341 5.87898 12.3239C5.85298 11.373 5.24938 10.6573 4.59338 10.6365C3.97818 10.6173 3.41258 11.2495 3.45938 12.1621C3.50458 13.0515 4.07138 13.8225 4.69418 13.9043Z" fill="#4D4D4D"/>
</g>
<defs>
<clipPath id="clip0_1_2">
<rect width="209" height="19" fill="white"/>
</clipPath>
</defs>
</svg>
