<svg width="21" height="25" viewBox="0 0 21 25" fill="none" xmlns="http://www.w3.org/2000/svg">
<path fill-rule="evenodd" clip-rule="evenodd" d="M10.7852 0C13.9416 0 16.4978 2.16886 16.5068 4.84764H18.4479C19.792 4.84764 20.8902 5.94559 20.8902 7.28948V22.5582C20.8902 23.9021 19.792 25 18.4479 25H3.12246C1.77833 25 0.680176 23.9021 0.680176 22.5582V7.28948C0.680176 5.94559 1.77833 4.84764 3.12246 4.84764H5.06665C5.07265 2.16886 7.63193 0 10.7852 0ZM15.8947 5.9245H17.6288C18.8289 5.9245 19.81 6.90243 19.81 8.10532V21.7423C19.81 22.9452 18.8289 23.9261 17.6288 23.9261H3.94154C2.74142 23.9261 1.76031 22.9452 1.76031 21.7423V8.10532C1.76031 6.90243 2.74142 5.9245 3.94154 5.9245H5.67565H6.86977H14.6975H15.8918H15.8947ZM6.4017 4.84764H15.1656C15.1596 2.79881 13.1974 1.13692 10.7822 1.13692C8.36693 1.13692 6.40777 2.79581 6.39877 4.84764H6.4017Z" fill="#4D4D4D"/>
</svg>
