<svg width="27" height="25" viewBox="0 0 27 25" fill="none" xmlns="http://www.w3.org/2000/svg">
<path d="M19.938 0C17.0507 0 14.6634 2.81127 13.6978 4.1367C12.7323 2.81127 10.3481 0 7.4608 0C3.7236 0 0.680176 3.59995 0.680176 8.0246C0.680176 10.4398 1.59575 12.6881 3.19875 14.2296C3.22062 14.2721 3.25187 14.3114 3.28312 14.3442L13.3167 24.833C13.4229 24.9443 13.5603 25 13.6978 25C13.8353 25 13.9759 24.9443 14.0821 24.833L24.4533 13.9776L24.5595 13.8696C24.6439 13.7845 24.7282 13.6993 24.822 13.5913C24.8626 13.5488 24.8939 13.5063 24.9189 13.4539C26.0813 11.9616 26.7218 10.0406 26.7218 8.0246C26.7218 3.59995 23.6783 0 19.9411 0H19.938ZM24.0127 12.8158C23.9971 12.8355 23.9846 12.855 23.9721 12.8746C23.9221 12.9368 23.8659 12.9892 23.8096 13.0448L13.6948 23.6288L4.1673 13.67C4.13605 13.6078 4.09241 13.5489 4.03929 13.4998C2.5894 12.1711 1.75813 10.178 1.75813 8.0246C1.75813 4.22503 4.31417 1.13569 7.45455 1.13569C10.5606 1.13569 13.2104 5.37702 13.2386 5.41957C13.4385 5.74356 13.951 5.74356 14.151 5.41957C14.1791 5.37702 16.829 1.13569 19.935 1.13569C23.0753 1.13569 25.6314 4.22503 25.6314 8.0246C25.6314 9.81476 25.0563 11.5166 24.0095 12.8158H24.0127Z" fill="#4D4D4D"/>
</svg>
