<svg width="34" height="25" viewBox="0 0 34 25" fill="none" xmlns="http://www.w3.org/2000/svg">
<path d="M11.5884 12.0156H8.22623H1.42727C1.12472 12.0156 0.880005 12.2317 0.880005 12.4986C0.880005 12.7656 1.12472 12.9815 1.42727 12.9815H8.22623H11.5884H18.3873L15.1849 15.81C14.9707 15.9989 14.9707 16.3048 15.1849 16.4938C15.2903 16.5867 15.4297 16.6348 15.5725 16.6348C15.7118 16.6348 15.8513 16.5867 15.96 16.4938L20.0972 12.8435C20.104 12.8375 20.1074 12.8284 20.1108 12.8224C20.1516 12.7804 20.1889 12.7384 20.2127 12.6845C20.2399 12.6245 20.2535 12.5615 20.2535 12.5015C20.2535 12.4985 20.2535 12.4955 20.2535 12.4955C20.2535 12.4355 20.2399 12.3756 20.2127 12.3186C20.1855 12.2586 20.1449 12.2076 20.0939 12.1626L15.9566 8.50932C15.7424 8.32036 15.3957 8.32036 15.1815 8.50932C14.9674 8.69829 14.9674 9.00423 15.1815 9.19019L18.3873 12.0187H11.5884V12.0156ZM19.2609 0C13.5566 0 8.43014 2.99646 6.21028 7.63352C6.0913 7.87947 6.22391 8.16138 6.49927 8.26635C6.77463 8.37133 7.09753 8.25447 7.21651 8.01152C9.2698 3.73438 13.9951 0.968946 19.2609 0.968946C26.4678 0.968946 32.332 6.14282 32.332 12.5015C32.332 18.8603 26.4678 24.0343 19.2609 24.0343C13.9917 24.0343 9.263 21.2688 7.21651 16.9886C7.09753 16.7427 6.77803 16.6287 6.49927 16.7307C6.22051 16.8357 6.0913 17.1176 6.21028 17.3635C8.43354 22.0006 13.5565 25 19.2642 25C27.0728 25 33.43 19.3942 33.43 12.5015C33.43 5.60892 27.0762 0.00307555 19.2642 0.00307555L19.2609 0Z" fill="#4D4D4D"/>
</svg>
