<svg width="34" height="25" viewBox="0 0 34 25" fill="none" xmlns="http://www.w3.org/2000/svg">
<path d="M18.9736 0C13.2695 0 8.14326 2.99681 5.9235 7.63442C5.80452 7.8804 5.93713 8.16233 6.21247 8.26732C6.48782 8.37231 6.81087 8.25544 6.92985 8.01246C8.98305 3.73482 13.708 0.969059 18.9736 0.969059C26.1802 0.969059 32.0441 6.14354 32.0441 12.503C32.0441 18.8625 26.1802 24.0371 18.9736 24.0371C13.7046 24.0371 8.97625 21.2713 6.92985 16.9906C6.81087 16.7446 6.49122 16.6307 6.21247 16.7327C5.93373 16.8377 5.80452 17.1197 5.9235 17.3627C8.14666 22.0033 13.2696 25 18.9771 25C26.7853 25 33.142 19.3935 33.142 12.5001C33.142 5.60665 26.7887 0 18.9771 0H18.9736ZM18.9736 9.10734C18.671 9.10734 18.4263 9.32328 18.4263 9.59026V12.017H15.6763C15.3738 12.017 15.1289 12.2331 15.1289 12.5001C15.1289 12.7671 15.3738 12.983 15.6763 12.983H18.4263V15.4097C18.4263 15.6767 18.671 15.8928 18.9736 15.8928C19.2727 15.8928 19.5208 15.6767 19.5208 15.4097V12.983H22.271C22.5735 12.983 22.8182 12.7671 22.8182 12.5001C22.8182 12.2331 22.5735 12.017 22.271 12.017H19.5208V9.59026C19.5208 9.32328 19.2761 9.10734 18.9736 9.10734ZM8.0992 15.8087C7.88504 15.9977 7.88504 16.3038 8.0992 16.4928C8.20458 16.5857 8.34383 16.6337 8.48661 16.6337C8.62598 16.6337 8.7654 16.5857 8.87418 16.4928L13.0111 12.8419C13.0179 12.8359 13.0213 12.827 13.0247 12.821C13.0655 12.782 13.103 12.7369 13.1268 12.6859C13.154 12.626 13.1675 12.563 13.1675 12.503C13.1675 12.5 13.1675 12.4971 13.1675 12.4941C13.1675 12.4341 13.154 12.374 13.1268 12.317C13.0996 12.257 13.0588 12.206 13.0078 12.161L8.87086 8.50739C8.6567 8.31841 8.30987 8.31841 8.09572 8.50739C7.88156 8.69637 7.88156 9.00229 8.09572 9.19127L11.3013 12.0201H1.13738C0.834837 12.0201 0.589966 12.236 0.589966 12.503C0.589966 12.77 0.834837 12.9859 1.13738 12.9859H11.2979L8.09572 15.8147L8.0992 15.8087Z" fill="#4D4D4D"/>
</svg>
