<svg width="209" height="13" viewBox="0 0 209 13" fill="none" xmlns="http://www.w3.org/2000/svg">
<g clip-path="url(#clip0_302_3)">
<mask id="mask0_302_3" style="mask-type:luminance" maskUnits="userSpaceOnUse" x="0" y="0" width="209" height="13">
<path d="M209 0H0V13H209V0Z" fill="white"/>
</mask>
<g mask="url(#mask0_302_3)">
<path d="M179.077 10.0942H207.318C208.305 10.0942 208.799 10.5708 208.799 11.5235C208.799 12.4169 208.305 12.8634 207.318 12.8634H179.493C177.611 12.8634 176.237 12.5508 175.373 11.9257C174.385 11.211 173.891 9.97538 173.891 8.2184V0.000386271H176.901V3.48424H197.781C198.275 3.48424 198.622 3.58843 198.823 3.79681C199.023 4.0052 199.123 4.34787 199.123 4.82406C199.123 5.74712 198.676 6.20865 197.781 6.20865H176.901V7.63798C176.901 8.59074 177.009 9.21591 177.225 9.51347C177.534 9.90087 178.151 10.0942 179.077 10.0942ZM142.363 10.0942H170.605C171.592 10.0942 172.086 10.5708 172.086 11.5235C172.086 12.4169 171.592 12.8634 170.605 12.8634H142.78C140.897 12.8634 139.524 12.5508 138.66 11.9257C137.672 11.211 137.178 9.97538 137.178 8.2184V0.000386271H140.187V3.48424H161.067C161.561 3.48424 161.908 3.58843 162.109 3.79681C162.31 4.0052 162.41 4.34787 162.41 4.82406C162.41 5.74712 161.962 6.20865 161.067 6.20865H140.187V7.63798C140.187 8.59074 140.295 9.21591 140.511 9.51347C140.82 9.90087 141.437 10.0942 142.363 10.0942ZM133.659 2.76918H105.372C104.477 2.76918 103.891 2.94785 103.613 3.30518C103.335 3.66252 103.197 4.30271 103.197 5.22577V12.8634H100.187V4.68977C100.187 2.93318 100.665 1.71221 101.622 1.02725C102.579 0.342288 103.968 0 105.789 0H133.613C134.601 0 135.095 0.461529 135.095 1.3842C135.095 2.30726 134.616 2.76918 133.659 2.76918ZM70.2326 10.0942H96.483C97.563 10.0942 98.1034 10.5557 98.1034 11.4788C98.1034 12.4019 97.4862 12.8634 96.2514 12.8634H70.279C65.6182 12.8634 63.2882 10.7344 63.2882 6.47646C63.2882 4.36253 63.9054 2.75451 65.1402 1.65278C66.375 0.551055 68.0878 0.000386271 70.2794 0.000386271H93.1962C94.5234 0.000386271 95.6734 0.342674 96.6454 1.02764C97.6178 1.7126 98.1038 2.68042 98.1038 3.9311C98.1038 5.15169 97.6178 6.11218 96.6454 6.8118C95.673 7.51181 94.5386 7.86144 93.2426 7.86144H74.0294C73.1034 7.86144 72.6406 7.38482 72.6406 6.43208C72.6406 5.53873 73.1346 5.09226 74.1222 5.09226H93.937C94.709 5.09226 95.0946 4.70521 95.0946 3.9311C95.0946 3.15661 94.6934 2.76956 93.891 2.76956H70.6962C67.795 2.76956 66.3442 3.99053 66.3442 6.43208C66.3442 8.87401 67.6402 10.0942 70.2326 10.0942ZM50.7418 0.000386271H60.2326C61.1278 0.000386271 61.575 0.476581 61.575 1.42935C61.575 2.3227 61.1278 2.76918 60.2326 2.76918H51.9918C51.683 2.76918 51.405 2.85832 51.1586 3.03737C50.9118 3.21604 50.5798 3.63281 50.163 4.28806C49.7462 4.94291 49.183 5.90341 48.473 7.16916C47.7634 8.43447 46.791 10.154 45.5566 12.3278C45.2526 12.6257 44.8806 12.8012 44.4454 12.8638H44.3066C43.7218 12.8638 43.1266 12.305 43.103 12.3278L38.427 4.28844C38.211 3.90139 37.9946 3.56643 37.779 3.28357C37.563 3.00071 37.3162 2.82976 37.0386 2.76995H28.0566C27.1306 2.76995 26.6678 2.30842 26.6678 1.38536C26.6678 0.462688 27.1306 0.00115881 28.0566 0.00115881H37.9182C39.1838 0.179828 40.2482 1.07317 41.1126 2.68119L44.307 8.39821L47.5014 2.68119C47.9642 1.84727 48.4582 1.19241 48.983 0.715828C49.5078 0.239251 50.0942 0.00115881 50.7422 0.00115881L50.7418 0.000386271ZM9.87458 8.333C9.87818 8.29708 9.87978 8.26006 9.87898 8.2238C9.87098 7.71632 10.0762 7.19386 10.4566 6.83496C10.641 6.65976 10.8246 6.48534 11.0034 6.30473C11.367 5.94817 11.8702 5.76796 12.3874 5.81735C12.4158 5.82005 12.4446 5.8216 12.4734 5.82237C12.9646 5.83318 13.435 5.47082 13.3146 4.96568C13.1958 4.46788 13.0434 3.89483 12.1546 3.90872C12.1262 3.90911 12.099 3.8983 12.0722 3.89483C11.5278 3.82691 11.0226 3.5564 10.6414 3.18092C10.4466 2.98489 10.255 2.78615 10.0662 2.58471C9.71058 2.19805 9.43299 1.71993 9.34019 1.20746C9.33459 1.17659 9.32738 1.14533 9.31858 1.11369C9.24338 0.847805 9.07058 0.60971 8.86938 0.417535C8.68058 0.237323 8.44219 0.0737038 8.18019 0.0173633C7.65539 -0.0957033 7.31658 0.363514 7.33218 0.821573C7.35178 1.40543 7.87978 1.8959 8.47499 1.96883C8.48178 1.9696 8.48898 1.97038 8.49618 1.97114C9.00178 2.02517 9.45338 2.29259 9.79658 2.64568C10.0658 2.92854 10.3278 3.21758 10.6046 3.49389C10.9466 3.83887 11.237 4.26953 11.2954 4.75383C11.2958 4.75576 11.2962 4.75769 11.2962 4.76C11.2966 4.76193 11.2966 4.76425 11.297 4.76618C11.355 5.21497 11.1966 5.64022 10.8778 5.97441C10.6282 6.22987 10.3838 6.48958 10.1226 6.73424C9.75379 7.08267 9.24538 7.2668 8.73738 7.28527C8.72938 7.28568 8.72138 7.28609 8.71378 7.28609C8.06138 7.31729 7.46858 7.81129 7.45858 8.46225C7.44898 9.07626 7.98778 9.55972 8.62058 9.51463C9.25018 9.46947 9.81618 8.93921 9.87498 8.33225L9.87458 8.333ZM8.65138 3.45105C8.61178 3.44796 8.57058 3.44681 8.53058 3.44796C7.96218 3.46378 7.37978 3.24807 6.99138 2.8425C6.81058 2.65534 6.63378 2.4647 6.45378 2.27716C6.10338 1.90323 5.92658 1.41777 5.99458 0.914954C5.99818 0.887941 6.00138 0.859772 6.00218 0.83276C6.02298 0.366597 5.68018 -0.0957019 5.14938 0.0189084C4.88298 0.0760206 4.53578 0.174035 4.34658 0.358879C4.14618 0.554913 4.08338 0.867873 4.01178 1.13645C4.00458 1.16308 3.99858 1.18894 3.99418 1.21441C3.90058 1.72804 3.61738 2.21619 3.25898 2.60208C3.07018 2.80159 2.87818 2.9984 2.68338 3.1925C2.30258 3.56411 1.80578 3.82884 1.26498 3.8956C1.23258 3.89946 1.20058 3.91219 1.16578 3.91258C0.481383 3.91682 0.129782 4.47058 0.0177822 4.96954C-0.0966178 5.48046 0.359784 5.82237 0.846984 5.82391C1.44378 5.82584 1.95218 5.34579 2.03458 4.78084C2.03538 4.77428 2.03618 4.76733 2.03738 4.76077C2.10058 4.273 2.38618 3.84119 2.73258 3.49196C3.00938 3.21604 3.27298 2.92932 3.54058 2.64568C3.87938 2.29414 4.32978 2.01591 4.83378 1.9642C4.83618 1.9642 4.83818 1.96381 4.84019 1.96343C4.84259 1.96343 4.84458 1.96304 4.84658 1.96266C5.32098 1.90979 5.77138 2.06877 6.10938 2.3991C6.36978 2.66151 6.61818 2.93241 6.87098 3.20137C7.23058 3.5838 7.44298 4.0816 7.45658 4.59523C7.45698 4.60294 7.45698 4.61066 7.45738 4.61799C7.48378 5.27787 8.06538 5.80384 8.74739 5.80346C9.38859 5.80346 9.93338 5.31685 9.89019 4.68359C9.84778 4.06462 9.29379 3.50314 8.65018 3.45105H8.65138ZM4.86418 10.9331C4.85658 10.932 4.84858 10.9312 4.84098 10.9305C4.30338 10.8722 3.81818 10.5804 3.45218 10.2065C3.23538 9.98037 3.02178 9.75157 2.79698 9.53276C2.42738 9.16808 2.11338 8.71274 2.04618 8.19636C2.04578 8.19411 2.04538 8.19212 2.04538 8.18979C2.04458 8.18247 2.04298 8.17556 2.04218 8.16858C1.97178 7.68779 2.13818 7.22855 2.50218 6.88781C2.68418 6.72227 2.86938 6.55981 3.04218 6.38539C3.43858 5.98367 4.00098 5.78224 4.56738 5.7857C4.57698 5.7857 4.58618 5.7857 4.59578 5.7857C5.27978 5.77992 5.86738 5.24468 5.88018 4.5794C5.89258 3.95001 5.37778 3.38429 4.70298 3.42905C4.04858 3.47227 3.48938 4.04802 3.44378 4.67124C3.44298 4.67973 3.44258 4.68822 3.44218 4.6971C3.41658 5.22424 3.20738 5.77336 2.81698 6.15154C2.63538 6.32635 2.45258 6.49962 2.26378 6.66786C1.88458 6.99701 1.38738 7.14596 0.880583 7.10005C0.873783 7.0993 0.866985 7.09889 0.860185 7.09855C0.617785 7.08267 0.358583 7.13864 0.178983 7.31079C0.0173834 7.46515 -0.0238166 7.68081 0.0189834 7.8923C0.163383 8.60737 0.514983 8.8829 1.18658 8.97746C1.19978 8.97937 1.21258 8.98321 1.22538 8.98594C1.78138 9.09665 2.29458 9.37642 2.69298 9.76505C2.87538 9.94603 3.05538 10.1289 3.23298 10.3134C3.60018 10.7008 3.89418 11.1821 4.00858 11.6984C4.01218 11.7157 4.01698 11.7335 4.02218 11.7512C4.15658 12.2329 4.64018 12.7318 5.15298 12.8402C5.66978 12.9494 6.01778 12.5188 6.00178 12.0569C5.98178 11.4826 5.44338 11.0076 4.86418 10.9331ZM12.0686 10.44C11.8926 10.663 11.6802 10.8653 11.4738 11.0644C11.2674 11.2631 11.0582 11.4676 10.827 11.637C10.7498 11.6938 10.5514 11.8585 10.4434 11.7729C10.3282 11.6818 10.4346 11.4367 10.475 11.3383C10.6898 10.8127 11.189 10.3323 11.7322 10.1204C11.8374 10.0792 12.101 9.9684 12.2042 10.0757C12.2994 10.1749 12.125 10.3686 12.0686 10.44ZM2.85978 11.3291C2.90018 11.4282 3.00578 11.6748 2.89098 11.7694C2.78258 11.8581 2.58658 11.6957 2.50698 11.6374C2.27618 11.468 2.06698 11.2631 1.86018 11.064C1.65378 10.8649 1.44138 10.663 1.26538 10.44C1.20738 10.3663 1.03538 10.1745 1.13058 10.0745C1.23298 9.96648 1.49858 10.0764 1.60258 10.1166C2.14498 10.3261 2.64578 10.8039 2.85978 11.3291ZM12.0686 2.41762C12.1262 2.49094 12.299 2.68312 12.2066 2.78538C12.1066 2.89613 11.843 2.7904 11.737 2.75027C11.1886 2.54381 10.6902 2.05875 10.4766 1.53007C10.4358 1.42935 10.3286 1.18122 10.4438 1.08706C10.5514 0.999077 10.7498 1.16347 10.8266 1.22019C11.0578 1.3896 11.2674 1.59413 11.4738 1.79325C11.6802 1.99237 11.8926 2.19458 12.0686 2.41762ZM2.85778 1.53972C2.64538 2.06801 2.14538 2.55037 1.59698 2.75413C1.49258 2.7931 1.22698 2.89806 1.12738 2.78654C1.03498 2.68312 1.20578 2.49287 1.26538 2.41724C1.44138 2.19458 1.65338 1.99276 1.85978 1.79402C2.06658 1.5949 2.27578 1.38999 2.50698 1.22019C2.58618 1.16193 2.78258 0.999467 2.89018 1.09054C3.00498 1.18778 2.89858 1.43823 2.85778 1.53972ZM4.69418 9.51347C4.73338 9.51689 4.77418 9.51846 4.81338 9.51805C5.36418 9.51231 5.95418 9.70217 6.34258 10.0931C6.52418 10.2744 6.70378 10.4581 6.88578 10.6395C7.23538 10.9968 7.41298 11.4769 7.34218 11.9666C7.33818 11.9932 7.33538 12.0202 7.33418 12.0472C7.31578 12.3702 7.49298 12.7233 7.82778 12.8275C8.20698 12.9456 8.74338 12.7553 9.02498 12.5138C9.18898 12.3733 9.25698 12.1746 9.31618 11.9701C9.37058 11.7829 9.33818 11.6035 9.39778 11.4136C9.52658 11.0034 9.76858 10.6218 10.0682 10.3065C10.259 10.1058 10.4522 9.90703 10.6482 9.711C11.0254 9.34098 11.527 9.07161 12.0614 8.9921C12.0938 8.98745 12.1258 8.97705 12.1602 8.97239C12.879 8.88215 13.1982 8.38856 13.3154 7.88847C13.3642 7.68122 13.317 7.46125 13.159 7.3073C12.9818 7.13556 12.7242 7.07959 12.4834 7.09273C11.8974 7.12434 11.3774 7.59788 11.2926 8.16167C11.2918 8.16824 11.2906 8.17481 11.2898 8.18097C11.2278 8.65827 10.9394 9.08549 10.5974 9.42356C10.3174 9.69711 10.0534 9.98421 9.78218 10.2656C9.44098 10.6129 8.99618 10.8811 8.49538 10.9359C8.49338 10.9362 8.49098 10.9362 8.48898 10.9366C8.48698 10.9366 8.48458 10.937 8.48258 10.9374C8.01418 10.9887 7.56938 10.8363 7.23098 10.5156C6.97338 10.2644 6.72298 10.0066 6.46338 9.75732C6.10258 9.41351 5.89258 8.93805 5.87978 8.45376C5.87938 8.44644 5.87938 8.43912 5.87898 8.43214C5.85298 7.78153 5.24938 7.29184 4.59338 7.27761C3.97818 7.26447 3.41258 7.69703 3.45938 8.32144C3.50458 8.92997 4.07138 9.4575 4.69418 9.51347Z" fill="#4D4D4D"/>
</g>
</g>
<defs>
<clipPath id="clip0_302_3">
<rect width="209" height="13" fill="white"/>
</clipPath>
</defs>
</svg>
