<svg width="40" height="40" viewBox="0 0 40 40" fill="none" xmlns="http://www.w3.org/2000/svg">
<g clip-path="url(#clip0_332_2)">
<mask id="mask0_332_2" style="mask-type:luminance" maskUnits="userSpaceOnUse" x="0" y="0" width="40" height="40">
<path d="M40 0H0V40H40V0Z" fill="white"/>
</mask>
<g mask="url(#mask0_332_2)">
<path d="M39.9039 11.7624C39.8109 9.63552 39.4659 8.17439 38.9738 6.90845C38.4666 5.56452 37.6834 4.36178 36.6602 3.36282C35.661 2.34587 34.4486 1.55678 33.1192 1.05581C31.847 0.563832 30.3916 0.218966 28.267 0.12597C26.1246 0.0239754 25.4435 0 20.0121 0C14.5808 0 13.8995 0.0238934 11.7659 0.116889C9.63835 0.209884 8.17711 0.55475 6.9108 1.04673C5.56646 1.5537 4.36307 2.33665 3.36382 3.3596C2.34657 4.35855 1.5574 5.57073 1.05627 6.89966C0.564142 8.1716 0.219177 9.62651 0.126154 11.7504C0.0241291 13.8923 0 14.5732 0 20.0029C0 25.4327 0.0240463 26.1135 0.11707 28.2464C0.210093 30.3733 0.555212 31.8344 1.04733 33.1003C1.55446 34.4443 2.34364 35.647 3.3609 36.646C4.36015 37.6629 5.57238 38.452 6.90171 38.953C8.17403 39.445 9.6295 39.7898 11.754 39.8828C13.8875 39.9758 14.5687 40 20.0001 40C25.4314 40 26.1126 39.9788 28.2462 39.8828C30.3707 39.7898 31.832 39.445 33.0983 38.953C35.787 37.915 37.9114 35.7882 38.9527 33.1003C39.4448 31.8254 39.79 30.3733 39.8829 28.2464C39.976 26.1135 40 25.4327 40 20.0029C40 14.5732 39.991 13.8921 39.8979 11.7592L39.9039 11.7624ZM33.0952 9.32328C33.0952 10.6462 32.021 11.7232 30.6946 11.7232C29.3713 11.7232 28.2941 10.6492 28.2941 9.32328C28.2941 7.99734 29.3683 6.92339 30.6946 6.92339C32.021 6.92339 33.0952 7.99734 33.0952 9.32328ZM20.009 9.72843C14.3346 9.72843 9.73151 14.3302 9.73151 20.0029C9.73151 25.6757 14.3346 30.2774 20.009 30.2774C25.6834 30.2774 30.2866 25.6757 30.2866 20.0029C30.2866 14.3302 25.6834 9.72843 20.009 9.72843ZM20.009 26.6685C16.3301 26.6685 13.3413 23.6838 13.3413 20.0029C13.3413 16.3221 16.3271 13.3373 20.009 13.3373C23.691 13.3373 26.6768 16.3221 26.6768 20.0029C26.6768 23.6838 23.691 26.6685 20.009 26.6685ZM36.297 28.0905C36.21 30.0434 35.883 31.0994 35.6099 31.8014C34.9378 33.5443 33.5544 34.9273 31.8109 35.5992C31.1088 35.8722 30.0435 36.1992 28.099 36.2862C25.9895 36.3792 25.3562 36.4031 20.018 36.4031C14.6797 36.4031 14.0375 36.3792 11.937 36.2862C9.9836 36.1992 8.92723 35.8722 8.22509 35.5992C7.35787 35.2783 6.56864 34.7711 5.92647 34.1052C5.26031 33.4572 4.75318 32.6742 4.4321 31.8072C4.15903 31.1053 3.83194 30.0403 3.74492 28.0964C3.6519 25.9875 3.628 25.3546 3.628 20.0179C3.628 14.6811 3.6489 14.0393 3.74492 11.9394C3.83194 9.98645 4.15903 8.93047 4.4321 8.2285C4.75318 7.36155 5.26032 6.57254 5.93248 5.93057C6.58064 5.2676 7.36388 4.75771 8.2311 4.43972C8.93627 4.16674 9.99856 3.83681 11.943 3.74982C14.0526 3.65682 14.6857 3.63264 20.024 3.63264C25.3683 3.63264 26.0045 3.65682 28.105 3.74982C30.0585 3.83681 31.1148 4.16374 31.817 4.43972C32.6842 4.76071 33.4734 5.2676 34.1156 5.93057C34.7788 6.57854 35.2889 7.36155 35.6099 8.2285C35.883 8.93047 36.21 9.99545 36.297 11.9394C36.39 14.0513 36.414 14.6811 36.414 20.0179C36.414 25.3546 36.39 25.9786 36.297 28.0905Z" fill="#4D4D4D"/>
</g>
</g>
<defs>
<clipPath id="clip0_332_2">
<rect width="40" height="40" fill="white"/>
</clipPath>
</defs>
</svg>
