<svg width="40" height="40" viewBox="0 0 40 40" fill="none" xmlns="http://www.w3.org/2000/svg">
<g clip-path="url(#clip0_332_8)">
<mask id="mask0_332_8" style="mask-type:luminance" maskUnits="userSpaceOnUse" x="0" y="0" width="40" height="40">
<path d="M40 0H0V40H40V0Z" fill="white"/>
</mask>
<g mask="url(#mask0_332_8)">
<path d="M27.7917 13.0763L14.0024 21.371C13.7654 21.509 13.6663 21.7878 13.7473 22.0428L15.5446 28.4837C15.6046 28.6607 15.8595 28.6394 15.8805 28.4444L16.2736 24.0018C16.2946 23.6658 16.4507 23.3507 16.7087 23.1317L27.9687 13.3162C28.0888 13.1962 27.9298 12.9802 27.7917 13.0792V13.0763ZM33.0873 0H6.91272C3.09933 0 0 3.10179 0 6.91459V33.0854C0 36.8982 3.09933 39.9999 6.91272 39.9999H33.0873C36.9007 39.9999 40 36.8982 40 33.0854V6.91459C40 3.10179 36.8797 0 33.0873 0ZM34.2335 8.72945L29.1749 31.7024C28.9978 32.4733 28.0889 32.7882 27.4768 32.2932L21.5512 27.5925C21.1161 27.2355 20.4651 27.2955 20.09 27.7305L17.0477 31.2465C16.5136 31.8795 15.4876 31.6604 15.2506 30.8894L12.5623 22.6129C12.4453 22.2769 12.1692 22.0009 11.8332 21.923L6.51965 20.5188C5.55056 20.2638 5.45156 18.9201 6.38166 18.5241L32.7933 7.52042C33.5824 7.20244 34.4134 7.89556 34.2365 8.72652L34.2335 8.72945Z" fill="#4D4D4D"/>
</g>
</g>
<defs>
<clipPath id="clip0_332_8">
<rect width="40" height="40" fill="white"/>
</clipPath>
</defs>
</svg>
