<svg width="169" height="121" viewBox="0 0 169 121" fill="none" xmlns="http://www.w3.org/2000/svg">
<path d="M30.3183 0C13.5356 0 0 13.5376 0 30.2354V90.7451C0 107.482 13.5748 120.98 30.3183 120.98H138.643C155.425 120.98 168.961 107.443 168.961 90.7451V30.2354C168.961 13.4986 155.386 0 138.643 0L30.3183 0ZM67.5218 33.9026C65.5266 34.0587 64.0009 35.6972 64.0009 37.6869V83.2935C64.0009 85.2442 65.4875 86.8828 67.4435 87.0778C67.6 87.0778 67.7174 87.1168 67.8738 87.1168C68.4998 87.1168 69.0866 86.9608 69.6343 86.6877L111.532 63.9039C112.784 63.2407 113.566 61.9532 113.566 60.5487C113.566 59.1443 112.784 57.8568 111.532 57.1936L69.6343 34.4098C69.0475 34.0977 68.4215 33.9416 67.7565 33.9416C67.6782 33.9416 67.5609 33.9416 67.4826 33.9416L67.5218 33.9026ZM30.3183 4.33048H138.643C153.078 4.33048 164.658 15.8394 164.658 30.2744V90.7841C164.658 105.18 153.117 116.728 138.643 116.728H30.3183C15.8829 116.728 4.30324 105.219 4.30324 90.7841V30.2744C4.30324 15.8784 15.8438 4.33048 30.3183 4.33048Z" fill="#4D4D4D"/>
</svg>
