<svg width="131" height="186" viewBox="0 0 131 186" fill="none" xmlns="http://www.w3.org/2000/svg">
<path d="M114.256 61.522C104.793 45.6086 100.029 35.7437 97.8329 29.1596C97.6166 23.4571 98.5427 16.5215 99.2693 9.27901C99.3414 8.52575 99.186 7.84504 98.8809 7.20337C98.831 6.96344 98.7146 6.7515 98.5316 6.59527C95.5643 2.3212 84.294 0.652827 75.736 0C75.3311 1.28334 74.8541 2.93496 74.3161 5.04967L76.152 4.77069C76.2186 4.68141 76.2463 4.5754 76.324 4.4917C77.5275 3.19163 79.5519 3.12465 80.8442 4.33545C82.1365 5.54625 82.2032 7.5828 80.9996 8.88287C80.7057 9.20091 80.3619 9.44087 79.9903 9.60826C80.5172 10.1607 80.861 10.8972 80.8943 11.7286C80.9553 13.5029 79.5687 14.9927 77.8105 15.0541C76.6236 15.0931 75.5809 14.4738 74.9986 13.5252L72.5859 12.8389C72.1144 15.2103 71.6318 17.8662 71.1438 20.8569L73.1072 20.2712C73.146 20.2265 73.1571 20.1707 73.2014 20.1261C74.3717 18.8651 76.3408 18.7981 77.5998 19.9754C78.8533 21.1527 78.9198 23.1335 77.7495 24.4001C77.4112 24.7684 77.0006 24.9972 76.568 25.1646C77.2335 25.717 77.6773 26.5316 77.7105 27.4689C77.7716 29.1931 76.4238 30.6438 74.7045 30.7052C73.5286 30.7443 72.4915 30.1138 71.9313 29.1596L70.0123 28.6016C69.6518 31.2855 69.2967 34.1702 68.9528 37.2614L70.2176 36.8261C70.3507 36.5583 70.4727 36.2904 70.6779 36.0672C71.8871 34.7672 73.9059 34.7003 75.1982 35.9111C76.4849 37.1275 76.5514 39.1585 75.3533 40.4586C75.0261 40.8157 74.6269 41.0555 74.2054 41.2229C75.1704 41.7474 75.847 42.7518 75.8858 43.9347C75.9468 45.7091 74.5657 47.1988 72.802 47.2602C71.4764 47.3048 70.3174 46.5293 69.7905 45.3911L68.2043 44.6042C67.9492 47.2937 67.7105 50.1226 67.4831 53.0798L69.4799 52.3991C69.6019 52.1424 69.7239 51.8859 69.9291 51.6683C71.0495 50.4575 72.9298 50.3961 74.1333 51.5232C75.3369 52.6503 75.3978 54.5473 74.2774 55.7525C73.9613 56.0985 73.5674 56.3217 73.157 56.4779C74.0722 56.9633 74.7378 57.8728 74.7711 58.9888C74.8266 60.6404 73.5397 62.0242 71.898 62.08C70.6667 62.119 69.5853 61.4048 69.0972 60.3446L67.0338 59.3236C66.5402 66.6777 65.4921 66.2089 65.4921 66.2089C65.4921 66.2089 64.4492 66.6777 63.95 59.3236L61.8869 60.3446C61.3988 61.4048 60.3171 62.1246 59.0858 62.08C57.4441 62.0242 56.1575 60.6404 56.213 58.9888C56.2518 57.8784 56.9117 56.9633 57.8268 56.4779C57.4164 56.3217 57.0281 56.0929 56.7064 55.7525C55.5861 54.5417 55.6472 52.6503 56.8508 51.5232C58.0543 50.3961 59.9346 50.4575 61.055 51.6683C61.2602 51.8859 61.3767 52.1424 61.5043 52.3991L63.5007 53.0798C63.2733 50.117 63.0349 47.2937 62.7798 44.6042L61.1936 45.3911C60.6723 46.5293 59.5074 47.2993 58.1819 47.2602C56.4181 47.1988 55.037 45.7091 55.0981 43.9347C55.1369 42.7518 55.8137 41.753 56.7787 41.2229C56.3572 41.0555 55.9633 40.8101 55.6305 40.4586C54.4269 39.1585 54.4936 37.1275 55.7859 35.9111C57.0727 34.7003 59.097 34.7672 60.3062 36.0672C60.5169 36.296 60.6389 36.5639 60.772 36.8261L62.0367 37.2614C61.6928 34.1702 61.3433 31.2855 60.9772 28.6016L59.0582 29.1596C58.498 30.1138 57.4609 30.7443 56.285 30.7052C54.5712 30.6438 53.2235 29.1987 53.279 27.4689C53.3122 26.5316 53.756 25.717 54.4215 25.1646C53.9834 24.9972 53.5728 24.7628 53.24 24.4001C52.0697 23.1391 52.1307 21.1583 53.3897 19.9754C54.6432 18.7981 56.6123 18.8651 57.7881 20.1261C57.8269 20.1651 57.838 20.2265 57.8823 20.2712L59.8458 20.8569C59.3632 17.8662 58.8751 15.2103 58.4037 12.8389L55.9912 13.5252C55.4033 14.4682 54.3604 15.0931 53.179 15.0541C51.4153 14.9927 50.0342 13.5029 50.0952 11.7286C50.123 10.9028 50.467 10.1662 50.9995 9.60826C50.6279 9.44087 50.2838 9.20091 49.9899 8.88287C48.7808 7.58838 48.853 5.55183 50.1453 4.33545C51.4376 3.12465 53.4565 3.19163 54.6656 4.4917C54.7432 4.5754 54.771 4.68141 54.8375 4.77069L56.6734 5.04967C56.1409 2.93496 55.6584 1.28334 55.2535 0C46.7509 0.647247 35.5639 2.30439 32.5134 6.52266C32.2971 6.69563 32.1473 6.93556 32.1029 7.22012C31.7978 7.85621 31.6481 8.53691 31.7202 9.28459C32.4468 16.5271 33.3674 23.4683 33.1566 29.1652C30.9603 35.7549 26.1962 45.6086 16.7396 61.5164C-5.61216 98.1026 -5.57893 138.807 16.8339 182.485C16.8672 182.546 16.9226 182.568 16.9614 182.624C16.9725 182.647 16.9948 182.658 17.0059 182.674C17.1112 182.797 17.222 182.903 17.3606 182.97C17.466 183.026 17.5714 183.082 17.6935 183.104C28.2648 185.035 38.936 186 49.5628 186C53.7059 186 57.8436 185.855 61.959 185.559C62.3749 185.526 62.7078 185.269 62.8797 184.917L63.1348 185.096C64.0555 183.74 65.8581 137.869 53.9278 119.752C55.4864 118.848 56.8951 117.782 58.1596 116.571C58.7808 116.828 59.9733 117.169 61.9368 117.169C62.9185 117.169 64.1055 117.074 65.4921 116.845C66.8786 117.074 68.0598 117.169 69.0471 117.169C71.016 117.169 72.203 116.823 72.8242 116.566C74.0943 117.777 75.4976 118.843 77.0617 119.746C65.1315 137.864 66.9286 183.735 67.8493 185.09L68.1098 184.912C68.2817 185.263 68.6146 185.52 69.0306 185.554C73.1515 185.849 77.2891 185.994 81.4267 185.994C92.0535 185.994 102.73 185.023 113.301 183.098C113.423 183.076 113.534 183.02 113.634 182.965C113.767 182.903 113.862 182.803 113.962 182.697C113.984 182.669 114.017 182.647 114.034 182.613C114.073 182.563 114.128 182.541 114.156 182.479C136.58 138.801 136.613 98.1026 114.267 61.522H114.256ZM79.7793 6.52824C79.6906 5.90332 79.1083 5.46252 78.5038 5.55738L65.4921 7.39313L52.4803 5.55738C51.8647 5.4681 51.2878 5.90332 51.1991 6.52824C51.1103 7.14759 51.5428 7.72791 52.164 7.81161L59.8403 8.89404L52.996 10.7242C52.3914 10.886 52.0311 11.5109 52.1919 12.1191C52.325 12.6269 52.7852 12.9673 53.2844 12.9673C53.3787 12.9673 53.4787 12.9561 53.5785 12.9282L65.4921 9.74775L77.4056 12.9282C77.5054 12.9561 77.5997 12.9673 77.694 12.9673C78.1987 12.9673 78.6534 12.6269 78.7865 12.1191C78.9474 11.5109 78.587 10.886 77.9825 10.7242L71.1381 8.89404L78.8144 7.80602C79.4301 7.72233 79.8681 7.14201 79.7793 6.52266V6.52824ZM76.2963 21.6493C76.1244 21.0467 75.4975 20.7007 74.893 20.8793L65.4864 23.6524L56.0798 20.8737C55.4808 20.7063 54.8485 21.0411 54.671 21.6493C54.4935 22.2575 54.8374 22.8881 55.442 23.0666L61.4709 24.8465L56.0687 26.4702C55.4697 26.6487 55.126 27.2848 55.309 27.8874C55.4588 28.384 55.908 28.702 56.3961 28.702C56.5015 28.702 56.6122 28.6854 56.7175 28.6519L65.4864 26.0182L74.2552 28.6575C74.3661 28.691 74.4772 28.7076 74.5826 28.7076C75.0762 28.7076 75.5199 28.3896 75.6697 27.893C75.8472 27.2904 75.5088 26.6543 74.9098 26.4757L69.5021 24.8521L75.531 23.0722C76.1356 22.8936 76.4792 22.2631 76.3018 21.6549L76.2963 21.6493ZM74.0721 37.8695C73.8614 37.278 73.218 36.96 72.6246 37.172L65.797 39.5881C65.6916 39.5937 65.5808 39.5993 65.4809 39.6328C65.3811 39.5993 65.2757 39.5937 65.1703 39.5881L58.3427 37.172C57.7493 36.96 57.106 37.278 56.8952 37.8695C56.69 38.4609 57.0006 39.1138 57.5885 39.3259L62.0922 40.9217L57.7992 43.0085C57.2335 43.2819 57.0004 43.9626 57.2722 44.5262C57.4663 44.9335 57.8714 45.1734 58.2929 45.1734C58.4593 45.1734 58.6255 45.1344 58.7863 45.0618L65.4642 41.8256C65.4753 41.8256 65.481 41.82 65.4921 41.8144C65.5031 41.82 65.5143 41.8256 65.5254 41.8256L72.1921 45.0618C72.3529 45.1399 72.5191 45.1734 72.6855 45.1734C73.107 45.1734 73.5121 44.9335 73.7062 44.5262C73.978 43.9571 73.7394 43.2763 73.1792 43.0085L68.8808 40.9217L73.3845 39.3259C73.9724 39.1194 74.283 38.4665 74.0778 37.8751L74.0721 37.8695ZM73.1681 53.3366C72.9685 52.7396 72.3252 52.4215 71.7317 52.6168L65.4864 54.7259L59.2413 52.6168C58.6534 52.4215 58.0045 52.7396 57.8049 53.3366C57.6052 53.9336 57.9267 54.5808 58.5201 54.7816L62.6024 56.1598L58.6867 58.057C58.1209 58.3304 57.8879 59.0111 58.1596 59.5803C58.3538 59.9876 58.7588 60.2219 59.1804 60.2219C59.3468 60.2219 59.5074 60.1884 59.6738 60.1103L65.4864 57.2925L71.2989 60.1103C71.4542 60.1884 71.6262 60.2219 71.7926 60.2219C72.2142 60.2219 72.619 59.982 72.8131 59.5803C73.0848 59.0111 72.8465 58.3304 72.2863 58.057L68.376 56.1598L72.4583 54.7816C73.0518 54.5808 73.3678 53.9336 73.1681 53.3366ZM2.36896 114.853C4.24917 112.722 6.19595 110.785 8.20373 109.056C8.59752 110.612 9.04662 112.13 9.56243 113.581C10.3223 115.595 11.1764 117.487 12.0916 119.222C13.0178 120.952 13.9552 122.542 14.9092 123.953C16.0628 125.678 17.1611 127.134 18.165 128.367C16.5676 129.578 13.8055 131.687 10.2392 134.454C7.0445 136.932 5.10338 138.081 3.97193 138.639C2.57979 130.577 2.04727 122.642 2.36896 114.853ZM61.1159 183.311C47.006 184.265 32.7075 183.472 18.5809 180.934C18.0097 179.806 17.4441 178.685 16.9005 177.563C25.5306 178.83 34.2162 179.494 42.8907 179.494C49.0416 179.494 55.1812 179.165 61.2933 178.523C61.2434 180.688 61.1658 182.334 61.1159 183.316V183.311ZM61.3434 176.219C46.224 177.826 30.8882 177.457 15.7522 175.103C15.2864 174.104 14.8317 173.111 14.3935 172.118C21.3542 172.943 28.3536 173.379 35.3476 173.379C44.0498 173.379 52.7464 172.726 61.3821 171.442C61.3821 173.167 61.371 174.774 61.3488 176.224L61.3434 176.219ZM61.3545 169.144C45.442 171.532 29.2908 171.721 13.3284 169.702C12.9291 168.753 12.5466 167.81 12.1639 166.873C17.3608 167.33 22.5742 167.587 27.7934 167.587C38.9693 167.587 50.1674 166.51 61.2435 164.401C61.2989 166.047 61.3323 167.631 61.3545 169.149V169.144ZM61.1603 162.102C44.7043 165.266 27.9764 166.091 11.4427 164.529C11.3762 164.524 11.3152 164.546 11.2542 164.551C10.8993 163.631 10.5498 162.716 10.217 161.801C13.567 161.99 16.9171 162.108 20.2782 162.108C33.8445 162.108 47.4553 160.528 60.9052 157.421C61.0106 159.011 61.0938 160.573 61.1603 162.102ZM60.7387 155.122C43.7502 159.083 26.49 160.545 9.40725 159.48C8.88589 157.962 8.38662 156.45 7.92073 154.943C11.2319 155.261 20.0895 155.842 33.2677 154.569C47.9267 153.163 58.215 150.97 60.3116 150.502C60.478 152.047 60.6168 153.593 60.7332 155.122H60.7387ZM64.0166 95.7089C63.0349 112.956 54.0832 121.381 36.651 121.482C36.0243 121.487 35.5194 122.001 35.5249 122.631C35.5249 123.256 36.0352 123.764 36.6564 123.764H36.6621C42.6355 123.73 47.7049 122.726 51.8813 120.79C54.183 124.188 55.9466 128.585 57.2833 133.489C53.8945 133.087 43.3399 131.849 36.651 131.051C32.3359 130.537 27.7878 129.472 24.4878 128.596C24.1772 128.272 23.8056 127.882 23.3398 127.352C22.1473 125.99 20.4556 123.987 18.7196 121.387C17.8377 120.092 16.9724 118.636 16.1238 117.068C15.2863 115.495 14.5043 113.782 13.811 111.974C13.151 110.155 12.5409 108.252 12.1582 106.271C12.136 106.182 12.1306 106.082 12.1084 105.992C32.9904 90.9773 57.9766 94.3642 64.0665 95.4913C64.0443 95.5638 64.0111 95.6364 64.0055 95.7145L64.0166 95.7089ZM79.086 120.784C83.268 122.726 88.3375 123.73 94.3109 123.758H94.3163C94.9375 123.758 95.4478 123.25 95.4478 122.626C95.4533 121.995 94.9487 121.482 94.322 121.476C76.8898 121.376 67.9436 112.95 66.9564 95.7034C66.9508 95.6252 66.9229 95.5582 66.9063 95.4857C73.0073 94.3586 97.988 90.9773 118.859 105.987C118.842 106.076 118.831 106.176 118.809 106.266C118.426 108.247 117.811 110.149 117.156 111.968C116.457 113.776 115.681 115.483 114.844 117.063C113.995 118.636 113.13 120.092 112.253 121.381C110.512 123.987 108.826 125.984 107.633 127.346C107.167 127.87 106.79 128.267 106.485 128.59C103.185 129.466 98.6371 130.532 94.322 131.045C87.6331 131.843 77.0838 133.082 73.6894 133.484C75.0261 128.573 76.79 124.182 79.0917 120.784H79.086ZM112.381 180.934C98.2544 183.472 83.9669 184.27 69.8514 183.311C69.8015 182.329 69.7295 180.682 69.674 178.518C75.7861 179.159 81.9258 179.488 88.0767 179.488C96.7456 179.488 105.431 178.83 114.061 177.558C113.518 178.679 112.952 179.806 112.381 180.928V180.934ZM115.215 175.103C100.074 177.457 84.7377 177.831 69.6239 176.219C69.6017 174.774 69.5853 173.161 69.5909 171.437C78.221 172.72 86.9177 173.373 95.6254 173.373C102.619 173.373 109.613 172.938 116.579 172.112C116.141 173.111 115.686 174.104 115.22 175.103H115.215ZM117.633 169.702C101.671 171.721 85.5198 171.532 69.6128 169.144C69.6295 167.626 69.6685 166.041 69.7184 164.395C80.8001 166.504 91.9924 167.576 103.168 167.576C108.387 167.576 113.601 167.33 118.798 166.862C118.415 167.81 118.038 168.753 117.633 169.696V169.702ZM119.713 164.557C119.652 164.551 119.591 164.529 119.525 164.535C102.996 166.097 86.2741 165.271 69.807 162.108C69.8736 160.579 69.9567 159.016 70.0621 157.426C83.5065 160.534 97.1228 162.113 110.689 162.113C114.05 162.113 117.4 162.002 120.75 161.806C120.418 162.721 120.068 163.636 119.713 164.557ZM121.56 159.485C104.477 160.562 87.2171 159.089 70.2287 155.127C70.3507 153.599 70.4837 152.059 70.6501 150.507C72.7521 150.976 83.0351 153.163 97.6996 154.575C110.883 155.847 119.735 155.267 123.047 154.943C122.581 156.455 122.081 157.967 121.56 159.485ZM120.728 134.466C117.162 131.704 114.4 129.595 112.802 128.378C113.806 127.145 114.91 125.689 116.058 123.965C117.012 122.553 117.949 120.957 118.876 119.233C119.791 117.498 120.645 115.606 121.405 113.592C121.921 112.147 122.37 110.624 122.764 109.067C124.771 110.796 126.718 112.733 128.598 114.864C128.92 122.653 128.388 130.588 126.996 138.65C125.875 138.098 123.928 136.943 120.734 134.466H120.728Z" fill="#4D4D4D"/>
</svg>
