<svg width="102" height="186" viewBox="0 0 102 186" fill="none" xmlns="http://www.w3.org/2000/svg">
<path d="M99.4947 145.2C97.3059 136.166 93.728 127.512 88.857 119.471C86.81 114.209 85.6759 108.713 85.4888 103.122C85.2677 96.3982 86.4017 89.7804 88.8684 83.4417C89.8947 81.511 96.7674 67.5613 88.8174 53.3103C82.8181 42.5522 72.4184 38.7802 67.9444 37.6084V30.2932C67.9444 29.4786 67.2694 28.8145 66.4415 28.8145H64.4286V17.0633C65.1544 15.4452 66.2034 13.9441 67.4906 12.6998C68.8628 11.3774 70.4675 10.3395 72.2651 9.62531C72.8321 9.39653 73.2065 8.85531 73.2065 8.25826V1.47862C73.2065 0.663952 72.5374 0 71.7038 0H10.2814C9.9695 0 9.66327 0.0948526 9.4081 0.273409C7.25899 1.78556 5.37618 3.60457 3.80546 5.68029C2.15535 7.87318 0.896595 10.3061 0.0687063 12.8952C-0.0730556 13.3416 0.0064086 13.8325 0.289932 14.212C0.573456 14.5914 1.02136 14.8146 1.49768 14.8146H12.0276C12.7024 14.8146 13.2867 14.3737 13.4738 13.7376C13.7743 12.683 14.2791 11.7122 14.9595 10.864C15.2884 10.4511 15.6626 10.0717 16.0709 9.73129H34.5451C36.2349 10.4399 37.7548 11.4388 39.059 12.6942C40.3689 13.9553 41.3895 15.4284 42.121 17.0578V28.8089H40.1078C39.28 28.8089 38.6052 29.473 38.6052 30.2876V38.1162C33.5528 39.7344 24.7978 43.7854 19.4845 53.3047C11.5402 67.5445 18.4013 81.511 19.4333 83.4417C21.9 89.7804 23.034 96.3982 22.8129 103.122C22.6258 108.713 21.4919 114.209 19.4505 119.471C14.5852 127.506 11.007 136.16 8.81253 145.2C6.20978 155.93 5.60877 166.939 7.02639 177.931C7.06041 178.188 7.16249 178.434 7.32126 178.64L12.5833 185.42C12.8669 185.782 13.3092 186 13.7742 186H94.5048C94.9698 186 95.4121 185.788 95.6957 185.42L100.958 178.64C101.117 178.434 101.219 178.188 101.253 177.926C102.67 166.939 102.069 155.924 99.4665 145.194L99.4947 145.2ZM75.2194 77.9678H33.0992C32.2713 77.9678 31.5966 78.6317 31.5966 79.4464V133.683C31.5966 134.498 32.2713 135.162 33.0992 135.162H75.2194C76.0473 135.162 76.7223 134.498 76.7223 133.683V79.4464C76.7223 78.6317 76.0529 77.9678 75.2194 77.9678ZM73.7168 132.204H34.5963V80.9195H73.7168V132.204ZM50.3942 37.2904V31.7663H56.1723V37.2904H50.3942ZM61.4289 22.035H45.1263V18.2071H61.4289V22.035ZM45.1263 24.9867H61.4289V28.8145H45.1263V24.9867ZM59.1665 31.7663H62.9315H64.9447V37.2848H59.1665V31.7663ZM35.4128 6.88563C35.237 6.81309 35.0441 6.77951 34.8513 6.77951H15.5435C15.2146 6.77951 14.897 6.88555 14.6361 7.08084C13.8763 7.64441 13.1959 8.30284 12.6119 9.0338C11.9201 9.89311 11.3644 10.8417 10.9561 11.8628H3.64681C4.31592 10.3005 5.17771 8.81627 6.21541 7.43803C7.49694 5.73059 9.02798 4.224 10.7631 2.95178H70.1954V7.29295C68.4092 8.12435 66.7933 9.22913 65.3813 10.5962C63.9694 11.9577 62.8182 13.5257 61.9563 15.2555H44.5819C43.72 13.5257 42.5746 11.9633 41.1569 10.5962C39.5012 8.99477 37.5676 7.75052 35.4015 6.89121L35.4128 6.88563ZM41.6163 31.7663H43.6292H47.3945V37.2848H41.6163V31.7663ZM98.3493 177.167L93.7791 183.048H14.5342L9.96379 177.167C8.65391 166.66 9.25492 156.136 11.7386 145.886C13.8707 137.103 17.3522 128.689 22.0927 120.877C22.1324 120.804 22.1722 120.732 22.2063 120.654C24.4007 115.046 25.6199 109.182 25.8184 103.222C26.0566 96.0745 24.843 89.0383 22.2063 82.3089C22.1836 82.2531 22.161 82.1973 22.1326 82.1471C21.3614 80.7242 14.812 67.8459 22.1213 54.7387C28.1603 43.9082 39.4898 40.8224 42.0416 40.2532H66.2659C68.8177 40.8224 80.1414 43.9138 86.1804 54.7387C93.501 67.8626 86.9461 80.7242 86.1749 82.1471C86.1466 82.2029 86.1181 82.2531 86.0954 82.3145C83.4643 89.0438 82.2509 96.0857 82.4891 103.228C82.6876 109.193 83.9011 115.057 86.1013 120.659C86.1353 120.738 86.1691 120.81 86.2145 120.883C90.955 128.694 94.4424 137.109 96.5745 145.892C99.0638 156.148 99.6591 166.671 98.3493 177.173V177.167Z" fill="#4D4D4D"/>
</svg>
