<svg width="225" height="219" viewBox="0 0 225 219" fill="none" xmlns="http://www.w3.org/2000/svg">
<path d="M222.861 118.31C219.647 104.133 211.711 91.4667 200.344 82.4206C178.358 64.9129 166.906 44.7381 160.669 33.9378C159.285 31.3692 157.757 28.8794 156.104 26.4816L155.658 25.8837L148.181 27.5852L139.123 29.4313L136.499 23.8209C139.621 20.9041 139.621 15.931 136.499 13.0076C137.667 5.99796 132.341 0.427016 126.215 0H124.719C122.903 0.12482 121.053 0.716137 119.321 1.87236L108.046 9.49943C105.187 6.3855 100.805 5.15054 96.7519 6.31991L62.5666 16.3121C51.7575 19.6888 52.2691 35.2059 63.2882 37.8468C63.6882 38.6154 64.2262 39.3183 64.869 39.9161L62.4814 45.5855L46.8318 42.4454L46.3921 43.168C45.5788 44.5016 26.2891 76.0942 20.2876 94.4362C19.658 96.3676 19.9138 98.483 20.9829 100.204C21.7437 101.426 22.8588 102.372 24.1772 102.937C4.90044 118.402 -3.86259 143.536 1.60101 167.646C7.05806 191.769 25.8103 210.65 49.8554 216.267L51.0228 216.504H51.7837L52.9578 216.74L54.276 216.977L56.3292 217.463L57.4965 217.699L58.6312 217.916C62.4617 218.625 66.3578 218.987 70.267 219C91.1835 218.915 110.749 208.693 122.817 191.579C131.927 196.309 142.048 198.779 152.313 198.759C156.596 198.759 160.872 198.319 165.063 197.472L165.588 197.347L167.923 196.821C191.365 191.264 207.847 181.009 216.918 166.241C225.045 153.443 227.072 136.796 222.867 118.316L222.861 118.31ZM102.222 59.5719C104.314 59.9989 105.672 62.0356 105.259 64.1313C104.832 66.2335 102.793 67.5999 100.694 67.1729C98.6014 66.7458 97.2504 64.7028 97.6701 62.6137C98.0833 60.5115 100.117 59.1515 102.222 59.5719ZM108.768 105.775C110.867 106.202 112.224 108.245 111.805 110.334C111.378 112.436 109.345 113.796 107.253 113.376C105.147 112.949 103.796 110.912 104.216 108.817C104.642 106.714 106.682 105.355 108.768 105.775ZM58.6902 50.8215C60.7825 51.242 62.1338 53.285 61.7141 55.3938C61.3008 57.4895 59.2611 58.8493 57.1622 58.4223C55.0699 58.015 53.7119 55.9653 54.1252 53.8631C54.5515 51.7674 56.5847 50.4142 58.6902 50.8215ZM38.8756 91.7689C40.9745 92.1894 42.339 94.2324 41.9126 96.3281C41.4863 98.4303 39.4462 99.7903 37.3604 99.3699C35.2616 98.9494 33.8974 96.9063 34.3237 94.8107C34.75 92.7084 36.7898 91.3485 38.8756 91.7689ZM88.4613 88.2149C91.9376 93.3128 99.841 91.3025 100.503 85.1731C101.146 79.057 93.8199 75.4307 89.3664 79.6812L78.9444 77.5987L77.4293 85.1994L87.8448 87.3017C88.0154 87.6301 88.2318 87.9193 88.4613 88.2149ZM94.7775 80.3907C98.4768 81.1265 99.4412 85.9747 96.3125 88.0638C93.1774 90.1595 89.0843 87.4199 89.8189 83.7213C90.278 81.4286 92.495 79.944 94.7775 80.3907ZM147.603 37.4986C148.076 39.5943 146.77 41.6635 144.691 42.1365C142.599 42.6227 140.539 41.3154 140.061 39.2197C139.575 37.1372 140.887 35.0546 142.973 34.5816C145.052 34.1086 147.125 35.4161 147.603 37.4986ZM172.462 76.9613C172.934 79.057 171.629 81.1395 169.536 81.606C167.457 82.079 165.378 80.7717 164.906 78.6892C164.434 76.5935 165.739 74.5175 167.818 74.0445C169.911 73.5715 171.983 74.8788 172.455 76.9613H172.462ZM144.16 54.2835C142.441 54.6842 140.966 55.7421 140.028 57.2333C139.844 57.5224 139.667 57.8179 139.529 58.1464L129.153 60.5376L130.885 68.0859L141.248 65.6947C141.497 65.9312 141.772 66.1546 142.055 66.3451C146.036 68.986 151.414 66.6605 152.221 61.9436C153.028 57.2201 148.751 53.2325 144.107 54.3821L144.153 54.2835H144.16ZM149.748 59.8151C150.634 63.7305 146.101 66.5553 142.979 64.0524C139.857 61.5494 141.635 56.4975 145.642 56.5106C147.61 56.5238 149.315 57.8968 149.748 59.8151ZM104.61 206.281C93.033 214.06 79.1607 217.666 65.2622 216.523L65.8329 216.188C70.9489 212.785 72.3264 205.881 68.9158 200.783C68.5288 200.251 68.0958 199.751 67.6235 199.305C88.2973 200.546 107.135 187.414 113.116 167.554C119.098 147.695 110.663 126.311 92.7509 115.892C79.5215 109.198 46.6809 104.494 32.6513 102.471C31.3198 102.293 30.126 101.525 29.4045 100.362C28.7093 99.2385 28.5322 97.8589 28.952 96.5844C34.4287 79.9899 51.4362 51.3864 54.3746 46.5053L107.895 57.2595C108.23 59.0529 108.492 61.6611 108.807 64.8604C110.29 86.2177 115.976 107.076 125.526 126.232C139.884 154.35 130.924 188.761 104.701 206.281H104.61ZM3.59496 141.132C6.65799 125.681 15.5127 111.983 28.3355 102.852C28.8339 103.338 29.4046 103.745 30.0277 104.074C14.542 116.457 5.59548 135.279 5.76601 155.125C5.9431 174.978 15.2111 193.642 30.9133 205.756C9.39989 191.914 -1.44231 166.267 3.59496 141.158V141.132ZM26.1644 101.209C24.8198 101.006 23.6392 100.237 22.9112 99.0808C22.2028 97.9312 22.052 96.5384 22.4849 95.2639C27.8764 78.6629 44.9558 50.0791 47.9204 45.2243L51.915 46.0323C47.9403 52.6084 32.0411 79.5234 26.689 95.8485C26.1643 97.4909 26.2891 99.2779 27.0237 100.848L26.4991 101.236L26.1644 101.216V101.209ZM91.0391 43.3717C90.3307 42.3008 89.9438 41.0395 89.9701 39.7585C90.3571 40.0212 90.7766 40.2709 91.1964 40.4812C91.767 44.6791 96.8307 46.4725 99.9331 43.5819C103.016 40.6782 101.533 35.4949 97.3947 34.6605C97.0405 34.6211 96.7127 34.6211 96.3651 34.6605C95.0795 34.6737 93.853 35.1467 92.9085 36.0073C92.5412 35.7971 92.2263 35.554 91.9246 35.2846C96.2404 31.1458 103.37 34.6737 102.708 40.6323C102.052 46.5776 94.3251 48.4564 91.0128 43.4767L91.0391 43.3782V43.3717ZM96.8503 43.8052L95.5779 43.4965L94.4102 43.2928L93.8792 42.9316V42.268L100.189 40.8226C99.7754 42.3927 98.4574 43.549 96.857 43.7789V43.7986L96.8503 43.8052ZM97.4604 35.935C96.6274 36.2109 95.7354 36.27 94.863 36.0926C95.6042 35.7576 96.4566 35.6591 97.2503 35.8299L97.4604 35.9284V35.935ZM92.9937 26.6261L93.7152 26.1531L98.1358 24.8589C98.162 25.6801 98.3327 26.4881 98.6607 27.2502L90.9209 29.4313C91.2686 28.2816 92.0031 27.2896 93.0001 26.6261H92.9937ZM109.142 15.931C109.142 16.5288 109.142 17.6981 109.142 17.6981C108.893 20.9369 107.03 23.8274 104.183 25.3778C103.626 25.68 103.022 25.91 102.412 26.1005H102.052C101.612 25.3779 101.494 24.5173 101.684 23.7093C102.143 23.5713 102.583 23.3939 103.002 23.1771C105.167 22.0537 106.623 19.899 106.853 17.4683L109.135 15.9375L109.142 15.931ZM129.98 8.44184C130.504 9.23674 130.786 10.1892 130.812 11.1484C130.484 11.1615 130.17 11.2009 129.855 11.26C126.457 12.0483 124.07 15.0967 124.096 18.5851L111.582 26.8625C112.375 24.6683 112.008 22.2179 110.585 20.3588C110.762 19.8135 110.887 19.2354 110.959 18.6638C111.07 17.3893 111.044 16.1084 110.867 14.8471L122.811 6.96371C125.198 5.40674 128.386 6.06369 129.98 8.44184ZM91.6098 117.955C107.45 127.264 115.471 145.744 111.49 163.698C107.508 181.639 92.4296 194.975 74.1498 196.71C90.9538 192.683 103.947 179.288 107.469 162.332C110.991 145.382 104.419 127.914 90.5997 117.495L91.6098 117.955ZM66.9151 202.116C72.1951 210.059 62.7371 219.486 54.8336 214.178C46.9366 208.87 52.0591 196.519 61.3925 198.411C63.6554 198.865 65.6361 200.191 66.9151 202.11V202.116ZM87.1495 188.511C86.0542 189.247 84.9063 189.917 83.7519 190.541C65.9968 198.641 45.0083 192.722 34.0746 176.548C22.5046 157.694 27.4564 133.097 45.3951 120.202C51.8623 115.964 59.425 113.711 67.1515 113.698C69.821 113.698 72.4968 113.961 75.1269 114.48C83.1223 116.089 90.4289 120.097 96.0762 125.996C103.835 135.219 107.299 147.32 105.593 159.257C103.901 171.194 97.1915 181.836 87.1694 188.518H87.1431L87.1495 188.511ZM32.8809 104.908C40.3057 105.992 52.5117 107.759 64.3309 110.124C43.8145 112.804 27.8174 129.261 25.6792 149.889C23.541 170.511 35.8192 189.904 55.3518 196.756C48.6944 199.561 46.4906 207.911 50.8851 213.652C28.9519 206.413 12.83 187.572 9.04549 164.743C5.26097 141.927 14.4437 118.875 32.8809 104.928V104.901V104.908ZM102.721 35.5278C102.721 35.3635 102.458 35.2124 102.333 35.0548L102.832 34.7197V35.7642L102.721 35.5278ZM103.862 41.4008C103.947 40.9607 103.999 40.5139 104.013 40.0738L147.19 30.1407C148.233 31.6516 149.578 33.9314 151.139 36.6971C161.174 55.5909 174.862 72.3102 191.378 85.8959C208.89 100.014 217.417 122.501 213.685 144.712C209.94 166.917 194.513 185.358 173.334 192.939C177.604 187.131 175.243 178.86 168.559 176.193C187.856 168.816 199.59 149.153 196.94 128.643C194.297 108.134 177.965 92.0975 157.442 89.877C147.885 89.4171 131.167 93.1288 116.836 96.834C114.087 86.29 112.257 75.5226 111.359 64.6567C111.149 61.7464 110.775 58.8625 110.244 55.9916L110.073 55.2428L103.606 53.9616L98.9294 53.0025V51.682C100.831 52.6149 103.147 51.8331 104.078 49.9148C105.023 47.9966 104.229 45.6908 102.314 44.7447C103.094 43.7725 103.632 42.6293 103.868 41.4074L103.862 41.4008ZM155.913 188.413C154.182 180.844 162.453 174.984 169.012 179.103C175.571 183.229 173.879 193.234 166.329 194.962C161.653 196.02 156.989 193.097 155.92 188.406L155.913 188.413ZM129.061 96.2296C125.303 98.5618 121.905 101.426 119 104.75C118.377 102.832 117.78 100.96 117.262 99.1071C121.105 98.1217 125.198 97.1362 129.068 96.2296H129.061ZM139.3 94.0748L141.313 93.7266C132.944 96.9719 125.821 102.799 120.987 110.354C120.6 109.369 120.239 108.396 119.905 107.411C124.968 101.196 131.698 96.558 139.3 94.0419V94.0814V94.0748ZM147.807 94.0748C154.149 92.6295 160.741 92.7675 167.025 94.4625C180.523 99.383 190.597 110.84 193.785 124.859C196.973 138.885 192.814 153.568 182.773 163.849C168.802 175.792 148.522 176.673 133.554 166.004C136.145 152.096 134.026 137.716 127.572 125.148C125.473 121.069 123.702 117.081 122.122 113.185C127.684 103.548 136.978 96.6764 147.8 94.18V94.0748H147.807ZM156.714 175.911C158.445 175.898 160.157 175.786 161.876 175.569H161.725C151.775 177.836 141.333 176.417 132.354 171.542C132.603 170.616 132.839 169.683 133.036 168.75C140.041 173.46 148.279 175.99 156.714 176.003V175.904V175.911ZM110.06 29.97L124.391 20.5099C124.614 21.2916 124.962 22.0275 125.421 22.6844L111.09 32.1444L110.06 29.97ZM107.843 26.3042C107.371 27.0531 106.623 27.5918 105.764 27.7889C105.042 27.9531 104.295 27.8611 103.639 27.5523C104.137 27.3881 104.622 27.1911 105.095 26.9546C105.665 26.6458 106.21 26.2844 106.708 25.8837L107.095 25.5749C107.515 25.207 107.928 24.8128 108.289 24.3924C108.335 25.0756 108.191 25.7458 107.837 26.3371V26.3108L107.843 26.3042ZM103.691 18.9661C104.019 18.8939 104.347 18.8543 104.688 18.8412C104.524 19.3011 104.288 19.7412 104.006 20.1419C100.805 20.7989 99.3296 24.5106 101.192 27.191C103.068 29.8648 107.063 29.7598 108.781 26.9809C109.411 25.956 109.627 24.7276 109.352 23.5516C109.299 23.4005 109.26 23.2493 109.201 23.0982C109.476 22.6712 109.712 22.2442 109.916 21.7777C112.565 26.5997 107.568 32.0196 102.57 29.7532C97.5653 27.4867 98.326 20.1421 103.685 18.9596L103.691 18.9661ZM99.5264 28.8204C100.346 29.9175 101.468 30.7517 102.76 31.2116V32.7423L100.969 33.9117C98.1685 31.6321 94.1545 31.6846 91.4129 34.0233C90.9406 33.3138 90.6651 32.4925 90.593 31.6319L99.5264 28.8138V28.8204ZM131.658 173.94C139.201 177.941 147.734 179.682 156.241 178.979C151.355 184.247 152.72 192.722 159.003 196.197C147.04 197.491 134.958 195.251 124.26 189.746C127.428 184.832 129.92 179.524 131.658 173.94ZM190.368 186.678C206.627 174.827 216.433 156.071 216.905 135.949C217.364 115.826 208.444 96.6237 192.762 84.0366C170.789 66.5027 159.318 46.3543 153.087 35.5409C151.729 33.1496 150.588 31.1459 149.578 29.6087L154.543 28.4919C155.599 29.9963 156.93 32.2627 158.485 35.0482C168.566 53.9289 182.287 70.6349 198.829 84.1943C209.789 92.9186 217.443 105.144 220.513 118.835C224.632 136.941 222.762 152.543 214.951 165.202C208.936 174.525 200.416 181.961 190.368 186.665V186.691V186.678ZM112.684 35.5868L111.877 33.8394L126.569 24.0968C127.343 24.78 128.261 25.2924 129.245 25.6012V31.783L112.684 35.5802V35.5868ZM136.722 21.8566C134.21 25.8443 128.373 25.7194 126.038 21.6332C123.696 17.547 126.549 12.436 131.252 12.2915C131.18 12.7119 131.062 13.139 130.885 13.5332H130.34C126.831 14.3215 125.251 18.434 127.33 21.3705C129.409 24.3136 133.81 24.1887 135.712 21.1339C136.866 19.3142 136.722 16.9755 135.351 15.3069C135.522 14.8667 135.673 14.4332 135.784 13.9864C137.89 16.0295 138.277 19.2815 136.722 21.7582V21.8566ZM135.056 17.2317C135.102 17.3828 135.155 17.5339 135.194 17.6915C135.64 19.5638 134.61 21.4756 132.806 22.1391L132.354 22.2639L131.869 22.3757C131.173 22.4479 130.471 22.3231 129.842 22.0077L131.796 20.7267C133.128 19.807 134.236 18.5981 135.056 17.1988V17.2251V17.2317ZM120.41 3.47528C125.887 -0.197059 133.338 2.8118 134.741 9.26302C135.404 12.3901 134.466 15.6551 132.229 17.9478C131.783 18.4011 131.285 18.7952 130.747 19.1434L128.359 20.753C127.848 20.0567 127.599 19.2091 127.638 18.3616L129.455 17.166C129.855 16.89 130.222 16.5945 130.563 16.2529C132.177 14.5185 132.852 12.1009 132.354 9.78187C131.272 5.01901 125.762 2.80509 121.695 5.51172L102.734 18.0463C101.625 18.4208 100.641 19.0712 99.8607 19.9318L91.9836 25.1545C89.4584 26.8363 88.3172 29.9634 89.1371 32.8802C89.7339 35.0942 91.3604 36.8811 93.5183 37.6628C93.8331 37.7877 94.1676 37.8993 94.489 37.9716C96.1287 38.2869 97.8209 37.9979 99.2705 37.157C99.6574 37.5446 99.9397 38.0109 100.11 38.5167L93.256 40.0738L92.659 39.8898C89.7993 38.8584 87.6219 36.5001 86.8021 33.5701C85.6936 29.6481 87.2348 25.4568 90.6192 23.2034L120.417 3.4687L120.41 3.47528ZM77.1407 33.5043C77.0555 32.67 76.8192 31.862 76.4519 31.1131L84.9064 28.7217C84.7425 29.5692 84.6768 30.4233 84.7162 31.2773L77.1407 33.5043ZM71.2703 27.1648C67.8597 26.5276 64.4622 28.3341 63.0848 31.5269C59.1822 29.1816 59.9495 23.3151 64.3178 22.0669L98.4048 12.0682C99.9593 11.6083 101.645 11.9105 102.95 12.8828L89.7142 21.6661C87.8646 22.888 86.415 24.6356 85.5623 26.6853L75.4353 29.6545C74.3662 28.3866 72.9101 27.4999 71.2835 27.1648H71.2703ZM67.1383 32.0722H66.771C67.7942 30.6861 69.6108 30.1735 71.1916 30.8239L67.1383 32.0722ZM97.2307 8.14608C100.523 7.1738 104.098 8.10019 106.525 10.544L104.498 11.8777C102.721 10.255 100.228 9.65709 97.9062 10.3075L64.9868 19.8792L63.6949 20.2537C54.7354 22.8684 58.6509 36.3424 67.6104 33.7212L68.6205 33.4386L72.9232 32.1641C73.4217 32.8605 73.6644 33.708 73.6316 34.5555L69.2895 35.8299L68.2794 36.1124C63.2487 37.6825 57.9425 34.8051 56.4733 29.7466C55.0172 24.6881 57.9886 19.4194 63.0784 18.0595L64.3639 17.6718L97.2307 8.15266V8.14608ZM69.7356 38.3657L69.0074 38.1948H68.1484L68.8043 38.0569L73.0609 36.6248C72.3394 37.7416 71.0802 38.4182 69.7356 38.392V38.3657ZM64.3834 37.5708C64.8229 37.6102 65.2427 37.6102 65.6821 37.5708H65.8659C68.542 40.9343 73.9266 39.6138 74.7465 35.4028C75.2909 32.6633 73.5266 29.9897 70.7915 29.451C70.457 29.4116 70.1225 29.4116 69.7814 29.451C67.6301 29.451 65.715 30.8174 65.0067 32.8605C64.6197 32.8145 64.2327 32.7226 63.8589 32.5978C65.8987 26.1203 75.3435 27.0596 76.0518 33.8196C76.7602 40.5862 67.7285 43.4899 64.3834 37.5708ZM72.1229 41.5716C72.7722 41.3746 73.3822 41.0723 73.9397 40.7176C75.5991 39.6073 76.7406 37.8861 77.1276 35.9284C77.1276 35.7445 77.1276 35.5409 77.1276 35.3569L84.867 33.1035C85.3262 35.6722 86.7101 37.9781 88.763 39.5942C88.6974 41.1643 89.1501 42.7213 90.0159 44.0483C90.3569 44.5213 90.7374 44.9681 91.1637 45.3557V46.0258L88.9206 50.9857L72.2017 47.6287L72.1296 41.5716H72.1229Z" fill="#4D4D4D"/>
</svg>
