<svg width="186" height="186" viewBox="0 0 186 186" fill="none" xmlns="http://www.w3.org/2000/svg">
<path d="M180.091 101.697L155.79 77.2772C154.01 75.5406 151.744 74.417 149.306 74.0481C116.015 62.3064 84.8509 37.5177 61.359 4.02921C60.8847 3.50143 60.3825 3.00207 59.8692 2.51401C58.4295 1.14065 56.5379 0.283753 54.25 0H50.5895C50.0483 0.0624256 49.4903 0.141843 48.9211 0.249669C40.3223 1.39603 29.5975 8.17205 18.828 19.2611L18.5267 19.5676C8.37663 30.0664 1.98185 40.4915 0.598 48.8678C-0.651926 54.418 0.0623231 58.7482 2.6961 61.3927C3.06996 61.7503 3.47181 62.0794 3.90705 62.3575C4.04098 62.5391 4.19711 62.6923 4.35893 62.8399C37.4094 86.2892 62.1626 117.706 74.0815 151.416C74.4665 153.896 75.5992 156.189 77.329 157.982L101.63 182.413C104.431 184.717 107.941 185.989 111.562 186C112.12 186 112.667 185.966 113.225 185.887H113.359C122.276 185.279 137.733 180.734 151.543 172.539C158.117 170.257 163.792 165.876 167.725 160.048C177.005 150.934 183.221 139.09 185.526 126.19C185.805 124.295 185.961 122.428 186 120.618V118.892C185.849 111.645 183.757 105.386 180.085 101.691L180.091 101.697ZM5.62003 61.2963L5.4639 61.1203L5.24621 60.8593L5.05099 60.7004C4.67713 60.4677 4.34787 60.2067 4.03538 59.9116C1.36813 57.2216 1.7085 52.6418 2.48412 49.2254C3.86797 41.1442 10.0897 31.1504 20.0165 20.8388L20.184 20.7026C30.5461 10.0732 41.1091 3.35395 49.2224 2.25866C50.3273 2.03733 51.4433 1.92377 52.5705 1.91242C54.7411 1.79892 56.8615 2.52536 58.5299 3.93278C59.1102 4.46056 59.5454 4.89182 59.9249 5.31178C82.2673 37.2113 111.696 61.37 143.346 73.9913C132.276 75.2852 117.165 83.9113 102.807 97.8323L102.467 98.1501C101.58 99.024 100.698 99.8866 99.8333 100.8C98.9572 101.703 98.109 102.599 97.2664 103.502L96.9373 103.871C83.428 118.631 75.0914 134.17 73.9698 145.355C61.1971 113.28 37.1249 83.6276 5.62561 61.3871V61.302L5.62003 61.2963ZM98.4941 176.437L78.7351 156.501C78.2162 155.985 77.7754 155.394 77.4016 154.764C77.4127 154.725 77.4127 154.668 77.4016 154.628L77.2453 154.481C76.7096 153.533 76.3134 152.511 76.0735 151.45C76.0735 151.388 76.0735 151.337 76.0735 151.274C74.3604 142.75 79.6671 129.318 89.5549 115.771L89.7389 115.533C90.3918 114.648 91.0614 113.751 91.7255 112.871L92.7522 111.577L94.4987 109.466L96.2453 107.446L97.6236 105.868C98.7284 104.637 99.8667 103.411 101.055 102.191C102.244 100.976 103.142 100.17 104.208 99.0638L104.811 98.5189C105.698 97.6676 106.596 96.8448 107.489 96.039L107.863 95.7155C108.856 94.8302 109.849 93.9618 110.865 93.1276C125.189 81.1759 139.92 74.4454 149.077 76.2217H149.306C150.31 76.4317 151.292 76.7891 152.202 77.2715H152.375C153.028 77.6518 153.625 78.1114 154.166 78.6505L174.025 98.5473L173.395 98.485L172.714 98.377H168.942C168.289 98.377 167.597 98.502 166.955 98.6098C154.802 100.363 138.363 110.578 124.078 125.288C113.694 135.98 105.631 147.733 101.34 158.396C100.843 159.605 100.441 160.774 100.068 161.955L99.7886 162.795C99.4315 163.93 99.1358 165.036 98.9014 166.109V166.217C98.6838 167.244 98.5219 168.237 98.3824 169.225C98.3824 169.469 98.3824 169.707 98.3824 169.951C98.2373 170.853 98.1425 171.761 98.1034 172.675C98.1034 172.675 98.1034 172.777 98.1034 172.84C98.1201 173.651 98.1983 174.468 98.3211 175.28C98.3211 175.478 98.3211 175.677 98.3211 175.881C98.3211 176.091 98.4551 176.273 98.4941 176.449V176.437ZM112.399 183.968C109.04 184.167 105.709 183.117 103.047 181C102.707 180.643 102.406 180.245 102.138 179.831C102.015 179.65 101.836 179.508 101.736 179.303C101.49 178.849 101.262 178.378 101.083 177.885C101.083 177.686 100.882 177.504 100.804 177.283C100.62 176.676 100.464 176.052 100.369 175.422C100.369 175.263 100.369 175.104 100.246 174.939C99.638 170.785 100.609 165.365 103.153 159.021C107.344 148.596 115.268 137.064 125.457 126.588C126.305 125.703 127.153 124.851 128.012 124.023L128.889 123.189L130.596 121.582L131.673 120.601L133.213 119.216L134.374 118.229L135.864 116.952L137.052 116.004L138.52 114.829L139.714 113.927L141.159 112.832L142.381 111.969L143.832 110.959L145.02 110.147L146.466 109.211L147.66 108.467L149.105 107.605L150.266 106.941L151.711 106.152L152.838 105.545L154.294 104.818L155.36 104.291L156.867 103.626L157.838 103.195L159.489 102.554L160.243 102.27C161.029 101.986 161.827 101.725 162.581 101.504C163.295 101.305 164.009 101.124 164.712 100.959C158.647 109.914 156.342 120.294 154.099 130.356C151.806 140.963 149.557 150.996 143.179 158.533C137.242 165.621 130.021 171.495 121.913 175.825C117.422 178.424 114.101 180.331 112.394 183.98L112.399 183.968ZM153.714 146.967C153.351 146.621 152.659 146.706 151.728 146.967C152.202 145.622 152.648 144.277 153.05 142.926C156.493 140.906 159.009 140.248 159.69 140.645C160.404 141.78 158.502 148.136 151.51 155.332C148.832 158.215 145.723 160.661 142.314 162.562C143.112 161.722 143.876 160.825 144.691 159.878C145.601 158.805 146.443 157.681 147.213 156.507C148.246 155.758 149.211 154.929 150.087 153.998C152.972 150.973 154.579 147.847 153.686 146.95L153.708 146.967H153.714ZM155.076 135.435C155.438 133.903 155.79 132.354 156.13 130.804C156.666 128.398 157.207 125.975 157.793 123.58C158.351 123.467 158.92 123.398 159.489 123.37C160.834 123.296 162.162 123.693 163.256 124.482C163.39 124.579 163.513 124.67 163.641 124.789C165.627 126.809 165.482 130.85 163.423 136.014C162.151 134.93 159.489 133.903 155.053 135.412L155.076 135.435ZM160.231 121.412C159.735 121.378 159.244 121.378 158.764 121.412H158.34L158.775 119.761L160.349 121.35L160.237 121.412H160.231ZM115.798 183.548C121.272 178.52 128.799 177.289 136.745 175.995C138.854 175.649 140.997 175.314 143.157 174.86C134.53 179.167 125.289 182.09 115.798 183.548ZM166.236 158.822C158.29 170.416 147.191 172.232 136.444 173.975C132.627 174.508 128.849 175.285 125.128 176.296C128.61 174.287 131.935 172.005 135.06 169.468C135.97 169.849 136.94 170.047 137.917 170.036C140.037 169.962 142.113 169.429 144.016 168.481C148.463 166.268 152.509 163.283 155.929 159.651C162.759 152.625 168.127 143.187 165.086 137.79C167.943 131.332 168.044 126.156 165.259 123.37L159.484 117.593C160.873 112.741 162.871 108.093 165.443 103.757C164.74 110.022 166.353 116.753 168.099 123.779C170.901 135.458 173.886 147.534 166.23 158.828L166.236 158.822ZM183.562 125.89C181.865 135.781 177.675 145.06 171.408 152.801C174.74 142.858 172.195 132.603 169.902 123.291C167.915 115.022 165.929 107.134 167.915 100.397C168.484 100.397 169.031 100.363 169.578 100.284C170.103 100.284 170.61 100.284 171.107 100.284H171.408C171.883 100.284 172.34 100.324 172.775 100.397H172.971L174.159 100.641H174.461L175.454 100.965L175.878 101.147L176.642 101.515L177.223 101.884L177.742 102.202C178.082 102.452 178.395 102.73 178.69 103.036C183.098 107.576 184.968 116.305 183.562 125.895V125.89Z" fill="#4D4D4D"/>
</svg>
