<svg width="176" height="186" viewBox="0 0 176 186" fill="none" xmlns="http://www.w3.org/2000/svg">
<path d="M72.5 99.4443C81.4554 89.7415 89.1236 82.2482 93.8819 86.7564C98.6511 91.2703 91.7696 99.5281 82.8141 109.231C73.8642 118.939 66.196 126.461 61.4323 121.93C56.663 117.394 63.5391 109.158 72.5 99.4443ZM166.29 8.33023C161.058 3.35885 155.404 0.569114 149.441 0H144.781C144.237 0.050216 143.687 0.117236 143.137 0.206509C134.836 1.51212 126.629 6.65089 118.427 15.5503C111.958 22.5526 112.343 34.1022 118.427 44.3016L118.075 44.6923C110.021 39.5312 103.167 38.3761 99.9824 41.6625C92.2922 48.2408 74.2823 70.8937 58.4673 90.8964C48.9343 102.926 40.6776 113.248 36.7224 117.578C25.8307 129.367 9.47661 143.908 0.598215 147.657L0.00414564 147.897V148.556C-0.105872 152.567 1.97896 157.985 5.64804 163.174C10.6923 170.478 17.1888 176.615 24.714 181.224C30.0553 184.387 34.599 186 38.3176 186H40.0779L40.2705 185.381C43.3234 176.152 56.531 158.643 67.4227 146.831C71.3779 142.53 81.0539 133.519 92.2481 123.091C110.874 105.721 131.981 86.0367 137.955 77.8348C140.98 74.4033 139.396 67.5293 133.807 59.7904L134.148 59.4278C138.521 61.8103 143.39 63.1047 148.357 63.1996C153.627 63.3837 158.737 61.3193 162.434 57.5085C170.641 48.6203 175.168 39.8548 175.9 31.4408C176.631 23.0101 173.347 15.009 166.295 8.33582L166.29 8.33023ZM119.576 46.0425C122.904 50.9692 127.278 55.087 132.388 58.072L128.708 62.0837C127.855 63.0322 124.093 62.0837 120.204 58.3007C118.564 56.7831 117.217 54.9753 116.248 52.9611C115.627 51.5718 115.517 50.4113 115.946 49.9537L119.571 46.0369L119.576 46.0425ZM90.8729 121.444C79.6567 131.889 69.9697 140.934 65.9485 145.297C55.1448 156.975 42.0802 174.277 38.5267 183.919C35.2206 184.041 30.732 182.479 25.6161 179.427C18.3275 174.947 12.0345 168.971 7.15527 161.885C4.27282 158.208 2.47399 153.789 1.95691 149.13C11.2039 144.968 27.3599 130.606 38.1526 118.917C42.1078 114.537 50.4251 104.159 59.8976 92.1296C73.2647 75.2626 89.5527 54.7912 98.2496 46.009C98.0351 51.7224 102.832 60.3819 111.039 68.1821C118.751 75.5025 127.03 79.7541 132.652 79.7541C132.999 79.7764 133.356 79.7764 133.692 79.7541C125.649 88.9938 106.572 106.804 90.8784 121.444H90.8729ZM136.338 76.3784C133.252 79.7094 122.91 76.5905 112.431 66.6366C101.963 56.6938 98.2001 46.4274 101.27 43.0965C103.596 40.5689 109.702 41.8355 116.623 46.1875L114.4 48.5253C113.371 49.6524 113.333 51.4993 114.4 53.7479C115.484 56.0243 116.997 58.0609 118.85 59.7626C121.557 62.4297 125.028 64.5666 127.624 64.5666C128.543 64.6224 129.428 64.2653 130.078 63.6069L132.371 61.1408C137.075 67.7637 138.714 73.8397 136.387 76.3784H136.349H136.338ZM126.453 51.3766C115.341 40.8089 112.255 25.7273 119.367 17.291C117.371 26.5754 121.546 38.4989 130.578 47.0133C136.756 53.1843 144.985 56.7998 153.649 57.1569C156.102 57.1681 158.539 56.7608 160.855 55.935C153.176 64.1314 137.856 62.0893 126.557 51.3598L126.447 51.3821L126.453 51.3766ZM164.32 51.7448C156.146 58.0497 142.207 55.4273 131.827 45.5404C121.942 36.1611 117.987 22.547 122.794 13.8038C123.185 13.4244 123.576 13.0841 123.977 12.7158C121.32 22.0448 125.358 33.9795 134.489 42.6612C140.617 48.7708 148.781 52.3417 157.367 52.6877C159.815 52.6877 162.247 52.2636 164.557 51.4211L164.32 51.7503V51.7448ZM167.027 48.0678C158.809 53.3405 145.744 50.5285 135.953 41.1939C126.172 31.8481 122.646 18.658 127.333 9.92604L128.108 9.32899C125.831 18.485 129.869 29.9455 138.659 38.2814C144.671 44.2682 152.664 47.7553 161.086 48.0845C163.358 48.0957 165.619 47.7331 167.781 47.0189L167.027 48.0622V48.0678ZM173.732 31.0613C173.243 35.7091 171.769 40.1895 169.425 44.2179C161.048 48.4249 148.968 45.4399 139.886 36.8362C130.815 28.2325 127.179 16.1919 130.771 7.40408C134.583 4.75937 138.885 2.97384 143.423 2.1648C144.638 1.9751 145.854 1.88025 147.081 1.89141C153.803 2.06437 160.173 4.91003 164.871 9.78656C171.51 16.0189 174.497 23.1886 173.826 31.039L173.721 31.0613H173.732Z" fill="#4D4D4D"/>
</svg>
