<svg width="167" height="195" viewBox="0 0 167 195" fill="none" xmlns="http://www.w3.org/2000/svg">
<path d="M156.416 25.8865C153.017 25.7637 149.753 24.4532 147.166 22.1775C143.091 18.7962 140.911 14.0401 141.604 10.0679C141.7 9.52972 142.149 9.13771 142.682 9.13771C143.29 9.13771 143.777 9.64092 143.777 10.2669C143.777 10.3312 143.772 10.4013 143.761 10.4657C143.221 13.5955 145.139 17.6028 148.544 20.4459C150.707 22.4525 153.522 23.564 156.433 23.564C157.08 23.564 157.727 23.5055 158.357 23.4002C158.448 23.3768 158.539 23.3651 158.635 23.3651C159.248 23.3651 159.747 23.8799 159.747 24.5117C159.747 25.0323 159.407 25.4887 158.913 25.6233C158.187 25.8046 157.443 25.8924 156.7 25.8924C156.603 25.8924 156.507 25.8924 156.416 25.8865ZM161.785 3.17069C159.384 1.12317 156.371 0 153.255 0C150.531 0 147.869 0.85993 145.633 2.457L59.2352 62.4669C52.0902 67.2757 47.7772 75.4833 47.7772 84.2818C47.7772 85.7326 47.8964 87.1951 48.1348 88.6284C49.406 95.0693 51.9484 101.2 55.5748 106.606L52.0165 111.052C34.1853 102.938 17.5174 104.383 9.15229 115.053L5.00957 120.341C-0.512325 127.385 -1.46012 137.412 2.12088 148.591C6.42262 160.713 13.9706 171.366 23.8509 179.287C36.2738 189.624 50.3707 195 62.2544 195C71.0963 195 78.7293 192.022 83.5361 185.886L87.7415 180.597C96.0215 170.014 93.9273 152.792 82.4806 136.54L86.0389 132.094C91.4416 134.376 97.2131 135.651 103.047 135.827H103.439C113.898 135.698 123.268 129.082 127.155 119.066L165.967 19.3812C166.648 17.7022 167 15.8946 167 14.0753C167 9.79888 165.07 5.76224 161.785 3.15312V3.17069ZM25.2129 177.543C15.6787 169.938 8.36924 159.712 4.16398 148.071C1.27534 139.179 1.49097 131.176 4.70309 125.022C4.53283 125.864 4.4022 126.712 4.3114 127.601C4.3114 127.8 4.3114 128.005 4.3114 128.204C4.22627 129.152 4.18088 130.111 4.18088 131.065C4.18088 131.211 4.18656 131.369 4.18656 131.509C4.22061 132.662 4.30586 133.832 4.44773 134.978C4.44773 135.201 4.44773 135.423 4.44773 135.622C4.60664 136.763 4.81653 137.921 5.07191 139.091L5.2422 139.781C5.54298 141.004 5.8665 142.25 6.28079 143.49C10.6109 155.547 18.1304 166.13 27.9881 174.01C29.3672 175.168 30.7915 176.233 32.3011 177.257L33.4646 178.082C34.662 178.912 35.8595 179.696 37.0683 180.439L37.8457 180.925C39.2872 181.791 40.7344 182.569 42.1589 183.306L43.2144 183.815C44.3891 184.388 45.5695 184.92 46.75 185.394L47.8283 185.839C49.2698 186.418 50.7169 186.927 52.1413 187.372L52.8507 187.57C54.0709 187.927 55.2968 188.237 56.517 188.501L57.6802 188.746C59.0366 189.015 60.3987 189.232 61.7324 189.39H61.8629C63.2419 189.542 64.5813 189.589 65.915 189.612H66.3916H67.2315H68.9568L70.3811 189.477L72.044 189.255L73.4004 189.01L74.9725 188.629L76.2663 188.272L77.7532 187.74L78.9619 187.249L79.433 187.05C67.8104 197.404 44.4799 193.602 25.2072 177.538L25.2129 177.543ZM81.0106 138.336C91.5777 153.605 93.5584 169.453 85.9935 179.211C75.4945 192.549 50.07 189.524 29.3501 172.278C19.8216 164.673 12.5063 154.447 8.3067 142.806C7.8754 141.501 7.51792 140.22 7.22849 138.962C7.22849 138.828 7.22849 138.693 7.22849 138.541C6.71773 136.289 6.41691 133.966 6.34314 131.65C6.34314 131.451 6.33745 131.246 6.33745 131.047C6.33745 130.117 6.38285 129.175 6.47365 128.251C6.5758 127.18 6.75182 126.116 6.99018 125.074C7.18881 124.033 7.46685 122.986 7.80736 121.985L7.97764 121.628C8.30112 120.792 8.69272 119.973 9.12403 119.183C9.27158 118.938 9.44741 118.715 9.59497 118.475C9.96385 117.849 10.3669 117.229 10.8038 116.65C15.1169 111.116 22.0803 108.29 30.3603 108.29C37.3464 108.46 44.2472 110.11 50.6034 113.099L37.1307 130.322C32.9481 135.68 36.3305 145.415 44.8489 152.552C45.4334 153.038 46.0349 153.482 46.6194 153.927L47.1983 154.33L48.4072 155.132L49.0938 155.553L50.2402 156.197L50.9496 156.553L52.096 157.086L52.7656 157.378L54.0596 157.846L54.5532 158.022C55.1435 158.197 55.728 158.355 56.3012 158.49H56.6928L58.0094 158.712H58.5883H59.6438H60.1376C60.813 158.712 61.494 158.648 62.1637 158.537H62.3169C62.9128 158.42 63.4972 158.25 64.0648 158.028L64.3884 157.893C64.9332 157.653 65.4552 157.355 65.9432 157.004L66.227 156.782C66.7094 156.407 67.1521 155.974 67.538 155.495L81.0106 138.354V138.336ZM69.11 149.539L65.8524 154.167C62.5324 158.39 53.5431 156.811 46.2108 150.721C38.8786 144.631 35.4281 135.897 38.8162 131.65L56.8403 108.641C59.3771 112.251 62.2829 115.609 65.4666 118.622L65.7446 118.891C66.7774 119.868 67.9012 120.804 68.934 121.716C69.9669 122.629 71.4367 123.717 72.7307 124.647L74.2403 125.671C75.0178 126.203 75.7954 126.741 76.5899 127.227C77.3901 127.713 78.0143 128.069 78.7463 128.496L80.4716 129.45C81.3569 129.918 82.2422 130.339 83.1218 130.76L69.11 149.539ZM163.85 18.4687L125.038 118.159C121.446 127.443 112.712 133.539 103.013 133.539C103.013 133.539 103.007 133.539 103.002 133.539C97.5081 133.364 92.0714 132.176 86.9808 130.053L86.0331 129.649C83.2523 128.467 80.5397 127.057 77.9519 125.466L76.7656 124.688C75.8576 124.109 74.9552 123.53 74.0699 122.91C72.793 121.991 71.5275 121.014 70.2733 119.979C69.0248 118.943 67.7592 117.966 66.8228 116.849C63.4631 113.637 60.4497 110.022 57.8505 106.138L57.0333 104.915C53.7701 99.8956 51.4717 94.2561 50.3083 88.33C50.0926 87.0196 49.9849 85.6858 49.9849 84.3578C49.9849 76.3023 53.9348 68.785 60.4839 64.3916L146.882 4.37583C148.76 3.03032 151.002 2.31074 153.289 2.31074C155.905 2.31074 158.448 3.25264 160.468 4.9784C163.147 7.17218 164.707 10.5126 164.707 14.0401C164.707 15.5612 164.418 17.0647 163.856 18.4687H163.85ZM117.922 124.401C104.557 121.792 91.9637 115.884 81.2661 107.226C66.9307 95.3092 58.6904 79.59 56.6871 72.0375C56.6644 71.9439 56.6531 71.8445 56.6531 71.745C56.6531 71.1132 57.1525 70.5984 57.7654 70.5984C58.2705 70.5984 58.7131 70.9494 58.8437 71.4584C60.7846 78.7476 68.7412 93.8174 82.7985 105.512C93.1499 113.889 105.306 119.628 118.228 122.202C118.784 122.254 119.21 122.74 119.21 123.319C119.21 123.933 118.728 124.437 118.126 124.437C118.092 124.437 118.063 124.437 118.029 124.431L117.922 124.407V124.401Z" fill="#4D4D4D"/>
</svg>
