<svg width="73" height="185" viewBox="0 0 73 185" fill="none" xmlns="http://www.w3.org/2000/svg">
<path d="M18.0207 74.4855C17.0942 71.4054 17.2456 70.7561 19.5415 68.1755C18.4984 65.717 18.5393 65.112 20.0194 62.1262C18.8248 60.1838 18.9006 58.1582 20.0719 56.1048C20.3166 55.6775 20.3282 55.0337 20.2117 54.5398C19.897 53.23 19.9203 51.998 20.5962 50.7881C20.9867 50.0889 21.0624 49.495 20.2757 48.8568C15.9345 45.3216 14.5069 40.6154 14.3437 35.382C14.1165 27.9953 15.7073 21.0082 19.2095 14.404C20.9576 11.1074 22.8864 7.933 25.4795 5.14703C28.7019 1.68399 32.7168 -0.136329 37.5708 0.00796435C40.6009 0.0967603 43.3395 1.19565 45.7578 2.96047C50.6468 6.52895 53.9275 11.2407 56.404 16.5296C59.236 22.5843 60.384 28.9776 60.2325 35.5263C60.1043 40.8208 57.8899 46.5425 52.931 50.1887C53.2107 51.0989 53.6944 52.0145 53.7061 52.9247C53.7119 53.7849 53.2224 54.6452 52.9135 55.6108C54.8482 57.47 55.2269 59.6455 53.7643 62.0152C55.2735 65.3562 55.3027 65.728 54.213 68.242C56.2525 69.9347 56.9343 71.9937 55.6814 74.4744C57.1674 75.8452 57.4996 77.3936 56.7595 79.2139C56.5556 79.73 56.6838 80.4126 56.8003 80.9953C58.7991 91.0626 60.9784 101.102 62.7557 111.203C63.554 115.72 63.519 120.365 63.9269 124.949C64.294 129.089 63.8569 133.174 62.977 137.209C62.5342 139.24 61.8174 141.227 61.0832 143.191C60.2208 145.472 58.8748 147.504 56.8935 149.069C55.932 149.829 55.6523 150.733 55.8738 151.849C56.4157 154.552 57.5578 156.799 60.3257 158.142C63.0761 159.48 65.774 160.939 68.3496 162.554C69.6025 163.342 70.6747 164.502 71.5721 165.679C73.5125 168.226 73.3553 170.951 71.8227 173.643C70.6515 175.696 68.8858 177.189 66.7822 178.36C60.1043 182.084 52.931 184.343 45.2101 184.814C36.0789 185.375 27.0178 184.692 18.1839 182.4C14.4778 181.44 10.8999 179.964 7.3395 178.549C5.06108 177.644 3.17888 176.112 1.6172 174.259C-0.457259 171.806 -0.3698 169.153 0.941307 166.489C2.1417 164.058 4.35014 162.521 6.72179 161.217C8.90114 160.024 11.1388 158.936 13.3298 157.759C16.1851 156.228 17.0767 153.653 17.1583 150.778C17.1816 150.018 16.7388 149.057 16.1735 148.497C14.1981 146.532 12.9686 144.185 12.0829 141.671C10.2182 136.376 9.7694 130.921 9.80437 125.343C9.88595 113.706 12.5549 102.445 14.8508 91.1236C15.55 87.6883 16.325 84.2697 17.0359 80.8399C17.1408 80.3183 17.1873 79.7411 17.0591 79.2306C16.4356 76.6721 16.4357 76.5556 18.0207 74.4966V74.4855ZM35.6653 63.1696C37.1221 62.3427 44.2777 61.9154 47.2496 62.4815C45.0702 64.3018 37.5416 64.7513 35.6653 63.1696ZM46.9524 56.2545C43.2463 57.8695 39.4296 58.2414 35.4963 57.137C39.1907 55.5831 43.0715 55.8827 46.9524 56.2545ZM46.2357 51.9258C43.4561 53.6907 36.8074 54.0125 34.529 52.564C38.3575 51.1322 42.1392 51.3487 46.2357 51.9258ZM48.6015 73.1258C45.8161 75.3957 39.01 76.0006 35.9915 74.4966C36.2304 73.6531 36.988 73.6586 37.6581 73.6253C41.3059 73.4421 44.9537 73.2923 48.6015 73.1258ZM48.6889 67.7482C46.2473 69.8793 37.9786 70.3455 35.0243 68.453C39.7268 67.1377 44.2428 67.9757 48.6889 67.7482ZM51.4976 78.6089C47.9489 81.5003 38.1418 82.3383 35.776 79.8521C36.5044 79.6134 37.1337 79.3748 37.7805 79.2139C38.1476 79.1196 38.5438 79.1418 38.9284 79.1307C43.0657 78.9587 47.203 78.7921 51.4976 78.6145V78.6089ZM43.1997 168.842C45.6413 168.326 48.1295 167.999 50.5245 167.338C52.9719 166.661 55.326 165.684 57.7209 164.841C57.9482 164.758 58.193 164.708 58.8515 164.53C58.5951 165.257 57.482 167.566 51.8996 169.558C49.1958 170.524 46.2998 170.735 43.2639 170.496C42.0052 170.402 41.2127 170.024 40.4727 169.791C40.461 169.636 42.4888 168.992 43.1939 168.842H43.1997ZM28.0258 152.598C35.8342 153.797 43.124 150.905 50.6469 149.818C50.7109 149.929 50.9557 151.022 47.0166 152.942C43.0774 154.863 33.2703 155.256 28.0258 152.598ZM52.3483 37.4799C52.6513 40.5045 51.5326 43.1905 49.3824 45.3549C46.2532 48.5016 42.3664 48.8735 38.0427 47.3195C39.75 46.4371 40.7406 46.5981 45.9093 43.7622C50.7983 41.0817 51.6083 38.6176 52.3483 37.4854V37.4799ZM55.7806 135.855C56.7362 137.381 56.4506 138.507 56.136 139.612C54.7025 144.64 48.9394 149.196 43.4561 149.562C41.7371 149.679 40.0006 149.585 38.1942 149.313C41.4516 147.476 44.7672 145.705 47.9663 143.774C51.1654 141.843 53.6187 139.129 55.7806 135.86V135.855ZM22.9679 67.8147C21.7675 68.7304 20.4157 69.3243 20.3574 71.0614C20.2991 72.7318 21.9774 73.3423 22.426 74.7685C22.0415 75.0183 21.6976 75.2847 21.3188 75.4734C20.94 75.6676 19.862 75.8397 19.7105 76.8664C19.5066 78.276 20.6953 78.326 20.6137 79.4082C20.5263 80.5015 19.6406 81.5225 19.4075 82.6325C17.0009 94.1149 14.3554 105.559 13.2191 117.252C12.6248 123.379 12.1411 129.484 13.493 135.577C14.5302 140.239 16.0336 144.712 19.3026 148.464C20.4389 149.773 21.5169 151.127 22.6182 152.459C22.5775 152.543 20.9576 152.06 20.2 151.738C20.1301 151.816 20.0602 151.854 20.0485 151.904C19.9903 152.143 19.9436 152.387 19.9087 152.626C19.4425 155.634 18.1546 158.142 15.1711 159.585C12.648 160.806 10.1133 161.999 7.5785 163.204C5.77791 164.058 4.07055 165.024 2.75944 166.523C0.387796 169.231 0.580001 171.567 3.39451 173.848C5.78947 175.785 8.52239 177.172 11.5467 177.916C15.346 178.86 19.1745 179.681 23.0204 180.436C29.9372 181.795 36.9589 182.09 43.9923 181.934C50.3497 181.801 56.5789 180.874 62.4526 178.399C65.1739 177.25 67.7845 175.924 69.8822 173.843C72.5452 171.201 72.5453 168.798 69.9056 166.101C68.2332 164.391 66.0538 163.459 63.8978 162.493C62.2662 161.761 60.6287 161.045 59.0145 160.285C55.6581 158.708 53.6012 156.211 53.0884 152.631C53.0709 152.526 52.9486 152.437 52.8495 152.298C52.3426 152.409 51.8122 152.526 50.8507 152.731C51.4684 152.06 51.8006 151.716 52.1153 151.366C54.5977 148.536 56.9518 145.65 58.3678 142.137C61.0891 135.394 61.7359 128.401 61.0075 121.309C60.3491 114.904 59.475 108.511 58.3561 102.168C57.0975 95.0363 55.4484 87.9658 54.0091 80.8622C53.8867 80.2461 53.9334 79.508 54.1898 78.9364C54.8016 77.5434 54.4403 76.4501 53.4031 75.4234C52.2376 74.269 52.2493 74.258 53.135 72.8928C54.1898 71.2501 53.8227 69.6795 52.127 68.5973C51.7191 68.342 51.3169 68.0811 50.7517 67.726C51.2062 67.1765 51.5733 66.7714 51.888 66.3385C53.0476 64.7402 52.5872 63.3195 50.705 62.6202C50.4894 62.5425 50.3031 62.3927 50.2273 62.3483C50.9615 61.0996 51.8822 60.0229 52.2318 58.7964C52.6222 57.4034 52.0337 56.138 50.239 55.7273C50.6177 54.9615 51.014 54.3288 51.2471 53.6406C51.754 52.1422 50.9965 51.1988 49.3474 51.0767C48.2985 50.9935 47.2612 50.7992 46.2123 50.6549C46.7251 50.0667 47.2613 49.6893 47.5818 49.5505C53.5313 46.6036 56.8935 41.9862 56.9052 35.1988C56.911 30.3983 56.3516 25.6422 54.8774 21.0248C52.8845 14.7702 49.9534 9.043 44.6624 4.6365C39.8725 0.646234 33.5675 0.524118 28.9058 4.61428C24.0634 8.87093 20.9576 14.2263 19.0346 20.1868C17.2515 25.7143 17.0067 31.4084 17.4146 37.1413C17.7818 42.3747 19.8737 46.6258 24.9899 49.151C25.6834 49.4951 26.3126 49.9668 26.9711 50.383C26.0504 50.7049 25.2755 50.8326 24.5646 50.6772C23.6147 50.4663 23.1428 50.9269 22.9913 51.6039C22.8398 52.2865 22.9154 53.0414 23.0378 53.7462C23.1485 54.3955 23.4515 55.0114 23.6613 55.6053C21.2664 56.9372 20.9109 59.0183 22.6241 60.8442C23.0378 61.2826 23.4225 61.7432 23.8537 62.2261C20.9343 63.3971 20.5031 64.0409 23.0029 67.8203L22.9679 67.8147Z" fill="#4D4D4D"/>
</svg>
