<svg width="23" height="28" viewBox="0 0 23 28" fill="none" xmlns="http://www.w3.org/2000/svg">
<path fill-rule="evenodd" clip-rule="evenodd" d="M11.1072 0C14.6413 0 17.4181 2.52436 17.4181 5.30115H19.69C21.2046 5.30115 22.4668 6.56333 22.4668 8.07794V24.9911C22.4668 26.5057 21.2046 27.7679 19.69 27.7679H2.77679C1.26218 27.7679 0 26.5057 0 24.9911V8.07794C0 6.56333 1.26218 5.30115 2.77679 5.30115H5.04871C5.04871 2.27192 7.8255 0 11.3596 0L11.1072 0Z" fill="#4D4D4D"/>
<path fill-rule="evenodd" clip-rule="evenodd" d="M6.31055 5.30069H16.1555C16.1555 3.02877 13.8836 1.26172 11.3593 1.26172C8.58247 1.26172 6.56298 3.02877 6.56298 5.30069H6.31055Z" fill="#A0FFF4"/>
</svg>
