<svg width="5" height="5" viewBox="0 0 5 5" fill="none" xmlns="http://www.w3.org/2000/svg">
<path d="M0.44564 2.19237L1.07354 2.03121C1.14 2.01342 1.19651 1.97417 1.23209 1.90929C1.32941 1.7408 1.56121 1.41743 2.03737 1.14691C2.21842 1.04488 2.3665 0.966913 2.49836 0.901507C2.83638 0.730927 3.04045 0.630986 3.34498 0.255814C3.47579 0.0936059 3.60294 0.00779254 3.73166 0.00046701C3.81748 -0.00424226 3.90224 0.0266296 3.9734 0.0946524C4.08433 0.200873 4.12829 0.360464 4.10056 0.518486C4.05503 0.741915 3.97079 1.04069 3.82428 1.17935C3.67986 1.31278 3.33922 1.57232 3.14091 1.72197L3.7416 1.98255C3.78399 1.99772 3.82062 2.02911 3.85724 2.06051L3.94724 2.1594C4.03358 2.25097 4.05869 2.38022 4.01474 2.50161L3.92422 2.75016C3.91271 2.78207 3.89596 2.8119 3.87922 2.84173L3.97654 2.9851C4.03986 3.07405 4.05294 3.18707 4.01683 3.28754L3.95875 3.44608C3.93364 3.51463 3.88707 3.57585 3.83108 3.61561C3.8562 3.66061 3.85829 3.72131 3.83893 3.77416L3.76201 3.98555C3.71544 4.1127 3.60451 4.20375 3.47527 4.22939L3.3837 4.2498L3.30888 4.45648C3.27957 4.53601 3.21417 4.60142 3.13306 4.62601L2.68882 4.77619C2.59882 4.80968 2.49888 4.80287 2.41464 4.77252C2.39371 4.76468 2.37749 4.75892 2.35813 4.74584C2.31365 4.73537 2.01016 4.67939 1.70354 4.56741C1.48639 4.4884 1.27133 4.38636 1.13947 4.25451C1.11697 4.2341 1.09971 4.21578 1.08244 4.19747C0.956334 4.18177 0.435175 4.12997 0.138491 4.35183C0.114945 4.36753 0.0825035 4.37381 0.0563409 4.36387C0.0406434 4.35811 0.0265156 4.34712 0.0176203 4.3377C0.00296922 4.32044 -0.0022633 4.29741 0.000876208 4.27491L0.00453897 4.22677L0.383897 2.26301C0.390176 2.22952 0.408489 2.20126 0.445117 2.1908L0.44564 2.19237Z" fill="#808080"/>
</svg>
