<svg width="27" height="25" viewBox="0 0 27 25" fill="none" xmlns="http://www.w3.org/2000/svg">
<path d="M20.1103 0C17.131 0 14.5241 2.7931 13.5931 4.09655C12.6621 2.7931 10.0552 0 7.07586 0C3.16552 0 0 3.53793 0 8.0069C0 10.4276 0.931034 12.6621 2.6069 14.1517C2.6069 14.1517 2.6069 14.1517 2.6069 14.3379L13.0345 24.7655C13.2207 24.9517 13.2207 24.9517 13.4069 24.9517C13.5931 24.9517 13.7793 24.9517 13.7793 24.7655L24.5793 13.9655L24.7655 13.7793L24.9517 13.5931C24.9517 13.5931 24.9517 13.5931 25.1379 13.4069C26.4414 11.9172 27 10.0552 27 8.0069C27 3.53793 23.8345 0 19.9241 0L20.1103 0Z" fill="#4D4D4D"/>
</svg>
