<svg width="5" height="5" viewBox="0 0 5 5" fill="none" xmlns="http://www.w3.org/2000/svg">
<path d="M0.445784 2.60697L1.07389 2.76819C1.14036 2.78598 1.19689 2.82524 1.23248 2.89014C1.32984 3.05869 1.56172 3.38216 2.03803 3.65277C2.21913 3.75483 2.36726 3.83282 2.49916 3.89825C2.83729 4.06889 3.04143 4.16886 3.34606 4.54415C3.47691 4.70641 3.6041 4.79225 3.73286 4.79958C3.8187 4.80429 3.9035 4.77341 3.97468 4.70537C4.08565 4.59911 4.12962 4.43947 4.10188 4.2814C4.05634 4.0579 3.97207 3.75902 3.82551 3.62032C3.68104 3.48684 3.3403 3.22723 3.14192 3.07753L3.74281 2.81687C3.78521 2.80169 3.82185 2.77028 3.85848 2.73888L3.94851 2.63995C4.03488 2.54835 4.06 2.41907 4.01603 2.29763L3.92548 2.04901C3.91397 2.01708 3.89722 1.98724 3.88047 1.95741L3.97782 1.81399C4.04116 1.72501 4.05424 1.61195 4.01813 1.51145L3.96003 1.35286C3.9349 1.28429 3.88832 1.22305 3.83231 1.18327C3.85744 1.13826 3.85953 1.07754 3.84017 1.02467L3.76322 0.813212C3.71664 0.68602 3.60567 0.594945 3.47639 0.569298L3.38479 0.548884L3.30994 0.342133C3.28063 0.262573 3.2152 0.197146 3.13407 0.172545L2.68969 0.0223231C2.59966 -0.0111758 2.49969 -0.00437135 2.41542 0.025987C2.39448 0.0338383 2.37825 0.0395961 2.35889 0.0526816C2.3144 0.06315 2.01081 0.119156 1.70409 0.231168C1.48687 0.310204 1.27174 0.412271 1.13984 0.544173C1.11733 0.564587 1.10006 0.582906 1.08279 0.601226C0.956643 0.616929 0.435316 0.668747 0.138536 0.446817C0.114983 0.431114 0.0825305 0.424833 0.0563594 0.434778C0.0406568 0.440536 0.0265245 0.451528 0.0176263 0.460949C0.00297055 0.478222 -0.00226366 0.501253 0.000876864 0.52376L0.0045408 0.571914L0.38402 2.53631C0.390301 2.56981 0.408621 2.59807 0.445261 2.60854L0.445784 2.60697Z" fill="#808080"/>
</svg>
