<svg width="11" height="8" viewBox="0 0 11 8" fill="none" xmlns="http://www.w3.org/2000/svg">
<g clip-path="url(#clip0_226_143)">
<path fill-rule="evenodd" clip-rule="evenodd" d="M6.42885 3.17043C5.54735 3.68896 5.23624 3.17043 4.97697 4.10378C4.87327 4.05193 4.76956 4.00007 4.66586 3.94822L3.68066 5.60751L3.5251 4.25934C3.73251 4.10378 3.68066 4.10378 3.57695 3.79266H3.21398C3.11028 4.10378 3.05843 4.05193 3.26584 4.25934L3.11028 5.60751L2.12508 3.94822C0.880614 4.62231 0.517645 3.79266 0.206529 5.65936L-0.0527344 7.05938C0.310234 7.16309 0.673203 7.26679 1.03617 7.42235L1.34729 6.3853V7.57791C1.91767 7.83717 2.5399 8.04458 3.42139 8.04458C4.30289 8.04458 4.92512 7.78532 5.4955 7.57791V6.3853L5.80662 7.42235C6.16959 7.26679 6.4807 7.11123 6.84367 7.05938L6.73997 6.3853C6.94738 6.43715 7.20664 6.489 7.4659 6.489C8.13999 6.489 8.65851 6.28159 9.12519 6.07418V5.14083L9.3326 5.97048C9.59186 5.86677 9.90298 5.76307 10.1622 5.65936L9.95483 4.57045C9.69557 3.06673 9.38445 3.79266 8.39925 3.22228C8.3474 3.68896 7.93258 4.00007 7.3622 4.00007C6.84367 4.00007 6.377 3.63711 6.32514 3.22228L6.42885 3.17043ZM4.5103 2.5482C4.61401 2.5482 4.71771 2.44449 4.82142 2.28894C4.92512 2.08153 4.87327 1.87412 4.71771 1.77041H4.66586C4.71771 1.30374 4.61401 0.888914 4.35474 0.577798C4.30289 0.525946 4.19918 0.474093 4.19918 0.42224C3.88807 -0.0962863 3.21398 0.111124 2.79916 0.00741907C2.48805 -0.0962863 2.48805 0.0592718 2.59175 0.474093C2.59175 0.474093 2.48805 0.577798 2.43619 0.629651C2.22878 0.940767 2.12508 1.35559 2.17693 1.77041C2.17693 1.77041 2.17693 1.77041 2.12508 1.77041C1.96952 1.82226 1.96952 2.08153 2.02137 2.28894C2.07322 2.44449 2.22878 2.5482 2.33249 2.5482C2.85102 3.89637 3.99177 3.89637 4.5103 2.5482ZM4.14733 6.3853H5.13253V6.64456H4.14733V6.3853ZM6.89552 2.65191C7.05108 2.75561 7.25849 2.80746 7.4659 2.80746C7.72517 2.80746 7.77702 2.80746 8.03628 2.60005C8.03628 2.60005 8.03628 2.60005 8.08813 2.60005C8.3474 2.60005 8.65851 2.5482 8.91778 2.49635C8.81407 2.34079 8.60666 1.30374 8.50296 0.785209C8.4511 0.318535 7.98443 -0.0444336 7.31034 -0.0444336C6.84367 -0.0444336 6.42885 0.266682 6.32514 0.733356C6.22144 1.04447 5.91032 1.97782 5.44365 2.28894C5.70291 2.44449 6.42885 2.60005 6.79182 2.60005L6.89552 2.65191ZM8.03628 5.08898H8.81407V5.29639H8.03628V5.08898Z" fill="#4D4D4D"/>
</g>
<defs>
<clipPath id="clip0_226_143">
<rect width="10.215" height="8.00012" fill="white"/>
</clipPath>
</defs>
</svg>
