<svg width="6" height="8" viewBox="0 0 6 8" fill="none" xmlns="http://www.w3.org/2000/svg">
<g clip-path="url(#clip0_226_149)">
<path d="M4.64684 0H0.597586C0.202537 0 -0.09375 0.296287 -0.09375 0.691336V6.12326C-0.09375 6.51831 0.202537 6.8146 0.597586 6.8146H1.68397C1.78273 6.8146 1.8815 6.91336 1.8815 7.01212V8.09851L3.36293 6.91336H3.46169H4.54808C4.94313 6.91336 5.23941 6.61707 5.23941 6.22203V0.790098C5.23941 0.395049 4.94313 0.0987623 4.54808 0.0987623L4.64684 0ZM2.67159 6.0245H1.0914C0.992635 6.0245 0.893873 5.92574 0.893873 5.82698C0.893873 5.72821 0.992635 5.62945 1.0914 5.62945H2.67159C2.77036 5.62945 2.86912 5.72821 2.86912 5.82698C2.86912 5.92574 2.77036 5.92574 2.67159 6.0245ZM4.25179 4.4443H1.0914C0.992635 4.4443 0.893873 4.34554 0.893873 4.24678C0.893873 4.14802 0.992635 4.04925 1.0914 4.04925H4.25179C4.35055 4.04925 4.44932 4.14802 4.44932 4.24678C4.44932 4.34554 4.35055 4.4443 4.25179 4.4443ZM4.25179 2.86411H1.0914C0.992635 2.86411 0.893873 2.76534 0.893873 2.66658C0.893873 2.56782 0.992635 2.46906 1.0914 2.46906H4.25179C4.35055 2.46906 4.44932 2.56782 4.44932 2.66658C4.44932 2.76534 4.35055 2.86411 4.25179 2.86411ZM4.25179 1.28391H1.0914C0.992635 1.28391 0.893873 1.18515 0.893873 1.08639C0.893873 0.987623 0.992635 0.888861 1.0914 0.888861H4.25179C4.35055 0.888861 4.44932 0.987623 4.44932 1.08639C4.44932 1.18515 4.35055 1.28391 4.25179 1.28391Z" fill="#4D4D4D"/>
</g>
<defs>
<clipPath id="clip0_226_149">
<rect width="5.34274" height="7.99975" fill="white"/>
</clipPath>
</defs>
</svg>
