<svg width="8" height="8" viewBox="0 0 8 8" fill="none" xmlns="http://www.w3.org/2000/svg">
<g clip-path="url(#clip0_226_152)">
<path fill-rule="evenodd" clip-rule="evenodd" d="M3.92204 2.3358C4.85636 2.3358 5.5571 3.09494 5.5571 3.97086C5.5571 4.90518 4.79796 5.60592 3.92204 5.60592C2.98771 5.60592 2.28697 4.84679 2.28697 3.97086C2.28697 3.03654 3.04611 2.3358 3.92204 2.3358ZM4.09722 7.29938C4.21401 7.24099 4.3308 7.1242 4.3308 6.94901C4.3308 6.71543 4.15562 6.54024 3.92204 6.54024C3.68845 6.54024 3.51327 6.71543 3.51327 6.94901C3.51327 7.1242 3.63006 7.24099 3.74685 7.29938C3.51327 7.35778 3.39648 7.53296 3.27969 7.70815C3.39648 7.88333 3.63006 8.00012 3.92204 8.00012C4.15562 8.00012 4.3892 7.88333 4.56438 7.70815C4.50599 7.53296 4.3308 7.35778 4.09722 7.29938ZM3.92204 1.45988C4.15562 1.45988 4.3892 1.34309 4.56438 1.1679C4.50599 0.992716 4.3308 0.817531 4.09722 0.759136C4.21401 0.70074 4.3308 0.58395 4.3308 0.408765C4.3308 0.175185 4.15562 0 3.92204 0C3.68845 0 3.51327 0.175185 3.51327 0.408765C3.51327 0.58395 3.63006 0.70074 3.74685 0.759136C3.51327 0.817531 3.39648 0.992716 3.27969 1.1679C3.39648 1.34309 3.63006 1.45988 3.92204 1.45988ZM7.36734 4.02926C7.48413 3.97086 7.60092 3.85407 7.60092 3.67889C7.60092 3.44531 7.42574 3.27012 7.19216 3.27012C6.95858 3.27012 6.78339 3.44531 6.78339 3.67889C6.78339 3.85407 6.90018 3.97086 7.01697 4.02926C6.78339 4.08765 6.6666 4.26284 6.54981 4.43802C6.6666 4.61321 6.90018 4.73 7.19216 4.73C7.42574 4.73 7.65932 4.61321 7.8345 4.43802C7.77611 4.26284 7.60092 4.08765 7.36734 4.02926ZM1.23586 4.43802C1.17747 4.26284 1.00228 4.08765 0.768703 4.02926C0.885493 3.97086 1.00228 3.85407 1.00228 3.67889C1.00228 3.44531 0.827098 3.27012 0.593517 3.27012C0.359937 3.27012 0.184752 3.44531 0.184752 3.67889C0.184752 3.85407 0.301542 3.97086 0.418332 4.02926C0.184752 4.08765 0.067962 4.26284 -0.0488281 4.43802C0.067962 4.61321 0.301542 4.73 0.593517 4.73C0.827098 4.73 1.06068 4.61321 1.23586 4.43802ZM7.19216 4.96358C7.13376 4.96358 7.07537 4.96358 7.01697 5.02197C6.6666 6.01469 5.90747 6.83222 4.91475 7.1242C4.85636 7.1242 4.79796 7.24099 4.85636 7.29938C4.85636 7.35778 4.97315 7.41617 5.03154 7.35778C6.08265 7.00741 6.95858 6.13148 7.30895 5.08037C7.30895 5.02197 7.30895 4.96358 7.25055 4.90518L7.19216 4.96358ZM4.91475 0.934321C5.90747 1.28469 6.725 2.04383 7.01697 3.03654C7.01697 3.09494 7.13376 3.15333 7.19216 3.09494C7.25055 3.09494 7.30895 2.97815 7.25055 2.91975C6.90018 1.86864 6.02426 0.992716 4.97315 0.642345C4.91475 0.642345 4.85636 0.642345 4.79796 0.70074C4.79796 0.759136 4.79796 0.817531 4.85636 0.875926L4.91475 0.934321ZM0.535122 2.97815C0.885493 1.92704 1.76142 1.05111 2.81253 0.70074C2.87092 0.70074 2.92932 0.70074 2.98771 0.759136C2.98771 0.817531 2.98771 0.875926 2.92932 0.934321C1.9366 1.28469 1.11907 2.04383 0.827098 3.03654C0.827098 3.09494 0.710307 3.15333 0.651912 3.09494C0.593517 3.09494 0.535122 2.97815 0.593517 2.91975L0.535122 2.97815ZM2.87092 7.18259C1.87821 6.83222 1.06068 6.07308 0.768703 5.08037C0.768703 5.02197 0.651912 4.96358 0.593517 5.02197C0.535122 5.02197 0.476727 5.13876 0.535122 5.19716C0.885493 6.24827 1.76142 7.1242 2.81253 7.47457C2.87092 7.47457 2.92932 7.47457 2.98771 7.41617C2.98771 7.35778 2.98771 7.29938 2.92932 7.24099L2.87092 7.18259ZM3.92204 4.73C4.03883 4.73 4.15562 4.6716 4.21401 4.61321C4.21401 4.55481 4.27241 4.49642 4.27241 4.43802C4.27241 4.32123 4.21401 4.26284 4.15562 4.20444C4.09722 4.20444 4.03883 4.14605 3.98043 4.14605V4.73H3.92204ZM3.51327 3.62049C3.51327 3.67889 3.51327 3.73728 3.57166 3.79568C3.63006 3.85407 3.68845 3.85407 3.74685 3.91247V3.38691C3.63006 3.38691 3.57166 3.44531 3.51327 3.5037C3.45487 3.5621 3.45487 3.62049 3.45487 3.67889L3.51327 3.62049ZM3.27969 3.62049C3.27969 3.5037 3.33808 3.38691 3.39648 3.32852C3.45487 3.21173 3.57166 3.21173 3.74685 3.21173V3.03654H3.86364V3.21173C4.03883 3.21173 4.15562 3.27012 4.21401 3.32852C4.27241 3.38691 4.3308 3.5037 4.3308 3.62049H4.15562C4.15562 3.5621 4.15562 3.5037 4.09722 3.44531C4.03883 3.38691 3.98043 3.32852 3.86364 3.32852V3.91247C4.03883 3.97086 4.15562 4.02926 4.21401 4.02926C4.3308 4.08765 4.3892 4.20444 4.3892 4.32123C4.3892 4.49642 4.3308 4.6716 4.21401 4.73C4.15562 4.78839 4.03883 4.78839 3.92204 4.84679V5.08037H3.80524V4.84679C3.57166 4.84679 3.45487 4.73 3.33808 4.61321C3.27969 4.55481 3.27969 4.43802 3.27969 4.32123H3.45487C3.45487 4.43802 3.45487 4.49642 3.51327 4.55481C3.57166 4.61321 3.63006 4.6716 3.74685 4.6716V4.02926C3.57166 3.97086 3.45487 3.97086 3.39648 3.85407C3.33808 3.79568 3.27969 3.67889 3.27969 3.5621V3.62049Z" fill="#4D4D4D"/>
</g>
<defs>
<clipPath id="clip0_226_152">
<rect width="7.78394" height="8.00012" fill="white"/>
</clipPath>
</defs>
</svg>
