<svg width="5" height="5" viewBox="0 0 5 5" fill="none" xmlns="http://www.w3.org/2000/svg">
<g clip-path="url(#clip0_220_2)">
<path d="M3.57698 3.33899C3.36828 3.33899 3.26394 3.44333 3.05524 3.54768L1.38567 2.5042C1.38567 2.39986 1.38567 2.39986 1.38567 2.29551C1.38567 2.19116 1.38567 2.19116 1.38567 2.08681L3.05524 1.14768C3.15959 1.25203 3.36828 1.35638 3.57698 1.35638C3.99437 1.35638 4.30741 1.04333 4.30741 0.625943C4.30741 0.208551 3.99437 -0.104492 3.57698 -0.104492C3.15959 -0.104492 2.84654 0.208551 2.84654 0.625943C2.84654 0.73029 2.84654 0.73029 2.84654 0.834638L1.17698 1.77377C1.07263 1.66942 0.863935 1.56507 0.655239 1.56507C0.237848 1.56507 -0.0751953 1.87812 -0.0751953 2.29551C-0.0751953 2.7129 0.237848 3.02594 0.655239 3.02594C0.863935 3.02594 0.968283 2.92159 1.17698 2.81725L2.84654 3.86073C2.84654 3.86073 2.84654 3.96507 2.84654 4.06942C2.84654 4.48681 3.15959 4.79986 3.57698 4.79986C3.99437 4.79986 4.30741 4.48681 4.30741 4.06942C4.30741 3.65203 3.99437 3.33899 3.57698 3.33899Z" fill="#4D4D4D"/>
</g>
<defs>
<clipPath id="clip0_220_2">
<rect width="4.33739" height="4.8" fill="white"/>
</clipPath>
</defs>
</svg>
