<svg width="4" height="5" viewBox="0 0 4 5" fill="none" xmlns="http://www.w3.org/2000/svg">
<g clip-path="url(#clip0_222_2)">
<path d="M0.437111 2.71108L1.04978 2.87775C1.11209 2.89997 1.17439 2.93331 1.20555 2.99997C1.29901 3.17775 1.52746 3.51108 1.98437 3.78886C2.1609 3.89997 2.30628 3.97775 2.43089 4.04442C2.76319 4.22219 2.96049 4.32219 3.25125 4.71108C3.37586 4.87775 3.50047 4.96664 3.62508 4.97775C3.70816 4.97775 3.79123 4.95553 3.86392 4.87775C3.96776 4.76664 4.01968 4.59997 3.98853 4.43331C3.94699 4.19997 3.86392 3.88886 3.71854 3.74442C3.57316 3.61108 3.25125 3.33331 3.05395 3.17775L3.63547 2.91108C3.677 2.89997 3.70816 2.86664 3.74969 2.83331L3.83277 2.73331C3.91584 2.63331 3.93661 2.49997 3.89507 2.37775L3.812 2.12219C3.80162 2.08886 3.78085 2.05553 3.77046 2.02219L3.86392 1.87775C3.92623 1.78886 3.93661 1.66664 3.90546 1.56664L3.85354 1.39997C3.83277 1.33331 3.78085 1.26664 3.72893 1.22219C3.74969 1.17775 3.76008 1.11108 3.73931 1.05553L3.66662 0.833306C3.62508 0.699973 3.51086 0.611084 3.38624 0.577751L3.29279 0.555528L3.2201 0.344417C3.18894 0.266639 3.12664 0.188862 3.05395 0.16664L2.61781 0.011084C2.53473 -0.0222493 2.43089 -0.0222493 2.34782 0.011084C2.32705 0.0221951 2.31666 0.0221951 2.2959 0.0333062C2.25436 0.0444173 1.95321 0.0999729 1.66245 0.222195C1.45477 0.299973 1.24708 0.411084 1.11209 0.544417C1.09132 0.566639 1.07055 0.588862 1.06017 0.599973C0.935556 0.622195 0.426726 0.666639 0.146351 0.444417C0.125582 0.433306 0.0944296 0.422195 0.0632767 0.433306C0.0528925 0.444417 0.0321239 0.455528 0.0217396 0.455528C-0.00941318 0.488862 0.000971093 0.555528 0.0321239 0.577751C0.302115 0.788862 0.686333 0.799973 0.914787 0.788862C0.779792 1.01108 0.779792 1.18886 0.779792 1.19997C0.779792 1.25553 0.810944 1.28886 0.862866 1.28886C0.904403 1.28886 0.94594 1.25553 0.94594 1.19997C0.94594 1.19997 0.956324 0.944417 1.22632 0.655528C1.38208 0.488862 1.72476 0.355528 1.98437 0.277751L1.81822 0.422195C1.72476 0.511084 1.67284 0.655528 1.72476 0.788862L1.77668 0.944417C1.79745 0.999973 1.83899 1.04442 1.88052 1.06664C1.85976 1.12219 1.85976 1.18886 1.88052 1.24442L1.94283 1.43331C1.9636 1.49997 2.01552 1.55553 2.07783 1.57775C2.07783 1.59997 2.06744 1.61108 2.06744 1.64442C1.90129 1.54442 1.61053 1.43331 1.26785 1.55553C1.22632 1.56664 1.20555 1.62219 1.21593 1.66664C1.22632 1.71108 1.27824 1.73331 1.31977 1.72219C1.74553 1.56664 2.07783 1.87775 2.10898 1.91108L2.14013 1.98886C2.17128 2.06664 2.22321 2.12219 2.28551 2.15553C2.25436 2.22219 2.25436 2.29997 2.27513 2.36664L2.32705 2.52219C2.36859 2.63331 2.47243 2.71108 2.59704 2.69997L3.2201 2.65553C3.25125 2.65553 3.2824 2.65553 3.32394 2.67775C3.36548 2.69997 3.4174 2.67775 3.42778 2.63331C3.44855 2.58886 3.42778 2.53331 3.38624 2.52219C3.33432 2.48886 3.27202 2.47775 3.20971 2.48886L2.58666 2.53331C2.54512 2.53331 2.50358 2.51108 2.48281 2.46664L2.43089 2.31108C2.42051 2.28886 2.42051 2.25553 2.43089 2.23331C2.44128 2.21108 2.46204 2.18886 2.4932 2.17775L2.52435 2.16664L3.06433 1.96664C3.10587 1.94442 3.15779 1.94442 3.20971 1.95553L3.53162 2.03331C3.60431 2.04442 3.65624 2.09997 3.677 2.16664L3.76008 2.42219C3.78085 2.47775 3.77046 2.55553 3.72893 2.59997L3.64585 2.69997C3.62508 2.72219 3.6147 2.73331 3.59393 2.74442L3.00203 3.01108C2.9501 3.03331 2.91895 3.07775 2.90857 3.14442C2.89818 3.19997 2.92934 3.26664 2.97087 3.29997C3.12664 3.42219 3.49009 3.72219 3.63547 3.86664C3.71854 3.95553 3.80162 4.16664 3.85354 4.45553C3.87431 4.55553 3.84315 4.66664 3.78085 4.73331C3.74969 4.76664 3.70816 4.78886 3.66662 4.77775C3.6147 4.76664 3.53162 4.73331 3.40701 4.57775C3.0851 4.15553 2.86703 4.04442 2.52435 3.85553C2.39974 3.78886 2.25436 3.71108 2.08821 3.61108C1.66245 3.35553 1.45477 3.04442 1.3717 2.88886C1.30939 2.78886 1.22632 2.71108 1.11209 2.67775L0.499416 2.51108C0.478648 2.51108 0.457879 2.51108 0.447495 2.51108C0.426726 2.52219 0.395573 2.54442 0.395573 2.57775C0.374805 2.62219 0.405958 2.66664 0.447495 2.67775L0.437111 2.71108ZM3.50047 0.899973L3.57316 1.12219C3.57316 1.12219 3.57316 1.13331 3.57316 1.14442C3.4797 1.09997 3.37586 1.07775 3.27202 1.07775L3.00203 1.06664C2.9501 1.06664 2.89818 1.06664 2.83588 1.08886C2.82549 1.08886 2.81511 1.09997 2.80472 1.09997C2.77357 1.11108 2.7528 1.12219 2.72165 1.14442L2.19205 1.47775C2.1609 1.49997 2.14013 1.48886 2.12975 1.48886C2.11936 1.47775 2.09859 1.46664 2.08821 1.43331L2.0259 1.24442C2.01552 1.21108 2.0259 1.16664 2.04667 1.14442L2.5555 0.722195C2.62819 0.666639 2.72165 0.644417 2.80472 0.655528L3.34471 0.766639C3.4174 0.777751 3.46932 0.833306 3.50047 0.911084V0.899973ZM1.85976 0.766639C1.83899 0.711084 1.85976 0.633306 1.90129 0.599973L2.31666 0.233306C2.37897 0.177751 2.47243 0.16664 2.54512 0.188862L2.98126 0.333306C3.01241 0.344417 3.04356 0.366639 3.05395 0.399973L3.09548 0.511084L2.83588 0.466639C2.7528 0.455528 2.65935 0.455528 2.58666 0.488862C2.54512 0.511084 2.4932 0.533306 2.45166 0.566639L2.30628 0.688862L2.01552 0.933306C2.00514 0.944417 1.98437 0.944417 1.9636 0.944417C1.94283 0.944417 1.93245 0.922195 1.93245 0.911084L1.88052 0.744417L1.85976 0.766639ZM3.55239 1.87775L3.23048 1.79997C3.18894 1.78886 3.13702 1.78886 3.0851 1.78886C3.05395 1.79997 3.02279 1.79997 2.99164 1.81108L2.39974 2.02219C2.34782 2.03331 2.2959 1.99997 2.27513 1.94442L2.21282 1.77775C2.19205 1.72219 2.21282 1.65553 2.26474 1.62219L2.27513 1.61108L2.61781 1.39997L2.80472 1.28886C2.86703 1.25553 2.92934 1.23331 3.00203 1.23331L3.27202 1.24442C3.38624 1.25553 3.50047 1.28886 3.59393 1.34442L3.6147 1.35553C3.65624 1.37775 3.677 1.41108 3.68739 1.45553L3.73931 1.62219C3.76008 1.66664 3.74969 1.73331 3.71854 1.77775L3.62508 1.91108C3.59393 1.89997 3.57316 1.88886 3.54201 1.87775H3.55239Z" fill="#808080"/>
</g>
<defs>
<clipPath id="clip0_222_2">
<rect width="4" height="5" fill="white"/>
</clipPath>
</defs>
</svg>
