<svg width="4" height="5" viewBox="0 0 4 5" fill="none" xmlns="http://www.w3.org/2000/svg">
<g clip-path="url(#clip0_222_5)">
<path d="M0.437111 2.28892L1.04978 2.12225C1.11209 2.10003 1.17439 2.06669 1.20555 2.00003C1.29901 1.82225 1.52746 1.48892 1.98437 1.21114C2.1609 1.10003 2.30628 1.02225 2.43089 0.955583C2.76319 0.777805 2.96049 0.677806 3.25125 0.288917C3.37586 0.12225 3.50047 0.0333613 3.62508 0.0222502C3.70816 0.0222502 3.79123 0.0444726 3.86392 0.12225C3.96776 0.233361 4.01968 0.400028 3.98853 0.566694C3.94699 0.800028 3.86392 1.11114 3.71854 1.25558C3.57316 1.38892 3.25125 1.66669 3.05395 1.82225L3.63547 2.08892C3.677 2.10003 3.70816 2.13336 3.74969 2.16669L3.83277 2.26669C3.91584 2.36669 3.93661 2.50003 3.89507 2.62225L3.812 2.87781C3.80162 2.91114 3.78085 2.94447 3.77046 2.97781L3.86392 3.12225C3.92623 3.21114 3.93661 3.33336 3.90546 3.43336L3.85354 3.60003C3.83277 3.66669 3.78085 3.73336 3.72892 3.77781C3.74969 3.82225 3.76008 3.88892 3.73931 3.94447L3.66662 4.16669C3.62508 4.30003 3.51086 4.38892 3.38624 4.42225L3.29279 4.44447L3.2201 4.65558C3.18894 4.73336 3.12664 4.81114 3.05395 4.83336L2.61781 4.98892C2.53473 5.02225 2.43089 5.02225 2.34782 4.98892C2.32705 4.97781 2.31666 4.97781 2.2959 4.96669C2.25436 4.95558 1.95321 4.90003 1.66245 4.77781C1.45477 4.70003 1.24708 4.58892 1.11209 4.45558C1.09132 4.43336 1.07055 4.41114 1.06017 4.40003C0.935556 4.37781 0.426726 4.33336 0.146351 4.55558C0.125582 4.56669 0.0944296 4.5778 0.0632768 4.56669C0.0528925 4.55558 0.032124 4.54447 0.0217397 4.54447C-0.00941314 4.51114 0.000971143 4.44447 0.032124 4.42225C0.302115 4.21114 0.686333 4.20003 0.914787 4.21114C0.779792 3.98892 0.779792 3.81114 0.779792 3.80003C0.779792 3.74447 0.810944 3.71114 0.862866 3.71114C0.904403 3.71114 0.94594 3.74447 0.94594 3.80003C0.94594 3.80003 0.956324 4.05558 1.22632 4.34447C1.38208 4.51114 1.72476 4.64447 1.98437 4.72225L1.81822 4.57781C1.72476 4.48892 1.67284 4.34447 1.72476 4.21114L1.77668 4.05558C1.79745 4.00003 1.83899 3.95558 1.88052 3.93336C1.85976 3.87781 1.85976 3.81114 1.88052 3.75558L1.94283 3.56669C1.9636 3.50003 2.01552 3.44447 2.07783 3.42225C2.07783 3.40003 2.06744 3.38892 2.06744 3.35558C1.90129 3.45558 1.61053 3.56669 1.26785 3.44447C1.22632 3.43336 1.20555 3.37781 1.21593 3.33336C1.22632 3.28892 1.27824 3.26669 1.31977 3.27781C1.74553 3.43336 2.07783 3.12225 2.10898 3.08892L2.14013 3.01114C2.17128 2.93336 2.22321 2.87781 2.28551 2.84447C2.25436 2.77781 2.25436 2.70003 2.27513 2.63336L2.32705 2.47781C2.36859 2.36669 2.47243 2.28892 2.59704 2.30003L3.2201 2.34447C3.25125 2.34447 3.2824 2.34447 3.32394 2.32225C3.36548 2.30003 3.4174 2.32225 3.42778 2.36669C3.44855 2.41114 3.42778 2.46669 3.38624 2.47781C3.33432 2.51114 3.27202 2.52225 3.20971 2.51114L2.58666 2.46669C2.54512 2.46669 2.50358 2.48892 2.48281 2.53336L2.43089 2.68892C2.42051 2.71114 2.42051 2.74447 2.43089 2.76669C2.44128 2.78892 2.46204 2.81114 2.4932 2.82225L2.52435 2.83336L3.06433 3.03336C3.10587 3.05558 3.15779 3.05558 3.20971 3.04447L3.53162 2.96669C3.60431 2.95558 3.65624 2.90003 3.677 2.83336L3.76008 2.57781C3.78085 2.52225 3.77046 2.44447 3.72892 2.40003L3.64585 2.30003C3.62508 2.27781 3.6147 2.26669 3.59393 2.25558L3.00203 1.98892C2.9501 1.96669 2.91895 1.92225 2.90857 1.85558C2.89818 1.80003 2.92934 1.73336 2.97087 1.70003C3.12664 1.57781 3.49009 1.27781 3.63547 1.13336C3.71854 1.04447 3.80162 0.833361 3.85354 0.544472C3.87431 0.444472 3.84315 0.333361 3.78085 0.266694C3.74969 0.233361 3.70816 0.211139 3.66662 0.22225C3.6147 0.233361 3.53162 0.266695 3.40701 0.42225C3.0851 0.844472 2.86703 0.955583 2.52435 1.14447C2.39974 1.21114 2.25436 1.28892 2.08821 1.38892C1.66245 1.64447 1.45477 1.95558 1.3717 2.11114C1.30939 2.21114 1.22632 2.28892 1.11209 2.32225L0.499416 2.48892C0.478648 2.48892 0.457879 2.48892 0.447495 2.48892C0.426726 2.47781 0.395574 2.45558 0.395574 2.42225C0.374805 2.37781 0.405958 2.33336 0.447495 2.32225L0.437111 2.28892ZM3.50047 4.10003L3.57316 3.87781C3.57316 3.87781 3.57316 3.86669 3.57316 3.85558C3.4797 3.90003 3.37586 3.92225 3.27202 3.92225L3.00203 3.93336C2.9501 3.93336 2.89818 3.93336 2.83588 3.91114C2.82549 3.91114 2.81511 3.90003 2.80472 3.90003C2.77357 3.88892 2.7528 3.87781 2.72165 3.85558L2.19205 3.52225C2.1609 3.50003 2.14013 3.51114 2.12975 3.51114C2.11936 3.52225 2.09859 3.53336 2.08821 3.56669L2.0259 3.75558C2.01552 3.78892 2.0259 3.83336 2.04667 3.85558L2.5555 4.27781C2.62819 4.33336 2.72165 4.35558 2.80472 4.34447L3.34471 4.23336C3.4174 4.22225 3.46932 4.16669 3.50047 4.08892L3.50047 4.10003ZM1.85976 4.23336C1.83899 4.28892 1.85976 4.36669 1.90129 4.40003L2.31666 4.76669C2.37897 4.82225 2.47243 4.83336 2.54512 4.81114L2.98126 4.66669C3.01241 4.65558 3.04356 4.63336 3.05395 4.60003L3.09548 4.48892L2.83588 4.53336C2.7528 4.54447 2.65934 4.54447 2.58665 4.51114C2.54512 4.48892 2.4932 4.46669 2.45166 4.43336L2.30628 4.31114L2.01552 4.06669C2.00514 4.05558 1.98437 4.05558 1.9636 4.05558C1.94283 4.05558 1.93245 4.07781 1.93245 4.08892L1.88052 4.25558L1.85976 4.23336ZM3.55239 3.12225L3.23048 3.20003C3.18894 3.21114 3.13702 3.21114 3.0851 3.21114C3.05395 3.20003 3.02279 3.20003 2.99164 3.18892L2.39974 2.97781C2.34782 2.96669 2.2959 3.00003 2.27513 3.05558L2.21282 3.22225C2.19205 3.27781 2.21282 3.34447 2.26474 3.37781L2.27513 3.38892L2.61781 3.60003L2.80472 3.71114C2.86703 3.74447 2.92934 3.76669 3.00203 3.76669L3.27202 3.75558C3.38624 3.74447 3.50047 3.71114 3.59393 3.65558L3.6147 3.64447C3.65624 3.62225 3.677 3.58892 3.68739 3.54447L3.73931 3.37781C3.76008 3.33336 3.74969 3.26669 3.71854 3.22225L3.62508 3.08892C3.59393 3.10003 3.57316 3.11114 3.54201 3.12225L3.55239 3.12225Z" fill="#808080"/>
</g>
<defs>
<clipPath id="clip0_222_5">
<rect width="4" height="5" fill="white" transform="matrix(1 8.74228e-08 8.74228e-08 -1 0 5)"/>
</clipPath>
</defs>
</svg>
