<svg width="197" height="159" viewBox="0 0 197 159" fill="none" xmlns="http://www.w3.org/2000/svg">
<path fill-rule="evenodd" clip-rule="evenodd" d="M36.6136 21.5312C36.3317 22.0185 36.1704 22.5841 36.1704 23.1875V27.3281H22.0923C15.6892 27.3281 10.4985 32.5188 10.4985 38.9219V51.9859C7.74528 54.1548 6.09336 57.6269 6.42401 61.3831C5.32033 59.0984 4.70166 56.5355 4.70166 53.8281V38.9219C4.70166 29.3173 12.4877 21.5312 22.0923 21.5312H36.6136ZM92.0397 21.5312C92.3216 22.0185 92.4829 22.5841 92.4829 23.1875V27.3281H169.499C175.902 27.3281 181.092 32.5188 181.092 38.9219V49.7207C183.285 49.8917 185.276 50.7151 186.889 51.986V38.9219C186.889 29.3173 179.103 21.5312 169.499 21.5312H92.0397Z" fill="#4E4E4E"/>
<path fill-rule="evenodd" clip-rule="evenodd" d="M36.1705 43.8906H18.0774C7.51197 43.8906 -0.612425 53.2343 0.8554 63.6973L12.1245 144.025C13.3291 152.612 20.6753 159 29.3464 159H168.041C176.713 159 184.059 152.612 185.263 144.025L196.533 63.6973C198 53.2343 189.876 43.8906 179.311 43.8906H92.483V49.6875H179.311C186.354 49.6875 191.77 55.9166 190.792 62.8919L179.523 143.22C178.72 148.945 173.822 153.203 168.041 153.203H29.3464C23.5657 153.203 18.6682 148.945 17.8651 143.22L6.59606 62.8919C5.61751 55.9166 11.0338 49.6875 18.0774 49.6875H36.1705V43.8906Z" fill="#4E4E4E"/>
<path fill-rule="evenodd" clip-rule="evenodd" d="M89.1704 19.875H89.9985C91.3706 19.875 92.4829 20.9873 92.4829 22.3594V43.8906V49.6875H98.2798V43.8906V22.3594C98.2798 17.7858 94.5721 14.0781 89.9985 14.0781H38.6548C34.0812 14.0781 30.3735 17.7858 30.3735 22.3594V43.8906V49.6875H36.1704L36.1704 23.1875C36.1704 23.1849 36.1704 23.1823 36.1704 23.1797V22.3594C36.1704 20.9873 37.2827 19.875 38.6548 19.875H39.4829H89.1704Z" fill="#4E4E4E"/>
<path fill-rule="evenodd" clip-rule="evenodd" d="M159.561 5.79688H32.0298C25.6267 5.79688 20.436 10.9876 20.436 17.3906V27.4455C18.2469 27.7587 16.2551 28.6833 14.6392 30.0409V17.3906C14.6392 7.78605 22.4252 0 32.0298 0H159.561C169.166 0 176.952 7.78605 176.952 17.3906V30.0409C175.336 28.6833 173.344 27.7587 171.155 27.4455V17.3906C171.155 10.9876 165.964 5.79688 159.561 5.79688Z" fill="#4E4E4E"/>
</svg>
