<svg width="24" height="24" viewBox="0 0 24 24" fill="none" xmlns="http://www.w3.org/2000/svg">
<path d="M10.5084 2.43977C11.0744 1.13444 12.9256 1.13444 13.4916 2.43977L15.4199 6.88666C15.6555 7.42993 16.1678 7.80216 16.7573 7.85833L21.5824 8.31811C22.9988 8.45307 23.5708 10.2136 22.5043 11.1553L18.8709 14.3634C18.4271 14.7554 18.2314 15.3576 18.3601 15.9356L19.4139 20.6667C19.7232 22.0554 18.2256 23.1435 17.0004 22.4201L12.8265 19.956C12.3166 19.6549 11.6834 19.6549 11.1735 19.956L6.99959 22.4201C5.7744 23.1435 4.2768 22.0554 4.58612 20.6667L5.63989 15.9356C5.76863 15.3576 5.57294 14.7554 5.12906 14.3634L1.49569 11.1553C0.429167 10.2136 1.0012 8.45307 2.41756 8.31811L7.24269 7.85833C7.83217 7.80216 8.34449 7.42993 8.58007 6.88666L10.5084 2.43977Z" stroke="#4D4D4D" stroke-width="1.80645"/>
</svg>
