<svg width="24" height="24" viewBox="0 0 24 24" fill="none" xmlns="http://www.w3.org/2000/svg">
<path d="M10.5137 2.42748C11.0777 1.12682 12.9223 1.12682 13.4863 2.42749L15.4213 6.88981C15.656 7.43114 16.1665 7.80203 16.7539 7.858L21.5958 8.31938C23.0071 8.45386 23.5771 10.2081 22.5143 11.1464L18.8684 14.3657C18.4261 14.7562 18.2311 15.3563 18.3594 15.9323L19.4168 20.6797C19.725 22.0635 18.2328 23.1477 17.0119 22.427L12.8236 19.9542C12.3155 19.6543 11.6845 19.6543 11.1764 19.9542L6.98805 22.427C5.76725 23.1477 4.27499 22.0635 4.58321 20.6797L5.64063 15.9323C5.76891 15.3563 5.57392 14.7562 5.13162 14.3657L1.48566 11.1464C0.422939 10.2081 0.99293 8.45386 2.40423 8.31938L7.2461 7.858C7.83348 7.80203 8.34397 7.43114 8.57871 6.88981L10.5137 2.42748Z" stroke="#4D4D4D" stroke-width="1.4"/>
</svg>
