<svg width="43" height="40" viewBox="0 0 43 40" fill="none" xmlns="http://www.w3.org/2000/svg">
<path d="M29.5386 13.0763L14.8825 21.371C14.6306 21.509 14.5253 21.7878 14.6114 22.0428L16.5217 28.4837C16.5854 28.6607 16.8564 28.6394 16.8787 28.4444L17.2965 24.0018C17.3188 23.6658 17.4847 23.3507 17.7589 23.1317L29.7267 13.3162C29.8543 13.1962 29.6853 12.9802 29.5386 13.0792V13.0763ZM35.167 0H7.34722C3.29414 0 0 3.10179 0 6.9146V33.0854C0 36.8982 3.29414 40 7.34722 40H35.167C39.2201 40 42.5142 36.8982 42.5142 33.0854V6.9146C42.5142 3.10179 39.1978 0 35.167 0ZM36.3853 8.72946L31.0087 31.7024C30.8205 32.4733 29.8544 32.7882 29.2039 32.2932L22.9058 27.5925C22.4434 27.2355 21.7514 27.2955 21.3528 27.7305L18.1192 31.2465C17.5516 31.8795 16.4611 31.6604 16.2092 30.8894L13.3519 22.6129C13.2276 22.2769 12.9341 22.0009 12.577 21.923L6.92945 20.5188C5.89944 20.2638 5.79422 18.9201 6.78278 18.5241L34.8545 7.52043C35.6932 7.20245 36.5765 7.89557 36.3884 8.72653L36.3853 8.72946Z" fill="#4D4D4D"/>
</svg>
