<svg width="57" height="41" viewBox="0 0 57 41" fill="none" xmlns="http://www.w3.org/2000/svg">
<path d="M56.4924 2.8645L39.1966 20.0515L56.4924 37.2386C56.8187 36.5859 57 35.8607 57 35.0992V5.04008C57 4.27863 56.8187 3.55344 56.4924 2.90076V2.8645ZM36.8397 22.4084L34.4103 24.8378C31.1469 28.1011 25.8531 28.1011 22.626 24.8378L20.1966 22.4084L2.90076 39.5954C3.55344 39.9218 4.27863 40.1031 5.04008 40.1031H51.9962C52.7576 40.1031 53.4828 39.9218 54.1355 39.5954L36.8397 22.4084ZM0.507634 2.8645C0.181298 3.51718 0 4.24237 0 5.00382V35.063C0 35.8244 0.181298 36.5496 0.507634 37.2023L17.8034 20.0153L0.507634 2.82824V2.8645ZM51.9599 0H5.00382C4.24237 0 3.51718 0.181298 2.8645 0.507634L24.9466 22.4809C26.9046 24.4389 30.0592 24.4389 32.0172 22.4809L54.0992 0.507634C53.4466 0.181298 52.7214 0 51.9599 0Z" fill="#4D4D4D"/>
</svg>
