<?xml version="1.0" encoding="UTF-8"?>
<!DOCTYPE svg PUBLIC "-//W3C//DTD SVG 1.1//EN" "http://www.w3.org/Graphics/SVG/1.1/DTD/svg11.dtd">
<!-- Creator: CorelDRAW -->
<svg xmlns="http://www.w3.org/2000/svg" xml:space="preserve" width="1.77931in" height="1.53066in" version="1.1" style="shape-rendering:geometricPrecision; text-rendering:geometricPrecision; image-rendering:optimizeQuality; fill-rule:evenodd; clip-rule:evenodd"
viewBox="0 0 815.51 701.54"
 xmlns:xlink="http://www.w3.org/1999/xlink"
 xmlns:xodm="http://www.corel.com/coreldraw/odm/2003">
 <defs>
  <style type="text/css">
   <![CDATA[
    .fil0 {fill:#666666;fill-rule:nonzero}
   ]]>
  </style>
 </defs>
 <g id="Слой_x0020_1">
  <metadata id="CorelCorpID_0Corel-Layer"/>
  <path class="fil0" d="M771.67 701.54c-8.54,-0.43 -13.07,-5.55 -14.98,-8.02 -12.26,-15.89 -16.25,-35.32 -19.73,-54.78 -5.85,-32.9 -1.3,-65.68 2.47,-98.41 5.02,-43.64 7.77,-87.44 9.59,-131.3 0.97,-23.31 0.8,-46.77 2.54,-70.04 0.3,-3.99 0.6,-7.99 0.9,-11.99 0.63,-8.4 1.26,-16.8 1.97,-25.21 0.88,-10.41 2.39,-20.71 3.53,-31.05 1.09,-9.82 1.75,-19.92 6.23,-28.92 2.18,-4.4 3.73,-10.68 8,-11.9 8.74,-2.52 7.85,-7.88 6.67,-14.17 14.28,-12.32 14.44,-28.68 13.67,-45.64 -0.36,-8.05 -7.29,-8.11 -11.4,-9.54 -3.66,-1.28 -3.03,5.06 -3.54,7.95 -1.66,9.45 -0.71,18.92 0.3,28.45 0.48,4.49 5.3,10.96 0.75,13.22 -2.19,1.09 -3.38,-0.56 -4.22,-2.41 -1.03,-2.3 -4.59,-7.09 -5.33,-7.81 -0.21,-0.21 -1.78,-3.59 -2.14,-4.52 -5.84,-15.66 -7,-31.58 -1.45,-47.48 2.5,-7.16 5.58,-14.81 16.03,-10.56 2.18,0.89 3.19,-0.28 3.52,-2.29 0.14,-0.84 0.2,-1.74 0.14,-2.6 -0.59,-8.05 0.01,-19.21 -8.09,-21.16 -8.77,-2.09 -12.72,8.8 -17.34,15.56 -1.37,2.01 -1.49,6.58 -3.43,5.98 -2.98,-0.92 -1.95,-5 -1.55,-7.73 1.38,-9.24 3.74,-18.13 10.81,-24.94 9.11,-8.78 20.86,-8.01 28.65,1.87 10.29,13.04 12.11,42.84 3.11,56.93 -1.82,2.86 -1.78,4.32 -0.31,7.42 9.63,20.39 12.74,40.76 -2.98,59.93 -2.83,3.45 0.42,4.66 1.76,6.29 7.41,8.99 9.8,19.46 9.41,30.76 -0.19,5.51 -2.58,10.51 -8.55,9.74 -7.61,-0.99 -7.1,3.75 -7.35,8.15 -0.97,17.07 0.17,34.09 2.29,51 10.2,81.33 24.54,162.26 23.83,244.65 -0.28,32.17 -2.43,64.13 -14.25,94.56 -2.08,5.35 -4.74,10.53 -7.63,15.51 -4.85,8.34 -11.51,14.35 -21.93,14.5l0 0zm-5.22 -503.57c-4.06,0.04 -5.96,3.23 -8.16,5.81 -6.23,7.31 -10.68,15.69 -14.77,24.35 -20.61,43.63 -37.31,88.91 -56.8,133.01 -19.8,44.8 -47.84,83.59 -85.92,114.79 -3.59,2.94 -6.74,5.98 -6.03,-2.31 0.23,-2.65 -0.86,-5.99 -3.74,-5.97 -3.05,0.02 -0.94,3.75 -2.06,5.49 -1.38,2.14 -2.85,4.22 -4.28,6.34 -9.05,12.17 -21.86,19.27 -35.02,25.89 -2.19,1.32 -4.32,2.78 -6.58,3.94 -49.35,25.34 -102.47,30.4 -156.72,28.38 -41.04,-1.53 -80.69,-10.07 -118.51,-26.35 -2.28,-0.99 -9.66,-4.64 -10.81,-5.23 -9.99,-5.09 -19.44,-10.9 -26.48,-19.91 -0.58,-0.58 -1.17,-1.17 -1.74,-1.74 -0.34,-0.34 -0.7,-0.65 -1.05,-0.97 0.36,-0.07 3.22,1.79 3.38,1.85 0.15,0.06 0.82,0.59 1.07,0.74 0.28,0.17 0.62,0.31 0.92,0.46 0.7,0.38 1.39,0.75 2.09,1.12 1.36,0.73 2.7,1.47 4.05,2.23 3.65,2.06 7.26,4.2 10.89,6.3 3.68,2.14 7.37,4.24 11.13,6.22 0.55,0.29 6.65,2.14 8.84,2.79 16.08,4.81 32.54,7.68 49.16,9.77 2.96,0.38 7.33,2.36 8.05,-1.94 0.72,-4.34 -4.03,-3.65 -6.95,-4.35 -32.66,-7.79 -63.09,-20.16 -88.64,-42.76 -6.28,-5.55 -10.12,-10.96 -2.32,-18.1 -7.73,0.57 -11.6,6.46 -14.7,12.11 -2.63,4.8 -4.17,4.54 -7.89,1.5 -41.28,-33.71 -75.64,-72.57 -96.68,-122.52 -16.73,-39.72 -27.92,-81.44 -44.81,-120.98 -7.24,-16.98 -13.85,-32.59 -7.18,-51.52 2.42,-6.86 0.01,-15.41 -0.23,-23.2 -0.04,-1.15 -0.23,-2.29 -0.36,-3.44 0.67,0.82 1.68,1.57 1.96,2.51 1.83,6.3 5.66,9.11 12.3,11.02 7.1,2.04 10.35,9.72 13.17,16.41 9,21.35 14.36,43.89 20.46,66.14 19.27,70.16 53.85,132.4 97.26,190.18 2.24,2.98 11.21,10.15 15.55,12.43 2.69,2.6 9.59,3.87 14.02,5.02 7.47,-5.02 8.65,-10.96 2.93,-17.82 -3.29,-3.95 -7.11,-7.54 -11.08,-10.83 -5.73,-4.75 -5.06,-9.19 0.05,-13.6 6.99,-6.03 15.89,-7.64 24.29,-10.58 8.15,-2.86 13.14,-1.42 14.88,7.5 1.93,0.83 3.53,0.06 5.04,-1.07 1.99,-7.61 2.29,-15.35 2.03,-23.18 -0.07,-2.21 -0.25,-5.53 1.03,-6.51 10.18,-7.87 2.02,-7.45 -3.54,-8.27 -6.06,-0.89 -10.63,-2.19 -4.33,-9.19 2.52,-2.79 1.66,-7.22 -1.68,-7.92 -7.31,-1.52 -7.1,-7.31 -8.55,-12.24 -2.83,-9.68 -5.41,-19.44 -8.17,-29.13 -9.53,-33.52 -19.09,-67.02 -28.64,-100.53 -0.4,-1.17 -0.79,-2.34 -1.19,-3.51 -0.77,-2.88 -1.54,-5.75 -2.31,-8.62 -0.4,-1.17 -0.79,-2.35 -1.19,-3.52 -1.91,-6.93 -3.8,-13.85 -5.71,-20.77 -0.4,-1.17 -0.79,-2.34 -1.19,-3.51 -2.48,-8.65 -4.97,-17.32 -7.45,-25.97 -0.39,-1.17 -0.78,-2.34 -1.17,-3.5 -8.95,-28.91 -17.23,-58.05 -28.38,-86.24 -1.38,-3.49 -1.36,-4.86 3.13,-5.31 19.29,-1.96 19.27,-2.13 24.06,16.69 0.57,2.23 1.15,4.47 1.82,6.67 21.98,72.64 49.3,143.4 75.51,214.54 4.49,12.17 7.98,24.88 13.92,36.3 5.54,10.64 2.78,24.71 13.96,32.83 0.46,0.34 0.36,2.48 -0.21,3.07 -9.24,9.53 -6.28,21.56 -6.87,32.85 0.25,1.78 0.49,3.57 0.73,5.35 0.21,1.72 0.38,3.44 0.63,5.15 1.89,12.68 -0.15,15.64 -12.6,18.62 -4.2,1 -8.36,2.26 -12.51,3.47 -1.28,0.38 -3.19,0.48 -2.93,2.4 0.27,1.94 2.22,1.47 3.52,1.58 8.06,0.67 16.12,1.26 24.18,1.87 3.99,0.3 8.34,1.39 10.7,-3.28 2.25,-4.43 -0.14,-7.56 -3.17,-10.66 -5.75,-5.88 0.38,-11.32 1.28,-16.8 0.86,-5.2 5.64,-2.5 8.72,-2.32 8.25,0.46 9.23,5.9 14.33,7.98 10.77,4.41 22.07,6.88 33.5,8.54 14.39,2.09 28.83,1.31 43.12,-1.24 2.72,-0.48 6.86,-1.26 6.44,-4.52 -0.39,-2.98 -4.38,-1.65 -6.81,-1.65 -11.86,0.04 -23.66,-0.41 -35.31,-2.96 -6.5,-1.43 -14.05,-1.15 -9.79,-11.77 1.28,-3.19 -1.29,-6.63 -2.82,-9.76 -5.96,-12.16 -9.72,-25.4 -11.47,-38.85 -0.34,-2.63 -0.56,-5.27 -0.54,-7.92 0.04,-6.19 1.47,-12.55 3.14,-18.5 0.9,-3.19 1.99,-6.34 3.19,-9.43 0.31,-0.8 1.98,-3.82 3,-6.13 4.64,-1.43 13.75,-6.47 15.73,-7.03 20.63,-5.75 41.4,-8 62.48,-2.81 29.33,7.24 39.68,28.53 28.09,56.62 -4.87,11.8 -12.2,22.26 -17.6,33.74 0.15,3.23 -1.29,3.54 -3.72,2.05 -3.4,0.01 -12.6,0.43 -13.81,0.63 -12.89,1.57 -25.72,3.43 -37.89,8.29 -1.68,0.67 -4.83,0.46 -4.08,3.29 0.71,2.7 3.42,1.18 5.21,0.97 16.79,-2.01 33.34,-1.1 49.78,2.98 5.97,1.49 6.9,3.42 2.94,7.4 -0.82,0.89 -1.24,0.84 -0.75,5.75 0.36,3.57 6.3,2.73 10.58,0.76 17.49,-8.06 35.73,-14.06 54.12,-19.61 2.37,-0.71 5.33,-2.88 7.33,1.28 1.03,2.15 -0.15,6.63 3.02,6.19 2.87,-0.4 2.78,-5.27 3.15,-7.42 0.65,-3.75 1.13,-7.53 1.32,-11.33 0.25,-4.79 0.41,-10.11 -0.17,-14.88 -0.67,-5.52 -3.61,-9.72 -8.59,-12.24 -1.83,-0.92 -0.67,-4.88 0.75,-7.23 1.99,-3.29 5.25,-4.9 8.48,-6.57 0.15,0.12 0.25,0.24 0.43,0.36 1.2,-3.52 2.27,-7.1 3.63,-10.56 30.93,-79.91 73.15,-182.28 96.37,-264.93 2.16,-7.68 3.37,-14.46 12.87,-6.42 0.95,0.8 2.84,1 4.16,0.76 6.89,-1.26 5.49,2.44 3.95,6.32 -3.4,8.59 -6.74,17.21 -10.2,25.77 -31.38,77.85 -49.58,159.78 -74.44,239.66 -2.69,8.66 -4.28,14.17 -14.76,10.06 -3.27,-1.28 -7.39,-0.36 -11.12,-0.46 -1.14,0.61 -2.29,1.21 -3.42,1.82 -1.32,4.67 2.63,5.94 5.3,7.74 3.77,2.55 7.83,4.66 11.76,6.97 0.84,0.86 1.7,1.71 2.55,2.57 -0.78,0.5 -1.57,1.01 -2.34,1.51 -2.76,2.47 -3.88,5.42 -3.66,9.21 0.92,15.83 -0.95,31.74 1.2,47.53 0.63,4.62 -0.54,6.51 -5.63,7.1 -7.97,0.92 -15.81,3.05 -23.7,4.7 -1.33,0.27 -3.19,0.28 -3,2.23 0.21,2.03 2.06,1.45 3.4,1.47 8.65,0.07 17.3,0.05 25.94,0.21 4.59,0.09 6.38,-1.87 7.27,-6.47 2.19,-11.28 5.16,-22.4 7.81,-33.58 0.11,-1.47 0.95,-1.82 2.25,-1.47 9.14,0.88 16.93,5.14 24.39,10.01 6.23,4.07 11.97,8.66 12.43,16.59 0.05,0.8 -0.02,7.7 -0.06,8.42 -0.62,11.85 -7.01,19.84 -18.01,24.69 -3.96,1.74 -8.16,3 -11.94,5.04 -3.19,1.71 -5.12,4.81 -4.75,8.63 0.33,3.45 2.39,6.24 5.75,6.88 12.37,2.36 5,7.24 1.04,10.36 -11.44,8.99 -24.79,14.69 -38.1,20.32 -37.69,15.98 -77.72,21.19 -117.9,25.65 -1.64,0.18 -4.49,-0.44 -4.46,1.21 0.03,1.7 2.82,1.16 4.49,1.17 7.22,0.04 14.46,0.34 21.66,0.02 40.64,-1.85 80.04,-10.14 118.54,-23.04 12.93,-6.2 26.07,-12.07 34.61,-24.48 -2.81,-10.03 13.83,-12.18 10.58,-22.48 7.39,-8.39 44.23,-47.28 48.39,-52.75 31.25,-41.01 48.57,-88.15 61.11,-137.54 5.54,-21.78 11.17,-43.67 21.31,-63.97 6.03,-12.08 13.02,-23.26 27.28,-27.21 2.73,-0.76 4.37,-3.14 4.69,-5.79 0.92,-7.45 1.57,-14.92 2.1,-22.4 0.08,-1.19 -0.65,-3.04 -1.57,-3.56 -1.58,-0.88 -2.6,0.9 -3.19,2.06 -5.84,11.45 -15.45,19.18 -24.84,27.65 -12.62,11.38 -18.6,27.63 -24.27,43.46 -8.29,23.15 -14.23,46.99 -19.59,70.94 -13.11,77.2 -55,116.68 -82.24,152.99 7.58,-18.06 0.79,-38.62 -18.38,-48.98 -7.92,-4.28 -16.29,-7.42 -25.4,-8.17 -2.5,-0.21 -5.9,0.1 -5.58,-3.7 0.51,-6.14 -2.78,-12.66 4.47,-17.99 6.55,-4.81 6.32,-12.3 0.27,-18.03 -3.32,-3.14 -3.93,-5.21 -1.89,-9.44 15.58,-32.29 28.38,-65.73 39.56,-99.76 16.58,-50.47 30.32,-101.91 51.04,-150.98 3.13,-7.41 4.03,-16.42 13.69,-19.49 1.52,-0.48 2.6,-3 3.46,-4.8 7.18,-15.01 -1.42,-37.15 -16.71,-43.23 -14.57,-5.79 -35.22,4.91 -40.79,20.46 -1.94,5.42 1.57,9.63 0.97,14.97 -2.39,21.18 -16.24,35.98 -27.49,52.04 -13.24,18.92 -27.52,37.07 -40.13,56.49 -25.78,39.7 -49.63,80.72 -79.62,117.59 -3.46,4.25 -5.75,5.08 -11.21,2.62 -28.08,-12.72 -55.82,-7.95 -83.06,3.38 -1.66,0.69 -9.09,4.41 -13.37,7.58 -0.38,-0.74 -0.74,-1.47 -1.11,-2.2 -6.98,-10.57 -13.98,-21.14 -20.95,-31.72 -29.26,-44.3 -62.03,-86.22 -89.42,-131.79 -15.58,-25.93 -32.84,-51.08 -36.91,-82.16 -0.28,-2.15 -2.9,-4.58 0.84,-6.61 10.32,-5.59 11.51,-11.1 4.79,-20.65 -8.57,-12.16 -22.17,-15.66 -36.9,-9.51 -18.29,7.64 -26.8,21.91 -23.43,39.3 2.6,-1.54 2.56,-4.27 3.16,-6.76 3.63,-15.05 18.77,-25.33 33.99,-22.88 2.44,0.39 4.89,1.65 6.95,3.06 1.55,1.06 3.68,3.19 3.47,4.52 -0.44,2.85 -3.14,0.36 -4.8,0.92 -12.6,4.3 -23.35,12.2 -35.14,18.08 -2.93,1.45 -1.93,5.1 -1.55,7.95 0.88,2.12 1.87,4.2 2.64,6.38 33.34,94.42 59.58,191.11 91.51,285.97 0.94,2.77 1.41,5.39 -0.2,8.29 -4.69,8.4 -3.63,15.59 5.36,20.41 2.86,1.53 3.25,4.01 3.19,6.54 -0.07,3.84 -3.59,3.21 -5.86,3.59 -8.86,1.49 -17.57,3.53 -25.75,7.29 -14.88,6.83 -19.76,14.85 -18.41,29.58 0.25,1.02 0.7,1.99 1.52,3 3.57,5 11.1,6.81 8.21,16.65 -2.98,-4.66 -9.95,-11.34 -12.33,-15.69 -30.24,-47.32 -57.58,-96.13 -76.46,-149.28 -10.65,-29.96 -18.13,-60.88 -28.1,-91.03 -5.06,-15.31 -10.06,-31.2 -27.54,-37.72 -0.88,-0.33 -1.8,-1.56 -2.01,-2.52 -3.57,-16.53 -10.89,-31.86 -15.51,-48.03 -2.34,-8.17 -4.39,-17.11 -14.15,-18.91 -10.13,-1.85 -15.16,6 -18.94,13.55 -9.19,18.37 -9.17,37.35 -1.62,56.26 3.8,9.49 8.99,10.69 17.4,4.86 0.49,-3.53 -0.62,-6.55 -1.97,-9.87 -6.13,-15.07 -7.35,-30.66 -3.07,-46.43 0.94,-3.45 2.32,-7.74 6.78,-8.01 3.61,-0.21 5.44,3.24 6.44,6.15 1.26,3.65 5.59,7.22 0.92,11.6 -5.04,4.72 -6.59,11.38 -8.74,17.59 -0.78,2.26 -2.5,5.69 0.04,7.09 1.58,0.88 5.18,-0.48 7.07,-1.9 4.27,-3.19 6.95,-3.5 8.02,2.53 0.34,1.93 1.72,4.88 0.99,5.54 -1.73,1.58 -2.81,-1.62 -4.71,-1.94 -6.7,-1.11 -9.97,1.87 -9.87,8.37 0.04,3.09 1.03,6.17 1.59,9.26 1.92,6.22 1.98,12.61 0.64,18.92 -1.33,6.25 -1.28,12.99 -1.6,19.36 -0.14,2.78 -0.28,5.54 -0.42,8.32 -0.09,1.85 -0.19,3.7 -0.69,5.49 -0.4,1.45 -1.35,3.02 -0.93,4.52 0.38,1.36 1.74,2.43 2.78,3.29 2.71,2.25 5.85,4.04 6.01,7.98 0.19,5.07 0.02,8.6 -6.05,8.86 -0.86,0.04 -1.68,0.4 -2.54,0.54 -5.5,0.88 -13.38,0.03 -11.59,8.76 1.58,7.65 8.25,6.57 14.13,4.56 4.92,-1.68 3.7,2.02 3.5,4.22 -3.52,37.04 0.42,73.93 2.52,110.82 2.3,40.65 6.72,81.18 9.13,121.82 3.09,52.26 3.57,104.55 -4.78,156.49 -1.7,10.6 -5.12,20.7 -10.29,30.23 -3.06,5.65 -8.17,4.49 -12.86,4.81 -4.41,0.29 -5.65,-3.34 -7.13,-6.47 -1.49,-3.16 -1.82,-5.24 3.08,-5.16 5.63,0.09 7.11,-4.04 7.05,-8.9 -0.76,-56.62 1.33,-113.24 -0.93,-169.88 -2.91,-73.9 -7.74,-147.79 -2.91,-221.81 0.33,-5 2.46,-10.29 -4.13,-14.29 -4.01,-2.44 0.27,-21.35 5.31,-23.39 7.11,-2.9 6.47,-7.87 5.48,-13.49 -2.08,-1.78 -2.93,-4.22 -3.42,-6.77 -1.59,-8.45 -3.13,-16.9 -4.64,-25.35 -0.46,-2.53 -0.44,-6.5 -2.9,-6.6 -3.65,-0.15 -3.22,4.15 -3.73,6.74 -0.84,4.2 -1.1,8.5 -1.6,12.77 0.08,4.07 0.16,8.14 0.25,12.22 0.25,3.45 0.51,6.9 0.76,10.35 1.79,2.56 0.34,4.15 -1.66,5.58 -5.05,8.63 -10.16,17.25 -9.46,27.86 0.29,4.41 0.95,10.07 5.09,11.04 3.24,0.75 6.63,2.3 7.49,5.82 0.53,2.15 -0.21,4.17 -0.43,6.26 -0.23,2.26 -0.46,4.51 -0.73,6.77 -0.84,6.93 -0.76,13.94 -0.99,20.91 -0.23,6.93 -0.4,13.88 -0.44,20.83 -0.01,1.26 -0.02,2.53 -0.04,3.8 -0.03,1.37 -0.08,2.75 -0.13,4.12 -0.04,0.91 -0.06,1.82 -0.1,2.73 -0.15,4.01 -0.21,7.99 -0.2,11.97 0.01,5.07 0.01,10.13 0.02,15.2 0.01,9.87 -0.3,19.74 0.09,29.6 0.27,6.76 0.69,13.5 0.99,20.24 0.24,5.31 0.41,10.6 0.43,15.91 0.03,9.07 -0.67,18.09 -0.94,27.14 -0.15,5.12 -0.71,10.29 -0.99,15.42 -0.25,4.78 -0.63,9.55 -1.08,14.32 -0.9,9.42 -2.13,18.81 -3.53,28.17 -1.7,11.37 -3.64,22.69 -5.51,34.03 -1.87,11.34 -3.15,22.69 -4.46,34.12 -0.08,0.69 -0.15,1.39 -0.22,2.08 -1.13,11.36 -1.38,22.86 -1.82,34.26 -0.46,11.66 -0.41,23.34 -0.32,35.01 0.04,4.52 1.18,8.25 2.31,12.55 1.21,4.62 2.47,9.24 4.12,13.73 3.22,8.77 8.56,16.19 18.92,16.81 11.51,0.7 21.81,-1.84 27.92,-13.2 3.88,-7.18 6.71,-14.72 8.71,-22.59 6.15,-24.24 7.96,-49 8.71,-73.89 2.19,-73.03 -8.5,-145.25 -13.77,-217.81 -2.74,-37.7 -8.84,-75.27 -5.14,-113.26 0.27,-2.74 -0.92,-7.42 1.76,-7.75 3.61,-0.46 3.47,4.48 4.49,7.16 13.89,36.11 25.77,72.95 42.15,108.14 22.22,47.7 52.65,88.19 97.69,116.53 7.5,4.72 14.99,8.25 17.42,18.46 1.64,6.89 8.39,11.45 14.85,15.11 5.76,3.27 11.34,6.86 17.05,10.22 16.67,9.81 33.32,19.67 51.6,26.33 59.77,21.77 120.85,19.99 182.2,9.33 36.17,-6.29 67.33,-24.15 98.75,-42.62 51.24,-30.12 91.05,-70.03 116.3,-123.64 15.49,-32.9 28.3,-67.04 43.04,-100.3 9.68,-21.82 16.69,-45.07 32.45,-63.84 0.99,-4.3 -4.51,-15.81 -5.12,-15.94l0.01 0.02zm-155.99 -161.5c4.56,-8.16 17.84,-14.52 26.64,-13.06 8.31,1.38 11.36,7.61 13.92,14.84 2.9,8.17 -4.52,7.97 -8.02,10.51 -1.99,1.43 -1.09,-1.51 -1.26,-2.55 -1.49,-9.3 -11.27,-15.13 -19.86,-11.24 -3.88,1.75 -7.27,2.31 -11.31,1.99 -0.33,0.1 -0.35,-0.15 -0.11,-0.51l0 0zm-35.59 124.59c-15.28,46.29 -41,115.35 -56.18,161.68 -0.54,1.65 -2.02,3.51 -2.35,5.38 -1.38,-0.38 -3.19,0.19 -4.75,0.59 -10.76,2.71 -16.05,15.81 -10.56,25.9 0.82,1.51 2.13,2.74 3,4.22 5.84,9.92 3.03,16.49 -7.96,18.64 -13.58,2.64 -27.44,4.14 -40.44,9.28 -4,1.57 -5.07,0.67 -4.18,-3.73 1.13,-5.62 4.41,-9.95 7.26,-14.61 13.56,-22.1 20.1,-45.35 10.92,-70.91 -1.07,-2.98 -0.46,-4.83 1.53,-6.89 38.4,-40.04 69.21,-85.81 99.5,-131.99 1.64,-2.52 2.8,-5.76 6.28,-6.66 0.84,3.38 -1.1,6.18 -2.08,9.11l-0 -0zm-110.93 117.4c23.68,-33.06 47.72,-65.86 70.8,-99.34 17.51,-25.42 33.67,-51.77 53.79,-75.33 1.09,-1.28 2.35,-2.39 3.54,-3.59 0.34,0.59 0.67,1.19 0.92,1.64 -1.81,6.67 -3.38,13.14 -7.43,18.62 -39.61,53.62 -73.93,110.97 -115.2,163.42 -1.57,1.99 -1.97,7.03 -6.53,3.99 -4.56,-3.01 -2.21,-6.17 0.11,-9.41l0 -0.01zm-124.85 106.28c-2.79,3.19 -5.92,0.67 -8.78,0.04 -5.91,-1.3 -11.66,-3.42 -17.61,-4.33 -6.17,-0.95 -7.8,-2.88 -8.65,-8.76 -0.86,-4.77 1.89,-9.3 4.68,-13.01 5.45,-7.26 4.05,-14.36 -3.59,-19.18 -2.94,-1.85 -4.46,-4.03 -5.71,-7.09 -18.16,-44.41 -31.56,-90.46 -46.85,-135.85 -0.44,-1.31 -0.5,-2.76 -0.74,-4.14 2.21,-0.36 2.61,1.6 3.42,2.84 23.24,36.07 52.69,67.27 79.04,100.91 3.08,3.93 4.43,7.1 2.32,12.37 -9.07,22.61 -7.41,45.2 1.87,67.43 1.21,2.93 3.26,5.74 0.61,8.77l0 0zm-107.81 -257.99c0.92,1.06 2.02,2 2.74,3.19 12.47,20.51 25.88,40.38 40.03,59.75 23.35,31.96 46.92,63.75 70.38,95.62 1.17,1.58 2.15,3.31 3.4,5.26 -1.56,1.7 -2.69,3.39 -4.24,4.55 -2.66,1.99 -3.42,-0.88 -4.48,-2.26 -31.28,-40.79 -64.74,-79.94 -93.48,-122.63 -8.31,-12.34 -10.02,-27.54 -14.82,-41.4 -0.21,-0.58 0.29,-1.4 0.46,-2.09l0 -0zm-217.09 486.52c-0.08,-1.73 -0.22,-3.46 -0.23,-5.19 -0.2,-29.51 2.48,-58.84 5.4,-88.16 0.13,-1.31 1.23,-3.7 1.37,-3.67 2.37,0.62 1.05,2.64 1.07,3.96 0.15,9.24 0.08,18.49 0.08,24.12 -1.4,23.79 -1.66,44.03 -5.23,63.99 -0.29,1.74 -1.61,3.3 -2.46,4.94l0 0zm763.3 -171.6c0,-22.52 -0.04,-45.05 0.07,-67.57 0.01,-1.89 1.11,-3.76 1.71,-5.63 0.56,1.75 1.3,3.47 1.66,5.26 8.08,40.58 6.83,81.58 5.36,122.58 -1.35,37.85 -6.62,75.39 -8.83,113.16 -0.96,16.24 0.08,32.41 8.12,47.2 1.07,1.95 2.79,3.55 4.2,5.31 0.91,-2 2.08,-3.93 2.68,-6.02 8.03,-27.47 9.26,-55.72 9.77,-84.09 1.22,-67.91 -11.13,-134.65 -17.32,-201.93 -3.11,-33.71 -5.67,-67.39 2.04,-100.87 0.93,-4.03 0.43,-6.38 -4.65,-6.73 -3.82,-0.25 -7.44,-2.55 -7.47,-7.07 -0.03,-4.87 4.09,-5.14 7.54,-5.05 4.77,0.11 5.44,-1.89 3.88,-5.78 -0.96,-2.41 -1.58,-4.97 -2.7,-7.3 -0.97,-2.03 -2.29,-5.29 -3.71,-5.42 -2.62,-0.27 -3.74,2.93 -4.84,5.16 -5.77,11.69 -6.84,24.87 -9.68,37.19 -6.11,26.41 -5.14,53.97 -5.5,81.08 -0.93,70.52 -4.04,140.88 -10.07,211.16 -3.34,38.9 -1.49,77.52 16.23,113.55 2.13,4.32 2.9,12.34 8.11,11.72 5.41,-0.64 7.14,-8.35 9.95,-13.33 0.28,-0.5 0.49,-1.05 0.69,-1.58 0.44,-1.17 0.49,-2.31 -1.07,-2.56 -14.62,-2.29 -14.79,-14.88 -16.52,-25.06 -2.61,-15.35 -2.98,-31.01 -1.47,-46.66 5.21,-53.49 11.37,-106.89 11.84,-160.72l-0 0.01z"/>
 </g>
</svg>
