<?xml version="1.0" encoding="UTF-8"?>
<!DOCTYPE svg PUBLIC "-//W3C//DTD SVG 1.1//EN" "http://www.w3.org/Graphics/SVG/1.1/DTD/svg11.dtd">
<!-- Creator: CorelDRAW -->
<svg xmlns="http://www.w3.org/2000/svg" xml:space="preserve" width="6.75258in" height="6.53937in" version="1.1" style="shape-rendering:geometricPrecision; text-rendering:geometricPrecision; image-rendering:optimizeQuality; fill-rule:evenodd; clip-rule:evenodd"
viewBox="0 0 2222.52 2152.34"
 xmlns:xlink="http://www.w3.org/1999/xlink"
 xmlns:xodm="http://www.corel.com/coreldraw/odm/2003">
 <defs>
  <style type="text/css">
   <![CDATA[
    .fil0 {fill:#666666;fill-rule:nonzero}
   ]]>
  </style>
 </defs>
 <g id="Слой_x0020_1">
  <metadata id="CorelCorpID_0Corel-Layer"/>
  <path class="fil0" d="M2219.72 480.2c-3.07,-35.32 -7.43,-65.79 -13.3,-93.44 -5.12,-24.07 -11,-48.12 -16.64,-71.43l-2.05 -7.93c-1.79,-7.43 -4.61,-14.34 -6.91,-20.48 -8.96,-22.79 -20.73,-45.3 -34.82,-66.55 -26.37,-39.68 -59.64,-76.29 -99.32,-108.53 -19.2,-15.61 -39.68,-29.18 -59.14,-41.46 -17.66,-11.27 -41.21,-25.34 -67.84,-34.55 -3.84,-1.29 -7.68,-2.82 -11.27,-4.09 -2.3,-0.77 -4.61,-1.79 -6.91,-2.55 -46.59,-17.16 -94.46,-26.87 -142.07,-28.68 -45.05,-1.79 -89.08,1.29 -131.07,9.21 -67.32,12.54 -133.37,35.84 -196.09,68.85 -35.59,18.7 -66.05,38.66 -92.93,60.93 -14.34,11.77 -28.16,23.55 -38.66,32.77 -17.66,15.11 -33.53,32 -49.93,49.41 -43,46.07 -85,95.48 -129.02,150.78 -11.27,14.07 -23.8,26.87 -34.55,37.62 -4.86,4.86 -10.75,7.93 -17.16,9.21l-1.02 0.25c-4.09,0.77 -8.2,1.54 -12.04,1.79 -21,0.52 -39.93,-0.77 -58.62,-3.32 -15.87,-2.3 -32,-4.61 -47.88,-7.16 -29.18,-4.61 -60.16,-4.09 -94.71,1.29 -34.55,5.63 -69.12,16.89 -102.91,33.79 -59.64,29.94 -112.12,72.96 -155.64,128.25l-2.05 2.55c-2.55,3.32 -5.38,6.91 -8.2,10.23 -14.84,17.66 -27.14,36.86 -36.61,56.84 -8.69,18.95 -16.13,38.91 -21.5,59.64 -21,79.35 -31.75,159.74 -32,238.83 0,26.62 1.29,54.54 4.09,85.5 0.77,7.68 1.54,16.39 1.54,24.84 -0,8.7 -0.52,17.41 -0.77,26.11l-0.25 4.61c-1.54,27.91 -2.82,56.84 -7.68,85 -5.63,33.78 -15.36,64 -29.7,92.16 -15.61,30.46 -37.62,55.04 -67.07,74.5 -44.53,29.45 -88.32,59.14 -140.28,94.46 -17.41,11.77 -35.59,25.09 -56.07,40.45 -47.61,36.09 -89.09,78.58 -123.64,126.71 -11,15.36 -18.7,27.64 -24.84,39.93l-2.55 5.13c-6.39,13.05 -13.05,26.11 -19.46,39.16 -27.14,56.07 -36.09,114.95 -26.37,174.58 9.21,57.61 32.25,110.34 68.61,156.93 34.05,43.52 104.19,101.37 166.91,122.38 16.12,5.38 33.28,10.75 51.19,13.3 21.5,2.82 42.5,4.36 63.23,4.36 12.29,0 24.32,-0.52 36.36,-1.54 42.75,-3.59 83.96,-13.05 122.38,-28.41 51.71,-20.48 95.23,-51.19 128.76,-91.39 19.71,-23.55 36.09,-49.41 48.64,-76.8 27.39,-59.64 39.93,-122.1 37.37,-186.1l0 -4.61c2.05,-31.48 1.79,-65.79 -1.54,-108.03 -1.29,-19.2 -2.05,-39.43 -1.54,-63.75 0.25,-26.63 4.36,-54.27 12.04,-81.66 8.19,-29.95 19.19,-54.54 33.28,-75.27 2.82,-4.36 5.63,-7.43 8.19,-10.23 27.39,-27.39 51.96,-48.12 77.57,-65.28 27.64,-18.7 50.7,-33.53 72.45,-46.84 18.95,-11.77 38.39,-23.3 57.09,-34.3 12.54,-7.43 25.34,-15.11 37.89,-22.54 49.16,-29.7 85.77,-54.27 118.78,-79.61 41.21,-31.75 74.5,-62.71 101.89,-94.98 23.3,-27.64 40.2,-54.78 51.19,-82.95 0.52,-1.54 1.29,-3.07 2.06,-4.36l0.25 -0.77c18.95,-40.45 30.21,-85 33.53,-132.09 2.55,-38.39 1.02,-73.73 -5.12,-108.03 -7.43,-42.75 -22.02,-81.66 -42.75,-115.96 -7.68,-12.8 -16.39,-25.61 -23.55,-35.84 -4.36,-6.39 -8.96,-12.8 -13.3,-19.2 -5.63,-7.93 -11.52,-16.39 -17.16,-24.84 -6.39,-9.46 -12.81,-19.96 -20.23,-33.02 -6.14,-10.75 -9.46,-23.55 -9.98,-39.68 0,-3.32 0.52,-6.91 1.29,-9.98 1.79,-8.7 5.38,-17.66 11.52,-27.64 5.63,-9.46 13.05,-19.46 22.02,-30.21 58.38,-68.09 121.34,-130.3 187.64,-185.09 43.77,-36.09 93.69,-65.79 148.23,-88.07 12.54,-5.12 24.57,-8.96 36.61,-11.27 40.96,-8.7 75.76,-12.04 109.3,-10.75 35.84,1.54 62.98,4.36 88.32,9.73 79.88,16.39 147.46,55.55 200.44,116.48 29.18,33.28 48.64,67.07 59.91,103.16 14.07,45.05 22.79,90.62 25.86,135.43 2.3,34.55 1.54,70.91 -2.82,108.03 -4.09,34.82 -11.77,70.66 -23.55,109.57 -7.68,24.84 -16.64,49.93 -25.34,73.98 -4.36,11.77 -8.45,23.3 -12.54,35.07 -26.37,75.27 -55.03,148.23 -85.5,216.57 -4.36,9.73 -8.45,19.2 -12.81,28.93 -16.13,36.86 -33.02,74.75 -50.7,111.6 -11.52,23.55 -22.02,42.23 -33.02,58.87 -8.45,12.54 -15.36,21.77 -22.79,29.7 -7.68,8.45 -16.39,15.11 -26.87,20.73l-1.79 1.02c-25.09,13.3 -50.95,27.14 -76.04,41.21 -20.48,11.77 -41.98,24.32 -65.02,38.91 -19.96,12.54 -38.91,27.14 -56.57,43.52 -28.16,26.37 -49.66,56.07 -63.75,88.57 -20.48,47.11 -24.57,95.75 -12.54,144.12 5.38,21.5 15.11,42.75 29.45,65.02 32.77,50.18 77.82,86.27 134.14,107 37.37,13.82 78.84,18.95 122.62,15.36 36.86,-3.07 69.62,-16.13 97.53,-38.66 37.63,-30.71 64,-70.91 78.07,-119.8 14.59,-50.18 17.66,-102.14 8.96,-158.98 -2.3,-15.11 -5.12,-30.21 -7.68,-44.8 -1.29,-7.43 -2.55,-14.84 -4.09,-22.27 -4.36,-25.09 -8.45,-49.66 -9.46,-74.75 -1.29,-28.93 3.32,-56.07 13.57,-80.64 6.91,-16.89 13.05,-30.46 19.2,-42.23 63.23,-123.64 117.24,-251.64 160.25,-380.4 1.02,-2.82 2.3,-6.39 3.84,-9.46 6.39,-12.29 12.04,-25.61 17.41,-42.5 27.14,-82.18 40.45,-166.91 40.69,-258.3 0.73,-22.98 -0.55,-47.3 -2.61,-70.86l0.01 0.01zm-486.39 1221.37c-1.54,-1.02 -3.32,-2.05 -5.13,-3.07l-1.02 -0.52c-27.91,-16.13 -49.41,-38.66 -63.75,-66.82 -12.04,-23.8 -15.61,-49.66 -10.23,-76.53 4.61,-22.79 14.34,-44.03 29.95,-64.25 8.96,-11.52 19.71,-22.27 35.59,-34.82 0.52,-0.25 1.02,-0.77 1.53,-1.02 1.54,-1.02 3.32,-2.3 4.61,-4.61 1.02,-0.25 1.79,-0.52 2.55,-1.02 1.29,-1.02 1.79,-2.82 1.79,-5.12 0,-1.02 -0.77,-2.05 -1.79,-2.55 -1.02,-0.52 -2.3,0 -3.07,0.77l-2.55 3.07 -0.25 0c-1.02,0.25 -2.3,0.52 -3.32,1.29 -33.02,21.5 -56.07,49.66 -68.85,83.96 -11.52,30.46 -12.29,60.68 -2.82,89.34 11,33.02 32.52,59.64 63.48,79.61 4.36,2.82 8.96,4.61 13.57,6.39 1.79,0.77 3.59,1.54 5.12,2.3 0.77,0.25 1.29,0.52 2.05,0.52l1.28 0c1.29,-0 2.3,-0.52 3.07,-1.54 0.52,-0.77 0.52,-2.05 0,-2.82 -0.55,-1.02 -0.8,-2.05 -1.82,-2.55l-0 0zm-1292.54 -105.46c-0.77,-1.28 -2.05,-1.79 -3.32,-1.29 -0.52,0.25 -1.29,0.52 -1.79,0.77 -1.54,0.52 -3.07,1.29 -4.36,2.05 -34.82,19.2 -61.44,37.62 -84.23,58.11 -54.01,48.64 -86.54,107.52 -96.51,174.58 -4.09,28.41 -3.07,56.32 3.59,82.95 4.36,18.18 10.75,33.53 19.71,47.11 3.59,5.63 7.16,10.75 12.54,14.84 1.02,0.77 2.05,1.02 3.07,1.29 0.52,0.25 1.29,0.25 2.3,0.77 0.25,0 0.52,0.25 0.77,0.25 0.77,0 1.54,-0.25 2.05,-1.02 0.77,-0.77 0.77,-2.05 0.25,-3.07l-2.29 -3.57c-1.02,-1.79 -2.05,-3.32 -2.82,-4.61 -5.38,-8.45 -10.23,-17.93 -14.34,-27.91 -13.57,-34.3 -16.89,-71.68 -10.5,-111.11 7.16,-42.75 24.32,-82.43 50.95,-117.77 19.46,-25.61 43,-48.64 70.14,-68.36 10.23,-7.43 20.73,-14.84 31.23,-22.02 4.86,-3.59 9.98,-6.91 14.84,-10.5 2.05,-1.54 4.09,-2.82 5.89,-4.36l2.56 -1.79c1.02,-0.77 1.54,-2.3 0.77,-3.59l-0.51 -1.77zm1768.18 -1052.93c0.25,88.57 -13.05,175.35 -41.46,264.96 -3.32,10.75 -7.68,21.25 -11.77,31.48 -1.79,4.61 -3.59,8.96 -5.38,13.57l-17.41 44.8c-14.59,37.89 -29.18,75.76 -44.03,113.66 -26.63,67.84 -57.61,134.39 -87.03,197.12 -5.89,12.29 -11.52,24.84 -17.16,37.37 -5.38,11.77 -10.75,23.3 -16.13,35.07 -14.07,29.95 -19.2,62.21 -15.87,99.07 2.82,31.23 8.69,62.21 14.59,92.41l1.29 6.66c8.2,42.75 10.75,78.59 8.7,112.39 -2.55,38.91 -10.23,72.19 -23.3,101.62 -13.57,30.46 -33.28,56.84 -59.14,78.07 -25.34,21 -54.78,33.28 -87.8,36.61 -40.2,3.84 -79.88,-0.52 -117.77,-13.05 -6.91,-2.3 -12.53,-4.61 -17.66,-6.91 -54.78,-26.11 -95.75,-64.77 -121.61,-114.69 -17.16,-32.77 -24.07,-68.61 -20.73,-106.5 4.09,-45.82 21,-86.78 52.23,-125.69 14.59,-18.18 32.77,-35.32 55.8,-53 15.61,-12.04 32.25,-23.04 49.66,-33.53 24.07,-14.34 48.39,-28.68 72.69,-43l26.38 -15.36c8.96,-5.12 17.66,-10.5 26.62,-15.36 8.69,-4.86 16.64,-11.77 25.09,-21 8.7,-9.73 16.89,-20.73 25.86,-34.55 9.73,-15.11 19.2,-32 29.7,-53.77 21,-43 40.45,-87.55 59.14,-130.82l4.09 -9.21c24.32,-56.07 52.23,-122.62 75.52,-191.75 5.12,-15.11 9.98,-30.46 14.59,-45.3 2.55,-8.2 5.12,-16.64 7.93,-24.84 2.3,-6.91 4.61,-14.07 7.16,-21 15.87,-41.73 27.14,-80.12 34.3,-117.77 6.66,-35.59 9.98,-72.45 9.98,-109.57 -0.25,-56.32 -8.45,-110.34 -24.07,-160.51 -7.93,-25.34 -17.16,-45.3 -28.68,-62.21 -1.79,-2.55 -3.32,-5.38 -4.86,-8.2 -1.29,-2.3 -2.55,-4.61 -4.09,-6.91 -53.77,-84.23 -129.53,-138.75 -225.28,-161.78 -39.93,-9.73 -82.18,-13.57 -129.01,-12.29 -16.39,0.52 -33.02,1.54 -49.66,3.32 -22.02,2.3 -43.27,8.96 -62.71,15.87 -59.64,21.25 -114.43,52.23 -163.32,92.16 -68.09,55.8 -130.3,116.73 -185.08,180.73 -11,13.05 -19.96,24.32 -27.64,36.61 -7.93,12.8 -12.29,23.31 -14.34,33.78 -3.07,16.13 -1.53,29.7 4.09,42.5 8.96,19.46 19.71,37.12 28.93,51.96 4.61,7.43 9.46,14.59 14.34,21.5 3.07,4.61 6.39,9.21 9.46,14.07l4.86 7.16c6.66,9.98 13.57,20.48 19.96,30.98 22.27,36.61 37.12,77.82 43.77,122.62 5.38,36.09 6.39,72.19 3.32,107.76 -6.14,67.59 -29.95,130.55 -70.66,187.14 -3.07,4.36 -6.39,8.2 -10.23,12.54 -33.28,37.62 -72.19,72.45 -118.78,106.23 -30.46,22.02 -65.02,44.53 -108.8,70.91l-25.61 15.36c-24.32,14.59 -49.41,29.7 -73.98,45.05 -20.23,12.54 -40.2,26.11 -58.38,38.66 -23.55,16.39 -46.07,35.84 -67.07,58.38l-1.28 1.29c-1.29,1.54 -2.56,2.82 -4.09,4.09 -14.07,12.54 -25.34,28.16 -35.84,49.41 -11.77,24.32 -20.23,51.71 -25.61,82.95 -3.32,20.23 -4.86,40.96 -4.36,61.44 0.25,15.11 1.02,30.46 1.54,45.3 0.52,9.46 0.77,18.94 1.02,28.41 0.77,24.57 1.54,49.16 2.3,73.73 0.25,14.84 0.52,30.46 0.52,47.61 0,3.84 -0.52,7.68 -0.77,11.27l-0.25 2.82c-5.12,46.59 -15.87,88.07 -33.02,126.46 -12.29,27.64 -27.64,53 -45.57,75.76 -33.28,41.73 -76.29,73.21 -128.25,93.69 -32,12.54 -66.55,21.25 -102.66,25.86 -34.05,4.09 -68.61,4.36 -105.98,0.25l-0.77 0.01c-3.84,-0.52 -7.93,-0.77 -11.77,-1.29 -21.25,-2.05 -40.69,-9.47 -63.48,-20.23 -54.54,-25.86 -101.38,-62.46 -139.52,-109.05 -32.52,-39.93 -54.54,-87.55 -65.28,-142.07 -3.59,-17.66 -5.38,-34.82 -5.63,-51.71 -0.52,-32 4.61,-63.23 14.84,-92.41 17.16,-47.88 34.55,-82.18 57.09,-111.11 9.98,-13.05 21.77,-27.91 34.05,-42.23 28.68,-33.53 61.95,-64 101.89,-93.18 17.41,-12.8 35.32,-25.34 52.73,-37.37 8.96,-6.14 17.66,-12.54 26.62,-18.7 28.93,-20.48 57.86,-40.96 86.78,-61.44l28.16 -19.96c0.77,-0.52 1.54,-1.02 2.3,-1.54 1.29,-1.02 2.55,-2.05 3.84,-2.82 17.93,-11.27 33.28,-27.14 46.84,-48.89 14.34,-22.54 24.84,-47.61 32.25,-76.53 7.43,-28.16 11.27,-56.57 11.77,-84.23 0.52,-24.57 0.52,-51.19 0,-85.5 -0.25,-11 -0.77,-22.02 -1.29,-32.52 -0.25,-7.68 -0.77,-15.11 -1.02,-22.79 -0.52,-13.3 -0.52,-26.62 -0.25,-36.86 0.25,-34.82 2.82,-70.66 7.93,-110.07 5.12,-38.91 11.52,-74.23 19.71,-108.53 6.14,-25.61 13.05,-47.61 21.25,-67.07 2.05,-4.61 3.84,-8.96 6.14,-12.8 36.36,-61.69 83.19,-112.64 139.52,-151.55 39.43,-27.39 79.11,-46.07 121.34,-57.86 19.71,-5.38 39.43,-8.96 58.62,-10.23 3.84,-0.25 7.68,-0.52 11.52,-0.52 4.09,0 8.2,0.25 12.29,0.52 20.48,1.54 41.21,3.59 61.44,5.63l6.14 0.52c26.62,2.55 52.73,4.86 79.11,3.07 4.09,-0.25 8.2,-1.02 12.04,-1.54l1.79 -0.25c12.04,-1.79 22.02,-7.43 30.46,-17.41 30.21,-34.55 55.55,-63.75 81.41,-92.68 25.09,-28.41 50.43,-56.07 69.62,-77.3 34.56,-38.14 73.22,-72.96 105.98,-102.14 3.59,-3.32 7.93,-6.14 11.27,-8.45 79.18,-52.41 165.96,-88.75 258.37,-107.96 45.57,-9.46 92.68,-12.54 144.39,-9.73 33.02,1.78 67.59,7.93 109.05,19.46 16.13,4.61 32.52,10.5 49.41,18.43 63.75,29.95 119.03,70.39 164.35,120.07 35.59,39.16 62.72,82.95 80.89,130.55 4.86,13.05 8.2,26.87 11.27,40.45l1.29 5.12c7.68,33.02 13.3,67.07 17.16,101.12 3.3,31.73 5.09,63.48 4.84,91.64l0.01 -0.01z"/>
 </g>
</svg>
