<?xml version="1.0" encoding="UTF-8"?>
<!DOCTYPE svg PUBLIC "-//W3C//DTD SVG 1.1//EN" "http://www.w3.org/Graphics/SVG/1.1/DTD/svg11.dtd">
<!-- Creator: CorelDRAW -->
<svg xmlns="http://www.w3.org/2000/svg" xml:space="preserve" width="2.5in" height="10in" version="1.1" style="shape-rendering:geometricPrecision; text-rendering:geometricPrecision; image-rendering:optimizeQuality; fill-rule:evenodd; clip-rule:evenodd"
viewBox="0 0 2500 10000"
 xmlns:xlink="http://www.w3.org/1999/xlink"
 xmlns:xodm="http://www.corel.com/coreldraw/odm/2003">
 <defs>
  <style type="text/css">
   <![CDATA[
    .fil0 {fill:black;fill-rule:nonzero}
    .fil1 {fill:#666666;fill-rule:nonzero}
   ]]>
  </style>
 </defs>
<symbol id="b" viewBox="-3605.9 -134.11 171.87 273">
 <path class="fil0" d="M-3504.12 -134.11l0 60.33 70.09 0 0 48.61 -70.09 0 0 90.28c0,9.87 1.95,16.49 5.86,19.96 3.91,3.47 11.61,5.21 23.22,5.21l34.94 0 0 48.61 -58.16 0c-26.91,0 -46.01,-5.54 -57.29,-16.71 -11.18,-11.28 -16.71,-30.27 -16.71,-57.07l0 -90.28 -33.64 0 0 -48.61 33.64 0 0 -60.33 68.14 0z"/>
</symbol>
<symbol id="k" viewBox="-3594.4 -79 187.72 223.31">
 <path class="fil0" d="M-3406.68 -67.06l0 55.34c-9.11,-6.35 -18.39,-11.07 -27.78,-14.11 -9.28,-3.04 -18.88,-4.56 -28.86,-4.56 -18.99,0 -33.8,5.59 -44.49,16.71 -10.58,11.01 -15.84,26.48 -15.84,46.44 0,19.86 5.26,35.32 15.84,46.44 10.69,11.01 25.5,16.49 44.49,16.49 10.52,0 20.62,-1.52 30.17,-4.56 9.55,-3.15 18.34,-7.87 26.48,-14.11l0 55.56c-10.58,3.91 -21.38,6.78 -32.33,8.68 -10.85,2.01 -21.86,3.04 -32.98,3.04 -38.36,0 -68.36,-9.82 -90.06,-29.52 -21.59,-19.64 -32.33,-46.98 -32.33,-82.03 0,-35.16 10.74,-62.56 32.33,-82.25 21.7,-19.64 51.7,-29.52 90.06,-29.52 11.12,0 22.14,1.03 32.98,3.04 10.85,1.9 21.59,4.88 32.33,8.9l0 0.01z"/>
</symbol>
<symbol id="y" viewBox="-3590.93 -78.99 192.93 223.31">
 <path class="fil0" d="M-3412.33 -67.06l0 51.65c-14.48,-6.07 -28.54,-10.63 -42.1,-13.67 -13.62,-3.04 -26.42,-4.56 -38.41,-4.56 -12.91,0 -22.52,1.63 -28.86,4.78 -6.24,3.2 -9.33,8.19 -9.33,14.97 0,5.37 2.39,9.5 7.16,12.37 4.78,2.93 13.29,5.1 25.61,6.51l11.94 1.74c34.83,4.5 58.27,11.83 70.31,21.92 11.99,10.15 18.01,25.99 18.01,47.53 0,22.73 -8.41,39.82 -25.17,51.22 -16.66,11.28 -41.56,16.93 -74.65,16.93 -14.21,0 -28.81,-1.09 -43.83,-3.26 -14.92,-2.17 -30.27,-5.48 -46.01,-9.98l0 -51.65c13.46,6.67 27.24,11.67 41.45,14.97 14.32,3.2 28.86,4.78 43.62,4.78 13.29,0 23.28,-1.79 29.95,-5.43 6.62,-3.74 9.98,-9.22 9.98,-16.49 0,-6.07 -2.33,-10.52 -6.94,-13.46 -4.67,-3.04 -13.83,-5.31 -27.56,-6.94l-11.94 -1.52c-30.27,-3.74 -51.43,-10.74 -63.59,-21.05 -12.15,-10.25 -18.23,-25.83 -18.23,-46.66 0,-22.57 7.65,-39.28 23,-50.13 15.46,-10.96 39.17,-16.49 71.18,-16.49 12.43,0 25.5,1.03 39.28,3.04 13.89,1.9 28.92,4.88 45.14,8.9l-0 0z"/>
</symbol>
<symbol id="a" viewBox="-3594.39 -78.99 228.3 223.31">
 <path class="fil0" d="M-3366.09 31.9l0 19.53 -159.07 0c1.74,15.95 7.49,27.89 17.36,35.81 9.82,7.98 23.65,11.94 41.45,11.94 14.32,0 28.92,-2.06 43.83,-6.3 15.03,-4.34 30.44,-10.74 46.22,-19.31l0 52.3c-16.06,6.07 -32.12,10.63 -48.18,13.67 -16.06,3.15 -32.12,4.78 -48.18,4.78 -38.52,0 -68.47,-9.76 -89.84,-29.3 -21.27,-19.53 -31.9,-46.93 -31.9,-82.25 0,-34.72 10.47,-61.96 31.47,-81.81 20.94,-19.96 49.75,-29.95 86.37,-29.95 33.42,0 60.17,10.15 80.3,30.38 20.07,20.13 30.17,46.98 30.17,80.51l-0 0zm-69.88 -22.57c0,-12.86 -3.8,-23.22 -11.28,-31.03 -7.54,-7.92 -17.36,-11.94 -29.52,-11.94 -13.19,0 -23.87,3.69 -32.12,11.07 -8.24,7.38 -13.4,18.01 -15.41,31.9l88.33 0z"/>
</symbol>
<symbol id="x" viewBox="-3578.34 -156.68 67.93 295.57">
 <path class="fil0" d="M-3578.34 -73.78l67.93 0 0 212.67 -67.93 0 0 -212.67zm0 -82.9l67.93 0 0 55.56 -67.93 0 0 -55.56z"/>
</symbol>
<symbol id="z" viewBox="-3591.79 -149.74 241.31 294.05">
 <path class="fil0" d="M-3350.47 123.26c-13.46,6.94 -27.51,12.15 -42.1,15.63 -14.48,3.58 -29.68,5.43 -45.57,5.43 -47.2,0 -84.58,-13.13 -112.2,-39.5 -27.67,-26.48 -41.45,-62.28 -41.45,-107.42 0,-45.25 13.78,-81.06 41.45,-107.42 27.61,-26.48 65,-39.71 112.2,-39.71 15.9,0 31.09,1.85 45.57,5.43 14.59,3.47 28.65,8.68 42.1,15.63l0 58.59c-13.62,-9.11 -27.02,-15.84 -40.15,-20.18 -13.19,-4.34 -27.07,-6.51 -41.67,-6.51 -26.04,0 -46.55,8.41 -61.41,25.17 -14.92,16.66 -22.35,39.66 -22.35,69.01 0,29.24 7.43,52.24 22.35,69.01 14.87,16.66 35.37,24.96 61.41,24.96 14.59,0 28.48,-2.06 41.67,-6.3 13.13,-4.34 26.53,-11.12 40.15,-20.4l0 58.59z"/>
</symbol>
<symbol id="q" viewBox="-3578.78 -79 342.23 217.89">
 <path class="fil0" d="M-3381.29 -38.42c8.52,-13.13 18.72,-23.22 30.6,-30.17 11.83,-6.94 24.85,-10.42 39.06,-10.42 24.41,0 43.02,7.59 55.77,22.79 12.86,15.08 19.31,36.89 19.31,65.54l0 129.56 -68.36 0 0 -110.89 0 -4.99c0.11,-1.85 0.22,-4.45 0.22,-7.81 0,-15.03 -2.28,-25.88 -6.73,-32.55 -4.34,-6.78 -11.45,-10.2 -21.27,-10.2 -12.91,0 -22.89,5.37 -29.95,16.06 -7.11,10.58 -10.74,25.93 -10.85,46.01l0 104.38 -68.36 -0 0 -110.89c0,-23.55 -2.06,-38.69 -6.07,-45.35 -4.07,-6.78 -11.28,-10.2 -21.7,-10.2 -13.02,0 -23.11,5.37 -30.17,16.06 -7.11,10.58 -10.63,25.83 -10.63,45.79l0 104.6 -68.36 0 0 -212.67 68.36 -0 0 31.03c8.35,-11.99 17.91,-21.05 28.65,-27.13 10.85,-6.07 22.79,-9.11 35.81,-9.11 14.76,0 27.78,3.58 39.06,10.63 11.28,7.11 19.8,17.09 25.61,29.95l-0 -0z"/>
</symbol>
<symbol id="s" viewBox="-3590.93 -78.99 192.93 223.31">
 <path class="fil0" d="M-3412.33 -67.06l0 51.65c-14.48,-6.07 -28.54,-10.63 -42.1,-13.67 -13.62,-3.04 -26.42,-4.56 -38.41,-4.56 -12.91,0 -22.52,1.63 -28.86,4.78 -6.24,3.2 -9.33,8.19 -9.33,14.97 0,5.37 2.39,9.5 7.16,12.37 4.78,2.93 13.29,5.1 25.61,6.51l11.94 1.74c34.83,4.5 58.27,11.83 70.31,21.92 11.99,10.15 18.01,25.99 18.01,47.53 0,22.73 -8.41,39.82 -25.17,51.22 -16.66,11.28 -41.56,16.93 -74.65,16.93 -14.21,0 -28.81,-1.09 -43.83,-3.26 -14.92,-2.17 -30.27,-5.48 -46.01,-9.98l0 -51.65c13.46,6.67 27.24,11.67 41.45,14.97 14.32,3.2 28.86,4.78 43.62,4.78 13.29,0 23.28,-1.79 29.95,-5.43 6.62,-3.74 9.98,-9.22 9.98,-16.49 0,-6.07 -2.33,-10.52 -6.94,-13.46 -4.67,-3.04 -13.83,-5.31 -27.56,-6.94l-11.94 -1.52c-30.27,-3.74 -51.43,-10.74 -63.59,-21.05 -12.15,-10.25 -18.23,-25.83 -18.23,-46.66 0,-22.57 7.65,-39.28 23,-50.13 15.46,-10.96 39.17,-16.49 71.18,-16.49 12.43,0 25.5,1.03 39.28,3.04 13.89,1.9 28.92,4.88 45.14,8.9l-0 0z"/>
</symbol>
<symbol id="f" viewBox="-3578.34 -78.99 213.76 217.88">
 <path class="fil0" d="M-3364.58 9.33l0 129.56 -68.36 0 0 -99.17c0,-18.34 -0.43,-31.03 -1.3,-37.98 -0.87,-6.94 -2.33,-12.04 -4.34,-15.41 -2.6,-4.34 -6.24,-7.7 -10.85,-10.2 -4.5,-2.44 -9.66,-3.69 -15.41,-3.69 -14.21,0 -25.33,5.54 -33.42,16.49 -8.14,10.85 -12.15,25.99 -12.15,45.35l0 104.6 -67.93 0 0 -212.67 67.93 -0 0 31.03c10.25,-12.26 21.1,-21.38 32.55,-27.34 11.56,-5.91 24.31,-8.9 38.19,-8.9 24.57,0 43.24,7.59 55.99,22.79 12.7,15.08 19.1,36.89 19.1,65.54l0 -0z"/>
</symbol>
<symbol id="r" viewBox="-3603.73 -156.68 165.15 295.57">
 <path class="fil0" d="M-3438.58 -156.68l0 44.7 -37.54 0c-9.55,0 -16.28,1.74 -20.18,5.21 -3.8,3.47 -5.64,9.55 -5.64,18.23l0 14.76 58.16 0 0 48.61 -58.16 0 0 164.06 -67.93 0 0 -164.06 -33.85 0 0 -48.61 33.85 0 0 -14.76c0,-23.11 6.4,-40.26 19.31,-51.43 12.86,-11.12 32.88,-16.71 60.11,-16.71l51.86 -0z"/>
</symbol>
<symbol id="o" viewBox="-3575.3 -144.53 253.91 283.42">
 <polygon class="fil0" points="-3575.3,-144.53 -3493.7,-144.53 -3390.62,49.92 -3390.62,-144.53 -3321.4,-144.53 -3321.4,138.89 -3402.99,138.89 -3506.07,-55.56 -3506.07,138.89 -3575.3,138.89 "/>
</symbol>
<symbol id="m" viewBox="-3575.3 -144.53 233.29 283.42">
 <path class="fil0" d="M-3575.3 -144.53l121.31 0c36.02,0 63.64,8.03 82.9,24.09 19.37,15.95 29.08,38.74 29.08,68.36 0,29.68 -9.71,52.52 -29.08,68.57 -19.26,16.06 -46.87,24.09 -82.9,24.09l-48.39 0 0 98.31 -72.92 0 0 -283.42zm72.92 52.95l0 79.21 40.58 0c14.16,0 25.07,-3.47 32.77,-10.42 7.81,-6.94 11.72,-16.71 11.72,-29.3 0,-12.7 -3.91,-22.46 -11.72,-29.3 -7.7,-6.78 -18.61,-10.2 -32.77,-10.2l-40.58 0z"/>
</symbol>
<symbol id="d" viewBox="-3578.35 -78.99 157.98 217.88">
 <path class="fil0" d="M-3420.36 -15.85c-6.07,-2.71 -12.1,-4.78 -18.01,-6.07 -5.81,-1.41 -11.67,-2.17 -17.58,-2.17 -17.52,0 -30.98,5.64 -40.36,16.93 -9.44,11.18 -14.11,27.13 -14.11,47.96l0 98.09 -67.93 -0 0 -212.67 67.93 -0 0 34.94c8.68,-13.89 18.67,-23.98 29.95,-30.38 11.39,-6.51 25.01,-9.76 40.8,-9.76 2.28,0 4.78,0.16 7.38,0.43 2.71,0.16 6.62,0.54 11.72,1.09l0.21 61.63z"/>
</symbol>
<symbol id="l" viewBox="-3624.13 -156.68 113.71 379.56">
 <path class="fil0" d="M-3578.34 -73.78l67.93 0 0 208.76c0,28.48 -6.89,50.24 -20.62,65.32 -13.62,15.03 -33.42,22.57 -59.46,22.57l-33.63 0 0 -44.7 11.93 0c12.86,0 21.7,-2.93 26.48,-8.68 4.88,-5.81 7.38,-17.31 7.38,-34.5l0 -208.76zm0 -82.9l67.93 0 0 55.56 -67.93 0 0 -55.56z"/>
</symbol>
<symbol id="e" viewBox="-3594.4 -79 233.72 223.31">
 <path class="fil0" d="M-3477.21 -30.39c-15.08,0 -26.59,5.43 -34.5,16.28 -7.98,10.85 -11.94,26.48 -11.94,46.87 0,20.4 3.96,36.02 11.94,46.87 7.92,10.74 19.42,16.06 34.5,16.06 14.76,0 26.04,-5.31 33.85,-16.06 7.92,-10.85 11.94,-26.48 11.94,-46.87 0,-20.4 -4.02,-36.02 -11.94,-46.87 -7.81,-10.85 -19.1,-16.28 -33.85,-16.28zm0 -48.61c36.57,0 65.16,9.93 85.72,29.73 20.51,19.69 30.81,47.04 30.81,82.03 0,34.89 -10.31,62.23 -30.81,82.03 -20.56,19.69 -49.15,29.52 -85.72,29.52 -36.78,0 -65.48,-9.82 -86.15,-29.52 -20.72,-19.8 -31.03,-47.15 -31.03,-82.03 0,-34.99 10.31,-62.34 31.03,-82.03 20.67,-19.8 49.37,-29.73 86.15,-29.73z"/>
</symbol>
<symbol id="p" viewBox="-3578.34 -156.68 213.76 295.57">
 <path class="fil0" d="M-3364.58 9.33l0 129.56 -68.36 0 0 -98.74c0,-18.67 -0.43,-31.47 -1.3,-38.41 -0.87,-6.94 -2.33,-12.04 -4.34,-15.41 -2.6,-4.34 -6.24,-7.7 -10.85,-10.2 -4.5,-2.44 -9.66,-3.69 -15.41,-3.69 -14.21,0 -25.33,5.54 -33.42,16.49 -8.14,10.85 -12.15,25.99 -12.15,45.35l0 104.6 -67.93 0 0 -295.57 67.93 0 0 113.93c10.25,-12.26 21.1,-21.38 32.55,-27.34 11.56,-5.91 24.31,-8.9 38.19,-8.9 24.57,0 43.24,7.59 55.99,22.79 12.7,15.08 19.1,36.89 19.1,65.54l0 -0z"/>
</symbol>
<symbol id="n" viewBox="-3580.73 -73.79 213.76 218.1">
 <path class="fil0" d="M-3580.73 55.99l0 -129.78 68.36 0 0 21.27c0,11.61 -0.11,26.04 -0.22,43.4 -0.16,17.36 -0.22,28.97 -0.22,34.72 0,17.25 0.43,29.62 1.3,37.11 0.98,7.54 2.5,12.96 4.56,16.28 2.87,4.5 6.56,7.98 11.07,10.42 4.45,2.33 9.6,3.47 15.41,3.47 14.16,0 25.28,-5.43 33.42,-16.28 8.08,-10.85 12.15,-25.93 12.15,-45.35l0 -105.04 67.92 0 0 212.67 -67.93 0 0 -30.81c-10.31,12.48 -21.16,21.65 -32.55,27.56 -11.45,5.75 -24.09,8.68 -37.98,8.68 -24.47,0 -43.13,-7.49 -55.99,-22.57 -12.91,-15.03 -19.31,-36.95 -19.31,-65.76l-0 0z"/>
</symbol>
<symbol id="v" viewBox="-3578.34 -156.68 67.93 295.57">
 <polygon class="fil0" points="-3578.34,-156.68 -3510.42,-156.68 -3510.42,138.89 -3578.34,138.89 "/>
</symbol>
<symbol id="c" viewBox="-3594.4 -78.99 215.06 223.31">
 <path class="fil0" d="M-3483.07 43.19c-14.21,0 -24.9,2.39 -32.12,7.16 -7.11,4.78 -10.63,11.88 -10.63,21.27 0,8.68 2.87,15.52 8.68,20.4 5.75,4.78 13.72,7.16 23.87,7.16 12.86,0 23.65,-4.56 32.33,-13.67 8.79,-9.22 13.24,-20.72 13.24,-34.5l0 -7.81 -35.37 -0zm103.73 -25.61l0 121.31 -68.36 0 0 -31.47c-9.11,12.91 -19.42,22.3 -30.81,28.21 -11.45,5.75 -25.33,8.68 -41.67,8.68 -22.03,0 -39.88,-6.35 -53.6,-19.1 -13.78,-12.86 -20.62,-29.57 -20.62,-50.13 0,-24.85 8.52,-43.08 25.61,-54.69 17.2,-11.72 44.16,-17.58 80.94,-17.58l40.14 0 0 -5.43c0,-10.69 -4.29,-18.5 -12.8,-23.44 -8.57,-5.05 -21.81,-7.59 -39.71,-7.59 -14.65,0 -28.21,1.46 -40.8,4.34 -12.48,2.93 -24.04,7.27 -34.72,13.02l0 -51.87c14.43,-3.47 28.97,-6.13 43.62,-8.03 14.76,-1.85 29.52,-2.82 44.27,-2.82 38.3,0 65.97,7.59 82.9,22.79 17.04,15.08 25.61,39.66 25.61,73.78l-0 0z"/>
</symbol>
<symbol id="t" viewBox="-3575.3 -144.53 315.32 283.42">
 <polygon class="fil0" points="-3575.3,-144.53 -3482.42,-144.53 -3417.75,7.17 -3352.87,-144.53 -3259.98,-144.53 -3259.98,138.89 -3329.21,138.89 -3329.21,-68.58 -3394.53,84.42 -3440.76,84.42 -3506.07,-68.58 -3506.07,138.89 -3575.3,138.89 "/>
</symbol>
<symbol id="u" viewBox="-3578.34 -156.68 67.93 295.57">
 <path class="fil0" d="M-3578.34 -73.78l67.93 0 0 212.67 -67.93 0 0 -212.67zm0 -82.9l67.93 0 0 55.56 -67.93 0 0 -55.56z"/>
</symbol>
<symbol id="g" viewBox="-3593.52 -156.68 228.08 301">
 <path class="fil0" d="M-3433.8 -42.75l0 -113.93 68.36 0 0 295.57 -68.36 0 0 -30.81c-9.28,12.59 -19.53,21.81 -30.81,27.56 -11.28,5.75 -24.41,8.68 -39.28,8.68 -26.2,0 -47.69,-10.42 -64.45,-31.25 -16.82,-20.83 -25.17,-47.58 -25.17,-80.3 0,-32.82 8.35,-59.68 25.17,-80.51 16.76,-20.83 38.25,-31.25 64.45,-31.25 14.76,0 27.78,2.98 39.06,8.9 11.39,5.97 21.76,15.08 31.03,27.34l0 -0zm-44.71 137.8c14.43,0 25.5,-5.26 33.2,-15.84 7.65,-10.69 11.5,-26.15 11.5,-46.44 0,-20.24 -3.85,-35.65 -11.5,-46.22 -7.7,-10.69 -18.77,-16.06 -33.2,-16.06 -14.48,0 -25.55,5.37 -33.2,16.06 -7.7,10.58 -11.5,25.99 -11.5,46.22 0,20.29 3.8,35.75 11.5,46.44 7.65,10.58 18.72,15.84 33.2,15.84z"/>
</symbol>
<symbol id="i" viewBox="-3606.33 -73.78 241.75 296.67">
 <path class="fil0" d="M-3606.33 -73.78l67.93 0 57.29 144.32 48.61 -144.32 67.93 0 -89.41 232.86c-9.01,23.55 -19.48,40.04 -31.47,49.48 -12.04,9.55 -27.78,14.32 -47.31,14.32l-39.5 -0 0 -44.7 21.26 0c11.56,0 19.96,-1.9 25.17,-5.64 5.31,-3.63 9.44,-10.15 12.37,-19.53l1.95 -5.86 -94.83 -220.93z"/>
</symbol>
<symbol id="j" viewBox="-3578.34 -156.68 228.08 300.99">
 <path class="fil0" d="M-3465.28 95.06c14.59,0 25.72,-5.26 33.42,-15.84 7.65,-10.69 11.5,-26.15 11.5,-46.44 0,-20.24 -3.85,-35.65 -11.5,-46.22 -7.7,-10.69 -18.83,-16.06 -33.42,-16.06 -14.65,0 -25.83,5.37 -33.64,16.06 -7.7,10.74 -11.5,26.15 -11.5,46.22 0,20.13 3.8,35.54 11.5,46.22 7.81,10.74 18.99,16.06 33.64,16.06zm-45.14 -137.81c9.39,-12.26 19.75,-21.38 31.03,-27.34 11.39,-5.91 24.52,-8.9 39.28,-8.9 26.31,0 47.85,10.42 64.67,31.25 16.76,20.83 25.17,47.69 25.17,80.51 0,32.72 -8.41,59.46 -25.17,80.3 -16.82,20.83 -38.36,31.25 -64.67,31.25 -14.76,0 -27.89,-2.93 -39.28,-8.68 -11.28,-5.91 -21.65,-15.08 -31.03,-27.56l0 30.81 -67.93 0.01 0 -295.57 67.93 0 0 113.93z"/>
</symbol>
<symbol id="w" viewBox="-3591.79 -149.74 241.31 294.05">
 <path class="fil0" d="M-3350.47 123.26c-13.46,6.94 -27.51,12.15 -42.1,15.63 -14.48,3.58 -29.68,5.43 -45.57,5.43 -47.2,0 -84.58,-13.13 -112.2,-39.5 -27.67,-26.48 -41.45,-62.28 -41.45,-107.42 0,-45.25 13.78,-81.06 41.45,-107.42 27.61,-26.48 65,-39.71 112.2,-39.71 15.9,0 31.09,1.85 45.57,5.43 14.59,3.47 28.65,8.68 42.1,15.63l0 58.59c-13.62,-9.11 -27.02,-15.84 -40.15,-20.18 -13.19,-4.34 -27.07,-6.51 -41.67,-6.51 -26.04,0 -46.55,8.41 -61.41,25.17 -14.92,16.66 -22.35,39.66 -22.35,69.01 0,29.24 7.43,52.24 22.35,69.01 14.87,16.66 35.37,24.96 61.41,24.96 14.59,0 28.48,-2.06 41.67,-6.3 13.13,-4.34 26.53,-11.12 40.15,-20.4l0 58.59z"/>
</symbol>
<symbol id="h" viewBox="-3575.3 -144.53 201.39 283.42">
 <polygon class="fil0" points="-3575.3,-144.53 -3378.04,-144.53 -3378.04,-89.41 -3502.39,-89.41 -3502.39,-36.67 -3385.42,-36.67 -3385.42,18.67 -3502.39,18.67 -3502.39,83.56 -3373.92,83.56 -3373.92,138.89 -3575.3,138.89 "/>
</symbol>
 <g id="Слой_x0020_1">
  <metadata id="CorelCorpID_0Corel-Layer"/>
  <path class="fil1" d="M-13188.91 -4942.34c-93.97,-0.33 -182.72,-43.13 -241.48,-116.43 -58.81,-73.3 -81.33,-169.22 -61.31,-261.02 20.07,-91.8 80.51,-169.65 164.5,-211.75 83.98,-42.16 182.52,-44.06 268.07,-5.21 85.56,38.85 148.98,114.26 172.58,205.18 23.55,90.98 4.78,187.72 -51.11,263.24 -58.92,79.59 -152.24,126.36 -251.25,125.98l-0.01 0.01zm630 -573.2l-167.21 -118.22 170.36 -241.1c14.48,-20.62 9.66,-49.1 -10.91,-63.75l-28 -19.42c524.19,-777.78 712.46,-1719.72 456.54,-2322.36l0 -0.06c-56.86,-147.35 -152.24,-276.69 -276.21,-374.52 -123.97,-97.82 -271.92,-160.54 -428.44,-181.58 -514.86,-77.8 -989.31,249.68 -1395.28,956.65 -26.64,-18.61 -55.72,-33.53 -86.31,-44.33 -42.64,-53.06 -99.17,-93.21 -163.36,-115.89 -42.59,-53.06 -99.17,-93.21 -163.31,-115.89 -227.11,-77.8 -544.43,53.66 -722.54,460.44 -124.46,290.1 -143.87,722.54 -165.69,1180.67l-3.91 90.22c-358.4,292.69 -675.24,632.86 -941.89,1011.07 -294,433.21 -388.89,855.58 -245.02,1128.58 43.89,89.19 120.93,157.61 214.68,190.54 42.37,52.84 98.69,92.72 162.54,115.13 10.36,12.86 21.54,25.12 33.48,36.57 -177.9,269.97 -397.08,510.36 -649.47,712.46 -717.89,567 -1287.22,530.43 -1581.25,306.42 -145.24,-122.5 -235.19,-298.24 -249.68,-487.68 -23.33,-190.54 -9.33,-553 276.92,-1011.13l12.43 8.57c17.31,13.56 39.5,19.15 61.09,15.46 21.65,-3.74 40.69,-16.39 52.46,-34.89l149.36 -210.78c41.18,10.58 83.5,16.06 125.98,16.33 126.9,-4.67 250.82,-39.28 361.71,-101.13 269.47,-154.52 499.46,-369.36 671.98,-627.65 186.36,-248.75 312.56,-537.37 368.65,-843.1 38.9,-282.33 -34.23,-497.78 -210.78,-622.24 -177.36,-125.22 -404.46,-122.89 -657.98,8.57 -269.47,154.46 -499.52,369.31 -671.98,627.65 -185.39,248.54 -310.76,536.57 -366.37,841.53 -33.09,168.4 -3.2,343.04 84.04,490.78l-150.93 210.78c-13.51,17.31 -19.1,39.5 -15.41,61.09 3.69,21.65 16.39,40.69 34.89,52.46l21 14.76c-239.53,383.46 -346.9,773.87 -303.33,1122.35l0 0.06c19.69,231.13 131.89,444.56 311.08,591.85 169.97,124.02 376.08,188.53 586.48,183.6 327.42,0 732.69,-133.79 1185.33,-491.54l0 -0.06c267.08,-213.26 498.86,-467.33 686.74,-752.87 33.42,11.28 68.25,17.58 103.46,18.67l10.9 0.01c216.19,0 443.36,-176.54 622.24,-486.11 300.24,-513.35 353.14,-1179.9 382.65,-1788.89l58.32 -49.8c416.89,-357.81 777.78,-666.56 912.33,-1158.9l0 0.06c48.12,-142.68 36.02,-298.83 -33.42,-432.46 311.08,-559.25 730.36,-1003.31 1261.56,-922.42 130.75,17.15 254.29,69.66 357.36,151.92 103.07,82.26 181.75,191.08 227.48,314.72 233.35,544.43 45.9,1449.72 -441.03,2171.53l-24.9 -17.09 0.05 0c-20.62,-14.54 -49.1,-9.66 -63.75,10.91l-170.36 241.1 -164.11 -124.46c-63.37,-44.54 -141.87,-62.17 -218.21,-49.04 -76.39,13.13 -144.42,55.93 -189.35,119.09l-1022.79 1445.14c-44.76,63.31 -62.5,141.82 -49.37,218.26 13.13,76.44 56.04,144.53 119.36,189.29l588.82 419.22c49.04,34.89 107.8,53.66 167.97,53.66 16.71,0.11 33.37,-1.19 49.8,-3.85 76.61,-12.75 144.92,-55.61 189.78,-119.03l1022.79 -1448.19c44.76,-63.31 62.5,-141.82 49.37,-218.26 -13.13,-76.39 -56.04,-144.47 -119.41,-189.29l-0.03 -0.18zm-5635 -626.85c165.47,-248.26 386.18,-454.86 644.81,-603.57 101.02,-55.61 213.71,-86.75 329,-90.98 88.81,-0.98 175.72,26.26 248.1,77.74 192.11,136.12 203.02,373.32 178.87,549.1 -54.2,293.4 -175.57,570.26 -354.65,808.92l-8.57 -5.43c-27.24,38.9 -109.65,44.33 -220.11,14.76 -149.58,-45.25 -290.31,-115.72 -416.13,-208.44 -294.76,-208.44 -450.36,-454.21 -393.56,-535.1l-7.76 -6.99zm-354.65 808.86c44.38,-250.43 140.52,-488.87 282.33,-699.97 39.66,153.97 223.19,350.75 428.54,498.54 133.3,98.04 282.5,172.53 441.03,220.11 46.06,13.02 93.64,20.13 141.54,21l29.56 0 -0.06 0c-152.18,204.75 -345.6,375.37 -567.76,500.92 -155.54,77.8 -388.89,149.36 -577.1,14 -188.21,-135.37 -203.02,-379.56 -178.87,-554.58l0.78 -0.01zm4122.22 -2227.5c14.48,-52.08 23.38,-105.52 26.42,-159.44 9.06,44 11.18,89.14 6.24,133.79 -77.8,161.03 -155.54,335.24 -224.02,525.76 -122.61,167.04 -263.52,319.93 -419.97,455.78l0 -59.14c285.43,-261.33 513.29,-527.35 614.42,-896.75l-3.09 0zm-144.69 -41.23c-82.74,268.28 -235.19,509.87 -441.79,699.97 12.75,-170.68 49.43,-338.82 108.89,-499.29 90.98,-212.35 224.78,-331.32 350.81,-371.81 3.15,57.62 -2.87,115.4 -17.91,171.11l0 0.02zm-661.89 -32.66c108.89,-254.33 278.43,-374.89 423.13,-388.89 -185.82,89.84 -329.64,248.15 -401.32,441.79 -108.13,252.02 -136.88,612.08 -155.54,1002.56l-15.57 13.24c18.67,-422.36 40.42,-817.48 149.31,-1068.68l0 -0.01zm-160.97 1282.56l15.57 -13.24 0 55.23 -15.57 13.24c-1.57,-15.57 -0.81,-36.57 0,-55.23zm-15.57 273l17.09 -15.57 0 59.14 -17.91 15.57c-1.52,-18.72 0.06,-38.14 0.81,-59.14zm-108.89 826.76l58.32 -155.54c-39.98,309.89 -136.99,609.75 -286.18,884.33 -55.28,96.79 -123.59,185.48 -203.02,263.67 30.06,-57.02 59.14,-114.31 87.13,-171.87 29.57,-40.42 58.32,-83.22 85.56,-129.88l-0.06 -0.06c121.26,-215.28 208.61,-447.97 259,-689.89l-0.76 -0.76zm-1113.76 777.78c-33.42,-190.54 24.09,-486.11 273,-855.58 228.79,-326.33 498.54,-621.96 802.63,-879.67l0 59.14c-288.36,252.65 -544.37,540.04 -762.21,855.53 -203.78,290.15 -309.57,579.48 -313.42,820.58zm164.88 116.65c-33.42,-190.54 24.09,-486.11 273,-855.58l0 0.06c179.14,-258.68 386.24,-496.81 617.57,-710.13 0,21.76 -2.06,43.3 -6.24,64.56 -214.57,205.46 -407.44,432.52 -575.57,677.46 -201.44,293.18 -304.85,580.18 -308.75,822.86l-0.01 0.77zm262.91 240.35l-15.57 0 16.33 -7.76 -0.76 7.76zm-95.65 -132.98c-30.33,-190.54 29.57,-483.02 274.58,-844.67l-0.06 0c123.43,-183.54 261.83,-356.56 413.79,-517.25 -14.76,105.8 -32.66,210.02 -55.23,311.08 -100.31,265.25 -206.11,530.43 -329.75,786.35l-0.06 0c-74.93,115.78 -181.58,207.57 -307.18,264.48l3.9 0zm722.54 -155.54c-145.46,248.1 -320.42,399.79 -474.44,407.56 155.54,-68.47 311.08,-221.68 444.13,-445.69 255.92,-437.13 332.08,-986.22 367.14,-1516.67l17.09 -15.57c-35.05,549.92 -99.61,1128.58 -358.61,1570.42l4.7 -0.04zm364.81 -1788.89l-15.57 13.24 0 -55.99 15.57 -13.24 0 55.99zm12.42 -269.09l-15.57 13.24 0 -55.99 15.57 -14c-0.81,21.7 -2.39,39.61 -3.15,59.03l3.15 -2.28zm17.09 -276.1l-17.91 16.33c19.42,-315.75 51.32,-600.42 136.12,-798.01 108.89,-254.33 278.43,-374.89 423.13,-388.89 -185.87,89.84 -329.69,248.15 -401.36,441.74 -85.67,234.75 -133.95,481.44 -143.13,731.13l3.15 -2.29zm942.65 -630.75c-116.65,426.97 -435.54,714.79 -810.44,1036.78l0 -55.99c364.75,-311.19 671.22,-609.1 791.01,-1053.98 9.06,-33.69 15.79,-68.03 20.18,-102.65l11.67 -22.57c8.19,67.28 2.93,135.47 -15.52,200.68l3.1 -2.27zm1691.67 2218.2l-1026.69 1445.14c-32.88,46.55 -82.9,78.13 -139.06,87.78 -56.21,9.6 -113.88,-3.47 -160.37,-36.46l-588 -416.07c-46.55,-32.88 -78.13,-82.95 -87.73,-139.11 -9.66,-56.15 3.47,-113.88 36.41,-160.37l1022.79 -1445.14c32.88,-46.55 82.9,-78.13 139.06,-87.73 56.15,-9.66 113.88,3.47 160.37,36.41l588.76 416.89c46.82,32.39 78.89,82.03 89.09,138.07 10.2,55.99 -2.22,113.77 -34.61,160.58l-0.01 0zm-1094.28 853.14c-93.8,0.22 -182.72,-41.83 -241.97,-114.53 -59.3,-72.65 -82.63,-168.24 -63.48,-260.04 19.1,-91.85 78.67,-170.14 162.06,-213.11 83.33,-42.97 181.64,-46.06 267.53,-8.35 85.94,37.7 150.22,112.14 175.03,202.58 24.8,90.5 7.49,187.28 -47.15,263.52 -58.27,81.33 -152.02,129.61 -252.02,129.94zm0 -538.25c-82.52,-2.22 -160.04,39.28 -203.94,109.16 -43.89,69.88 -47.58,157.76 -9.76,231.13 37.87,73.3 111.65,121.2 194.02,125.92 82.41,4.72 161.18,-34.45 207.14,-102.97 30.06,-46.33 42.7,-101.78 35.7,-156.53 -7,-54.74 -33.2,-105.25 -73.89,-142.53 -40.69,-37.27 -93.31,-58.92 -148.48,-61.09l-0.76 -3.09zm454.17 -642.5l0 0.06c-13.19,-1.14 -26.48,-1.14 -39.66,0 -78.34,11.07 -145.72,61.14 -178.98,132.98 -33.26,71.78 -27.83,155.54 14.38,222.5 42.21,66.95 115.45,107.91 194.61,108.83 79.1,0.92 153.32,-38.3 197.1,-104.22 31.14,-46.44 44.59,-102.54 37.87,-158.04 -6.73,-55.56 -33.2,-106.77 -74.54,-144.47 -41.34,-37.65 -94.83,-59.19 -150.76,-60.71l-0 3.08z"/>
 </g>
</svg>
