<?xml version="1.0" encoding="UTF-8"?>
<!DOCTYPE svg PUBLIC "-//W3C//DTD SVG 1.1//EN" "http://www.w3.org/Graphics/SVG/1.1/DTD/svg11.dtd">
<!-- Creator: CorelDRAW -->
<svg xmlns="http://www.w3.org/2000/svg" xml:space="preserve" width="1.52974in" height="1.83in" version="1.1" style="shape-rendering:geometricPrecision; text-rendering:geometricPrecision; image-rendering:optimizeQuality; fill-rule:evenodd; clip-rule:evenodd"
viewBox="0 0 1438.58 1720.95"
 xmlns:xlink="http://www.w3.org/1999/xlink"
 xmlns:xodm="http://www.corel.com/coreldraw/odm/2003">
 <defs>
  <style type="text/css">
   <![CDATA[
    .fil0 {fill:#666666;fill-rule:nonzero}
   ]]>
  </style>
 </defs>
 <g id="Слой_x0020_1">
  <metadata id="CorelCorpID_0Corel-Layer"/>
  <path class="fil0" d="M1438.56 721.1c0,-24.05 -14.22,-44.45 -33.96,-52.28 -0.61,-1.73 -1.42,-3.47 -2.66,-5.21 0,-0.01 -0.04,-0.04 -0.04,-0.06 -0.25,-0.98 -0.09,-1.83 -0.48,-2.87 -43.63,-110.44 -10.83,-220.65 -26.18,-334.39 -9.58,-71.07 -39.94,-123.2 -74.27,-176.45 1.55,-3.79 2.71,-7.78 3.06,-12 0.91,-10.9 -2.5,-21.5 -9.58,-29.85l-68.99 -81.53c-14.06,-16.61 -39.29,-20.47 -59.23,-3.57 -8.31,7.05 -13.45,16.97 -14.35,27.87 -0.95,10.93 2.46,21.53 9.54,29.89l68.99 81.52c7.83,9.23 19.21,14.51 31.34,14.51 3.06,0 6.1,-0.48 9.14,-1.21 4.9,6.86 9.79,13.68 14.75,20.57 42.56,59.55 49.86,127.39 51.46,198.45 1.42,66.34 -4.99,129.2 2.71,191.91 -39.76,-44.11 -82.92,-84.86 -125.78,-126.84 -40.23,-39.43 -75.31,-82.13 -104.75,-130.19 -12.63,-20.53 -20.24,-41.46 -25.65,-62.64 3.35,-1.99 6.57,-4.3 9.29,-7.25 7.45,-8.02 11.35,-18.43 10.97,-29.35l-3.69 -106.77c-0.78,-22.2 -18.73,-39.56 -40.93,-39.56l-3.4 0.09c-22.58,0.78 -40.31,19.75 -39.54,42.37l3.73 106.72c0.53,16.83 11.02,30.83 25.74,36.68 10.83,48.65 28.55,94.24 70.19,144.2 76.34,91.48 171.63,164.67 242.21,260.93 -13.72,10.05 -22.74,27.04 -22.74,46.28 0,11.66 3.35,22.49 9.01,31.46 -5.66,8.99 -9.01,19.8 -9.01,31.46 0,11.57 3.44,22.17 9.06,31.09 -0.34,0.82 -0.44,1.68 -0.57,2.56 -17.37,9 -29.45,28.06 -29.45,50.26 0,12.28 3.77,23.51 10.01,32.79 -18.19,8.6 -30.98,28.27 -30.98,51.14 0,16.35 6.72,30.86 17.12,41.06 -0.04,0.61 -0.09,1.2 -0.04,1.84 -10.36,10.2 -17.08,24.67 -17.08,41.02 0,5.66 1.03,11.06 2.46,16.21 -14.09,9.96 -23.43,27.17 -23.43,46.72 0,12.24 3.78,23.51 10.01,32.79 -18.19,8.6 -30.98,28.27 -30.98,51.14 0,12.25 3.78,23.51 10.01,32.79 -18.19,8.6 -30.97,28.27 -30.97,51.14 0,12.25 3.78,23.51 10.01,32.79 -14.62,6.92 -25.61,21.01 -29.41,38.09 -24.58,4.26 -43.5,27.17 -43.5,54.97 0,2.75 0.38,5.41 0.73,8.03 -20.56,3.91 -36.87,21.01 -41.38,42.9 -4.05,-1.11 -8.28,-1.89 -12.67,-1.89 -24.63,0 -45.23,18.8 -50.31,43.84 -4.09,-1.11 -8.28,-1.89 -12.63,-1.89 -28.11,0 -50.93,24.46 -51.49,54.72 -8.9,-7.88 -20.07,-12.77 -32.41,-12.77 -24.67,0 -45.22,18.8 -50.3,43.84 -4.1,-1.11 -8.28,-1.89 -12.63,-1.89 -18.01,0 -33.87,10.07 -43.11,25.27 -6.1,-2.75 -12.82,-4.3 -19.83,-4.3 -22.21,0 -41.02,15.32 -48.27,36.62 -9.25,-9.63 -21.8,-15.64 -35.64,-15.64 -12.91,0 -24.54,5.33 -33.61,13.8 -9.19,-15.48 -25.11,-25.79 -43.34,-25.79 -13.84,0 -26.38,6.01 -35.69,15.64 -7.26,-21.32 -26.06,-36.62 -48.24,-36.62 -7.02,0 -13.72,1.55 -19.84,4.3 -9.2,-15.2 -25.05,-25.27 -43.09,-25.27 -4.36,0 -8.53,0.78 -12.63,1.89 -5.09,-25.02 -25.68,-43.84 -50.3,-43.84 -12.35,0 -23.53,4.9 -32.43,12.77 -0.54,-30.27 -23.38,-54.72 -51.47,-54.72 -4.36,0 -8.56,0.77 -12.63,1.89 -5.09,-25.02 -25.69,-43.84 -50.31,-43.84 -4.4,0 -8.6,0.77 -12.67,1.89 -4.49,-21.88 -20.81,-38.99 -41.38,-42.9 0.38,-2.62 0.76,-5.28 0.76,-8.03 0,-27.82 -18.92,-50.72 -43.5,-54.97 -3.82,-17.08 -14.81,-31.17 -29.42,-38.09 6.23,-9.25 10.02,-20.53 10.02,-32.79 0,-22.87 -12.77,-42.52 -31,-51.14 6.23,-9.25 10.02,-20.53 10.02,-32.79 0,-22.87 -12.77,-42.52 -31,-51.14 6.23,-9.24 10.02,-20.53 10.02,-32.79 0,-19.55 -9.35,-36.75 -23.45,-46.72 1.45,-5.16 2.47,-10.58 2.47,-16.21 0,-16.35 -6.72,-30.82 -17.08,-41.01 0.04,-0.64 0,-1.24 -0.04,-1.84 10.39,-10.2 17.12,-24.71 17.12,-41.06 0,-22.87 -12.77,-42.52 -31,-51.13 6.23,-9.23 10.02,-20.5 10.02,-32.76 0,-22.2 -12.1,-41.26 -29.45,-50.26 -0.13,-0.88 -0.28,-1.74 -0.57,-2.56 5.61,-8.91 9.06,-19.5 9.06,-31.09 0,-11.66 -3.35,-22.49 -9.04,-31.46 5.69,-8.98 9.04,-19.8 9.04,-31.46 0,-19.24 -9.04,-36.23 -22.74,-46.28 70.58,-96.28 165.88,-169.45 242.19,-260.93 41.64,-49.94 59.36,-95.55 70.2,-144.2 14.7,-5.83 25.17,-19.87 25.72,-36.68l3.73 -106.73c0.77,-22.61 -16.97,-41.6 -39.56,-42.37l-3.39 -0.09c-22.17,0 -40.15,17.38 -40.91,39.56l-3.69 106.77c-0.4,10.9 3.5,21.35 10.94,29.35 2.75,2.94 5.94,5.24 9.29,7.24 -5.39,21.19 -13.03,42.1 -25.64,62.64 -29.47,48.08 -64.53,90.76 -104.78,130.19 -42.83,41.95 -86.05,82.73 -125.74,126.84 7.7,-62.71 1.26,-125.57 2.71,-191.91 1.58,-71.08 8.87,-138.93 51.46,-198.45 4.93,-6.91 9.83,-13.72 14.75,-20.57 3.01,0.73 6.06,1.21 9.14,1.21 12.1,0 23.51,-5.28 31.31,-14.51l69.02 -81.52c7.07,-8.37 10.46,-18.97 9.54,-29.89 -0.92,-10.9 -6.02,-20.81 -14.37,-27.88 -19.93,-16.9 -45.18,-13.07 -59.22,3.57l-69.02 81.53c-7.07,8.33 -10.46,18.95 -9.57,29.85 0.35,4.21 1.5,8.21 3.06,12 -34.34,53.27 -64.67,105.38 -74.27,176.44 -15.35,113.73 17.47,223.94 -26.16,334.39 -0.43,1.03 -0.25,1.89 -0.49,2.87l-0.06 0.06c-1.24,1.74 -2.03,3.48 -2.65,5.21 -19.75,7.83 -33.97,28.21 -33.97,52.28 0,11.66 3.34,22.49 9.01,31.46 -5.69,8.99 -9.01,19.8 -9.01,31.46 0,22.87 12.77,42.52 31,51.14 -6.23,9.23 -10.02,20.5 -10.02,32.76 0,22.84 12.77,42.49 31,51.13 -6.23,9.2 -10.02,20.5 -10.02,32.79 0,16.8 7.02,31.72 17.91,41.95 -10.89,10.24 -17.91,25.15 -17.91,41.95 0,19.55 9.35,36.71 23.45,46.72 -1.45,5.16 -2.47,10.54 -2.47,16.21 0,22.87 12.77,42.48 31,51.14 -6.23,9.2 -10.02,20.5 -10.02,32.79 0,22.87 12.77,42.47 31,51.13 -6.23,9.2 -10.02,20.5 -10.02,32.79 0,22.87 12.77,42.48 31,51.14 -6.23,9.2 -10.03,20.5 -10.03,32.79 0,27.77 18.9,50.72 43.5,54.94 4.79,21.46 20.91,38.17 41.13,41.99 -0.35,2.62 -0.73,5.24 -0.73,7.95 0,30.77 23.13,55.84 51.56,55.84 4.39,0 8.56,-0.78 12.64,-1.93 5.08,25.02 25.68,43.88 50.27,43.88 4.39,0 8.56,-0.77 12.64,-1.93 5.08,25.02 25.68,43.88 50.27,43.88 12.35,0 23.56,-4.9 32.45,-12.77 0.54,30.23 23.37,54.72 51.46,54.72 4.39,0 8.57,-0.78 12.64,-1.89 5.08,25.02 25.68,43.84 50.27,43.84 7.02,0 13.74,-1.55 19.84,-4.35 9.2,15.2 25.07,25.31 43.09,25.31 13.87,0 26.41,-6.01 35.66,-15.68 7.27,21.35 26.06,36.66 48.24,36.66 12.86,0 24.54,-5.32 33.61,-13.8 9.19,15.44 25.11,25.79 43.34,25.79 22.17,0 40.97,-15.32 48.23,-36.67 9.24,9.67 21.8,15.69 35.68,15.69 17.98,0 33.83,-10.11 43.06,-25.31 6.1,2.8 12.82,4.35 19.87,4.35 24.62,0 45.18,-18.8 50.26,-43.84 4.05,1.11 8.28,1.88 12.67,1.88 28.06,0 50.89,-24.49 51.46,-54.72 8.9,7.88 20.08,12.77 32.46,12.77 24.62,0 45.18,-18.83 50.26,-43.88 4.1,1.16 8.28,1.93 12.67,1.93 24.62,0 45.18,-18.83 50.26,-43.88 4.1,1.16 8.28,1.93 12.67,1.93 28.43,0 51.53,-25.06 51.53,-55.83 0,-2.71 -0.38,-5.33 -0.73,-7.95 20.23,-3.82 36.37,-20.53 41.13,-41.99 24.63,-4.22 43.5,-27.17 43.5,-54.94 0,-12.29 -3.77,-23.56 -10.01,-32.79 18.19,-8.65 30.98,-28.27 30.98,-51.13 0,-12.29 -3.78,-23.56 -10.01,-32.79 18.19,-8.65 30.98,-28.27 30.98,-51.14 0,-12.29 -3.78,-23.56 -10.01,-32.79 18.19,-8.65 30.98,-28.27 30.98,-51.14 0,-5.69 -1.03,-11.06 -2.46,-16.21 14.09,-10.01 23.43,-27.17 23.43,-46.72 0,-16.8 -7.01,-31.72 -17.91,-41.95 10.9,-10.24 17.91,-25.15 17.91,-41.95 0,-12.29 -3.78,-23.56 -10.01,-32.79 18.19,-8.65 30.97,-28.27 30.97,-51.14 0,-12.28 -3.77,-23.53 -10.01,-32.76 18.19,-8.62 30.97,-28.27 30.97,-51.14 0,-11.66 -3.32,-22.49 -9.01,-31.46 5.66,-8.97 8.98,-19.8 8.98,-31.49l0.01 -0zm-1402.19 -48.24c7.27,9.67 23.94,13.49 34.24,2.43 10.02,7.13 16.72,19.58 16.72,33.8 0,6.9 -1.7,13.27 -4.45,18.95 -8.72,-7.32 -19.55,-11.86 -31.4,-11.86 -11.09,0 -21.33,3.91 -29.75,10.39 -0.83,-0.2 -1.6,-0.53 -2.57,-0.53l-0.01 0c-2.18,-5.16 -3.48,-10.87 -3.48,-16.95 -0.01,-16.06 8.5,-29.85 20.7,-36.24zm37.06 67.72c-6.09,5.32 -13.64,8.65 -21.96,8.65 -8.31,0 -15.86,-3.32 -21.95,-8.65 6.09,-5.33 13.64,-8.65 21.95,-8.65 8.32,0 15.88,3.3 21.96,8.65zm-57.78 31.46c0,-6.88 1.7,-13.27 4.45,-18.95 8.72,7.32 19.53,11.85 31.39,11.85 11.85,0 22.68,-4.54 31.4,-11.85 2.75,5.69 4.45,12.06 4.45,18.95 0,11.16 -4.09,21.24 -10.7,28.53 -1.4,-0.13 -2.75,-0.47 -4.17,-0.47 -10.24,0 -19.74,3.35 -27.77,8.94 -0.64,-0.1 -1.2,-0.39 -1.93,-0.39 -1.47,0 -2.75,0.34 -3.91,0.79 -13.52,-5.74 -23.21,-20.28 -23.21,-37.4zm20.97 83.91c0,-10.42 3.67,-19.87 9.53,-26.99 0.98,-0.34 1.8,-0.79 2.57,-1.36 0.92,0.04 1.8,0.29 2.75,0.29 11.21,0 21.53,-3.98 30,-10.59 15.39,4.51 26.84,20.06 26.84,38.66 0,11.16 -4.1,21.23 -10.7,28.5 -1.39,-0.13 -2.75,-0.44 -4.17,-0.44 -10.93,0 -21.01,3.76 -29.37,10.05 -0.69,-0.15 -1.27,-0.44 -2.08,-0.44 -0.34,0 -0.53,0.15 -0.83,0.16 -14.21,-5.33 -24.54,-20.18 -24.54,-37.84l0 0zm20.98 83.9c0,-10.07 3.44,-19.17 8.96,-26.26 1.13,-0.53 2.09,-1.27 2.87,-2.14 1.03,0.04 2.02,0.34 3.04,0.34 11.21,0 21.53,-4.01 30,-10.64 15.38,4.54 26.84,20.06 26.84,38.7 0,13.27 -5.87,24.98 -14.81,32.28 -0.35,0.13 -0.76,0.13 -1.07,0.25 -6.16,-2.84 -12.88,-4.46 -19.97,-4.46 -7.17,0 -13.98,1.59 -20.18,4.46 -0.28,-0.09 -0.5,-0.13 -0.78,-0.16 -9,-7.3 -14.89,-19.05 -14.89,-32.36zm0 83.9c0,-12.54 5.27,-23.6 13.34,-30.98 1.6,-0.04 3.04,-0.33 4.26,-0.9 5.69,2.37 11.81,3.82 18.23,3.82 7.01,0 13.64,-1.64 19.74,-4.42 0.47,0.25 1.07,0.34 1.6,0.49 8.75,7.35 14.5,18.83 14.5,31.99 0,3 -0.35,5.9 -0.91,8.69 -0.38,0.13 -0.79,0.2 -1.13,0.38 -4.13,-1.2 -8.37,-1.97 -12.83,-1.97 -17.75,0 -33.42,9.76 -42.68,24.58 -8.52,-7.33 -14.12,-18.71 -14.12,-31.66l0 0zm64.5 23.82c-6.54,9.83 -16.9,16.3 -28.68,16.3 -2.65,0 -5.21,-0.38 -7.7,-0.98 6.54,-9.83 16.93,-16.3 28.68,-16.3 2.66,-0.01 5.22,0.37 7.7,0.98zm-43.53 39.11c0,-3.23 0.44,-6.35 1.1,-9.38 4.41,1.34 8.99,2.28 13.75,2.28 17.75,0 33.44,-9.79 42.71,-24.58 8.52,7.35 14.12,18.73 14.12,31.68 0,11.13 -4.1,21.23 -10.7,28.5 -1.39,-0.13 -2.75,-0.44 -4.17,-0.44 -11.21,0 -21.49,3.97 -29.99,10.61 -15.36,-4.49 -26.82,-20.06 -26.82,-38.67l0 0zm20.98 83.91c0,-11.18 4.1,-21.27 10.7,-28.5 1.39,0.13 2.72,0.44 4.16,0.44 10.34,0 19.94,-3.4 28.02,-9.1 1.17,0.44 2.41,0.78 3.91,0.78 1.13,0 2.03,-0.34 2.98,-0.57 12.88,6.06 21.95,20.32 21.95,36.96 0,10.36 -3.63,19.74 -9.42,26.86 -0.98,0.38 -1.75,0.91 -2.5,1.51 -1.01,-0.09 -1.94,-0.34 -2.95,-0.34 -11.21,0 -21.49,3.97 -30,10.61 -15.38,-4.48 -26.83,-20.04 -26.83,-38.64l-0 0zm20.98 83.9c0,-11.18 4.1,-21.27 10.7,-28.5 1.39,0.13 2.72,0.44 4.16,0.44 10.39,0 20.03,-3.39 28.15,-9.19 0.69,0.13 1.26,0.42 2.03,0.42 1.26,0 2.23,-0.34 3.25,-0.64 13.61,5.69 23.38,20.28 23.38,37.49 0,11.13 -4.1,21.23 -10.7,28.5 -1.39,-0.13 -2.75,-0.44 -4.17,-0.44 -11.21,0 -21.5,3.97 -30,10.61 -15.36,-4.52 -26.81,-20.07 -26.81,-38.69l0 -0zm47.51 122.45c-15.23,-4.59 -26.54,-20.07 -26.54,-38.55 0,-9.25 2.91,-17.66 7.61,-24.47 2.91,-0.38 5.09,-1.73 6.54,-3.69 0.24,0 0.44,0.09 0.69,0.09 11.21,0 21.53,-4.01 30,-10.61 11.62,3.4 20.95,13.11 24.86,25.65 -23.55,4.09 -41.66,25.35 -43.15,51.58l0 -0zm15.64 0.82c1.07,-18.52 13.27,-33.61 29.28,-36.83 -1.07,18.53 -13.27,33.61 -29.28,36.83zm31.89 40.11c-0.95,0.38 -1.73,0.86 -2.43,1.46 -12.83,-2.57 -23.41,-12.47 -27.58,-26.01 23.5,-4.13 41.56,-25.36 43.06,-51.58 15.23,4.64 26.54,20.08 26.54,38.6 0,2.66 -0.28,5.28 -0.71,7.83 -17.03,2.46 -31.3,13.81 -38.88,29.7l0 0zm57.69 60.32c-0.82,0.98 -1.45,2.14 -1.87,3.35 -3.23,1.07 -6.58,1.84 -10.15,1.84 -19.74,0 -35.84,-17.98 -35.84,-40.11 0,-2.71 0.28,-5.32 0.72,-7.87 17.72,-2.53 32.57,-14.75 39.86,-31.72 16.01,2.37 28.59,16.55 30.67,34.46 -12.64,8.75 -21.39,23.21 -23.38,40.05l-0 0zm62.92 41.95c-0.82,0.98 -1.45,2.14 -1.87,3.35 -3.23,1.07 -6.58,1.84 -10.16,1.84 -17.75,0 -32.41,-14.53 -35.23,-33.57 0.57,-0.78 1.1,-1.6 1.4,-2.5 12.53,-9.29 20.85,-24.47 22.1,-41.79 3.69,-1.42 7.59,-2.37 11.75,-2.37 18.2,0 33.13,15.32 35.38,35.03 -12.64,8.71 -21.36,23.21 -23.37,40.01l0 -0zm50.92 47.16c-17.75,0 -32.41,-14.53 -35.24,-33.57 0.57,-0.77 1.1,-1.59 1.41,-2.5 12.53,-9.29 20.85,-24.47 22.07,-41.79 3.69,-1.42 7.61,-2.37 11.75,-2.37 19.75,0 35.85,17.98 35.85,40.1 -0.02,22.14 -16.05,40.12 -35.84,40.12l0 -0zm96.13 34.59c-1.58,1.55 -2.47,3.61 -2.84,5.76 -3.01,0.95 -6.13,1.6 -9.39,1.6 -19.75,0 -35.84,-17.98 -35.84,-40.11 0,-22.12 16.07,-40.1 35.84,-40.1 18.2,0 33.13,15.32 35.38,35.03 -12.07,8.31 -20.69,21.92 -23.15,37.82l0 0zm64.34 45.58c-0.09,0.25 -0.06,0.49 -0.13,0.69 -4.17,1.93 -8.72,3.04 -13.51,3.04 -18.2,0 -33.13,-15.32 -35.38,-35.03 13.36,-9.2 22.36,-24.8 23.65,-42.81 3.69,-1.42 7.59,-2.37 11.75,-2.37 12.63,0 23.69,7.39 30.09,18.39 -11.33,10.27 -18.72,25.49 -18.72,42.68 -0.01,5.39 0.94,10.51 2.25,15.41l0 -0zm13.88 -10.97c-0.16,-1.46 -0.43,-2.91 -0.43,-4.42 0,-9.72 3.21,-18.48 8.36,-25.45 0.13,1.46 0.4,2.96 0.4,4.47 0,9.67 -3.21,18.48 -8.33,25.4zm71.11 -2.71c-1.55,4.55 -2.5,9.33 -2.91,14.35 -0.54,1.42 -1.27,2.75 -1.97,4.05 -0.82,0.98 -1.47,2.14 -1.89,3.32 -6.53,10.05 -17.03,16.68 -28.95,16.68 -12.61,0 -23.66,-7.39 -30.05,-18.44 11.33,-10.24 18.72,-25.44 18.72,-42.65 0,-5.62 -1.01,-10.93 -2.43,-16.06 4.26,-1.98 8.9,-3.06 13.78,-3.06 19.75,0 35.85,17.98 35.85,40.1 0,0.56 -0.15,1.14 -0.15,1.7l0 0zm48.23 59.36c-19.78,0 -35.83,-17.98 -35.83,-40.11 0,-0.61 0.13,-1.16 0.16,-1.75 1.54,-4.51 2.46,-9.34 2.87,-14.31 5.57,-14.14 18.14,-24.04 32.8,-24.04 14.57,0 27.13,9.83 32.7,23.85 -4.55,8.31 -7.35,17.91 -7.35,28.27 0,4.8 0.73,9.38 1.8,13.84 -6.6,8.66 -16.27,14.25 -27.16,14.25l0 0zm76.94 12.01c-14.58,0 -27.13,-9.83 -32.75,-23.85 4.59,-8.35 7.39,-17.94 7.39,-28.27 0,-4.83 -0.73,-9.42 -1.8,-13.88 6.57,-8.65 16.21,-14.22 27.17,-14.22 14.62,0 27.2,9.92 32.79,24.04 0.42,4.95 1.34,9.79 2.87,14.31 0.04,0.62 0.16,1.16 0.16,1.76 -0.03,22.14 -16.09,40.12 -35.83,40.12zm83.91 -20.98c-11.91,0 -22.44,-6.63 -28.97,-16.68 -0.43,-1.2 -1.07,-2.33 -1.89,-3.32 -0.69,-1.32 -1.39,-2.62 -1.97,-4.05 -0.43,-4.99 -1.35,-9.79 -2.91,-14.35 0,-0.57 -0.13,-1.16 -0.13,-1.73 0,-22.13 16.06,-40.1 35.85,-40.1 4.87,0 9.5,1.11 13.75,3.05 -1.42,5.12 -2.41,10.45 -2.41,16.07 0,17.21 7.39,32.41 18.69,42.65 -6.36,11.11 -17.44,18.47 -30,18.47l0 -0zm35.38 -35.69c-5.12,-6.92 -8.31,-15.73 -8.31,-25.4 0,-1.51 0.25,-3 0.38,-4.47 5.16,6.96 8.36,15.73 8.36,25.45 0,1.54 -0.26,2.95 -0.43,4.42zm27.54 14.71c-4.8,0 -9.34,-1.11 -13.54,-3.04 -0.04,-0.2 -0.04,-0.44 -0.13,-0.69 1.32,-4.9 2.24,-10.05 2.24,-15.39 0,-17.21 -7.39,-32.41 -18.69,-42.68 6.39,-11.02 17.46,-18.39 30.08,-18.39 4.13,0 8.03,0.95 11.72,2.37 1.27,18.01 10.27,33.61 23.64,42.81 -2.23,19.71 -17.15,35.02 -35.34,35.02l0 0zm62.93 -41.95c-3.28,0 -6.39,-0.64 -9.42,-1.6 -0.34,-2.18 -1.24,-4.21 -2.84,-5.76 -2.46,-15.91 -11.06,-29.5 -23.16,-37.82 2.24,-19.7 17.16,-35.03 35.41,-35.03 19.74,0 35.8,17.98 35.8,40.1 0.01,22.14 -16.05,40.1 -35.79,40.1l-0 0zm83.91 -41.95c-19.78,0 -35.85,-17.98 -35.85,-40.11 0,-22.12 16.07,-40.1 35.85,-40.1 4.12,0 8.03,0.95 11.72,2.37 1.24,17.32 9.59,32.5 22.1,41.79 0.34,0.91 0.86,1.73 1.42,2.5 -2.84,19.01 -17.51,33.55 -35.23,33.55l0 0zm62.91 -41.95c-3.57,0 -6.92,-0.77 -10.15,-1.84 -0.43,-1.24 -1.07,-2.37 -1.89,-3.35 -1.97,-16.79 -10.7,-31.3 -23.35,-39.97 2.24,-19.7 17.16,-35.03 35.41,-35.03 4.13,0 8.03,0.95 11.72,2.37 1.24,17.32 9.58,32.5 22.09,41.79 0.34,0.91 0.86,1.73 1.42,2.5 -2.84,18.99 -17.52,33.54 -35.25,33.54l0 0zm62.93 -41.95c-3.57,0 -6.92,-0.77 -10.15,-1.84 -0.43,-1.24 -1.07,-2.37 -1.89,-3.35 -1.98,-16.84 -10.74,-31.3 -23.38,-40.02 2.1,-17.91 14.66,-32.07 30.69,-34.46 7.3,16.98 22.12,29.18 39.86,31.72 0.44,2.53 0.69,5.16 0.69,7.87 0,22.1 -16.06,40.08 -35.81,40.08l0 0zm48.1 -64.03c-0.73,-0.61 -1.51,-1.11 -2.46,-1.46 -7.54,-15.91 -21.83,-27.25 -38.85,-29.7 -0.44,-2.53 -0.69,-5.16 -0.69,-7.83 0,-18.52 11.31,-33.96 26.51,-38.6 1.51,26.22 19.59,47.45 43.06,51.58 -4.18,13.56 -14.77,23.44 -27.58,26.01l0 0zm0.14 -78.43c16.02,3.23 28.24,18.32 29.28,36.83 -15.99,-3.22 -28.19,-18.3 -29.28,-36.83zm44.97 36.01c-1.51,-26.22 -19.64,-47.5 -43.19,-51.58 3.91,-12.54 13.24,-22.26 24.87,-25.65 8.43,6.58 18.77,10.61 30,10.61 0.25,0 0.44,-0.09 0.68,-0.09 1.42,1.98 3.62,3.32 6.53,3.69 4.73,6.79 7.61,15.21 7.61,24.47 0.01,18.48 -11.3,33.99 -26.5,38.56l0 0zm20.67 -83.77c-8.47,-6.63 -18.8,-10.61 -30,-10.61 -1.42,0 -2.8,0.34 -4.17,0.44 -6.58,-7.3 -10.7,-17.37 -10.7,-28.5 0,-17.21 9.76,-31.8 23.38,-37.49 1.03,0.34 2.02,0.64 3.23,0.64 0.78,0 1.35,-0.29 2.05,-0.42 8.12,5.76 17.75,9.19 28.15,9.19 1.42,0 2.75,-0.34 4.13,-0.44 6.58,7.26 10.7,17.32 10.7,28.5 0.03,18.61 -11.4,34.17 -26.78,38.69l0 0zm20.98 -83.91c-8.47,-6.63 -18.8,-10.61 -30,-10.61 -1.02,0 -1.97,0.25 -2.95,0.34 -0.73,-0.61 -1.51,-1.16 -2.5,-1.51 -5.81,-7.12 -9.42,-16.5 -9.42,-26.86 0,-16.63 9.06,-30.9 21.92,-36.96 0.95,0.25 1.84,0.57 3,0.57 1.46,0 2.71,-0.34 3.91,-0.78 8.07,5.69 17.66,9.1 28.02,9.1 1.42,0 2.75,-0.33 4.12,-0.44 6.59,7.26 10.7,17.32 10.7,28.5 0.01,18.57 -11.41,34.14 -26.79,38.64l0 0zm20.97 -83.9c-8.47,-6.63 -18.8,-10.61 -30,-10.61 -1.42,0 -2.79,0.34 -4.17,0.44 -6.58,-7.3 -10.7,-17.37 -10.7,-28.5 0,-12.95 5.58,-24.33 14.09,-31.68 9.29,14.79 24.98,24.58 42.72,24.58 4.8,0 9.34,-0.95 13.75,-2.28 0.64,3.04 1.07,6.15 1.07,9.38 0.03,18.6 -11.4,34.17 -26.78,38.67l0 0zm-16.71 -77.8c2.46,-0.61 5.04,-0.98 7.7,-0.98 11.76,0 22.12,6.48 28.68,16.3 -2.5,0.61 -5.08,0.98 -7.7,0.98 -11.8,0 -22.16,-6.47 -28.68,-16.3zm64.5 -23.82c0,12.95 -5.58,24.33 -14.09,31.68 -9.29,-14.84 -24.95,-24.58 -42.68,-24.58 -4.47,0 -8.72,0.77 -12.86,1.97 -0.34,-0.16 -0.73,-0.25 -1.11,-0.38 -0.57,-2.79 -0.91,-5.69 -0.91,-8.69 0,-13.15 5.72,-24.67 14.5,-31.99 0.53,-0.16 1.11,-0.25 1.6,-0.49 6.1,2.8 12.73,4.42 19.74,4.42 6.44,0 12.54,-1.42 18.23,-3.82 1.24,0.57 2.66,0.87 4.26,0.91 8.09,7.38 13.33,18.45 13.33,30.96l0 0zm-14.87 -51.53c-0.25,0.04 -0.48,0.09 -0.77,0.16 -6.19,-2.87 -12.98,-4.47 -20.16,-4.47 -7.09,0 -13.8,1.64 -19.99,4.47 -0.29,-0.13 -0.69,-0.13 -1.07,-0.25 -8.94,-7.3 -14.79,-19.01 -14.79,-32.28 0,-18.64 11.43,-34.17 26.84,-38.69 8.43,6.59 18.77,10.61 29.99,10.61 1.03,0 2.02,-0.3 3.04,-0.34 0.78,0.86 1.73,1.59 2.87,2.14 5.5,7.09 8.94,16.17 8.94,26.26 -0.03,13.33 -5.94,25.11 -14.9,32.38l0 0zm11.34 -78.41c-0.34,-0.04 -0.53,-0.16 -0.86,-0.16 -0.77,0 -1.35,0.29 -2.05,0.42 -8.36,-6.32 -18.48,-10.05 -29.37,-10.05 -1.42,0 -2.8,0.34 -4.17,0.44 -6.58,-7.3 -10.7,-17.37 -10.7,-28.5 0,-18.61 11.43,-34.15 26.84,-38.66 8.43,6.62 18.77,10.6 29.99,10.6 0.95,0 1.8,-0.25 2.75,-0.3 0.78,0.57 1.6,1.03 2.58,1.36 5.85,7.13 9.5,16.58 9.5,27 0,17.66 -10.34,32.53 -24.51,37.85l0 0zm22.28 -84.34c-1.16,-0.44 -2.41,-0.79 -3.91,-0.79 -0.73,0 -1.27,0.28 -1.93,0.4 -8.03,-5.61 -17.53,-8.94 -27.77,-8.94 -1.42,0 -2.79,0.34 -4.17,0.47 -6.58,-7.27 -10.7,-17.37 -10.7,-28.53 0,-6.91 1.68,-13.27 4.42,-18.95 8.72,7.32 19.55,11.85 31.43,11.85 11.84,0 22.65,-4.54 31.39,-11.85 2.75,5.66 4.42,12.06 4.42,18.95 0.01,17.12 -9.66,31.65 -23.18,37.4l0 0zm-34.58 -68.89c6.06,-5.33 13.64,-8.65 21.96,-8.65 8.28,0 15.86,3.32 21.92,8.65 -6.06,5.32 -13.64,8.65 -21.92,8.65 -8.32,0 -15.9,-3.31 -21.96,-8.65zm54.28 -14.51c-0.98,0 -1.75,0.32 -2.57,0.53 -8.43,-6.48 -18.64,-10.39 -29.75,-10.39 -11.87,0 -22.69,4.54 -31.43,11.85 -2.75,-5.69 -4.42,-12.06 -4.42,-18.95 0,-14.22 6.67,-26.66 16.72,-33.8 10.27,11.03 26.95,7.24 34.21,-2.43 12.2,6.39 20.72,20.18 20.72,36.24 0,6.07 -1.32,11.78 -3.48,16.94l0 0z"/>
 </g>
</svg>
