<?xml version="1.0" encoding="UTF-8"?>
<!DOCTYPE svg PUBLIC "-//W3C//DTD SVG 1.1//EN" "http://www.w3.org/Graphics/SVG/1.1/DTD/svg11.dtd">
<!-- Creator: CorelDRAW -->
<svg xmlns="http://www.w3.org/2000/svg" xml:space="preserve" width="7.25684in" height="7.17508in" version="1.1" style="shape-rendering:geometricPrecision; text-rendering:geometricPrecision; image-rendering:optimizeQuality; fill-rule:evenodd; clip-rule:evenodd"
viewBox="0 0 845.98 836.45"
 xmlns:xlink="http://www.w3.org/1999/xlink"
 xmlns:xodm="http://www.corel.com/coreldraw/odm/2003">
 <defs>
  <style type="text/css">
   <![CDATA[
    .fil0 {fill:#666666;fill-rule:nonzero}
   ]]>
  </style>
 </defs>
 <g id="Слой_x0020_1">
  <metadata id="CorelCorpID_0Corel-Layer"/>
  <path class="fil0" d="M550.61 486.68c5.14,-13.59 7.88,-10.6 10.6,-24.87 161.92,-72.21 285.24,-269.09 263.69,-303.63 7.21,5.15 13.76,11.16 19.52,17.89 -31.4,97.79 -147.32,234.71 -293.81,310.61l-0.01 0.01zm-255.23 0c-5.14,-13.59 -7.88,-10.6 -10.6,-24.87 -161.92,-72.21 -285.24,-269.09 -263.69,-303.63 -7.21,5.15 -13.76,11.16 -19.52,17.89 31.4,97.79 147.32,234.71 293.81,310.61l0.01 0.01zm48.91 31.14c-3.87,13.18 -3.21,15.95 6.39,27 -4.34,10.52 -4.17,13.12 2.02,25.88 -4.97,8.33 -4.65,16.99 0.24,25.76 1.02,1.82 1.09,4.59 0.59,6.7 -1.31,5.61 -1.22,10.88 1.62,16.06 1.64,2.98 1.95,5.53 -1.33,8.26 -18.12,15.14 -24.05,35.3 -24.7,57.68 -0.92,31.61 5.76,61.5 20.41,89.73 7.32,14.11 15.39,27.67 26.22,39.57 13.48,14.82 30.26,22.58 50.52,21.95 12.65,-0.4 24.08,-5.11 34.17,-12.67 20.4,-15.29 34.07,-35.46 44.38,-58.11 11.79,-25.91 16.57,-53.27 15.89,-81.3 -0.55,-22.65 -9.84,-47.13 -30.56,-62.69 1.16,-3.9 3.19,-7.81 3.23,-11.72 0.03,-3.67 -2.04,-7.37 -3.32,-11.48 8.07,-7.97 9.65,-17.28 3.53,-27.42 6.28,-14.3 6.4,-15.9 1.85,-26.64 8.5,-7.24 11.35,-16.07 6.1,-26.68 6.2,-5.87 7.58,-12.48 4.48,-20.27 -0.88,-2.2 -0.33,-5.13 0.14,-7.62 8.29,-43.09 17.35,-86.05 24.72,-129.27 3.31,-19.33 3.15,-39.21 4.82,-58.82 1.51,-17.72 -0.34,-35.18 -4.03,-52.44 -1.86,-8.69 -4.86,-17.2 -7.95,-25.58 -3.6,-9.77 -9.24,-18.44 -17.51,-25.14 -12.51,-10.12 -13.28,-13 -25.34,-15.67 2.6,2.87 3.98,4.33 5.27,5.85 10.37,12.11 20.23,24.43 26.16,39.45 11.39,28.85 14.14,58.76 11.12,89.11 -2.73,27.4 -6.34,54.76 -10.98,81.91 -5.22,30.52 -12.08,60.77 -18.04,91.18 -0.52,2.64 -0.3,5.8 0.76,8.25 2.57,5.96 1.06,10.64 -3.27,15.03 -4.86,4.94 -4.81,5 -1.12,10.83 4.42,7.01 2.89,13.75 -4.18,18.37 -1.69,1.11 -3.39,2.21 -5.74,3.75 1.89,2.35 3.42,4.06 4.75,5.93 4.85,6.85 2.92,12.92 -4.92,15.9 -0.9,0.35 -1.69,0.98 -2,1.17 3.06,5.34 6.93,9.94 8.38,15.18 1.64,5.95 -0.81,11.38 -8.31,13.14 1.58,3.27 3.24,5.98 4.22,8.91 2.12,6.42 -1.04,10.45 -7.93,10.99 -4.38,0.35 -8.72,1.21 -13.08,1.83 2.13,2.52 4.37,4.14 5.72,4.72 24.86,12.57 38.93,32.32 38.99,61.37 0.04,20.54 -2.28,40.9 -8.4,60.66 -8.29,26.78 -20.5,51.29 -42.58,70.17 -19.97,17.09 -46.31,17.63 -65.78,0.15 -20.26,-18.19 -33.24,-41.09 -41.29,-66.58 -7.46,-23.65 -8.52,-48 -6.85,-72.53 1.52,-22.39 10.21,-40.58 31.57,-51.43 2.9,-1.47 5.52,-3.5 8.26,-5.27 -3.85,-1.39 -7.09,-1.92 -10.04,-1.25 -3.97,0.91 -5.94,-1.06 -6.57,-3.97 -0.64,-2.92 -0.32,-6.16 0.18,-9.17 0.46,-2.77 1.73,-5.41 2.59,-7.98 -9.99,-5.69 -11.5,-14.6 -4.35,-22.4 1.72,-1.88 3.33,-3.84 5.12,-5.92 -12.17,-4.99 -13.99,-7.73 -3.56,-23.92l0 -0c-5.01,-3.91 -10.66,-6.45 -10.93,-13.87 -0.25,-7.15 6.74,-9.78 8.62,-15.87 -1.61,-1.07 -3.04,-2.19 -4.63,-3 -1.59,-0.82 -6.09,-1.55 -6.72,-5.95 -0.86,-6.02 4.11,-6.26 3.75,-10.88 -0.36,-4.69 -4.07,-9.04 -5.05,-13.79 -10.11,-49.12 -21.21,-98.07 -26.01,-148.1 -2.52,-26.23 -4.57,-52.34 1.06,-78.4 4.31,-19.95 10.56,-39.09 24.19,-55.17 4.74,-5.6 9.23,-11.4 13.83,-17.12 -2.93,-6.23 -25.34,15.48 -26.87,17.03 -8.24,8.42 -13.37,18.46 -17.06,29.21 -7.77,22.66 -9.61,46.01 -9.42,69.87 0.39,49.79 11.59,97.95 21.24,146.39 2.93,14.69 6.19,29.31 9.16,44 0.45,2.23 0.63,4.71 0.11,6.88 -2.61,10.98 -2.61,11.47 4.04,20.27l0 -0.01zm73.74 48.34c6.09,3.54 35.96,5.33 48.37,2.89 -9.1,-7.77 -40.54,-9.66 -48.37,-2.89zm47.15 29.53c-15.48,-6.9 -31.41,-8.48 -47.83,-3.74 15.44,6.64 31.62,5.32 47.83,3.74zm-2.96 18.52c-11.61,-7.54 -39.38,-8.9 -48.89,-2.68 16,6.11 31.79,5.16 48.89,2.68zm9.76 -90.71c-11.64,-9.7 -40.08,-12.26 -52.67,-5.81 1,3.61 4.17,3.59 6.96,3.73 15.23,0.76 30.47,1.4 45.71,2.08l-0 0zm0.4 23.01c-10.21,-9.11 -44.74,-11.07 -57.07,-2.96 19.64,5.62 38.49,2 57.07,2.96zm11.67 -46.47c-14.85,-12.37 -55.78,-15.89 -65.64,-5.24 3.05,1.02 5.66,2.03 8.36,2.73 1.52,0.4 3.19,0.29 4.79,0.36 17.29,0.71 34.57,1.42 52.48,2.15l0 0zm-98.37 -316.47c32.6,-5.16 63.06,7.17 94.47,11.79 0.25,-0.48 1.27,-5.16 -15.18,-13.35 -16.46,-8.2 -57.41,-9.85 -79.29,1.56l0 0zm102.11 492.42c1.24,-12.95 -3.44,-24.44 -12.43,-33.68 -13.09,-13.45 -29.31,-15.03 -47.37,-8.34 7.12,3.77 11.27,3.06 32.87,15.17 20.44,11.45 23.84,21.99 26.93,26.84l0 -0zm13.86 -420.91c3.98,-6.54 2.79,-11.35 1.47,-16.07 -6,-21.52 -30.09,-40.97 -52.99,-42.51 -7.18,-0.49 -14.41,-0.07 -21.97,1.08 13.63,7.86 27.47,15.4 40.84,23.67 13.37,8.24 23.63,19.84 32.65,33.83l-0 0zm233.55 -170.36c36.04,-6.68 71.44,-16.46 105.79,-29.23 3.47,26.8 5.12,53.8 4.97,80.83 -33.72,-23.37 -71.18,-40.83 -110.76,-51.6l-0 0zm-705.82 -79.25c3.26,-4.49 8.97,-6.47 14.31,-4.97 110.63,28.35 267.77,41.11 379.29,41.11 111.52,0 268.66,-12.76 379.3,-41.11 5.34,-1.5 11.04,0.48 14.31,4.97 8.06,12.14 14.1,6.08 17.88,20.15 -110.33,44.87 -309.59,57 -411.48,57 -101.89,0 -301.16,-12.14 -411.48,-57.01l0 0.01c3.78,-14.07 9.82,-8.01 17.88,-20.15l0 0zm-29.37 130.85c-0.15,-27.02 1.51,-54.03 4.97,-80.83 34.36,12.76 69.75,22.55 105.79,29.23 -39.59,10.78 -77.05,28.23 -110.76,51.6l-0 0zm274.1 -29.89c100.5,8.17 197.25,8.17 297.75,0l-297.75 0z"/>
 </g>
</svg>
