<svg width="114" height="173" viewBox="0 0 114 173" fill="none" xmlns="http://www.w3.org/2000/svg">
<path fill-rule="evenodd" clip-rule="evenodd" d="M38.5683 27.4124C54.8728 27.4703 68.1922 40.8635 68.1922 57.2299V131.563H68.2709V133.315H68.1922V140.725V142.477V158.97H69.9444C73.7897 158.97 76.9372 162.128 76.9372 165.985C76.9372 169.842 73.7897 173 69.9444 173H6.99291C3.14237 173 0 169.842 0 165.985C0 162.128 3.14762 158.97 6.99291 158.97H8.73972V57.2299C8.73972 41.3634 21.2356 28.3228 36.8109 27.4598C38.0227 12.1511 50.8858 0 66.4453 0C82.7969 0 96.1742 13.4194 96.1742 29.8226V82.9846H99.4633C103.183 82.9846 106.231 86.0368 106.231 89.7679V96.5461C105.669 95.9199 105.087 95.341 104.484 94.8147V90.389C104.484 87.2789 101.95 84.7371 98.8496 84.7371H92.6332C89.5328 84.7371 86.9991 87.2789 86.9991 90.389V94.8147C86.3958 95.341 85.8134 95.9146 85.2521 96.5409V89.7627C85.2521 86.0316 88.2947 82.9793 92.0141 82.9793H94.4273V29.8174C94.4273 14.3824 81.8369 1.75233 66.4505 1.75233C51.872 1.75233 39.8064 13.0878 38.5788 27.4124H38.5683ZM95.6234 94.1201C105.711 94.1201 114 104.293 114 120.364C114 136.436 105.822 146.824 95.7335 146.824C85.6455 146.824 77.4671 136.431 77.4671 120.364C77.4671 104.293 85.5354 94.1201 95.6234 94.1201ZM95.6234 95.8725C104.746 95.8725 112.248 105.261 112.248 120.364C112.248 135.462 104.851 145.072 95.7335 145.072C86.6108 145.072 79.2193 135.462 79.2193 120.364C79.2193 105.266 86.5059 95.8725 95.6286 95.8725H95.6234ZM106.225 144.182V149.876C106.225 153.608 103.183 156.66 99.4582 156.66H92.0036C88.2842 156.66 85.2416 153.608 85.2416 149.876V144.182C85.8029 144.809 86.3853 145.382 86.9886 145.909V149.25C86.9886 152.36 89.5223 154.902 92.6227 154.902H98.8391C101.939 154.902 104.473 152.36 104.473 149.25V145.909C105.077 145.382 105.664 144.809 106.22 144.177L106.225 144.182ZM68.1922 160.728H8.73972H6.99291C4.10763 160.728 1.74695 163.096 1.74695 165.99C1.74695 168.885 4.10763 171.253 6.99291 171.253H69.9444C72.8297 171.253 75.1904 168.885 75.1904 165.99C75.1904 163.096 72.8297 160.728 69.9444 160.728H68.1975H68.1922ZM10.4867 140.725H66.4453V57.2299C66.4453 41.7949 53.8551 29.1648 38.4687 29.1648C23.0823 29.1648 10.4919 41.7949 10.4919 57.2299V140.725H10.4867ZM66.4453 142.477H10.4867V158.97H66.4453V142.477Z" fill="#666666"/>
</svg>
