<svg width="143" height="128" viewBox="0 0 143 128" fill="none" xmlns="http://www.w3.org/2000/svg">
<path d="M119.016 80.2224C117.08 80.2157 115.251 79.3365 114.041 77.8308C112.829 76.3252 112.365 74.3548 112.778 72.4692C113.191 70.5835 114.436 68.9843 116.167 68.1195C117.897 67.2535 119.927 67.2145 121.69 68.0125C123.453 68.8106 124.759 70.3596 125.246 72.2272C125.731 74.096 125.344 76.0832 124.193 77.6345C122.979 79.2693 121.056 80.23 119.016 80.2222L119.016 80.2224H119.016ZM131.996 68.4482L128.551 66.0198L132.061 61.0673C132.359 60.6438 132.26 60.0588 131.836 59.7578L131.259 59.3589C142.059 43.3824 145.938 24.0337 140.665 11.6548V11.6535C139.494 8.62678 137.529 5.96999 134.974 3.96044C132.42 1.95109 129.372 0.662745 126.147 0.230558C115.54 -1.36755 105.765 5.35929 97.4004 19.8813C96.8516 19.4991 96.2524 19.1926 95.6222 18.9707C94.7437 17.8808 93.579 17.0561 92.2565 16.5902C91.379 15.5003 90.2133 14.6756 88.8918 14.2097C84.2127 12.6116 77.6749 15.3119 74.0053 23.6677C71.4411 29.6267 71.0412 38.5096 70.5916 47.9201L70.5111 49.7733C63.1269 55.7856 56.5991 62.7731 51.1053 70.542C45.048 79.4406 43.093 88.1167 46.0572 93.7244C46.9614 95.5565 48.5487 96.9619 50.4802 97.6383C51.3532 98.7237 52.5135 99.5429 53.829 100.003C54.0425 100.267 54.2728 100.519 54.5188 100.754C50.8535 106.3 46.3378 111.238 41.1378 115.389C26.3471 127.036 14.6172 126.285 8.55933 121.684C5.56695 119.167 3.71372 115.557 3.41518 111.666C2.93451 107.752 3.22295 100.307 9.12056 90.8961L9.37664 91.0721C9.73328 91.3507 10.1905 91.4655 10.6353 91.3897C11.0813 91.3129 11.4736 91.053 11.7161 90.673L14.7934 86.3433C15.6418 86.5607 16.5137 86.6732 17.3889 86.6788C20.0034 86.5828 22.5566 85.8719 24.8412 84.6014C30.3931 81.4274 35.1316 77.0143 38.686 71.7087C42.5256 66.5991 45.1257 60.6705 46.2813 54.3904C47.0828 48.591 45.5761 44.1654 41.9386 41.6088C38.2845 39.0367 33.6055 39.0845 28.3823 41.7849C22.8304 44.9577 18.0907 49.3709 14.5375 54.6776C10.7179 59.7829 8.13488 65.6994 6.98915 71.9636C6.3074 75.4228 6.92324 79.0101 8.72065 82.0449L5.61101 86.3746C5.33266 86.7301 5.21753 87.1859 5.29355 87.6294C5.36958 88.0741 5.63121 88.4652 6.01236 88.707L6.44502 89.0102C1.50999 96.8869 -0.702153 104.906 0.195519 112.065V112.066C0.601192 116.814 2.91285 121.198 6.6047 124.223C10.1066 126.771 14.3531 128.096 18.6879 127.995C25.4338 127.995 33.7835 125.246 43.1093 117.898V117.897C48.6119 113.516 53.3873 108.297 57.2582 102.432C57.9467 102.663 58.6643 102.793 59.3898 102.815L59.6143 102.815C64.0685 102.815 68.7489 99.189 72.4343 92.83C78.6202 82.2852 79.7101 68.5934 80.3181 56.084L81.5196 55.0611C90.1088 47.7112 97.5442 41.3691 100.316 31.2558V31.2571C101.308 28.3262 101.058 25.1187 99.6278 22.3738C106.037 10.8861 114.675 1.76456 125.62 3.42614C128.314 3.77843 130.859 4.85707 132.982 6.54679C135.106 8.23651 136.727 10.4718 137.669 13.0115C142.477 24.1948 138.615 42.7906 128.583 57.6174L128.07 57.2664H128.071C127.646 56.9677 127.059 57.0679 126.757 57.4905L123.247 62.443L119.866 59.8864C118.561 58.9715 116.943 58.6094 115.37 58.8791C113.796 59.1488 112.395 60.0279 111.469 61.3253L90.3966 91.0103C89.4744 92.3108 89.1089 93.9235 89.3795 95.4936C89.65 97.0638 90.5341 98.4625 91.8386 99.3819L103.97 107.993C104.98 108.71 106.191 109.095 107.431 109.095C107.775 109.098 108.118 109.071 108.457 109.016C110.035 108.754 111.443 107.874 112.367 106.571L133.439 76.8237C134.362 75.5232 134.727 73.9105 134.457 72.3404C134.186 70.7712 133.302 69.3728 131.996 68.4521L131.996 68.4484L131.996 68.4482ZM15.8981 55.5719C19.3073 50.4724 23.8546 46.2285 29.1831 43.1739C31.2644 42.0316 33.5862 41.3919 35.9615 41.305C37.7913 41.2849 39.5818 41.8444 41.0731 42.9019C45.0311 45.698 45.2559 50.5703 44.7583 54.1811C43.6416 60.2079 41.1411 65.8949 37.4515 70.7973L37.2749 70.6858C36.7137 71.4848 35.0158 71.5964 32.74 70.989C29.6582 70.0595 26.7588 68.6119 24.1665 66.7073C18.0936 62.4257 14.8877 57.3773 16.058 55.7157L15.8981 55.5721V55.5719ZM8.59124 72.1869C9.5056 67.0428 11.4864 62.1449 14.4081 57.8087C15.2252 60.9714 19.0065 65.0135 23.2373 68.0493C25.9837 70.0632 29.0576 71.5933 32.3238 72.5706C33.2728 72.8381 34.2531 72.9841 35.24 73.002H35.849H35.8478C32.7124 77.2078 28.7274 80.7126 24.1502 83.2915C20.9456 84.8896 16.1379 86.3595 12.2602 83.5791C8.38253 80.7984 8.07742 75.7825 8.57498 72.1873L8.59103 72.1871L8.59124 72.1869ZM93.5213 26.4313C93.8196 25.3615 94.003 24.2638 94.0656 23.1562C94.2523 24.06 94.296 24.9873 94.1942 25.9044C92.5913 29.2122 90.9896 32.7907 89.5787 36.7042C87.0526 40.1354 84.1494 43.2759 80.9261 46.0665V44.8517C86.8068 39.4836 91.5014 34.0193 93.585 26.4313H93.5213ZM90.5402 25.5844C88.8355 31.0952 85.6946 36.0578 81.438 39.9626C81.7007 36.4567 82.4565 33.0029 83.6815 29.7066C85.556 25.3447 88.3126 22.9009 90.9092 22.0692C90.9741 23.2528 90.8501 24.4396 90.5402 25.584V25.5844ZM76.9033 24.9135C79.1468 19.6893 82.6398 17.2128 85.6211 16.9252C81.7926 18.7707 78.8295 22.0225 77.3527 26.0002C75.1249 31.177 74.5325 38.573 74.1481 46.594L73.8273 46.8659C74.212 38.1901 74.6601 30.0739 76.9035 24.9139V24.9137L76.9033 24.9135ZM73.5869 51.2589L73.9076 50.9869V52.1214L73.5869 52.3934C73.5545 52.0736 73.5702 51.6422 73.5869 51.2589ZM73.2661 56.8667L73.6182 56.5468V57.7616L73.2492 58.0815C73.2179 57.6969 73.2504 57.298 73.2659 56.8667H73.2661ZM71.0226 73.8493L72.2242 70.6543C71.4005 77.0199 69.4018 83.1794 66.328 88.8196C65.1891 90.8078 63.7817 92.6296 62.1452 94.2357C62.7645 93.0644 63.3637 91.8876 63.9404 90.7053C64.5496 89.875 65.1419 88.9958 65.7031 88.0374L65.7019 88.0361C68.2002 83.614 69.9999 78.8343 71.0381 73.8649L71.0224 73.8493H71.0226ZM48.0759 89.8259C47.3873 85.912 48.5722 79.8406 53.7004 72.2512C58.4142 65.548 63.9719 59.4754 70.237 54.1817V55.3965C64.2959 60.5863 59.0214 66.4896 54.5332 72.9702C50.3347 78.9302 48.1552 84.8734 48.0759 89.8259ZM51.4728 92.222C50.7843 88.3081 51.9692 82.2367 57.0975 74.6473V74.6486C60.7883 69.335 65.0552 64.4435 69.8213 60.0616C69.8213 60.5086 69.7788 60.9511 69.6927 61.3878C65.2719 65.6082 61.2982 70.2723 57.8342 75.3036C53.684 81.3259 51.5534 87.2213 51.4731 92.2062L51.4728 92.222ZM56.8896 97.1591H56.5688L56.9053 96.9997L56.8896 97.1591ZM54.9189 94.4275C54.294 90.5136 55.5282 84.5057 60.5761 77.077H60.5748C63.1179 73.3068 65.9693 69.7528 69.1002 66.452C68.7961 68.6253 68.4273 70.7661 67.9623 72.842C65.8956 78.2905 63.7158 83.7377 61.1684 88.9946H61.1672C59.6234 91.3728 57.4261 93.2583 54.8384 94.4273H54.9187L54.9189 94.4275ZM69.8054 91.2326C66.8085 96.3288 63.2038 99.4447 60.0305 99.6043C63.2351 98.1979 66.4397 95.0508 69.1809 90.4493C74.4536 81.4701 76.0228 70.1911 76.7451 59.295L77.0972 58.9752C76.3751 70.2712 75.0449 82.1576 69.7088 91.2336L69.8056 91.2328L69.8054 91.2326ZM77.3216 54.4865L77.0008 54.7585V53.6084L77.3216 53.3364V54.4865ZM77.5775 48.9591L77.2567 49.2311V48.081L77.5775 47.7934C77.5608 48.2391 77.5282 48.607 77.5126 49.0059L77.5775 48.9591ZM77.9296 43.2877L77.5606 43.6231C77.9607 37.1372 78.6179 31.2897 80.365 27.231C82.6085 22.0067 86.1015 19.5303 89.0828 19.2427C85.2533 21.0881 82.2902 24.34 80.8136 28.3166C79.0485 33.1386 78.0538 38.206 77.8647 43.3349L77.9296 43.2879V43.2877ZM97.351 30.3313C94.9476 39.1018 88.3775 45.0139 80.6535 51.628V50.4779C88.1684 44.0857 94.4826 37.9662 96.9507 28.8279C97.1373 28.1358 97.276 27.4304 97.3664 26.7193L97.6069 26.2557C97.7756 27.6377 97.6672 29.0384 97.2871 30.3779L97.351 30.3313ZM132.204 75.8958L111.052 105.581C110.374 106.537 109.344 107.186 108.186 107.384C107.028 107.581 105.84 107.313 104.882 106.635L92.7678 98.0884C91.8088 97.413 91.1581 96.3845 90.9603 95.2309C90.7613 94.0775 91.0318 92.8917 91.7105 91.9367L112.783 62.2517C113.46 61.2955 114.491 60.6468 115.648 60.4497C116.805 60.2512 117.994 60.5209 118.952 61.1976L131.082 69.761C132.047 70.4263 132.708 71.446 132.918 72.5971C133.128 73.7472 132.872 74.9341 132.205 75.8956H132.205L132.204 75.8958ZM109.659 93.4204C107.726 93.4249 105.894 92.5612 104.674 91.0678C103.452 89.5755 102.971 87.612 103.366 85.7263C103.759 83.8396 104.987 82.2314 106.705 81.3487C108.422 80.4661 110.447 80.4026 112.217 81.1772C113.987 81.9516 115.312 83.4807 115.823 85.3385C116.334 87.1974 115.977 89.1854 114.851 90.7515C113.651 92.4221 111.719 93.4138 109.659 93.4206V93.4204ZM109.659 82.3641C107.959 82.3185 106.362 83.1709 105.457 84.6064C104.553 86.0418 104.477 87.8469 105.256 89.3541C106.036 90.8597 107.556 91.8436 109.254 91.9406C110.951 92.0376 112.574 91.233 113.521 89.8255C114.141 88.8738 114.401 87.7348 114.257 86.6102C114.113 85.4857 113.573 84.4482 112.734 83.6824C111.896 82.9168 110.812 82.4721 109.675 82.4275L109.66 82.3641H109.659ZM119.016 69.1663V69.1676C118.744 69.1441 118.471 69.1441 118.199 69.1676C116.585 69.395 115.197 70.4235 114.512 71.8991C113.826 73.3736 113.938 75.0941 114.808 76.4696C115.678 77.8448 117.186 78.6862 118.817 78.7051C120.447 78.724 121.976 77.9183 122.878 76.5643C123.52 75.6103 123.797 74.458 123.659 73.3179C123.52 72.1766 122.974 71.1247 122.123 70.3503C121.271 69.577 120.169 69.1345 119.017 69.1033V69.1665L119.016 69.1663Z" fill="#666666"/>
</svg>
