<?xml version="1.0" encoding="UTF-8"?>
<!DOCTYPE svg PUBLIC "-//W3C//DTD SVG 1.1//EN" "http://www.w3.org/Graphics/SVG/1.1/DTD/svg11.dtd">
<!-- Creator: CorelDRAW -->
<svg xmlns="http://www.w3.org/2000/svg" xml:space="preserve" width="3.67321in" height="3.82698in" version="1.1" style="shape-rendering:geometricPrecision; text-rendering:geometricPrecision; image-rendering:optimizeQuality; fill-rule:evenodd; clip-rule:evenodd"
viewBox="0 0 2846.51 2965.68"
 xmlns:xlink="http://www.w3.org/1999/xlink"
 xmlns:xodm="http://www.corel.com/coreldraw/odm/2003">
 <defs>
  <style type="text/css">
   <![CDATA[
    .fil0 {fill:#666666;fill-rule:nonzero}
   ]]>
  </style>
 </defs>
 <g id="Слой_x0020_1">
  <metadata id="CorelCorpID_0Corel-Layer"/>
  <path class="fil0" d="M1172.62 1585.64c144.87,-154.69 268.92,-274.24 345.86,-202.32 77.12,71.96 -34.14,203.69 -179.01,358.39 -144.72,154.84 -268.77,274.77 -345.86,202.5 -77.11,-72.3 34.12,-203.7 179.01,-358.57zm1516.92 -1452.8c-84.62,-79.29 -176.04,-123.73 -272.54,-132.83l-75.39 0c-8.83,0.81 -17.69,1.9 -26.6,3.28 -134.25,20.81 -266.96,102.74 -399.67,244.63 -104.57,111.6 -98.43,295.77 0,458.46l-5.67 6.19c-130.24,-82.28 -241.12,-100.74 -292.58,-48.3 -124.4,104.92 -415.65,466.14 -671.43,785.02 -154.25,191.83 -287.77,356.4 -351.72,425.5 -176.19,188.01 -440.64,419.79 -584.22,479.61l-9.64 3.8 0 10.53c-1.82,63.95 31.98,150.37 91.27,233.11 81.61,116.42 186.65,214.36 308.4,287.76 86.42,50.48 159.88,76.11 219.99,76.11l28.47 0 3.15 -9.81c49.33,-147.2 262.96,-426.32 439.16,-614.66 63.95,-68.61 220.49,-212.31 401.5,-378.53 301.23,-276.94 642.62,-590.83 739.23,-721.59 48.94,-54.78 23.32,-164.34 -67.09,-287.76l5.5 -5.8c70.77,37.94 149.51,58.62 229.78,60.11 85.27,2.98 167.89,-29.97 227.66,-90.76 132.71,-141.72 205.99,-281.46 217.8,-415.66 11.86,-134.38 -41.27,-261.97 -155.35,-368.39zm-755.57 601.37c53.8,78.57 124.57,144.23 207.19,191.84l-59.47 63.95c-13.81,15.13 -74.61,0 -137.53,-60.29 -26.51,-24.17 -48.3,-52.99 -63.94,-85.09 -10.02,-22.16 -11.86,-40.68 -4.87,-47.96l58.62 -62.45zm-464.26 1202.34c-181.35,166.51 -338.07,310.74 -403.17,380.36 -174.69,186.18 -386.03,462.13 -443.49,615.82 -53.46,1.99 -126.07,-22.99 -208.81,-71.63 -117.92,-71.41 -219.69,-166.69 -298.6,-279.75 -46.63,-58.62 -75.76,-129.09 -84.11,-203.36 149.55,-66.42 410.84,-295.4 585.38,-481.74 63.95,-69.79 198.49,-235.32 351.71,-427.15 216.14,-268.97 479.6,-595.36 620.28,-735.4 -3.49,91.1 74.14,229.15 206.85,353.55 124.73,116.73 258.61,184.51 349.53,184.51 5.67,0.34 11.35,0.34 16.84,0 -130.06,147.37 -438.65,431.29 -692.42,664.79zm735.4 -718.59c-49.97,53.11 -217.17,3.36 -386.72,-155.35 -169.33,-158.55 -230.13,-322.26 -180.49,-375.38 37.64,-40.28 136.37,-20.12 248.28,49.29l-35.97 37.29c-16.63,17.99 -17.3,47.49 0,83.31 17.52,36.28 41.99,68.76 71.96,95.92 43.78,42.47 99.93,76.57 141.87,76.57 14.84,0.86 29.16,-4.82 39.65,-15.3l37.14 -39.31c76.1,105.6 102.58,202.5 64.93,242.96l-0.64 0zm-159.87 -398.66c-179.7,-168.52 -229.67,-409 -114.6,-543.56 -32.32,148.03 35.3,338.2 181.35,473.95 99.93,98.43 232.98,156.03 373.2,161.71 39.65,0.17 79.08,-6.32 116.56,-19.5 -124.23,130.71 -372,98.11 -554.69,-72.94l-1.82 0.34zm612.49 5.85c-132.24,100.57 -357.72,58.74 -525.56,-98.95 -159.87,-149.56 -223.82,-366.68 -146.05,-506.08 6.31,-6.02 12.65,-11.47 19.14,-17.32 -42.97,148.7 22.33,339.06 170.01,477.44 99.12,97.42 231.15,154.37 370.04,159.87 39.65,0 78.96,-6.82 116.27,-20.17l-3.84 5.21zm43.78 -58.62c-132.88,84.07 -344.2,39.26 -502.58,-109.61 -158.2,-149.04 -215.16,-359.34 -139.36,-498.58l12.5 -9.51c-36.83,146.05 28.43,328.74 170.65,461.62 97.29,95.45 226.5,151.05 362.72,156.38 36.79,0.17 73.28,-5.63 108.24,-16.97l-12.16 16.67zm108.41 -271.14c-7.96,74.1 -31.79,145.55 -69.62,209.84 -135.52,67.11 -330.87,19.48 -477.76,-117.75 -146.7,-137.19 -205.49,-329.2 -147.38,-469.28 61.64,-42.12 131.23,-70.6 204.68,-83.57 19.65,-3.02 39.31,-4.52 59.13,-4.35 108.75,2.82 211.79,48.13 287.77,125.9 107.38,99.42 155.68,213.67 144.86,338.88l-1.67 0.34z"/>
 </g>
</svg>
