<svg xmlns="http://www.w3.org/2000/svg" xml:space="preserve" style="shape-rendering:geometricPrecision;text-rendering:geometricPrecision;image-rendering:optimizeQuality;fill-rule:evenodd;clip-rule:evenodd" viewBox="0 0 366.86 206.14"><path class="fil0" d="m130.21 17.78-114.41.04A15.53 15.53 0 0 0 5 22.04l-.7.74C1.64 25.6 0 29.39.03 33.55c0 4.1 1.54 7.82 4.06 10.6l1.11 1.08c2.79 2.55 6.47 4.09 10.6 4.09h151.86v.04h31.54l35.16-.04c5.64 10.6 16.81 17.82 29.63 17.82 12.85 0 24.02-7.22 29.66-17.82h57.47c4.33 0 8.29-1.78 11.14-4.6 2.85-2.85 4.6-6.84 4.6-11.14-.04-8.72-7.08-15.76-15.74-15.76l-57.47-.04C288.01 7.21 276.84 0 263.99 0c-12.82 0-23.96 7.18-29.63 17.78H130.21zm106.43 139.01h114.45c4.16 0 7.95 1.61 10.8 4.26l.71.74a15.61 15.61 0 0 1 4.26 10.73c0 4.13-1.55 7.85-4.1 10.64l-1.07 1.07c-2.78 2.55-6.51 4.06-10.6 4.06H199.23v.07h-66.7c-5.64 10.57-16.81 17.78-29.66 17.78-12.85 0-23.99-7.21-29.63-17.81l-57.47-.04c-4.33 0-8.32-1.74-11.14-4.56A15.846 15.846 0 0 1 0 172.56c.07-8.69 7.11-15.74 15.77-15.74l57.47-.03c5.64-10.57 16.81-17.78 29.63-17.78 12.85 0 23.99 7.18 29.66 17.78h104.11z"/></svg>