<svg width="6" height="9" viewBox="0 0 6 9" fill="none" xmlns="http://www.w3.org/2000/svg">
<path d="M0.113823 3.00818C0.0487812 3.00818 0 3.05696 0 3.122V4.22771C0 5.60984 1.08945 6.71555 2.43906 6.78059V7.78874H1.43092C1.36587 7.78874 1.31709 7.83752 1.31709 7.90256C1.31709 7.9676 1.36587 8.01638 1.43092 8.01638H3.65859C3.72363 8.01638 3.77242 7.9676 3.77242 7.90256C3.77242 7.83752 3.72363 7.78874 3.65859 7.78874H2.65045V6.78059C4.01632 6.71555 5.08951 5.60984 5.08951 4.22771V3.122C5.08951 3.05696 5.04073 3.00818 4.97569 3.00818C4.91064 3.00818 4.86186 3.05696 4.86186 3.122V4.22771C4.86186 5.52854 3.8212 6.56921 2.52036 6.56921C1.21953 6.56921 0.178865 5.52854 0.178865 4.22771V3.122C0.178865 3.05696 0.130083 3.00818 0.0650416 3.00818H0.113823ZM1.21953 2.56914H3.88624V1.561C3.88624 0.81302 3.30086 0.227646 2.55288 0.227646C1.80491 0.227646 1.21953 0.81302 1.21953 1.561V2.56914ZM3.88624 2.79679H1.21953H0.991885V2.56914V1.561C0.991885 0.699198 1.69108 0 2.55288 0C3.41469 0 4.11388 0.699198 4.11388 1.561V2.56914V2.79679H3.88624ZM1.21953 3.02444H3.88624H4.11388V3.25208V4.26023C4.11388 5.12203 3.41469 5.82123 2.55288 5.82123C1.69108 5.82123 0.991885 5.12203 0.991885 4.26023V3.25208V3.02444H1.21953ZM3.88624 3.25208H1.21953V4.26023C1.21953 5.00821 1.80491 5.59358 2.55288 5.59358C3.30086 5.59358 3.88624 5.00821 3.88624 4.26023V3.25208Z" fill="#4D4D4D"/>
</svg>
