<svg width="7" height="8" viewBox="0 0 7 8" fill="none" xmlns="http://www.w3.org/2000/svg">
<path d="M0.385548 0C0.173497 0 0 0.173497 0 0.385548V7.47963C0 7.75915 0.231329 8.00012 0.52049 8.00012H5.629C5.84105 8.00012 6.01455 7.82662 6.01455 7.61457V1.65786L4.35669 0H0.395187L0.385548 0ZM0.877122 2.52534H3.73982V2.3422H0.877122V2.52534ZM0.877122 5.73503H5.10851V5.55189H0.877122V5.73503ZM0.877122 6.81456H5.10851V6.63143H0.877122V6.81456ZM0.877122 4.66513H5.10851V4.482H0.877122V4.66513ZM0.877122 3.59524H5.10851V3.4121H0.877122V3.59524ZM4.39525 0.308438L5.68683 1.60002H4.72296C4.53983 1.60002 4.37597 1.45544 4.37597 1.25303V0.308438H4.38561H4.39525ZM5.629 7.81699H0.52049C0.337355 7.81699 0.173497 7.67241 0.173497 7.46999V0.385548C0.173497 0.279522 0.260245 0.192774 0.366271 0.192774H4.20247V1.27231C4.20247 1.55183 4.4338 1.7928 4.72296 1.7928H5.82177V7.62421C5.82177 7.73024 5.73503 7.81699 5.629 7.81699Z" fill="#4D4D4D"/>
</svg>
