<?xml version="1.0" encoding="UTF-8"?>
<!DOCTYPE svg PUBLIC "-//W3C//DTD SVG 1.1//EN" "http://www.w3.org/Graphics/SVG/1.1/DTD/svg11.dtd">
<!-- Creator: CorelDRAW -->
<svg xmlns="http://www.w3.org/2000/svg" xml:space="preserve" version="1.1" style="shape-rendering:geometricPrecision; text-rendering:geometricPrecision; image-rendering:optimizeQuality; fill-rule:evenodd; clip-rule:evenodd"
viewBox="0 0 366.86 206.14"
 xmlns:xlink="http://www.w3.org/1999/xlink"
 xmlns:xodm="http://www.corel.com/coreldraw/odm/2003">
 <g id="Слой_x0020_1">
  <metadata id="CorelCorpID_0Corel-Layer"/>
  <g id="_105553212971360">
   <g id="surface1">
    <path class="fil0" d="M130.21 17.78l-114.41 0.04c-4.16,-0.04 -7.98,1.57 -10.8,4.22l-0.7 0.74c-2.66,2.82 -4.3,6.61 -4.27,10.77 0,4.1 1.54,7.82 4.06,10.6l1.11 1.08c2.79,2.55 6.47,4.09 10.6,4.09l151.86 0 0 0.04 31.54 0 35.16 -0.04c5.64,10.6 16.81,17.82 29.63,17.82 12.85,0 24.02,-7.22 29.66,-17.82l57.47 0c4.33,0 8.29,-1.78 11.14,-4.6 2.85,-2.85 4.6,-6.84 4.6,-11.14 -0.04,-8.72 -7.08,-15.76 -15.74,-15.76l-57.47 -0.04c-5.64,-10.57 -16.81,-17.78 -29.66,-17.78 -12.82,0 -23.96,7.18 -29.63,17.78l-104.15 0zm106.43 139.01l114.45 0c4.16,0 7.95,1.61 10.8,4.26l0.71 0.74c2.65,2.81 4.26,6.6 4.26,10.73 0,4.13 -1.55,7.85 -4.1,10.64l-1.07 1.07c-2.78,2.55 -6.51,4.06 -10.6,4.06l-151.86 0 0 0.07 -66.7 0c-5.64,10.57 -16.81,17.78 -29.66,17.78 -12.85,0 -23.99,-7.21 -29.63,-17.81l-57.47 -0.04c-4.33,0 -8.32,-1.74 -11.14,-4.56 -2.85,-2.85 -4.63,-6.85 -4.63,-11.17 0.07,-8.69 7.11,-15.74 15.77,-15.74l57.47 -0.03c5.64,-10.57 16.81,-17.78 29.63,-17.78 12.85,0 23.99,7.18 29.66,17.78l104.11 0z"/>
   </g>
  </g>
 </g>
</svg>
