<?xml version="1.0" encoding="UTF-8"?>
<!DOCTYPE svg PUBLIC "-//W3C//DTD SVG 1.1//EN" "http://www.w3.org/Graphics/SVG/1.1/DTD/svg11.dtd">
<!-- Creator: CorelDRAW -->
<svg xmlns="http://www.w3.org/2000/svg" xml:space="preserve" width="0.0533346in" height="0.0533346in" version="1.1" style="shape-rendering:geometricPrecision; text-rendering:geometricPrecision; image-rendering:optimizeQuality; fill-rule:evenodd; clip-rule:evenodd"
viewBox="0 0 0.61 0.61"
 xmlns:xlink="http://www.w3.org/1999/xlink"
 xmlns:xodm="http://www.corel.com/coreldraw/odm/2003">
 <defs>
  <style type="text/css">
   <![CDATA[
    .str0 {stroke:#4D4D4D;stroke-width:0.02;stroke-miterlimit:2.61313}
    .fil1 {fill:#4D4D4D}
    .fil0 {fill:#4D4D4D;fill-rule:nonzero}
   ]]>
  </style>
 </defs>
 <g id="Слой_x0020_1">
  <metadata id="CorelCorpID_0Corel-Layer"/>
  <g id="_105553324182240">
   <path class="fil0 str0" d="M0.31 0.38l-0.09 -0.09 -0.09 -0.09 -0 0c-0,-0 -0.01,-0 -0.01,-0 -0,0 -0,0.01 -0,0.01 0,0 0,0 0,0l0.18 0.18c0,0 0.01,0 0.01,0l0.18 -0.18 0 0c0,-0 0,-0.01 0,-0.01 -0,-0 -0.01,-0 -0.01,0l-0.17 0.17z"/>
   <path class="fil1" d="M0.61 0.31c0,-0.17 -0.14,-0.31 -0.31,-0.31 -0.17,0 -0.31,0.14 -0.31,0.31 0,0.17 0.14,0.31 0.31,0.31 0.17,0 0.31,-0.14 0.31,-0.31zm-0.02 0c0,-0.16 -0.13,-0.28 -0.28,-0.28 -0.16,0 -0.28,0.13 -0.28,0.28 0,0.16 0.13,0.28 0.28,0.28 0.16,0 0.28,-0.13 0.28,-0.28z"/>
  </g>
 </g>
</svg>
