<svg width="32" height="32" viewBox="0 0 32 32" fill="none" xmlns="http://www.w3.org/2000/svg">
<g clip-path="url(#clip0_121_375)">
<path d="M13.2126 10.7288C14.1365 10.8182 14.9843 10.2036 15.1837 9.29555C15.3758 8.42036 16.6238 8.42036 16.8159 9.29555C17.0153 10.2036 17.8631 10.8182 18.787 10.7288C19.6493 10.6455 20.0856 11.8331 19.2801 12.3155C18.4862 12.7909 18.1653 13.7916 18.528 14.6402C18.7059 15.0562 18.5518 15.4485 18.2483 15.6761C17.948 15.9014 17.552 15.9305 17.2239 15.6365C16.5271 15.0124 15.4724 15.0124 14.7757 15.6365C14.4476 15.9305 14.0515 15.9014 13.7512 15.6761C13.4478 15.4485 13.2937 15.0562 13.4715 14.6402C13.8343 13.7916 13.5133 12.7909 12.7195 12.3155C11.914 11.8331 12.3502 10.6455 13.2126 10.7288Z" stroke="#4D4D4D" stroke-linejoin="round"/>
<path d="M25.1533 7.52735L25.1468 7.57016C24.9884 8.62016 25.3197 9.68843 26.0453 10.4669C26.9405 11.4274 26.9215 12.9382 26.0057 13.8769C25.2671 14.634 24.9102 15.7065 25.0454 16.7628C25.213 18.0725 24.3256 19.286 23.0397 19.4995C21.9975 19.6726 21.0957 20.3185 20.5945 21.2511L20.2572 21.8786C19.819 22.6939 18.813 23.0068 17.9863 22.5849L17.3887 22.2799C16.4444 21.798 15.3338 21.7837 14.384 22.2412C13.2109 22.8062 11.7971 22.322 11.2016 21.1513C10.7194 20.2035 9.82756 19.532 8.78856 19.3347C7.51269 19.0924 6.65252 17.8757 6.84683 16.5881L6.85329 16.5453C7.01174 15.4952 6.6804 14.427 5.95482 13.6485C5.05961 12.688 5.07865 11.1772 5.99439 10.2385C6.73299 9.48142 7.08988 8.40889 6.95469 7.35256C6.78708 6.04289 7.67457 4.82944 8.96043 4.61591C10.0026 4.44285 10.9044 3.79687 11.4057 2.86427L11.4261 2.82624C12.0408 1.68262 13.4518 1.24372 14.6114 1.83549C15.5557 2.31739 16.6663 2.33168 17.6161 1.87421C18.7892 1.30918 20.203 1.79337 20.7985 2.96408C21.2807 3.91195 22.1726 4.58343 23.2116 4.78074C24.4874 5.02304 25.3476 6.23976 25.1533 7.52735Z" stroke="#4D4D4D" stroke-linejoin="round"/>
<path d="M22.357 12.29C22.357 15.9907 19.4017 18.9784 15.7713 18.9784C12.1408 18.9784 9.18555 15.9907 9.18555 12.29C9.18555 8.58926 12.1408 5.60156 15.7713 5.60156C19.4017 5.60156 22.357 8.58926 22.357 12.29Z" stroke="#4D4D4D"/>
<path d="M7.03473 2.12282C7.87169 2.47749 8.54046 3.15914 8.88593 4.01041L8.42263 4.19843C8.56431 4.54755 8.64279 4.93064 8.64279 5.33373C8.64279 5.73681 8.56431 6.11991 8.42263 6.46903L8.88593 6.65705C8.54046 7.50832 7.87169 8.18997 7.03473 8.54464L6.83964 8.08427C6.49369 8.23087 6.11385 8.31199 5.71422 8.31199C5.31458 8.31199 4.93474 8.23087 4.58879 8.08427L4.39371 8.54464C3.55674 8.18997 2.88797 7.50832 2.5425 6.65705L3.0058 6.46903C2.86412 6.11991 2.78564 5.73681 2.78564 5.33373C2.78564 4.93064 2.86412 4.54755 3.0058 4.19843L2.5425 4.01041C2.88797 3.15914 3.55674 2.47749 4.39371 2.12282L4.58879 2.58319C4.93474 2.43659 5.31458 2.35547 5.71422 2.35547C6.11385 2.35547 6.49369 2.43659 6.83964 2.58319L7.03473 2.12282Z" stroke="#4D4D4D" stroke-linejoin="round" stroke-dasharray="2 2"/>
<path d="M30.7812 20.1616C31.1063 20.6577 31.3397 21.2211 31.457 21.8267L30.9661 21.9217C31.0163 22.1813 31.0428 22.4501 31.0428 22.7256C31.0428 23.0011 31.0163 23.2698 30.9661 23.5294L31.457 23.6245C31.3397 24.2301 31.1063 24.7934 30.7812 25.2896L30.3629 25.0156C30.0664 25.4681 29.6847 25.8577 29.2416 26.1608L29.5239 26.5735C29.0321 26.9099 28.4723 27.1519 27.8697 27.2737L27.7706 26.7836C27.5126 26.8358 27.2454 26.8633 26.9713 26.8633C26.6973 26.8633 26.4301 26.8358 26.172 26.7836L26.073 27.2737C25.4704 27.1519 24.9106 26.9099 24.4187 26.5735L24.701 26.1608C24.2579 25.8577 23.8762 25.4681 23.5797 25.0156L23.1615 25.2896C22.8364 24.7934 22.603 24.2301 22.4857 23.6245L22.9766 23.5294C22.9263 23.2698 22.8999 23.0011 22.8999 22.7256C22.8999 22.4501 22.9263 22.1813 22.9766 21.9217L22.4857 21.8267C22.603 21.2211 22.8364 20.6577 23.1615 20.1616L23.5797 20.4356C23.8762 19.9831 24.2579 19.5934 24.701 19.2903L24.4187 18.8777C24.9106 18.5412 25.4704 18.2992 26.073 18.1774L26.172 18.6675C26.4301 18.6153 26.6973 18.5879 26.9713 18.5879C27.2454 18.5879 27.5126 18.6153 27.7706 18.6675L27.8697 18.1774C28.4723 18.2992 29.0321 18.5412 29.5239 18.8777L29.2416 19.2903C29.6847 19.5934 30.0664 19.9831 30.3629 20.4356L30.7812 20.1616Z" stroke="#4D4D4D" stroke-linejoin="round" stroke-dasharray="2 2"/>
<path d="M5.02993 22.0286C5.7553 22.336 6.3349 22.9267 6.63431 23.6645L6.17101 23.8525C6.29062 24.1472 6.35692 24.4708 6.35692 24.8114C6.35692 25.152 6.29062 25.4755 6.17101 25.7702L6.63431 25.9582C6.3349 26.696 5.7553 27.2868 5.02993 27.5942L4.83485 27.1338C4.54309 27.2574 4.22273 27.3259 3.88549 27.3259C3.54826 27.3259 3.2279 27.2574 2.93614 27.1338L2.74105 27.5942C2.01568 27.2868 1.43608 26.696 1.13667 25.9582L1.59997 25.7702C1.48037 25.4755 1.41406 25.152 1.41406 24.8114C1.41406 24.4708 1.48037 24.1472 1.59997 23.8525L1.13667 23.6645C1.43608 22.9267 2.01568 22.336 2.74105 22.0286L2.93614 22.4889C3.2279 22.3653 3.54826 22.2969 3.88549 22.2969C4.22273 22.2969 4.54309 22.3653 4.83485 22.4889L5.02993 22.0286Z" stroke="#4D4D4D" stroke-linejoin="round" stroke-dasharray="2 2"/>
<path d="M11.4287 21.7972V29.9132C11.4287 30.6088 12.1144 30.8407 12.8001 30.3769C13.943 29.2175 14.9335 28.2127 15.3144 27.8262C15.7716 27.3624 16.4573 27.3624 16.9144 27.8262C17.3716 28.29 18.743 29.7586 19.4287 30.3769C19.8859 30.6088 20.5716 30.6088 20.8001 29.9132C20.8001 28.9856 20.8001 23.4204 20.8001 21.1016" stroke="#4D4D4D" stroke-linecap="round" stroke-linejoin="round"/>
</g>
<defs>
<clipPath id="clip0_121_375">
<rect width="32" height="32" fill="white"/>
</clipPath>
</defs>
</svg>
