<svg width="101" height="26" viewBox="0 0 101 26" fill="none" xmlns="http://www.w3.org/2000/svg">
<g clip-path="url(#clip0_65_9)">
<path fill-rule="evenodd" clip-rule="evenodd" d="M12.0748 9.19568C11.2481 9.75961 10.1023 10.0419 8.62148 10.0419H7.95434C7.35874 10.0419 6.99754 9.60493 7.12447 9.07132L7.94782 5.77002C8.06174 5.24248 8.66067 4.79933 9.24651 4.80539L10.1415 4.79947C11.1863 4.79947 11.9804 4.96951 12.5142 5.29392C13.0414 5.6153 13.305 6.13072 13.3018 6.80986C13.3181 7.84373 12.8949 8.63774 12.0748 9.19864V9.19568ZM49.6626 5.72147C49.0149 5.72753 46.3884 5.72147 46.3884 5.72147C45.8026 5.72147 45.0443 6.16388 44.6732 6.69143C44.6732 6.69143 40.7644 12.94 40.3869 13.5676L39.9346 13.5617L38.7173 6.73406C38.5838 6.19742 37.9818 5.73923 37.23 5.73923L34.7856 5.74219C34.1965 5.74219 33.8354 6.17914 33.9688 6.71274C33.9688 6.71274 35.8239 16.5541 36.1949 18.8704C36.3674 20.1468 36.1722 20.3745 36.1722 20.3745L33.7539 24.2976C33.3959 24.8312 33.5879 25.2646 34.177 25.2646L37.0054 25.2616C37.5912 25.2616 38.3658 24.8282 38.7173 24.2946L49.5878 7.16456C49.5878 7.1676 50.6325 5.70327 49.6626 5.72147ZM90.9153 2.71684C91.039 2.18626 90.6809 1.75562 90.0951 1.76168H87.6509C87.1497 1.76168 86.6973 2.10696 86.4792 2.53445L86.3457 2.73164L86.2221 3.23794L82.8047 17.7062L82.6941 18.1486L82.6973 18.161C82.5834 18.637 82.8992 18.9949 83.3841 19.0646L83.4264 19.1162H85.965C86.4629 19.1162 86.9284 18.7645 87.1432 18.331L87.2734 18.1456L90.9251 2.72276L90.9186 2.7198L90.9153 2.71684ZM61.63 9.25963C60.8065 9.81143 59.6577 10.0934 58.1899 10.0934H57.5097C56.9239 10.0995 56.543 9.65638 56.6731 9.1258L57.4998 5.82746C57.6203 5.29992 58.2126 4.85736 58.8017 4.86342L59.687 4.85691C60.735 4.86297 61.5227 5.02392 62.0597 5.35136C62.5967 5.67577 62.8473 6.18816 62.8538 6.8673C62.8603 7.90117 62.4501 8.69866 61.63 9.26259V9.25963ZM67.5144 4.16882C67.1727 3.55335 66.6585 3.0534 66.014 2.66532C65.3501 2.28027 64.5625 2.01046 63.6414 1.85583C62.7366 1.70424 61.6594 1.62496 60.4324 1.62193L54.7269 1.62844C54.1313 1.63754 53.5617 2.06487 53.425 2.59544L49.5846 18.158C49.4446 18.6856 49.8286 19.1221 50.4079 19.1221L53.1418 19.1191C53.7211 19.1222 54.3168 18.6886 54.4535 18.158L55.3778 14.3801C55.5145 13.8555 56.1004 13.413 56.6895 13.416H57.4706C60.8131 13.416 63.4005 12.7766 65.2654 11.5063C67.1075 10.2238 68.0384 8.54404 68.0384 6.45811C68.0286 5.54855 67.8594 4.77808 67.5144 4.17474V4.16882ZM76.2923 15.3654L75.8495 15.893L74.7852 16.4052C74.2808 16.5932 73.7992 16.6907 73.3631 16.6907C72.6698 16.6907 72.1588 16.5997 71.8106 16.4147L71.2768 15.4655C71.2768 14.947 71.407 14.5409 71.6674 14.2225C71.931 13.9194 72.3346 13.6737 72.8358 13.4918C73.324 13.3372 73.9293 13.2098 74.6323 13.1158C75.254 13.043 76.481 12.9068 76.6404 12.9068L76.8324 13.2159C76.8031 13.3917 76.4516 14.7499 76.2889 15.3654H76.2923ZM80.6827 6.3456C79.6477 5.80593 78.0237 5.53316 75.8072 5.53316C74.7072 5.53316 73.6103 5.61222 72.507 5.77594C71.6901 5.88812 71.6087 5.91217 71.1042 6.01222C70.0692 6.22142 69.9066 7.1918 69.9066 7.1918L69.5713 8.46791C69.3858 9.28348 69.8773 9.2475 70.1084 9.18383C70.5608 9.05953 70.8081 8.93508 71.7259 8.73498C72.6046 8.55003 73.5453 8.41336 74.2873 8.41639C75.3744 8.41639 76.2108 8.52556 76.7641 8.74386C77.3174 8.96518 77.5876 9.35047 77.5876 9.8962L77.5452 10.2568L77.1547 10.4872C75.5925 10.5751 74.4697 10.7055 73.1255 10.8904C71.8041 11.0633 70.6356 11.3633 69.6625 11.7787C68.6275 12.2062 67.8463 12.7796 67.3126 13.5072C66.7853 14.2379 66.5283 15.1233 66.5283 16.1542C66.5283 17.1426 66.9026 17.9516 67.6479 18.5731C68.3899 19.1856 69.3533 19.4951 70.5153 19.4951C71.2508 19.4891 71.8203 19.4435 72.2271 19.3465L73.5452 18.9279L74.6746 18.3487L75.6966 17.7092L75.7128 17.7305L75.6218 18.1426L75.6119 18.1486L75.6153 18.1551C75.4916 18.6523 75.8137 19.0642 76.3377 19.1067L76.3442 19.1162H76.393C76.738 19.1162 77.926 19.1162 78.4923 19.1162H78.8796L78.9219 19.1037C79.4589 19.0431 79.97 18.6368 80.0839 18.1456L82.0789 10.1325L82.1864 9.47459L82.2417 8.85933C82.2417 7.72541 81.7242 6.88824 80.6827 6.34856V6.3456ZM26.7174 15.3565L26.291 15.8782L25.217 16.3934C24.7093 16.5844 24.2308 16.6782 23.7882 16.6782C23.1177 16.6782 22.5905 16.5872 22.2325 16.4023L21.7052 15.4477C21.7052 14.9323 21.8322 14.5194 22.1024 14.2071L23.2609 13.4735C23.7556 13.3188 24.361 13.1859 25.0608 13.098C25.6824 13.0253 26.916 12.8914 27.0787 12.8884L27.2674 13.1981C27.2283 13.3739 26.8802 14.7351 26.7142 15.3506L26.7174 15.3565ZM31.1176 6.33672C30.0859 5.79705 28.4619 5.52724 26.2422 5.52724C25.1421 5.52724 24.0485 5.60585 22.9419 5.76351C22.125 5.88175 22.0437 5.90321 21.5425 6.0063C20.5043 6.21853 20.3415 7.18233 20.3415 7.18233L20.0096 8.46199C19.8208 9.27756 20.3253 9.24705 20.5369 9.17732C20.9893 9.05301 21.2431 8.92309 22.1707 8.72905C23.0527 8.54411 23.9867 8.40138 24.7255 8.41047C25.8158 8.41047 26.649 8.51668 27.2056 8.73498C27.7556 8.9563 28.0291 9.33848 28.0291 9.89028L27.9801 10.2509L27.5863 10.4753C26.0371 10.5663 24.9176 10.6996 23.5636 10.8816C22.2357 11.0544 21.0706 11.3544 20.104 11.7698C19.0657 12.1943 18.2943 12.7671 17.754 13.4948C17.2333 14.2255 16.973 15.1142 16.973 16.1542C16.973 17.1335 17.3505 17.9427 18.0828 18.5672C18.8184 19.1827 19.7948 19.4827 20.9567 19.4827C21.6955 19.4797 22.265 19.4256 22.6686 19.3376L23.99 18.913L25.1096 18.3339L26.1381 17.7003L26.1511 17.7181L26.0502 18.1249L26.0437 18.1426V18.1486C25.933 18.6428 26.2552 19.0523 26.7727 19.0978L26.7825 19.1102H29.3179L29.3536 19.0948C29.8972 19.0342 30.4081 18.6277 30.5285 18.1426L32.5172 10.1206L32.618 9.4657L32.6669 8.85341C32.6767 7.71646 32.1494 6.87336 31.1176 6.33672ZM99.9795 0.882321L99.3286 0.630652L98.8469 0.721845L98.3587 1.02799L98.0755 0.733688L97.6134 0.630652L97.1708 0.721845L96.7509 0.973514V0.697566H96.305V3.16866H96.7476V1.3217L97.1187 1.10971L97.4897 1.02503L97.7923 1.07359L97.9422 1.21571L98.0072 1.45257L98.0267 1.75576V3.16866H98.4726V1.58581L98.4661 1.45553L98.4563 1.3371L98.8339 1.11267L99.2081 1.02503L99.501 1.07655L99.6606 1.21867L99.7159 1.45849L99.7451 1.76168V3.17458H100.191V1.56745L99.9795 0.876399V0.882321ZM95.7485 2.78612L95.576 2.83468L95.3482 2.86547L95.0683 2.8258L94.9251 2.69552L94.86 2.49241L94.8568 2.18626V1.05523H95.768V0.703488H94.8568V0H94.4043V0.703488H94.0984V1.05523H94.4043V2.37102L94.6159 3.02298L95.2342 3.23202L95.4947 3.2107L95.7712 3.15918V2.78967H95.7485V2.78612ZM17.9559 4.11434C17.6271 3.5019 17.1097 2.99575 16.4685 2.61676C15.7948 2.23475 15.0039 1.96493 14.0959 1.80728C13.1748 1.64962 12.1073 1.57951 10.8738 1.57041L5.17486 1.57337C4.58251 1.57944 4.00325 2.01032 3.86331 2.54393L0.029241 18.1006C0.00971309 18.1734 0 18.2458 0 18.3156C0 18.7431 0.345031 19.0676 0.852756 19.0676H3.58011C4.17246 19.0676 4.75823 18.6403 4.89167 18.1006L5.82912 14.3226C5.95606 13.7981 6.53864 13.3586 7.1375 13.3586H7.91858C11.2546 13.3555 13.8387 12.7186 15.6938 11.4483C17.5587 10.1749 18.4798 8.49252 18.4798 6.4066C18.4766 5.494 18.3171 4.72671 17.9559 4.1173V4.11434Z" fill="#A0FFF4"/>
</g>
<defs>
<clipPath id="clip0_65_9">
<rect width="101" height="26" fill="white"/>
</clipPath>
</defs>
</svg>
