<svg width="68" height="26" viewBox="0 0 68 26" fill="none" xmlns="http://www.w3.org/2000/svg">
<g clip-path="url(#clip0_65_19)">
<path d="M31.9134 12.3465V19.7622H29.4269V1.45905H36.0208C37.6123 1.42873 39.155 1.99879 40.2844 3.04782C42.5399 5.03369 42.6766 8.37493 40.5611 10.5215C40.4699 10.6094 40.3755 10.6971 40.2844 10.785C39.1257 11.8219 37.7034 12.3465 36.0208 12.3465H31.9102H31.9134ZM11.1879 4.16049C12.7794 4.13321 14.3058 4.69993 15.4482 5.73683L18.6311 2.72924C16.6067 0.949531 13.9511 -0.0267299 11.1879 0.000556959C6.98612 0.000556959 3.13912 2.24698 1.25468 5.79427C-0.336846 8.7564 -0.336846 12.2588 1.25468 15.2209V15.2357C3.13912 18.783 6.98286 21.0146 11.1879 21.0146C14.1821 21.0146 16.7175 20.0805 18.5531 18.4766C20.6556 16.6514 21.8599 13.9502 21.8599 10.7394C21.8599 10.0239 21.7979 9.30858 21.6743 8.60822H11.1879V12.6497H17.1959C16.9486 13.9474 16.1479 15.1143 14.973 15.845C13.9706 16.4878 12.6882 16.8517 11.191 16.8517C8.28465 16.8517 5.83059 14.9996 4.94858 12.5165C4.48642 11.2188 4.48649 9.80903 4.9454 8.49926L4.94858 8.50222C5.82733 6.00396 8.28465 4.15102 11.191 4.15102L11.1879 4.16049ZM67.4086 7.24092L59.0995 25.2651H56.5347L59.6235 18.9592L54.1719 7.23796H56.8732L60.8114 16.227H60.857L64.7039 7.23796H67.4054L67.4086 7.24092ZM47.8092 6.83173C49.648 6.83173 51.0996 7.29814 52.1639 8.2168C53.2314 9.13546 53.7554 10.4214 53.7554 12.0404V19.7592H51.3763V18.0218H51.2688C50.2338 19.4529 48.8766 20.1654 47.1614 20.1654C45.7098 20.1654 44.4731 19.7564 43.4999 18.9408C42.5431 18.1829 42.0029 17.0577 42.0322 15.8752C42.0322 14.5776 42.5561 13.5561 43.5943 12.783C44.6293 12.0098 46.019 11.6306 47.7472 11.6306C49.2313 11.6306 50.4356 11.8914 51.3925 12.3886V11.8491C51.3925 11.0457 51.0215 10.2875 50.3738 9.75997C49.7098 9.20514 48.8604 8.89897 47.9816 8.89897C46.5919 8.89897 45.4951 9.45387 44.6912 10.5635L42.4975 9.26315C43.6724 7.64413 45.4495 6.82522 47.8124 6.82522L47.8092 6.83173ZM44.5968 15.9238C44.5968 16.5362 44.906 17.1064 45.417 17.4581C45.9703 17.8674 46.6536 18.0855 47.3469 18.0704C48.3949 18.0704 49.4007 17.6764 50.1427 16.9761C50.9629 16.2454 51.3794 15.3845 51.3794 14.393C50.6048 13.8109 49.5243 13.5169 48.1378 13.532C47.1321 13.532 46.2827 13.7654 45.6024 14.2172C44.9385 14.6689 44.6 15.2386 44.6 15.9238H44.5968ZM31.9167 3.70867V10.0999H36.0859C37.0135 10.1302 37.9085 9.77824 38.5431 9.15064C39.8385 7.88029 39.8091 5.83719 38.4649 4.61231C37.8335 4.02716 36.981 3.70867 36.0859 3.70867H31.9167Z" fill="#A0FFF4"/>
</g>
<defs>
<clipPath id="clip0_65_19">
<rect width="68" height="26" fill="white"/>
</clipPath>
</defs>
</svg>
