<svg width="36" height="30" viewBox="0 0 36 30" fill="none" xmlns="http://www.w3.org/2000/svg">
<path d="M16.361 18.0875C16.361 20.2328 14.56 21.9993 12.304 21.9993C10.048 21.9993 8.24707 20.2328 8.24707 18.0875C8.24707 15.9423 10.048 14.1758 12.304 14.1758C14.56 14.1758 16.361 15.9423 16.361 18.0875Z" stroke="#4D4D4D"/>
<path d="M18.1833 18.0886C18.1833 21.2085 15.5663 23.7651 12.3036 23.7651C9.0409 23.7651 6.42383 21.2085 6.42383 18.0886C6.42383 14.9687 9.0409 12.4121 12.3036 12.4121C15.5663 12.4121 18.1833 14.9687 18.1833 18.0886Z" stroke="#4D4D4D"/>
<path d="M3.18992 11.0291L4.78486 12.5732C3.64562 13.6761 3.18992 14.9997 2.96207 16.3232H0.683594V19.4114H2.73423C3.18992 21.1761 3.64562 22.2791 4.55701 23.382L3.18992 24.9261L5.24056 27.132L6.83549 25.5879C8.26552 26.7207 9.33037 26.944 10.9368 27.132V29.1173H13.8988V27.132C15.5849 26.7511 16.5044 26.5049 18 25.5879L19.595 27.132L21.6456 24.9261L20.0507 23.382C21.1609 21.8489 21.4772 21.0019 21.6456 19.4114H23.9241V16.3232H21.6456C21.3412 14.5196 20.9621 13.8967 20.0507 12.5732L21.6456 11.0291L19.595 9.04377L18 10.5879C16.6446 9.61858 15.7754 9.10668 13.8988 8.82318V6.83789H10.9368V8.82318C8.88613 9.26436 8.20258 9.48495 6.83549 10.5879L5.24056 9.04377L3.18992 11.0291Z" stroke="#4D4D4D" stroke-linecap="round" stroke-linejoin="round"/>
<path d="M31.5486 7.50011C31.5486 9.24546 30.0839 10.6795 28.253 10.6795C26.4221 10.6795 24.9574 9.24546 24.9574 7.50011C24.9574 5.75477 26.4221 4.3207 28.253 4.3207C30.0839 4.3207 31.5486 5.75477 31.5486 7.50011Z" stroke="#4D4D4D" stroke-width="0.7"/>
<path d="M30.1816 7.5008C30.1816 8.51518 29.3289 9.35669 28.2531 9.35669C27.1773 9.35669 26.3246 8.51518 26.3246 7.5008C26.3246 6.48643 27.1773 5.64492 28.2531 5.64492C29.3289 5.64492 30.1816 6.48643 30.1816 7.5008Z" stroke="#4D4D4D" stroke-width="0.7"/>
<path d="M23.2496 3.64804L24.1252 4.50418C23.4685 5.29481 23.2496 5.73598 22.9994 6.58339H21.8735V8.29568H22.9994C23.2259 9.16702 23.5275 9.73274 24.1252 10.4972L23.2496 11.3533L24.3754 12.5764L25.251 11.7203C26.0362 12.3483 26.6208 12.4721 27.5027 12.5764V13.6772H29.1289V12.5764C30.0547 12.3652 30.5594 12.2287 31.3806 11.7203L32.2563 12.5764L33.3821 11.3533L32.5064 10.4972C33.116 9.64715 33.2896 9.17753 33.3821 8.29568H34.633V6.58339H33.3821C33.215 5.58337 33.1019 5.05483 32.5064 4.50418L33.3821 3.64804L32.2563 2.54728L31.3806 3.40343C30.6364 2.86599 30.1593 2.58216 29.1289 2.42498V1.32422H27.5027V2.42498C26.2026 2.64775 25.9748 2.86834 25.251 3.40343L24.3754 2.54728L23.2496 3.64804Z" stroke="#4D4D4D" stroke-width="0.7" stroke-linecap="round" stroke-linejoin="round"/>
</svg>
