<svg width="45" height="45" viewBox="0 0 45 45" fill="none" xmlns="http://www.w3.org/2000/svg">
<g clip-path="url(#clip0_132_5)">
<path d="M44.4492 41.7931L31.6521 28.9977C34.1305 25.9365 35.6209 22.0438 35.6209 17.811C35.6209 7.9903 27.6295 0 17.8131 0C7.99124 0 0 7.9903 0 17.811C0 27.6317 7.99124 35.6222 17.8131 35.6222C22.0517 35.6222 25.9396 34.1321 29.0011 31.654L41.798 44.4496C42.1651 44.8167 42.6457 45 43.1262 45C43.6068 45 44.0875 44.8167 44.4492 44.4496C45.1836 43.7207 45.1836 42.5329 44.4492 41.7986V41.7931ZM17.8131 31.8699C10.0593 31.8699 3.75255 25.5639 3.75255 17.811C3.75255 10.0581 10.0593 3.75211 17.8131 3.75211C25.5669 3.75211 31.8736 10.0581 31.8736 17.811C31.8736 25.5639 25.5669 31.8699 17.8131 31.8699Z" fill="#A0FFF4"/>
</g>
<defs>
<clipPath id="clip0_132_5">
<rect width="45" height="45" fill="white"/>
</clipPath>
</defs>
</svg>
