<svg width="47" height="26" viewBox="0 0 47 26" fill="none" xmlns="http://www.w3.org/2000/svg">
<g clip-path="url(#clip0_65_13)">
<path fill-rule="evenodd" clip-rule="evenodd" d="M46.8018 12.6338C46.8018 5.65744 40.7286 0 33.2397 0C29.9883 0 27.0331 1.06104 24.6962 2.83468C26.4798 4.4355 27.8369 6.44286 28.5692 8.7107H27.44C26.7337 6.69451 25.4969 4.91459 23.8826 3.48961C22.278 4.91459 21.051 6.70071 20.3447 8.70478H19.2186C19.9444 6.44907 21.2821 4.44195 23.0494 2.84415C20.719 1.08567 17.7769 0 14.545 0C7.05606 0 0.98291 5.65441 0.98291 12.6338C0.98291 19.6101 7.0528 25.2675 14.545 25.2675C17.7769 25.2675 20.719 24.1825 23.0494 22.424C21.2821 20.8262 19.9444 18.8191 19.2186 16.5634H20.3447C21.051 18.5704 22.278 20.356 23.8826 21.7779C25.4969 20.3499 26.7337 18.573 27.44 16.5568H28.5692C27.8402 18.8247 26.4798 20.832 24.6962 22.4329C27.0331 24.2095 29.9883 25.2675 33.2397 25.2675C40.7286 25.2675 46.8018 19.6131 46.8018 12.6338ZM36.836 15.5928L37.7735 10.9177H38.958L39.0818 11.3784C39.2934 11.148 39.7001 10.9177 40.39 10.9177L40.0191 12.1334C39.6839 12.1334 39.0459 12.0514 38.6391 13.4521L38.216 15.5928H36.8393H36.836ZM24.6441 15.5958L25.5717 10.9692H26.7434L26.8671 11.424C27.0753 11.1966 27.4789 10.9692 28.1624 10.9692L27.8109 12.1914C27.4789 12.1914 26.8312 12.0944 26.4276 13.48L26.0078 15.5958H24.6441ZM33.1388 11.0509L32.9272 12.0606C33.2592 12.0272 34.1509 11.8974 34.6261 11.9125C35.098 11.9307 35.622 11.8635 35.4658 12.5639C35.1176 12.5972 32.6669 12.2398 32.2828 14.1923C32.1234 15.1534 33.0183 15.6445 33.718 15.6112C34.4178 15.5778 34.6099 15.4959 34.854 15.3352L35.0297 15.5958H36.3055L36.849 13.0554C36.989 12.4187 37.2169 10.8875 34.9256 10.8875C34.5058 10.9057 34.0339 10.8872 33.1421 11.0509H33.1388ZM35.2381 13.5102C35.0102 13.4768 34.5025 13.3462 34.0664 13.6221C33.627 13.901 33.5065 14.3892 33.9621 14.553C34.4015 14.7106 35.0459 14.441 35.1338 14.0135L35.2381 13.5072V13.5102ZM43.7912 11.4577C43.5276 11.2789 43.3714 10.9029 42.7238 10.9029C41.9719 10.9029 40.8002 10.7721 40.1363 12.8914C39.6936 14.3072 40.592 15.5958 41.5716 15.5958C42.0273 15.5776 42.4829 15.4016 42.7595 15.2197L42.9353 15.5958H44.403L45.5943 9.66585H44.159L43.7912 11.4577ZM43.303 13.3645C43.443 12.94 43.3648 12.4126 43.2151 12.2246C42.7953 11.7031 41.8286 12.1154 41.5357 13.1371C41.3437 13.8041 41.7636 14.3102 42.2356 14.3102C42.7433 14.3102 43.0557 13.9345 43.303 13.3645ZM32.1592 11.2635C31.8109 11.0664 31.5635 11.0361 31.1111 11.0361C30.6587 11.0361 29.6433 11.4392 29.448 12.5852C29.2202 13.9374 30.2161 14.6078 31.6189 14.1651L32.0224 15.305C31.5667 15.5021 31.1111 15.5987 30.3593 15.5987C28.9435 15.5987 27.404 14.4258 28.1038 12.0458C28.6212 10.2933 30.2389 9.65027 31.1828 9.68362C32.3024 9.72303 32.706 10.0749 33.0542 10.4327L32.1624 11.2635H32.1592ZM10.0503 11.0509L9.83879 12.0606C10.1708 12.0272 11.0625 11.8974 11.5376 11.9125C12.0096 11.9307 12.5336 11.8635 12.3774 12.5639C12.0291 12.5972 9.57843 12.2398 9.19438 14.1923C9.03816 15.1534 9.92982 15.6445 10.6296 15.6112C11.3293 15.5778 11.5214 15.4959 11.7655 15.3352L11.9413 15.5958H13.2171L13.7606 13.0554C13.9005 12.4187 14.1283 10.8875 11.837 10.8875C11.4139 10.9057 10.9453 10.8872 10.0535 11.0509H10.0503ZM12.1496 13.5102C11.9218 13.4768 11.414 13.3462 10.9746 13.6221C10.5385 13.901 10.4148 14.3892 10.8705 14.553C11.3066 14.7106 11.9543 14.441 12.0422 14.0135L12.1463 13.5072L12.1496 13.5102ZM8.54663 15.5958L9.68258 9.95957H7.44326L5.78018 13.3829L5.51653 9.95957H3.3295L2.15779 15.5958H3.52481L4.3612 11.5211L4.72893 15.5958H6.02428L7.93146 11.6212L7.12765 15.5958H8.54345H8.54663ZM17.3993 12.012L17.7118 11.0663C17.0641 10.8389 16.5563 10.8875 16.3643 10.8875C16.1723 10.8875 14.5351 10.8693 14.2845 11.9972C14.0925 12.8613 14.4311 13.2157 14.7565 13.3491C15.2805 13.5613 15.58 13.7588 15.8599 13.8892C16.2049 14.0498 16.143 14.5891 15.6841 14.5891C15.4726 14.5891 14.5645 14.6864 13.881 14.4742L13.6891 15.4353C14.3172 15.599 14.8249 15.5987 15.2968 15.5987C15.6288 15.5987 17.2561 15.6807 17.4807 14.28C17.5914 13.5948 17.2691 13.2856 17.0087 13.1401C16.7451 12.9763 16.309 12.749 16.0291 12.6338C15.7492 12.5186 15.5376 12.079 16.0453 11.9486C16.3578 11.9153 17.0088 11.9155 17.3928 12.0156L17.3993 12.012ZM24.605 13.5102C24.7612 12.7613 25.129 10.9029 22.7336 10.9029C20.5302 10.9029 20.2504 12.9401 20.1984 13.2342C20.1463 13.5283 20.1105 15.5958 22.4701 15.5958C23.0494 15.614 23.8857 15.5475 24.2177 15.3838L24.4294 14.4227C24.2178 14.4712 23.4335 14.5376 22.89 14.5376C22.3464 14.5376 21.4741 14.5713 21.6304 13.5102H24.605ZM21.7183 12.661H23.4139C23.5018 12.2062 23.3456 11.8124 22.8021 11.8124C22.2586 11.8124 21.8745 12.0728 21.7183 12.661ZM18.6913 9.72922H20.0584L19.7785 10.9692H20.514L20.2699 11.9788H19.5702L19.1861 13.8678C19.1144 14.2286 19.1503 14.5527 19.9379 14.4375L19.85 15.3838C19.5538 15.5626 19.1502 15.6112 18.8345 15.6112C18.5221 15.6112 17.4872 15.4325 17.7509 14.1621L18.6947 9.72922H18.6913Z" fill="#A0FFF4"/>
</g>
<defs>
<clipPath id="clip0_65_13">
<rect width="47" height="26" fill="white"/>
</clipPath>
</defs>
</svg>
