<svg width="150" height="150" viewBox="0 0 150 150" fill="none" xmlns="http://www.w3.org/2000/svg">
<path fill-rule="evenodd" clip-rule="evenodd" d="M60.2441 72.7368H95.2528C97.8124 72.7368 99.9069 74.8525 99.9069 77.4379V98.5556C99.9069 101.141 97.8124 103.257 95.2528 103.257H60.2441C57.6844 103.257 55.5899 101.141 55.5899 98.5556V77.4379C55.5899 74.8525 57.6844 72.7368 60.2441 72.7368ZM62.9638 56.419C62.7001 56.1526 62.3446 56.0031 61.9713 56.0031C61.598 56.0031 61.2424 56.1526 60.9788 56.419L52.2126 65.2768C52.1533 65.3366 52.0733 65.3723 51.9873 65.3723C51.9044 65.3723 51.8214 65.3366 51.7652 65.2768L48.4145 61.8921C48.1508 61.6258 47.7954 61.4763 47.4221 61.4763C46.6518 61.4763 46.0237 62.1076 46.0237 62.8887C46.0237 63.2597 46.1689 63.6189 46.4296 63.8822L49.7951 67.2666C50.3757 67.8531 51.1667 68.1824 51.9873 68.1824C52.8109 68.1824 53.5991 67.8531 54.1798 67.2666L62.9607 58.4091C63.2214 58.1457 63.3666 57.7865 63.3666 57.4155C63.3666 57.0444 63.2214 56.6855 62.9607 56.4222L62.9638 56.419ZM44.9512 113H64.4983C67.3186 112.994 70.0057 111.764 71.8722 109.631C72.0766 109.379 72.1891 109.062 72.1891 108.736C72.1891 108.251 71.9433 107.799 71.5374 107.542C71.3152 107.404 71.0604 107.329 70.7997 107.329C70.3908 107.329 70.0028 107.512 69.7362 107.826C68.3912 109.325 66.4833 110.181 64.4806 110.181C64.4688 110.181 64.4569 110.181 64.445 110.181H44.898C40.9667 110.181 37.7789 106.961 37.7789 102.987C37.7789 102.981 37.7789 102.975 37.7789 102.972V48.9589C37.7789 48.9529 37.7789 48.95 37.7789 48.944C37.7789 44.973 40.9667 41.7502 44.898 41.7502H45.3453L46.7406 44.3446C47.3598 45.4817 48.5419 46.1909 49.8276 46.1909C49.8335 46.1909 49.8366 46.1909 49.8425 46.1909H59.616C59.6189 46.1909 59.6249 46.1909 59.6309 46.1909C60.9196 46.1909 62.1045 45.4758 62.7148 44.3297L64.1103 41.7473H64.4598C68.3911 41.7473 71.5789 44.9671 71.5789 48.9411C71.5789 48.9471 71.5789 48.95 71.5789 48.956V68.0927C71.5789 68.8707 72.204 69.5021 72.9743 69.5021C73.7446 69.5021 74.3697 68.8707 74.3697 68.0927V48.956C74.3697 48.953 74.3697 48.9499 74.3697 48.9469C74.3697 43.8598 70.5923 39.5775 65.5886 39H43.7662C38.7683 39.5865 35 43.8658 35 48.9469C35 48.9499 35 48.9559 35 48.9589V103.014C35.0148 108.532 39.4498 113 44.9128 113C44.9276 113 44.9424 113 44.9572 113H44.9512ZM111.772 74.302C111.935 74.3678 112.11 74.4005 112.285 74.4005C112.933 74.4005 113.496 73.9516 113.644 73.3143C113.881 72.3387 114 71.3363 114 70.3338C114 63.4123 108.442 57.7957 101.587 57.7957C100.84 57.7957 100.094 57.8644 99.359 57.9991C98.6983 58.1217 98.2184 58.7052 98.2184 59.3845C98.2184 59.5311 98.2421 59.6779 98.2865 59.8156C98.4731 60.3961 99.0094 60.791 99.6137 60.791C99.6878 60.791 99.7619 60.7849 99.8359 60.7729C100.42 60.6652 101.015 60.6055 101.608 60.6055C106.928 60.6055 111.242 64.9626 111.242 70.337C111.242 71.118 111.147 71.902 110.963 72.6591C110.937 72.7698 110.922 72.8835 110.922 72.9972C110.922 73.5628 111.257 74.0744 111.772 74.2959V74.302ZM104.777 74.2868C104.94 74.3496 105.112 74.3827 105.287 74.3827C106.01 74.3827 106.611 73.826 106.676 73.1018C106.709 72.8235 106.727 72.5423 106.727 72.2611C106.727 68.3679 103.601 65.2107 99.747 65.2107C99.6285 65.2107 99.5071 65.2138 99.3915 65.2198C98.6272 65.2287 98.008 65.8571 98.008 66.6292C98.008 66.7788 98.0317 66.9254 98.0791 67.0661C98.2657 67.6466 98.8019 68.0415 99.4063 68.0415C99.427 68.0415 99.4507 68.0415 99.4744 68.0415C99.5544 68.0356 99.6345 68.0357 99.7115 68.0357C100.905 68.0357 102.043 68.5505 102.84 69.4542C103.513 70.2262 103.883 71.2197 103.883 72.2462C103.883 72.3958 103.874 72.5454 103.859 72.695C103.844 72.7788 103.835 72.8656 103.835 72.9554C103.835 73.5599 104.215 74.0955 104.78 74.29L104.777 74.2868ZM95.9431 94.863H59.8322H58.6621V96.039V97.6489V99.2587C58.6621 99.9051 59.1894 100.435 59.8322 100.435H95.9431C96.5859 100.435 97.1133 99.9051 97.1133 99.2587V97.6489V96.039V94.863H95.9431ZM84.4365 84.2846C84.4365 83.5065 85.0616 82.8752 85.8318 82.8752H89.4047C90.175 82.8752 90.8001 83.5065 90.8001 84.2846C90.8001 85.0626 90.175 85.694 89.4047 85.694H85.8318C85.0616 85.694 84.4365 85.0626 84.4365 84.2846Z" fill="#4D4D4D"/>
</svg>
