<svg width="150" height="150" viewBox="0 0 150 150" fill="none" xmlns="http://www.w3.org/2000/svg">
<path d="M83.6716 70.0355L75.6605 77.4836L72.5734 74.6124C72.2919 74.3506 71.8349 74.3506 71.5473 74.6124C71.2659 74.8742 71.2659 75.2991 71.5473 75.5665L75.1459 78.9136C75.2821 79.0402 75.4667 79.1107 75.6574 79.1107C75.845 79.1107 76.0357 79.0402 76.1688 78.9136L84.6884 70.9869C84.9699 70.7251 84.9699 70.3001 84.6884 70.0355C84.413 69.7765 83.9531 69.7765 83.6747 70.0382L83.6716 70.0355ZM45.934 106.868V106.84H45.9158V106.868H45.8976V106.882H45.9158V106.944C45.9158 106.95 45.9158 106.952 45.9158 106.955C45.9158 106.958 45.9188 106.961 45.9219 106.961L45.9279 106.963C45.931 106.963 45.934 106.963 45.94 106.963H45.9522V106.949H45.9431C45.9401 106.949 45.9371 106.949 45.9371 106.949C45.9341 106.949 45.9341 106.949 45.931 106.949V106.947C45.931 106.947 45.931 106.944 45.931 106.941V106.882H45.9522V106.868H45.931H45.934ZM45.8734 106.899H45.8916C45.8916 106.893 45.8885 106.888 45.8855 106.885C45.8825 106.879 45.8795 106.876 45.8765 106.874C45.8704 106.871 45.8675 106.868 45.8614 106.868C45.8554 106.868 45.8493 106.865 45.8432 106.865C45.8372 106.865 45.828 106.868 45.822 106.871C45.8159 106.873 45.8099 106.876 45.8069 106.882C45.8039 106.887 45.8008 106.893 45.7977 106.899C45.7947 106.904 45.7948 106.913 45.7948 106.919C45.7948 106.927 45.7947 106.933 45.7977 106.938C45.8008 106.944 45.8039 106.95 45.8069 106.955C45.8099 106.961 45.8159 106.964 45.822 106.966C45.828 106.969 45.8342 106.969 45.8432 106.969C45.8554 106.969 45.8673 106.966 45.8734 106.961C45.8825 106.955 45.8856 106.944 45.8886 106.933H45.8704C45.8704 106.941 45.8645 106.947 45.8614 106.949C45.8554 106.955 45.8493 106.955 45.8432 106.955C45.8372 106.955 45.8341 106.955 45.828 106.952C45.825 106.949 45.822 106.947 45.819 106.944C45.816 106.941 45.816 106.938 45.813 106.933C45.813 106.927 45.8098 106.924 45.8098 106.919C45.8098 106.913 45.8099 106.91 45.813 106.904C45.813 106.899 45.816 106.896 45.819 106.893C45.822 106.887 45.8251 106.888 45.8311 106.885C45.8342 106.882 45.8401 106.882 45.8462 106.882C45.8523 106.882 45.8583 106.885 45.8644 106.888C45.8704 106.89 45.8704 106.896 45.8734 106.902V106.899ZM45.7676 106.907H45.707C45.707 106.902 45.7071 106.899 45.7101 106.896C45.7101 106.893 45.7131 106.89 45.7162 106.888C45.7192 106.885 45.7221 106.882 45.7252 106.882C45.7282 106.882 45.7312 106.879 45.7373 106.879C45.7403 106.879 45.7464 106.879 45.7494 106.882C45.7524 106.882 45.7554 106.885 45.7584 106.888C45.7614 106.89 45.7615 106.893 45.7645 106.896C45.7645 106.899 45.7676 106.902 45.7676 106.907ZM45.7858 106.933H45.7676C45.7646 106.938 45.7614 106.944 45.7584 106.947C45.7524 106.949 45.7463 106.952 45.7402 106.952C45.7342 106.952 45.7282 106.952 45.7252 106.949C45.7191 106.947 45.7161 106.944 45.7131 106.941C45.71 106.938 45.707 106.935 45.707 106.93C45.707 106.927 45.707 106.921 45.707 106.919H45.7858C45.7858 106.913 45.7858 106.907 45.7858 106.902C45.7858 106.896 45.7796 106.887 45.7766 106.882C45.7736 106.876 45.7676 106.871 45.7615 106.868C45.7555 106.865 45.7493 106.862 45.7402 106.862C45.7342 106.862 45.7252 106.865 45.7191 106.868C45.7131 106.871 45.7071 106.873 45.704 106.879C45.701 106.885 45.6979 106.89 45.6949 106.896C45.6919 106.902 45.6919 106.907 45.6919 106.916C45.6919 106.921 45.6919 106.93 45.6949 106.935C45.6949 106.941 45.701 106.947 45.704 106.952C45.7071 106.958 45.7131 106.961 45.7191 106.963C45.7252 106.966 45.7342 106.966 45.7402 106.966C45.7524 106.966 45.7615 106.964 45.7676 106.958C45.7767 106.952 45.7796 106.944 45.7827 106.933H45.7858ZM45.6706 106.848V106.828H45.6525V106.848H45.6706ZM45.6706 106.975V106.865H45.6525V106.972C45.6525 106.978 45.6525 106.98 45.6495 106.983C45.6495 106.983 45.6465 106.986 45.6435 106.986H45.6405C45.6405 106.986 45.6404 106.986 45.6374 106.986V107C45.6404 107 45.6434 107 45.6464 107C45.6555 107 45.6616 106.997 45.6646 106.995C45.6676 106.992 45.6706 106.983 45.6706 106.978V106.975ZM45.5496 106.913C45.5496 106.907 45.5497 106.902 45.5527 106.896C45.5527 106.89 45.5557 106.888 45.5588 106.885C45.5618 106.882 45.5648 106.879 45.5678 106.876C45.5738 106.876 45.5769 106.874 45.5799 106.874C45.586 106.874 45.589 106.873 45.592 106.876C45.595 106.879 45.598 106.882 45.601 106.885C45.6041 106.888 45.6071 106.89 45.6071 106.896C45.6071 106.902 45.6102 106.907 45.6102 106.913C45.6102 106.918 45.6101 106.924 45.6071 106.93C45.6071 106.935 45.6041 106.938 45.601 106.941C45.598 106.944 45.595 106.947 45.592 106.949C45.586 106.949 45.5829 106.952 45.5799 106.952C45.5739 106.952 45.5708 106.952 45.5678 106.949C45.5648 106.947 45.5618 106.944 45.5588 106.941C45.5557 106.938 45.5527 106.935 45.5527 106.93C45.5527 106.924 45.5496 106.918 45.5496 106.913ZM45.5314 106.913C45.5314 106.921 45.5315 106.927 45.5345 106.933C45.5376 106.938 45.5405 106.944 45.5436 106.949C45.5496 106.955 45.5557 106.958 45.5617 106.961C45.5678 106.964 45.5738 106.963 45.5829 106.963C45.5919 106.963 45.5981 106.964 45.6041 106.961C45.6102 106.958 45.6162 106.955 45.6192 106.949C45.6253 106.944 45.6283 106.938 45.6313 106.933C45.6313 106.927 45.6344 106.921 45.6344 106.913C45.6344 106.907 45.6344 106.899 45.6313 106.893C45.6283 106.887 45.6253 106.882 45.6192 106.876C45.6162 106.871 45.6102 106.868 45.6041 106.865C45.5981 106.862 45.5919 106.859 45.5829 106.859C45.5738 106.859 45.5678 106.862 45.5617 106.865C45.5557 106.868 45.5496 106.871 45.5436 106.876C45.5405 106.882 45.5376 106.887 45.5345 106.893C45.5345 106.899 45.5314 106.907 45.5314 106.913ZM45.4739 106.865V106.963H45.4921V106.921C45.4921 106.916 45.4921 106.91 45.4951 106.904C45.4951 106.899 45.4981 106.896 45.5011 106.893C45.5042 106.89 45.5072 106.888 45.5133 106.885C45.5193 106.882 45.5254 106.882 45.5314 106.882V106.865C45.5224 106.865 45.5133 106.868 45.5072 106.871C45.5011 106.876 45.4952 106.882 45.4921 106.888V106.868H45.4771L45.4739 106.865ZM45.368 106.893V106.845H45.4043C45.4164 106.845 45.4225 106.848 45.4286 106.851C45.4346 106.857 45.4346 106.862 45.4346 106.871C45.4346 106.879 45.4316 106.885 45.4286 106.888C45.4225 106.893 45.4164 106.893 45.4043 106.893H45.368ZM45.3498 106.828V106.963H45.368V106.907H45.4104C45.4255 106.907 45.4376 106.905 45.4437 106.896C45.4497 106.89 45.4558 106.879 45.4558 106.868C45.4558 106.857 45.4527 106.845 45.4437 106.84C45.4376 106.831 45.4255 106.828 45.4104 106.828H45.3498ZM45.1805 106.865V106.963H45.1985V106.907C45.1985 106.902 45.1986 106.899 45.2016 106.896C45.2016 106.89 45.2046 106.888 45.2076 106.885C45.2107 106.882 45.2136 106.879 45.2167 106.879C45.2227 106.879 45.2258 106.876 45.2319 106.876C45.2379 106.876 45.2439 106.879 45.247 106.882C45.25 106.885 45.253 106.89 45.253 106.896V106.961H45.2712V106.896C45.2712 106.89 45.2711 106.885 45.2681 106.882C45.2681 106.879 45.2652 106.873 45.2622 106.871C45.2592 106.868 45.2561 106.865 45.2501 106.865C45.244 106.862 45.2379 106.862 45.2319 106.862C45.2168 106.862 45.2045 106.868 45.1985 106.879V106.862H45.1834L45.1805 106.865ZM45.1531 106.963V106.865H45.1349V106.921C45.1349 106.927 45.135 106.93 45.132 106.933C45.132 106.935 45.129 106.938 45.1259 106.941C45.1229 106.944 45.1198 106.947 45.1168 106.947C45.1137 106.947 45.1078 106.949 45.1048 106.949C45.0987 106.949 45.0926 106.947 45.0896 106.944C45.0865 106.941 45.0835 106.935 45.0835 106.93V106.865H45.0653V106.93C45.0653 106.935 45.0653 106.941 45.0653 106.944C45.0653 106.95 45.0684 106.952 45.0714 106.955C45.0744 106.958 45.0775 106.961 45.0835 106.961C45.0865 106.964 45.0926 106.963 45.1017 106.963C45.1077 106.963 45.1168 106.964 45.1228 106.961C45.1289 106.958 45.1319 106.952 45.1349 106.947V106.963H45.1502H45.1531ZM44.9654 106.916C44.9654 106.91 44.9655 106.904 44.9685 106.899C44.9685 106.893 44.9716 106.89 44.9746 106.888C44.9776 106.885 44.9806 106.882 44.9836 106.879C44.9897 106.879 44.9927 106.876 44.9957 106.876C45.0018 106.876 45.0048 106.876 45.0079 106.879C45.0139 106.882 45.0169 106.885 45.02 106.888C45.023 106.89 45.026 106.893 45.026 106.899C45.026 106.904 45.0291 106.91 45.0291 106.916C45.0291 106.921 45.0291 106.927 45.026 106.933C45.023 106.938 45.02 106.941 45.02 106.944C45.0169 106.947 45.0139 106.949 45.0079 106.952C45.0048 106.952 45.0018 106.955 44.9957 106.955C44.9897 106.955 44.9866 106.955 44.9836 106.952C44.9806 106.949 44.9776 106.947 44.9746 106.944C44.9716 106.941 44.9685 106.938 44.9685 106.933C44.9655 106.927 44.9654 106.921 44.9654 106.916ZM44.9474 106.916C44.9474 106.924 44.9473 106.93 44.9504 106.935C44.9534 106.941 44.9565 106.947 44.9595 106.952C44.9656 106.958 44.9685 106.961 44.9776 106.963C44.9836 106.966 44.9898 106.966 44.9988 106.966C45.0079 106.966 45.0139 106.966 45.02 106.963C45.026 106.961 45.0322 106.958 45.0352 106.952C45.0412 106.947 45.0442 106.941 45.0442 106.935C45.0472 106.93 45.0472 106.924 45.0472 106.916C45.0472 106.91 45.0472 106.902 45.0442 106.896C45.0442 106.89 45.0382 106.885 45.0352 106.879C45.0322 106.873 45.026 106.871 45.02 106.868C45.0139 106.865 45.0079 106.862 44.9988 106.862C44.9898 106.862 44.9836 106.865 44.9776 106.868C44.9715 106.871 44.9656 106.873 44.9595 106.879C44.9565 106.885 44.9534 106.89 44.9504 106.896C44.9473 106.902 44.9474 106.91 44.9474 106.916ZM44.8112 106.831V106.966H44.8293V106.859L44.905 106.966H44.9261V106.831H44.908V106.941L44.8323 106.831H44.8112ZM44.7173 106.907H44.6569C44.6569 106.902 44.6568 106.899 44.6598 106.896C44.6598 106.893 44.6629 106.89 44.6659 106.888C44.6689 106.885 44.6719 106.882 44.6749 106.882C44.6779 106.882 44.681 106.879 44.687 106.879C44.6901 106.879 44.6961 106.879 44.6991 106.882C44.7022 106.882 44.7053 106.885 44.7083 106.888C44.7113 106.89 44.7144 106.893 44.7144 106.896C44.7174 106.899 44.7173 106.902 44.7173 106.907ZM44.7355 106.933H44.7173C44.7173 106.938 44.7144 106.944 44.7083 106.947C44.7023 106.949 44.6962 106.952 44.6901 106.952C44.6841 106.952 44.6779 106.952 44.6749 106.949C44.6689 106.947 44.6658 106.944 44.6628 106.941C44.6598 106.938 44.6569 106.935 44.6569 106.93C44.6569 106.927 44.6569 106.921 44.6569 106.919H44.7355C44.7355 106.913 44.7356 106.907 44.7325 106.902C44.7325 106.896 44.7295 106.887 44.7265 106.882C44.7235 106.876 44.7173 106.871 44.7113 106.868C44.7052 106.865 44.6961 106.862 44.687 106.862C44.681 106.862 44.6749 106.865 44.6688 106.868C44.6628 106.871 44.6568 106.873 44.6538 106.879C44.6477 106.885 44.6478 106.89 44.6448 106.896C44.6417 106.902 44.6417 106.907 44.6417 106.916C44.6417 106.921 44.6417 106.93 44.6448 106.935C44.6478 106.941 44.6507 106.947 44.6538 106.952C44.6598 106.958 44.6628 106.961 44.6688 106.963C44.6749 106.966 44.681 106.966 44.6901 106.966C44.7022 106.966 44.7113 106.964 44.7204 106.958C44.7265 106.952 44.7325 106.944 44.7355 106.933ZM44.5357 106.828V106.963H44.5539V106.907C44.5539 106.902 44.554 106.899 44.557 106.896C44.557 106.89 44.56 106.888 44.563 106.885C44.5661 106.882 44.569 106.879 44.5721 106.879C44.5781 106.879 44.5811 106.876 44.5871 106.876C44.5932 106.876 44.5993 106.879 44.6023 106.882C44.6054 106.885 44.6084 106.89 44.6084 106.896V106.961H44.6266V106.896C44.6266 106.89 44.6265 106.885 44.6235 106.882C44.6235 106.879 44.6204 106.873 44.6174 106.871C44.6144 106.868 44.6114 106.865 44.6053 106.865C44.5992 106.862 44.5932 106.862 44.5871 106.862C44.5841 106.862 44.5811 106.862 44.5781 106.862C44.5751 106.862 44.5721 106.865 44.5691 106.865C44.5661 106.865 44.563 106.868 44.5599 106.871C44.5569 106.873 44.5539 106.876 44.5539 106.879V106.828H44.5357ZM44.4964 106.865V106.837H44.4782V106.865H44.46V106.879H44.4782V106.941C44.4782 106.947 44.4782 106.949 44.4782 106.952C44.4782 106.955 44.4812 106.958 44.4843 106.958L44.4903 106.961C44.4934 106.961 44.4964 106.961 44.5024 106.961H44.5146V106.947H44.5056C44.5025 106.947 44.4995 106.947 44.4995 106.947C44.4965 106.947 44.4965 106.947 44.4934 106.947V106.944C44.4934 106.944 44.4934 106.941 44.4934 106.938V106.879H44.5146V106.865H44.4934H44.4964ZM44.2452 106.865V106.963H44.2633V106.902C44.2633 106.902 44.2634 106.899 44.2664 106.896C44.2664 106.893 44.2695 106.89 44.2725 106.888C44.2725 106.885 44.2785 106.882 44.2815 106.882C44.2845 106.879 44.2876 106.879 44.2936 106.879C44.2967 106.879 44.2996 106.879 44.3027 106.882C44.3057 106.882 44.3057 106.885 44.3087 106.888C44.3117 106.888 44.3118 106.89 44.3118 106.893C44.3118 106.896 44.3118 106.899 44.3118 106.902V106.966H44.33V106.904C44.33 106.899 44.333 106.89 44.336 106.888C44.3421 106.882 44.3481 106.882 44.3572 106.882C44.3602 106.882 44.3632 106.882 44.3662 106.885C44.3692 106.885 44.3723 106.888 44.3723 106.89L44.3754 106.896C44.3754 106.899 44.3754 106.902 44.3754 106.904V106.969H44.3935V106.899C44.3935 106.893 44.3935 106.888 44.3904 106.885C44.3904 106.882 44.3874 106.879 44.3844 106.876C44.3813 106.873 44.3783 106.873 44.3723 106.871C44.3662 106.871 44.3632 106.868 44.3572 106.868C44.3511 106.868 44.3451 106.871 44.339 106.874C44.333 106.876 44.3299 106.882 44.3269 106.885C44.3239 106.879 44.3208 106.874 44.3148 106.874C44.3087 106.871 44.3026 106.868 44.2966 106.868C44.2815 106.868 44.2694 106.874 44.2633 106.885V106.871H44.2483L44.2452 106.865ZM44.1423 106.913C44.1423 106.907 44.1422 106.902 44.1453 106.896C44.1453 106.89 44.1483 106.888 44.1513 106.885C44.1544 106.882 44.1575 106.879 44.1605 106.876C44.1665 106.876 44.1696 106.874 44.1726 106.874C44.1756 106.874 44.1817 106.873 44.1847 106.876C44.1908 106.879 44.1938 106.882 44.1968 106.885C44.1999 106.888 44.2029 106.89 44.2029 106.896C44.2029 106.902 44.2059 106.907 44.2059 106.913C44.2059 106.918 44.2059 106.924 44.2029 106.93C44.1999 106.935 44.1968 106.938 44.1968 106.941C44.1938 106.944 44.1908 106.947 44.1847 106.949C44.1817 106.949 44.1756 106.952 44.1726 106.952C44.1666 106.952 44.1635 106.952 44.1605 106.949C44.1575 106.947 44.1544 106.944 44.1513 106.941C44.1483 106.938 44.1453 106.935 44.1453 106.93C44.1422 106.924 44.1423 106.918 44.1423 106.913ZM44.1241 106.913C44.1241 106.921 44.1242 106.927 44.1272 106.933C44.1303 106.938 44.1332 106.944 44.1363 106.949C44.1423 106.955 44.1453 106.958 44.1544 106.961C44.1605 106.964 44.1665 106.963 44.1756 106.963C44.1846 106.963 44.1908 106.964 44.1968 106.961C44.2029 106.958 44.2089 106.955 44.2119 106.949C44.218 106.944 44.2209 106.938 44.2209 106.933C44.224 106.927 44.224 106.921 44.224 106.913C44.224 106.907 44.224 106.899 44.2209 106.893C44.2209 106.887 44.2149 106.882 44.2119 106.876C44.2089 106.871 44.2029 106.868 44.1968 106.865C44.1908 106.862 44.1846 106.859 44.1756 106.859C44.1665 106.859 44.1605 106.862 44.1544 106.865C44.1484 106.868 44.1423 106.871 44.1363 106.876C44.1332 106.882 44.1303 106.887 44.1272 106.893C44.1242 106.899 44.1241 106.907 44.1241 106.913ZM44.0666 106.865V106.963H44.0848V106.921C44.0848 106.916 44.0848 106.91 44.0878 106.904C44.0878 106.899 44.0908 106.896 44.0938 106.893C44.0969 106.89 44.0999 106.888 44.106 106.885C44.112 106.882 44.1181 106.882 44.1241 106.882V106.865C44.1151 106.865 44.106 106.868 44.103 106.871C44.0969 106.876 44.0908 106.882 44.0878 106.888V106.868H44.0727L44.0666 106.865ZM44.0152 106.879V106.963H44.0334V106.879H44.0516V106.865H44.0334V106.851C44.0334 106.848 44.0333 106.845 44.0364 106.842C44.0394 106.84 44.0425 106.84 44.0455 106.84C44.0485 106.84 44.0485 106.84 44.0516 106.84C44.0546 106.84 44.0545 106.84 44.0575 106.84V106.826C44.0545 106.826 44.0546 106.826 44.0516 106.826C44.0485 106.826 44.0485 106.826 44.0455 106.826C44.0364 106.826 44.0273 106.828 44.0242 106.831C44.0182 106.837 44.0182 106.843 44.0182 106.851V106.865H44V106.879H44.0182H44.0152ZM46.176 106.744H46.158C46.158 106.75 46.1579 106.755 46.161 106.758C46.164 106.764 46.1671 106.767 46.1701 106.769C46.1762 106.772 46.1792 106.775 46.1852 106.775C46.1913 106.775 46.1973 106.778 46.2034 106.778C46.2094 106.778 46.2154 106.778 46.2185 106.778C46.2245 106.778 46.2276 106.775 46.2337 106.772C46.2367 106.769 46.2397 106.766 46.2458 106.764C46.2488 106.758 46.2488 106.755 46.2488 106.75C46.2488 106.744 46.2488 106.741 46.2458 106.738C46.2458 106.735 46.2428 106.733 46.2397 106.73C46.2367 106.727 46.2337 106.727 46.2276 106.724C46.2216 106.724 46.2185 106.722 46.2155 106.722C46.2125 106.722 46.2094 106.719 46.2034 106.719C46.2004 106.719 46.1973 106.716 46.1913 106.716C46.1882 106.716 46.1851 106.713 46.1821 106.71C46.1821 106.707 46.1791 106.704 46.1791 106.704C46.1791 106.702 46.1791 106.699 46.1821 106.699C46.1821 106.699 46.1851 106.696 46.1882 106.696C46.1912 106.696 46.1942 106.693 46.1942 106.693C46.1972 106.693 46.2003 106.693 46.2003 106.693C46.2033 106.693 46.2064 106.693 46.2094 106.693C46.2125 106.693 46.2154 106.696 46.2185 106.696C46.2215 106.696 46.2215 106.699 46.2245 106.702C46.2275 106.705 46.2276 106.707 46.2276 106.71H46.2458C46.2458 106.705 46.2457 106.699 46.2427 106.696C46.2397 106.693 46.2367 106.691 46.2337 106.688C46.2307 106.685 46.2246 106.682 46.2216 106.682C46.2155 106.682 46.2094 106.682 46.2034 106.682C46.1973 106.682 46.1943 106.682 46.1913 106.682C46.1852 106.682 46.1822 106.685 46.1791 106.688C46.1761 106.691 46.1732 106.693 46.1701 106.696C46.1671 106.702 46.167 106.705 46.167 106.71C46.167 106.716 46.167 106.721 46.1731 106.724C46.1761 106.727 46.1792 106.73 46.1852 106.733C46.1913 106.736 46.1973 106.735 46.2034 106.738C46.2094 106.738 46.2155 106.741 46.2216 106.741C46.2276 106.744 46.2307 106.744 46.2337 106.747C46.2367 106.75 46.2397 106.752 46.2397 106.758C46.2397 106.761 46.2397 106.764 46.2366 106.764C46.2336 106.766 46.2336 106.767 46.2306 106.769C46.2275 106.769 46.2246 106.772 46.2216 106.772C46.2185 106.772 46.2154 106.772 46.2124 106.772C46.2094 106.772 46.2063 106.772 46.2003 106.772C46.1973 106.772 46.1943 106.769 46.1913 106.769C46.1882 106.769 46.1852 106.766 46.1852 106.764C46.1852 106.761 46.1821 106.758 46.1821 106.755L46.176 106.744ZM46.055 106.676V106.772H46.0732V106.719C46.0732 106.713 46.0733 106.71 46.0763 106.708C46.0763 106.705 46.0793 106.702 46.0824 106.696C46.0854 106.693 46.0883 106.69 46.0914 106.69C46.0974 106.688 46.1004 106.688 46.1064 106.688C46.1125 106.688 46.1186 106.688 46.1217 106.693C46.1247 106.696 46.1277 106.702 46.1277 106.708V106.772H46.1459V106.71C46.1459 106.705 46.1458 106.699 46.1428 106.696C46.1428 106.691 46.1398 106.688 46.1367 106.685C46.1337 106.682 46.1307 106.679 46.1246 106.676C46.1186 106.676 46.1155 106.674 46.1064 106.674C46.0913 106.674 46.0792 106.679 46.0732 106.69V106.674H46.0581L46.055 106.676ZM46.0278 106.764V106.676H46.0127V106.69C46.0097 106.685 46.0037 106.682 46.0006 106.679C45.9946 106.676 45.9885 106.674 45.9825 106.674C45.9734 106.674 45.9642 106.674 45.9612 106.679C45.9551 106.682 45.9491 106.688 45.9461 106.69C45.9431 106.696 45.9401 106.702 45.9371 106.708C45.9371 106.713 45.934 106.719 45.934 106.724C45.934 106.73 45.9341 106.738 45.9371 106.744C45.9371 106.75 45.9431 106.755 45.9461 106.761C45.9491 106.766 45.9551 106.769 45.9612 106.772C45.9672 106.775 45.9734 106.778 45.9825 106.778C45.9885 106.778 45.9946 106.778 46.0006 106.772C46.0067 106.769 46.0127 106.767 46.0127 106.758V106.764C46.0127 106.769 46.0127 106.775 46.0096 106.778C46.0096 106.784 46.0066 106.786 46.0036 106.789C46.0006 106.792 45.9976 106.795 45.9946 106.795C45.9885 106.797 45.9854 106.797 45.9794 106.797C45.9763 106.797 45.9734 106.797 45.9703 106.797C45.9673 106.797 45.9642 106.797 45.9612 106.795C45.9581 106.795 45.9551 106.792 45.9551 106.789C45.9551 106.786 45.9522 106.783 45.9522 106.783H45.934C45.934 106.789 45.9341 106.792 45.9371 106.797C45.9401 106.8 45.943 106.803 45.9491 106.806C45.9521 106.809 45.9581 106.809 45.9612 106.811C45.9672 106.811 45.9734 106.811 45.9764 106.811C45.9946 106.811 46.0037 106.809 46.0127 106.8C46.0218 106.792 46.0247 106.78 46.0247 106.764H46.0278ZM45.9794 106.758C45.9733 106.758 45.9673 106.758 45.9643 106.755C45.9613 106.753 45.9581 106.75 45.9551 106.747C45.9521 106.744 45.9491 106.738 45.9491 106.736C45.9491 106.73 45.9461 106.727 45.9461 106.722C45.9461 106.716 45.946 106.713 45.9491 106.708C45.9491 106.702 45.9521 106.699 45.9551 106.696C45.9581 106.693 45.9613 106.691 45.9643 106.688C45.9703 106.685 45.9733 106.685 45.9794 106.685C45.9854 106.685 45.9915 106.685 45.9946 106.688C45.9976 106.691 46.0006 106.693 46.0036 106.696C46.0066 106.699 46.0096 106.705 46.0096 106.708C46.0096 106.71 46.0096 106.716 46.0096 106.719C46.0096 106.724 46.0096 106.727 46.0096 106.733C46.0096 106.738 46.0066 106.741 46.0036 106.744C46.0006 106.747 45.9976 106.75 45.9946 106.752C45.9915 106.752 45.9854 106.755 45.9794 106.755V106.758ZM45.9129 106.657V106.637H45.8947V106.657H45.9129ZM45.8947 106.674V106.769H45.9129V106.674H45.8947ZM45.8038 106.741H45.7858C45.7858 106.747 45.7857 106.753 45.7887 106.755C45.7917 106.761 45.7947 106.764 45.7977 106.767C45.8038 106.769 45.8069 106.772 45.813 106.772C45.819 106.772 45.8251 106.775 45.8311 106.775C45.8372 106.775 45.8432 106.775 45.8462 106.775C45.8523 106.775 45.8554 106.772 45.8614 106.769C45.8645 106.767 45.8673 106.764 45.8734 106.761C45.8764 106.755 45.8765 106.752 45.8765 106.747C45.8765 106.741 45.8764 106.738 45.8734 106.736C45.8734 106.733 45.8705 106.73 45.8675 106.727C45.8645 106.724 45.8614 106.724 45.8554 106.722C45.8493 106.722 45.8463 106.719 45.8432 106.719C45.8402 106.719 45.8372 106.716 45.8311 106.716C45.8281 106.716 45.8251 106.713 45.819 106.713C45.816 106.713 45.8129 106.71 45.8098 106.708C45.8098 106.705 45.8069 106.702 45.8069 106.702C45.8069 106.699 45.8068 106.696 45.8098 106.696C45.8098 106.696 45.8129 106.693 45.8159 106.693C45.8189 106.693 45.822 106.69 45.822 106.69C45.825 106.69 45.828 106.69 45.828 106.69C45.8311 106.69 45.8342 106.69 45.8372 106.69C45.8402 106.69 45.8432 106.693 45.8462 106.693C45.8492 106.693 45.8492 106.696 45.8523 106.699C45.8553 106.702 45.8554 106.705 45.8554 106.708H45.8734C45.8734 106.702 45.8704 106.696 45.8704 106.693C45.8674 106.69 45.8645 106.688 45.8614 106.685C45.8584 106.682 45.8523 106.679 45.8493 106.679C45.8433 106.679 45.8372 106.679 45.8311 106.679C45.8251 106.679 45.822 106.679 45.819 106.679C45.813 106.679 45.8099 106.682 45.8069 106.685C45.8039 106.688 45.8008 106.69 45.7977 106.693C45.7947 106.699 45.7948 106.702 45.7948 106.708C45.7948 106.713 45.7948 106.719 45.8008 106.722C45.8039 106.724 45.8069 106.727 45.813 106.73C45.819 106.733 45.8251 106.733 45.8311 106.736C45.8372 106.736 45.8433 106.738 45.8493 106.738C45.8554 106.741 45.8584 106.741 45.8614 106.744C45.8645 106.747 45.8675 106.75 45.8675 106.755C45.8675 106.758 45.8674 106.761 45.8644 106.761C45.8614 106.764 45.8613 106.764 45.8583 106.767C45.8553 106.767 45.8523 106.769 45.8523 106.769C45.8492 106.769 45.8463 106.769 45.8432 106.769C45.8402 106.769 45.8372 106.769 45.8311 106.769C45.8281 106.769 45.825 106.767 45.822 106.767C45.8189 106.767 45.8159 106.764 45.8159 106.761C45.8159 106.758 45.813 106.755 45.813 106.752L45.8038 106.741ZM45.7584 106.713H45.698C45.698 106.71 45.6979 106.707 45.7009 106.702C45.7009 106.699 45.704 106.696 45.707 106.693C45.71 106.69 45.7131 106.688 45.7162 106.688C45.7192 106.685 45.7251 106.685 45.7281 106.685C45.7342 106.685 45.7372 106.685 45.7402 106.688C45.7433 106.688 45.7464 106.69 45.7494 106.693C45.7524 106.696 45.7555 106.699 45.7555 106.702C45.7555 106.705 45.7584 106.707 45.7584 106.713ZM45.7766 106.738H45.7584C45.7584 106.744 45.7524 106.75 45.7494 106.752C45.7464 106.755 45.7403 106.758 45.7312 106.758C45.7252 106.758 45.7222 106.758 45.7162 106.755C45.7131 106.755 45.71 106.75 45.707 106.75C45.704 106.747 45.7009 106.744 45.7009 106.738C45.7009 106.733 45.698 106.73 45.698 106.727H45.7766C45.7766 106.721 45.7767 106.716 45.7736 106.708C45.7736 106.702 45.7706 106.696 45.7676 106.69C45.7646 106.685 45.7584 106.679 45.7524 106.676C45.7463 106.674 45.7403 106.671 45.7312 106.671C45.7252 106.671 45.7191 106.671 45.7131 106.674C45.707 106.677 45.701 106.679 45.698 106.685C45.6919 106.691 45.6889 106.696 45.6859 106.702C45.6828 106.707 45.6828 106.716 45.6828 106.722C45.6828 106.73 45.6828 106.735 45.6859 106.741C45.6889 106.747 45.6919 106.752 45.6949 106.758C45.6979 106.764 45.704 106.767 45.7101 106.769C45.7162 106.772 45.7222 106.772 45.7312 106.772C45.7433 106.772 45.7524 106.769 45.7615 106.764C45.7676 106.758 45.7736 106.75 45.7766 106.738ZM45.5678 106.755V106.651H45.601C45.6101 106.651 45.6163 106.651 45.6223 106.654C45.6284 106.657 45.6344 106.66 45.6374 106.665C45.6404 106.671 45.6434 106.676 45.6464 106.682C45.6464 106.688 45.6495 106.696 45.6495 106.702C45.6495 106.71 45.6494 106.719 45.6464 106.722C45.6464 106.727 45.6435 106.733 45.6405 106.736C45.6375 106.741 45.6344 106.744 45.6313 106.747C45.6283 106.75 45.6253 106.75 45.6192 106.752C45.6162 106.752 45.6131 106.755 45.6071 106.755C45.6041 106.755 45.6011 106.755 45.5981 106.755H45.5678ZM45.5496 106.637V106.769H45.5981C45.6102 106.769 45.6193 106.769 45.6284 106.764C45.6375 106.761 45.6435 106.755 45.6495 106.75C45.6556 106.744 45.6586 106.735 45.6616 106.727C45.6647 106.719 45.6677 106.708 45.6677 106.696C45.6677 106.677 45.6616 106.659 45.6495 106.648C45.6374 106.637 45.6193 106.631 45.5981 106.631H45.5496V106.637ZM45.3197 106.637V106.769H45.3378V106.659L45.3832 106.769H45.4014L45.4468 106.659V106.769H45.4649V106.637H45.4376L45.3922 106.75L45.3469 106.637H45.3197ZM45.2137 106.716L45.2379 106.654L45.2622 106.716H45.2137ZM45.2288 106.637L45.1713 106.769H45.1895L45.2076 106.73H45.2681L45.2863 106.769H45.3075L45.2501 106.637H45.2288ZM45.141 106.676H45.1592C45.1592 106.668 45.1592 106.662 45.1562 106.657C45.1532 106.651 45.1502 106.645 45.1441 106.643C45.1381 106.64 45.135 106.637 45.1259 106.634C45.1199 106.634 45.1139 106.631 45.1048 106.631C45.0987 106.631 45.0927 106.631 45.0866 106.634C45.0806 106.634 45.0745 106.64 45.0684 106.64C45.0624 106.643 45.0594 106.648 45.0563 106.651C45.0533 106.657 45.0503 106.662 45.0503 106.668C45.0503 106.674 45.0533 106.679 45.0563 106.685C45.0594 106.691 45.0624 106.693 45.0684 106.696C45.0715 106.699 45.0775 106.702 45.0835 106.702C45.0896 106.705 45.0956 106.705 45.1017 106.708C45.1077 106.708 45.1138 106.71 45.1199 106.71C45.1259 106.71 45.1319 106.713 45.1349 106.716C45.141 106.719 45.144 106.722 45.1471 106.722C45.1501 106.724 45.1502 106.727 45.1502 106.733C45.1502 106.738 45.1501 106.741 45.1471 106.744C45.144 106.747 45.1411 106.75 45.138 106.752C45.135 106.755 45.129 106.755 45.1259 106.755C45.1199 106.755 45.1168 106.755 45.1138 106.755C45.1078 106.755 45.1018 106.755 45.0987 106.755C45.0927 106.755 45.0896 106.752 45.0866 106.75C45.0806 106.747 45.0805 106.744 45.0775 106.738C45.0744 106.733 45.0745 106.73 45.0745 106.722H45.0563C45.0563 106.73 45.0563 106.738 45.0624 106.741C45.0654 106.747 45.0684 106.752 45.0745 106.758C45.0806 106.761 45.0866 106.764 45.0927 106.767C45.0987 106.769 45.1078 106.769 45.1138 106.769C45.1199 106.769 45.1259 106.769 45.1349 106.767C45.141 106.767 45.1471 106.761 45.1531 106.761C45.1592 106.758 45.1622 106.752 45.1652 106.75C45.1683 106.744 45.1713 106.738 45.1713 106.73C45.1713 106.724 45.1714 106.719 45.1683 106.713C45.1653 106.707 45.1623 106.705 45.1562 106.702C45.1532 106.699 45.1471 106.696 45.141 106.696C45.1349 106.696 45.1289 106.693 45.1228 106.69C45.1168 106.69 45.1108 106.688 45.1048 106.688C45.0987 106.688 45.0926 106.685 45.0896 106.685C45.0835 106.682 45.0805 106.679 45.0775 106.679C45.0744 106.676 45.0714 106.674 45.0714 106.668C45.0714 106.662 45.0715 106.659 45.0745 106.657C45.0745 106.654 45.0775 106.651 45.0806 106.651C45.0836 106.648 45.0865 106.648 45.0896 106.645C45.0956 106.645 45.0987 106.645 45.1017 106.645C45.1138 106.645 45.1199 106.648 45.1259 106.651C45.132 106.657 45.135 106.662 45.138 106.671L45.141 106.676ZM44.9382 106.783C44.9382 106.789 44.9352 106.792 44.9322 106.795C44.9322 106.797 44.9292 106.8 44.9261 106.803C44.9231 106.806 44.9201 106.806 44.9171 106.809C44.9141 106.809 44.911 106.809 44.908 106.809C44.9049 106.809 44.9049 106.809 44.9019 106.809C44.8989 106.809 44.8989 106.809 44.8958 106.806V106.792C44.8958 106.792 44.8989 106.792 44.9019 106.795C44.9049 106.795 44.9049 106.795 44.908 106.795C44.911 106.795 44.9141 106.795 44.9171 106.792C44.9201 106.792 44.9201 106.789 44.9232 106.786L44.9292 106.769L44.8898 106.674H44.908L44.9382 106.752L44.9654 106.674H44.9836L44.9382 106.783ZM44.7809 106.637V106.769H44.799V106.755C44.8021 106.758 44.8051 106.761 44.8051 106.764C44.8081 106.766 44.8111 106.767 44.8141 106.769C44.8171 106.769 44.8203 106.772 44.8233 106.772C44.8263 106.772 44.8293 106.772 44.8323 106.772C44.8383 106.772 44.8475 106.772 44.8536 106.767C44.8596 106.764 44.8656 106.761 44.8686 106.755C44.8747 106.75 44.8748 106.744 44.8778 106.738C44.8808 106.733 44.8808 106.727 44.8808 106.719C44.8808 106.713 44.8808 106.705 44.8778 106.699C44.8748 106.693 44.8717 106.688 44.8686 106.682C44.8656 106.676 44.8596 106.674 44.8536 106.671C44.8475 106.668 44.8414 106.665 44.8323 106.665C44.8262 106.665 44.8202 106.665 44.8141 106.668C44.8081 106.671 44.8021 106.674 44.799 106.679V106.629H44.7809V106.637ZM44.8596 106.722C44.8596 106.727 44.8596 106.73 44.8596 106.736C44.8596 106.741 44.8566 106.744 44.8536 106.747C44.8505 106.75 44.8474 106.753 44.8444 106.755C44.8414 106.758 44.8354 106.758 44.8293 106.758C44.8233 106.758 44.8171 106.758 44.8141 106.755C44.8111 106.753 44.8081 106.75 44.8051 106.747C44.8021 106.744 44.799 106.741 44.799 106.736C44.799 106.73 44.799 106.727 44.799 106.722C44.799 106.716 44.799 106.713 44.799 106.708C44.799 106.705 44.8021 106.699 44.8051 106.696C44.8081 106.693 44.8111 106.691 44.8141 106.688C44.8171 106.688 44.8233 106.685 44.8293 106.685C44.8354 106.685 44.8414 106.685 44.8444 106.688C44.8505 106.691 44.8535 106.693 44.8565 106.696C44.8596 106.699 44.8626 106.702 44.8626 106.708C44.8626 106.713 44.8626 106.716 44.8626 106.722H44.8596ZM44.6174 106.722C44.6174 106.716 44.6174 106.713 44.6174 106.708C44.6174 106.702 44.6205 106.699 44.6235 106.696C44.6265 106.693 44.6296 106.691 44.6326 106.688C44.6357 106.688 44.6417 106.685 44.6477 106.685C44.6538 106.685 44.6598 106.685 44.6628 106.688C44.6658 106.691 44.6689 106.693 44.672 106.696C44.675 106.699 44.678 106.702 44.678 106.708C44.678 106.713 44.681 106.716 44.681 106.722C44.681 106.727 44.681 106.73 44.678 106.736C44.678 106.741 44.675 106.744 44.672 106.747C44.6689 106.75 44.6658 106.753 44.6628 106.755C44.6598 106.758 44.6538 106.758 44.6477 106.758C44.6417 106.758 44.6357 106.758 44.6326 106.755C44.6266 106.753 44.6266 106.75 44.6205 106.747C44.6175 106.744 44.6175 106.738 44.6145 106.736C44.6145 106.73 44.6114 106.727 44.6114 106.722H44.6174ZM44.6962 106.769V106.637H44.678V106.688C44.675 106.685 44.672 106.682 44.672 106.679C44.6689 106.676 44.6658 106.677 44.6628 106.674C44.6598 106.674 44.6568 106.671 44.6538 106.671C44.6507 106.671 44.6478 106.671 44.6448 106.671C44.6357 106.671 44.6295 106.671 44.6235 106.676C44.6174 106.679 44.6114 106.682 44.6084 106.688C44.6024 106.693 44.6023 106.699 44.5992 106.704C44.5992 106.71 44.5963 106.716 44.5963 106.724C44.5963 106.73 44.5962 106.738 44.5992 106.744C44.6023 106.75 44.6054 106.755 44.6084 106.761C44.6114 106.766 44.6174 106.769 44.6235 106.772C44.6295 106.775 44.6357 106.778 44.6448 106.778C44.6508 106.778 44.6598 106.778 44.6659 106.775C44.6719 106.772 44.675 106.769 44.678 106.764V106.778H44.6962V106.769ZM44.5691 106.713H44.5085C44.5085 106.71 44.5084 106.707 44.5115 106.702C44.5115 106.699 44.5145 106.696 44.5175 106.693C44.5205 106.69 44.5237 106.688 44.5267 106.688C44.5297 106.685 44.5358 106.685 44.5388 106.685C44.5449 106.685 44.5479 106.685 44.5509 106.688C44.5539 106.688 44.5569 106.69 44.5599 106.693C44.563 106.696 44.566 106.699 44.566 106.702C44.569 106.705 44.5691 106.707 44.5691 106.713ZM44.5842 106.738H44.566C44.566 106.744 44.56 106.75 44.557 106.752C44.5509 106.755 44.5449 106.758 44.5388 106.758C44.5327 106.758 44.5266 106.758 44.5236 106.755C44.5206 106.755 44.5176 106.75 44.5146 106.75C44.5115 106.747 44.5085 106.744 44.5085 106.738C44.5085 106.733 44.5056 106.73 44.5056 106.727H44.5842C44.5842 106.721 44.5842 106.716 44.5812 106.708C44.5812 106.702 44.5782 106.696 44.5752 106.69C44.5721 106.685 44.566 106.679 44.5599 106.676C44.5539 106.674 44.5448 106.671 44.5357 106.671C44.5296 106.671 44.5236 106.671 44.5175 106.674C44.5115 106.677 44.5055 106.679 44.5024 106.685C44.4964 106.691 44.4934 106.696 44.4903 106.702C44.4873 106.707 44.4874 106.716 44.4874 106.722C44.4874 106.73 44.4903 106.735 44.4903 106.741C44.4934 106.747 44.4965 106.752 44.4995 106.758C44.5055 106.764 44.5085 106.767 44.5146 106.769C44.5206 106.772 44.5266 106.772 44.5357 106.772C44.5478 106.772 44.5569 106.769 44.566 106.764C44.572 106.758 44.5782 106.75 44.5812 106.738H44.5842ZM44.4571 106.674V106.645H44.4389V106.674H44.4207V106.688H44.4389V106.75C44.4389 106.755 44.4389 106.758 44.4389 106.761C44.4389 106.764 44.4419 106.767 44.4419 106.767C44.4449 106.767 44.448 106.769 44.451 106.769C44.454 106.769 44.4571 106.769 44.4631 106.769H44.4753V106.755H44.4692C44.4662 106.755 44.4631 106.755 44.4631 106.755H44.46C44.46 106.755 44.4601 106.755 44.4571 106.752C44.4571 106.752 44.4571 106.75 44.4571 106.747V106.688H44.4782V106.674H44.4571ZM44.4178 106.769C44.4147 106.769 44.4117 106.772 44.4057 106.772C44.4026 106.772 44.3995 106.772 44.3965 106.769C44.3935 106.767 44.3904 106.764 44.3904 106.758C44.3844 106.764 44.3814 106.767 44.3754 106.769C44.3693 106.772 44.3633 106.772 44.3542 106.772C44.3482 106.772 44.3451 106.772 44.339 106.772C44.336 106.772 44.3329 106.769 44.3269 106.767C44.3239 106.767 44.3208 106.761 44.3208 106.758C44.3208 106.755 44.3179 106.75 44.3179 106.747C44.3179 106.741 44.3178 106.736 44.3208 106.733C44.3239 106.727 44.327 106.727 44.33 106.724C44.333 106.721 44.3361 106.719 44.3421 106.719C44.3482 106.719 44.3512 106.719 44.3542 106.716C44.3603 106.716 44.3632 106.716 44.3662 106.713C44.3722 106.713 44.3753 106.713 44.3783 106.71C44.3813 106.71 44.3844 106.71 44.3844 106.708C44.3874 106.708 44.3875 106.705 44.3875 106.702C44.3875 106.699 44.3874 106.696 44.3844 106.693C44.3844 106.693 44.3813 106.691 44.3783 106.688C44.3753 106.688 44.3723 106.685 44.3723 106.685C44.3692 106.685 44.3663 106.685 44.3632 106.685C44.3572 106.685 44.3511 106.685 44.3451 106.688C44.339 106.691 44.3391 106.696 44.336 106.702H44.3179C44.3179 106.696 44.3178 106.691 44.3208 106.685C44.3239 106.682 44.3269 106.679 44.3329 106.674C44.336 106.671 44.342 106.671 44.3451 106.668C44.3511 106.668 44.3572 106.668 44.3632 106.668C44.3693 106.668 44.3723 106.668 44.3783 106.668C44.3844 106.668 44.3874 106.671 44.3904 106.671C44.3935 106.674 44.3966 106.676 44.3996 106.679C44.4026 106.682 44.4025 106.688 44.4025 106.693V106.744C44.4025 106.747 44.4025 106.75 44.4025 106.752C44.4025 106.755 44.4056 106.755 44.4086 106.755C44.4116 106.755 44.4116 106.755 44.4147 106.755V106.767L44.4178 106.769ZM44.3904 106.719C44.3904 106.719 44.3844 106.722 44.3814 106.722C44.3784 106.722 44.3754 106.721 44.3693 106.724C44.3663 106.724 44.3632 106.724 44.3572 106.724C44.3542 106.724 44.3512 106.724 44.3482 106.727C44.3451 106.73 44.342 106.73 44.339 106.733C44.339 106.736 44.336 106.738 44.336 106.744C44.336 106.747 44.336 106.75 44.336 106.75C44.336 106.75 44.3391 106.753 44.3421 106.755C44.3451 106.755 44.3451 106.755 44.3482 106.758C44.3512 106.758 44.3542 106.758 44.3572 106.758C44.3632 106.758 44.3692 106.758 44.3723 106.758C44.3753 106.755 44.3784 106.755 44.3814 106.752C44.3844 106.75 44.3875 106.747 44.3875 106.744C44.3875 106.741 44.3875 106.738 44.3875 106.738V106.722L44.3904 106.719ZM44.2905 106.71H44.2301C44.2301 106.707 44.23 106.705 44.233 106.699C44.233 106.696 44.2361 106.693 44.2391 106.69C44.2421 106.688 44.2452 106.685 44.2483 106.685C44.2513 106.682 44.2574 106.682 44.2604 106.682C44.2664 106.682 44.2695 106.682 44.2725 106.685C44.2755 106.685 44.2785 106.688 44.2815 106.69C44.2845 106.693 44.2876 106.696 44.2876 106.699C44.2906 106.702 44.2905 106.705 44.2905 106.71ZM44.3087 106.736H44.2905C44.2905 106.741 44.2845 106.747 44.2815 106.75C44.2785 106.752 44.2724 106.755 44.2633 106.755C44.2573 106.755 44.2513 106.755 44.2483 106.752C44.2452 106.752 44.2421 106.747 44.2391 106.747C44.2361 106.744 44.233 106.741 44.233 106.736C44.233 106.73 44.2301 106.727 44.2301 106.724H44.3087C44.3087 106.719 44.3088 106.713 44.3058 106.704C44.3058 106.699 44.3027 106.693 44.2997 106.688C44.2967 106.682 44.2905 106.677 44.2845 106.674C44.2784 106.671 44.2695 106.668 44.2604 106.668C44.2543 106.668 44.2483 106.668 44.2422 106.671C44.2362 106.674 44.23 106.676 44.227 106.682C44.2209 106.688 44.2179 106.693 44.2149 106.699C44.2118 106.705 44.2119 106.713 44.2119 106.719C44.2119 106.727 44.2118 106.733 44.2149 106.738C44.2179 106.744 44.221 106.75 44.224 106.755C44.2301 106.761 44.2331 106.764 44.2391 106.767C44.2452 106.769 44.2513 106.769 44.2604 106.769C44.2725 106.769 44.2815 106.766 44.2905 106.761C44.2966 106.755 44.3027 106.747 44.3058 106.736H44.3087ZM44.1574 106.671V106.767H44.1756V106.724C44.1756 106.719 44.1756 106.713 44.1756 106.708C44.1786 106.702 44.1786 106.699 44.1816 106.696C44.1846 106.693 44.1877 106.691 44.1937 106.688C44.1998 106.688 44.2059 106.685 44.2119 106.685V106.668C44.2028 106.668 44.1938 106.668 44.1908 106.674C44.1847 106.677 44.1786 106.682 44.1756 106.69V106.671H44.1574ZM44.1181 106.674H44.1363C44.1363 106.668 44.1332 106.66 44.1302 106.654C44.1272 106.648 44.1211 106.643 44.1181 106.64C44.112 106.637 44.106 106.634 44.0999 106.631C44.0938 106.631 44.0848 106.629 44.0788 106.629C44.0667 106.629 44.0576 106.631 44.0485 106.634C44.0394 106.637 44.0334 106.643 44.0273 106.648C44.0213 106.654 44.0182 106.662 44.0152 106.671C44.0122 106.679 44.0121 106.688 44.0121 106.696C44.0121 106.708 44.0122 106.716 44.0152 106.724C44.0182 106.733 44.0213 106.741 44.0273 106.747C44.0334 106.752 44.0394 106.758 44.0485 106.761C44.0576 106.764 44.0666 106.767 44.0757 106.767C44.0938 106.767 44.1091 106.761 44.1212 106.752C44.1333 106.744 44.1392 106.73 44.1392 106.713H44.1212C44.1212 106.719 44.1211 106.724 44.1181 106.73C44.1181 106.735 44.1121 106.738 44.1091 106.741C44.106 106.744 44.103 106.747 44.0969 106.75C44.0909 106.752 44.0848 106.752 44.0788 106.752C44.0697 106.752 44.0605 106.752 44.0575 106.747C44.0514 106.744 44.0454 106.741 44.0424 106.736C44.0394 106.73 44.0364 106.724 44.0334 106.719C44.0334 106.71 44.0303 106.705 44.0303 106.696C44.0303 106.691 44.0304 106.682 44.0334 106.676C44.0364 106.671 44.0394 106.665 44.0424 106.659C44.0485 106.654 44.0514 106.651 44.0575 106.648C44.0635 106.645 44.0697 106.643 44.0788 106.643C44.0878 106.643 44.0969 106.646 44.103 106.651C44.1091 106.657 44.115 106.662 44.1181 106.671V106.674ZM88.3445 64.966C87.0189 63.7331 85.4754 62.7674 83.7533 62.089C81.9737 61.3853 80.0821 61.0307 78.1361 61.0307C76.19 61.0307 74.2954 61.3853 72.5188 62.089C70.7998 62.7646 69.2532 63.7303 67.9276 64.966C66.602 66.1989 65.564 67.6345 64.8346 69.2361C64.078 70.8912 63.6966 72.6504 63.6966 74.4604C63.6966 76.2703 64.078 78.0326 64.8346 79.6849C65.561 81.2837 66.602 82.7221 67.9276 83.955C69.2532 85.1879 70.7998 86.1533 72.5188 86.8317C74.2984 87.5326 76.19 87.89 78.1361 87.89C80.0851 87.89 81.9767 87.5354 83.7533 86.8317C85.4723 86.1561 87.0189 85.1879 88.3445 83.955C89.6701 82.7221 90.7083 81.2837 91.4376 79.6849C92.1943 78.0298 92.5755 76.2703 92.5755 74.4604C92.5755 72.6476 92.1943 70.8884 91.4376 69.2361C90.7113 67.6373 89.6701 66.1989 88.3445 64.966ZM78.1361 86.5417C70.9723 86.5417 65.1463 81.1231 65.1463 74.4604C65.1463 67.7976 70.9723 62.3763 78.1361 62.3763C85.2998 62.3763 91.1289 67.7948 91.1289 74.4604C91.1289 81.1231 85.3028 86.5417 78.1361 86.5417ZM105.765 58.9028C105.732 58.5847 105.459 58.3313 105.12 58.2975C105.084 58.2918 101.316 57.9314 96.1892 56.2622C91.4708 54.7225 84.6007 51.7275 78.6475 46.1963C78.3661 45.9346 77.9091 45.9346 77.6246 46.1963C71.6775 51.7275 64.8073 54.7225 60.089 56.2622C54.9621 57.9342 51.1941 58.2947 51.1578 58.2975C50.8128 58.3284 50.5433 58.5819 50.507 58.9028C49.5506 67.9863 51.5633 77.6693 56.0274 85.4721C58.3276 89.4945 61.4721 93.1961 65.116 96.1686C67.0045 97.7055 69.0233 99.051 71.1146 100.168C73.2937 101.331 75.5667 102.246 77.8729 102.89C77.888 102.896 77.9001 102.899 77.9182 102.902C77.9576 102.91 77.9908 102.918 78.0271 102.918C78.0483 102.918 78.0665 102.921 78.0877 102.921H78.1845C78.2057 102.921 78.2299 102.921 78.2481 102.918C78.2874 102.913 78.3147 102.91 78.3601 102.899C78.3722 102.896 78.3843 102.896 78.3904 102.89C80.6966 102.243 82.9724 101.328 85.1545 100.168C87.2519 99.0566 89.2707 97.7083 91.1532 96.1686C94.7971 93.1961 97.9416 89.4974 100.242 85.4721C104.706 77.6693 106.722 67.9863 105.768 58.9028H105.765ZM98.9676 84.8415C94.3582 92.9005 86.5801 99.1382 78.1392 101.556C69.6982 99.1382 61.92 92.9033 57.3106 84.8415C53.0674 77.4187 51.1033 68.2395 51.8963 59.5669C53.1765 59.398 56.3906 58.8859 60.5218 57.5432C63.618 56.5355 66.59 55.2686 69.3502 53.7739C72.5855 52.0174 75.5424 49.9486 78.1392 47.6123C80.7389 49.9486 83.6928 52.0174 86.9311 53.7739C89.6883 55.2686 92.6573 56.5383 95.7565 57.5432C99.8877 58.8887 103.105 59.398 104.382 59.5669C105.178 68.2395 103.214 77.4187 98.9676 84.8415Z" fill="#4D4D4D"/>
</svg>
