<svg width="150" height="150" viewBox="0 0 150 150" fill="none" xmlns="http://www.w3.org/2000/svg">
<path d="M89.4862 111.997V77.8381L101.23 73.623V85.8383C101.23 86.0548 101.339 86.1629 101.448 86.2711C101.557 86.3793 101.666 86.3793 101.775 86.3793C101.884 86.3793 101.884 86.3793 101.993 86.3793L110.582 83.2437C110.8 83.1355 110.909 83.0272 110.909 82.8107V70.1629L122 66.1641V98.8109L89.4832 112L89.4862 111.997ZM41.5085 57.3334H42.6326V53.1009H41.5085V57.3334ZM49.2713 48.6722V41.0379C49.2713 37.1563 46.3227 34 42.6973 34H41.4437C37.8183 34 34.8697 37.1592 34.8697 41.0379V48.6722C33.2189 50.4653 32.3096 52.7848 32.3096 55.2185C32.3096 60.5684 36.6883 64.9209 42.0705 64.9209C47.4527 64.9209 51.8315 60.5685 51.8315 55.2156C51.8315 52.7849 50.9222 50.4653 49.2713 48.6693V48.6722ZM41.4437 35.1175H42.6973C45.7048 35.1175 48.1472 37.7735 48.1472 41.0379V47.6281C48.1119 47.5989 48.0765 47.5694 48.0383 47.5402L47.8412 47.3939C47.7794 47.3471 47.7176 47.3032 47.6558 47.2594C47.6146 47.2301 47.5704 47.2009 47.5292 47.1717L47.4763 47.1365C47.4027 47.0897 47.3321 47.0402 47.2585 46.9963C47.2055 46.9641 47.1555 46.9319 47.0996 46.8997L47.0643 46.8792C46.9937 46.8382 46.9231 46.7944 46.8495 46.7535C46.7848 46.7155 46.717 46.6803 46.6523 46.6481C46.5787 46.6101 46.5052 46.5692 46.4286 46.5341C46.3639 46.5019 46.2962 46.4697 46.2286 46.4376C46.1521 46.4025 46.0755 46.3675 46.002 46.3353C45.9343 46.306 45.8666 46.2766 45.796 46.2473C45.7195 46.2151 45.64 46.186 45.5606 46.1568C45.4929 46.1304 45.4252 46.1042 45.3516 46.0808C45.2722 46.0544 45.1927 46.0251 45.1162 45.9988C45.0456 45.9754 44.975 45.955 44.9044 45.9345C44.822 45.9111 44.7395 45.8877 44.6571 45.8642L44.4482 45.8085C44.3747 45.791 44.2982 45.7737 44.1922 45.7503L44.1422 45.7386C44.0892 45.7269 44.0362 45.7151 43.9833 45.7034C43.9009 45.6888 43.8185 45.6741 43.7155 45.6566L43.5125 45.6243C43.4242 45.6126 43.333 45.6009 43.23 45.5892L43.174 45.5835C43.1269 45.5776 43.0799 45.5716 43.0328 45.5657C42.9298 45.554 42.8239 45.5482 42.7121 45.5423L42.5502 45.5309C42.2294 45.5133 41.9028 45.5133 41.5791 45.5309L41.3878 45.5423C41.2907 45.5482 41.1907 45.5541 41.0995 45.5629C41.0494 45.5687 41.0024 45.5747 40.9553 45.5806L40.8847 45.5892C40.7964 45.6009 40.7081 45.6097 40.6168 45.6214L40.3756 45.6594C40.2991 45.6741 40.2226 45.6857 40.149 45.7003C40.0931 45.712 40.0401 45.7237 39.9842 45.7354L39.9018 45.7531C39.8282 45.7707 39.7546 45.7853 39.684 45.8028C39.6134 45.8204 39.5428 45.8407 39.4722 45.8583C39.3898 45.8817 39.3073 45.9051 39.2249 45.9285L39.019 45.9928C38.9366 46.0191 38.8571 46.0484 38.7776 46.0748C38.707 46.0982 38.6394 46.1244 38.5717 46.1508C38.4922 46.18 38.4157 46.2123 38.3362 46.2445C38.2686 46.2737 38.2009 46.3029 38.1332 46.3321C38.0567 46.3643 37.9802 46.4025 37.9037 46.4376L37.7036 46.5341C37.6271 46.5721 37.5535 46.6101 37.4799 46.6481C37.4152 46.6832 37.3505 46.7184 37.2828 46.7535C37.2151 46.7915 37.1445 46.8323 37.0621 46.882L37.0179 46.9086C36.9679 46.9378 36.9208 46.967 36.8737 46.9963C36.8149 47.0343 36.7589 47.0694 36.703 47.1074L36.6089 47.1688C36.5648 47.201 36.5177 47.2301 36.4736 47.2594C36.4029 47.3091 36.3352 47.3589 36.2616 47.4145L36.2205 47.4468C36.1763 47.4789 36.1322 47.5082 36.091 47.5433C36.0557 47.5726 36.0203 47.6018 35.9821 47.631V41.0436C35.9821 37.7763 38.4275 35.1235 41.432 35.1235L41.4437 35.1175ZM42.0705 63.8037C37.3063 63.8037 33.4337 59.9512 33.4337 55.2185C33.4337 52.9954 34.2871 50.8866 35.8379 49.2778C37.4829 47.5725 39.6957 46.6335 42.0705 46.6335C44.4423 46.6335 46.6582 47.5725 48.3032 49.2778C49.854 50.8866 50.7073 52.9925 50.7073 55.2185C50.7073 59.9542 46.8318 63.8037 42.0705 63.8037ZM25.5444 91.3491H50.3395H50.369H50.3983L50.4278 91.3463L50.4543 91.3431L50.4807 91.3403L50.5073 91.3345L50.5337 91.3285L50.5573 91.3197L50.5838 91.3111L50.6073 91.2994L50.6308 91.2877L50.6514 91.276L50.6721 91.2614L50.6926 91.2466L50.7132 91.232L50.7309 91.2146L50.7486 91.1969L50.7662 91.1794L50.7809 91.162L50.7956 91.1414L50.8074 91.1209L50.8192 91.1003L50.8309 91.08L50.8427 91.0566L50.8515 91.0332L50.8604 91.0069L50.8663 90.9806L50.8721 90.9541L50.878 90.9278L50.881 90.8986V90.8695V90.8401L50.8692 90.8109L50.8574 90.7815L50.8456 90.7524L50.8339 90.7261L50.8192 90.6998L50.8074 90.6733L50.7927 90.647L50.778 90.6207L50.7632 90.5973L50.7486 90.5739L50.7338 90.5536L50.7162 90.533L50.6985 90.5124L50.6808 90.4922L50.6632 90.4744L50.6456 90.457L50.6279 90.4393L50.6102 90.4219L50.5926 90.4073L50.5749 90.3925L50.5543 90.3808L50.5337 90.369L50.5161 90.3576L50.4955 90.3488L50.4749 90.3399L50.4543 90.331L50.4337 90.3253L50.4131 90.3193L50.3924 90.3136L50.3719 90.3108H50.3513H50.3307H25.5355H25.5061H25.4767L25.4472 90.3136L25.4208 90.3193L25.3943 90.3253L25.3678 90.331L25.3413 90.3399L25.3148 90.3488L25.2913 90.3576L25.2678 90.369L25.2471 90.3808L25.2265 90.3925L25.206 90.4073L25.1854 90.4219L25.1677 90.4393L25.15 90.457L25.1324 90.4744L25.1147 90.4922L25.0971 90.5124L25.0823 90.533L25.0706 90.5536L25.0588 90.5739L25.0471 90.5973L25.0382 90.6207L25.0294 90.647L25.0205 90.6733L25.0147 90.6998L25.0088 90.7261L25.0029 90.7524L25 90.7815V90.8109V90.8401V90.8695V90.8986L25.0029 90.9278L25.0088 90.9541L25.0147 90.9806L25.0205 91.0069L25.0294 91.0332L25.0382 91.0566L25.0471 91.0829L25.0588 91.1034L25.0706 91.1237L25.0823 91.1443L25.0971 91.1649L25.1147 91.1823L25.1324 91.2L25.15 91.2174L25.1677 91.2351L25.1854 91.2497L25.206 91.2643L25.2265 91.2788L25.2471 91.2906L25.2678 91.3023L25.2913 91.314L25.3148 91.3228L25.3413 91.3314L25.3678 91.3374L25.3943 91.3431L25.4208 91.3463L25.4472 91.3491L25.4767 91.352H25.5061H25.5355L25.5444 91.3491ZM50.3395 71.0256H34.3548C34.0281 71.0256 33.8104 71.2422 33.8104 71.5669C33.8104 71.8916 34.0281 72.1079 34.3548 72.1079H50.2307C50.5573 72.1079 50.775 71.8916 50.775 71.5669C50.775 71.2422 50.5573 71.0256 50.3395 71.0256ZM50.3395 80.6463H30.0026C29.6759 80.6463 29.4582 80.8627 29.4582 81.1873V81.2168V81.2459L29.4611 81.275L29.467 81.3013L29.4729 81.3279L29.4788 81.3542L29.4876 81.3804L29.4964 81.4067L29.5052 81.4301L29.517 81.4536L29.5288 81.4741L29.5406 81.4944L29.5553 81.515L29.5699 81.5356L29.5876 81.553L29.6053 81.5707L29.623 81.5881L29.6435 81.6055L29.6641 81.6204L29.6847 81.635L29.7054 81.6467L29.7289 81.6584L29.7524 81.6701L29.776 81.6787L29.8024 81.6875L29.8289 81.6964L29.8554 81.7021L29.8819 81.7081L29.9084 81.7138L29.9378 81.7169H29.9672H29.9967H50.3336H50.3631H50.3924L50.4219 81.7138L50.4484 81.7081L50.4749 81.7021L50.5014 81.6964L50.5279 81.6875L50.5514 81.6787L50.5779 81.6701L50.6014 81.6584L50.6249 81.6467L50.6456 81.635L50.6662 81.6204L50.6867 81.6055L50.7073 81.5881L50.725 81.5707L50.7427 81.553L50.7603 81.5356L50.775 81.515L50.7897 81.4944L50.8015 81.4741L50.825 81.4273L50.8368 81.4039L50.8456 81.3776L50.8545 81.3513L50.8604 81.3247L50.8663 81.2985L50.8721 81.2722L50.8751 81.243V81.2136V81.1845C50.7662 80.8598 50.5484 80.6432 50.3307 80.6432L50.3395 80.6463ZM89.0536 54.271L120.917 65.4037L110.585 69.1888L79.7017 57.5148L89.0536 54.271ZM78.2863 58.053L109.17 69.727L101.666 72.4298L70.238 60.8641L78.2863 58.053ZM102.21 73.1874L109.823 70.3763V82.2668L102.21 84.9694V73.1874ZM68.7166 61.2969L100.145 72.8626L88.9447 76.8612L57.0812 65.4037L68.7166 61.2969ZM56.1013 66.053L88.5092 77.8352V111.994L56.1013 98.6969V66.053ZM98.7321 98.0505C98.4055 98.0505 98.1877 98.2668 98.1877 98.5915V105.512C98.1877 105.837 98.4055 106.053 98.7321 106.053C99.0587 106.053 99.2765 105.837 99.2765 105.512V98.5915C99.2765 98.2668 99.0587 98.0505 98.7321 98.0505ZM113.958 92.2121C113.631 92.2121 113.413 92.4284 113.413 92.7531V99.2379V99.3462C113.413 99.5627 113.631 99.7793 113.958 99.7793C114.284 99.7793 114.393 99.5626 114.393 99.2379V92.7531C114.502 92.4284 114.284 92.2121 113.958 92.2121ZM111.347 93.2941C111.021 93.2941 110.803 93.5107 110.803 93.8354V100.431C110.803 100.756 111.021 100.972 111.347 100.972C111.674 100.972 111.892 100.756 111.892 100.431V93.8354C111.783 93.5107 111.565 93.2941 111.347 93.2941ZM107.975 94.4819C107.649 94.4819 107.431 94.6982 107.431 95.0229V101.724C107.431 102.049 107.649 102.266 107.975 102.266C108.302 102.266 108.52 102.049 108.52 101.724V95.0229C108.52 94.6982 108.302 94.4819 107.975 94.4819ZM105.692 95.3477C105.365 95.3477 105.147 95.564 105.147 95.8887V102.698C105.147 103.023 105.365 103.239 105.692 103.239C106.018 103.239 106.236 103.023 106.236 102.698V95.8887C106.236 95.564 106.018 95.3477 105.692 95.3477ZM101.125 97.1847C100.798 97.1847 100.58 97.401 100.58 97.7257V104.646C100.58 104.971 100.798 105.187 101.125 105.187C101.451 105.187 101.669 104.971 101.669 104.646V97.7257C101.56 97.401 101.342 97.1847 101.125 97.1847Z" fill="#4D4D4D"/>
</svg>
