<svg width="67" height="26" viewBox="0 0 67 26" fill="none" xmlns="http://www.w3.org/2000/svg">
<g clip-path="url(#clip0_65_17)">
<path fill-rule="evenodd" clip-rule="evenodd" d="M12.9775 3.2563C12.2029 4.11128 10.9628 4.78457 9.72606 4.68755C9.56983 3.53241 10.1784 2.30706 10.8879 1.54909C11.6625 0.669853 13.0165 0.045478 14.1133 0C14.2435 1.20062 13.739 2.38009 12.9807 3.2563H12.9775ZM14.1003 4.91494C12.307 4.81792 10.7707 5.86358 9.91803 5.86358C9.05555 5.86358 7.75043 4.96293 6.3314 4.98719C4.48601 5.01144 2.77087 5.98775 1.82702 7.53703C-0.106243 10.6356 1.32587 15.2292 3.19403 17.7548C4.11185 19.0039 5.20862 20.3745 6.65369 20.3259C8.02064 20.2774 8.56415 19.4951 10.2143 19.4951C11.8806 19.4951 12.3591 20.3259 13.8009 20.3017C15.298 20.2774 16.2386 19.0525 17.1564 17.8033C18.2012 16.3844 18.6276 15.0018 18.6536 14.929C18.6276 14.9047 15.7635 13.8831 15.7375 10.8058C15.7114 8.23474 17.9962 7.00691 18.0971 6.93717C16.8082 5.15747 14.7936 4.96641 14.0971 4.9179L14.1003 4.91494ZM24.4599 1.42829V20.1678H27.581V13.7618H31.9033C35.8512 13.7618 38.6241 11.2391 38.6241 7.58263C38.6241 3.92923 35.9032 1.42829 32.0074 1.42829H24.4599ZM27.581 3.88103H31.1807C33.8885 3.88103 35.4411 5.22718 35.4411 7.59506C35.4411 9.96295 33.8918 11.3209 31.1676 11.3209H27.581V3.88103ZM44.3294 20.3106C46.2887 20.3106 48.1082 19.3856 48.9349 17.9182H48.9999V20.1649H51.8901V10.836C51.8901 8.13154 49.5694 6.38824 45.9958 6.38824C42.6793 6.38824 40.2286 8.15584 40.1375 10.5813H42.9495C43.1839 9.42619 44.3295 8.67102 45.9048 8.67102C47.812 8.67102 48.8827 9.50161 48.8827 11.0266V12.0606L44.9869 12.2761C41.3612 12.4792 39.3987 13.8618 39.3987 16.2661C39.3987 18.6946 41.423 20.3046 44.3294 20.3046V20.3106ZM45.166 18.0882C43.5028 18.0882 42.4451 17.3422 42.4451 16.1992C42.4451 15.0198 43.4637 14.3346 45.4132 14.2285L48.8827 14.0253V15.0835C48.8827 16.839 47.2815 18.0882 45.166 18.0882ZM55.7467 25.2646C58.7898 25.2646 60.2252 24.182 61.475 20.9015L66.9591 6.57595H63.7858L60.1081 17.6452H60.0429L56.3653 6.57595H53.1008L58.3896 20.2194L58.1064 21.0472C57.6312 22.454 56.8534 22.9966 55.4734 22.9966C55.2261 22.9966 54.7509 22.9723 54.5588 22.948V25.1947C54.7411 25.2432 55.5124 25.2675 55.7467 25.2675V25.2646Z" fill="#A0FFF4"/>
</g>
<defs>
<clipPath id="clip0_65_17">
<rect width="67" height="26" fill="white"/>
</clipPath>
</defs>
</svg>
