<svg width="122" height="26" viewBox="0 0 122 26" fill="none" xmlns="http://www.w3.org/2000/svg">
<g clip-path="url(#clip0_65_21)">
<path d="M21.4735 0.00296081H15.4915C15.4915 4.57502 13.236 8.74988 9.32071 11.4998L6.96109 13.149L16.1359 24.7944H23.6737L15.2247 14.0709C19.2214 10.3721 21.4735 5.37247 21.4735 0V0.00296081ZM115.959 7.20069C115.237 7.20069 114.644 7.74917 114.644 8.42528C114.67 9.09835 115.233 9.65046 115.959 9.65046C116.685 9.65046 117.274 9.10138 117.274 8.42528C117.274 7.74917 116.685 7.20069 115.959 7.20069ZM115.959 9.42307C115.37 9.42307 114.914 8.97412 114.914 8.42232C114.914 7.87355 115.396 7.42215 115.959 7.42215C116.548 7.42215 117.007 7.87052 117.007 8.42232C117.007 8.97108 116.526 9.42307 115.959 9.42307ZM118.133 18.7218C116.229 18.7218 114.674 20.1707 114.674 21.9443C114.674 23.718 116.229 25.1675 118.133 25.1675C120.037 25.1675 121.593 23.718 121.593 21.9443C121.593 20.1434 120.037 18.7218 118.133 18.7218ZM0.09375 0.00296081H6.21258V24.7944H0.09375V0.00296081ZM25.4442 0.00296081H31.2115V24.7944H25.4442V0.00296081ZM81.8083 7.17641C79.6081 7.17641 77.5153 7.80102 76.1223 9.57466V7.64955H70.6513V24.7944H76.2037V15.7959C76.2037 13.1976 78.0816 11.9214 80.3338 11.9214C82.7488 11.9214 84.1418 13.2704 84.1418 15.7687V24.8157H89.6422V13.8951C89.6422 9.89604 86.2346 7.17345 81.8083 7.17345V7.17641ZM48.6498 7.65251V8.75274C47.0941 7.75223 45.2163 7.17937 43.1789 7.17937C37.8152 7.17937 33.4669 11.2269 33.4669 16.2264C33.4669 21.226 37.812 25.2735 43.1789 25.2735C45.2163 25.2735 47.0974 24.7006 48.6498 23.7001V24.8009H54.1503V7.65547H48.6498V7.65251ZM43.6345 20.6226C40.8713 20.6226 38.6451 18.6489 38.6451 16.2235C38.6451 13.798 40.8713 11.8243 43.6345 11.8243C46.3977 11.8243 48.6239 13.798 48.6239 16.2235C48.6239 18.6489 46.3977 20.6226 43.6345 20.6226ZM62.6807 9.87785V7.65547H57.0469V24.8009H62.7068V16.8026C62.7068 14.1012 65.8442 12.6521 68.0183 12.6521H68.0736V7.65547C65.8474 7.65547 63.7808 8.55292 62.6807 9.87785ZM106.758 7.65547V8.7557C105.203 7.75519 103.325 7.18233 101.287 7.18233C95.9236 7.18233 91.5754 11.2298 91.5754 16.2294C91.5754 21.2289 95.9203 25.2764 101.287 25.2764C103.325 25.2764 105.206 24.7036 106.758 23.703V24.8039H112.259V7.65843H106.758V7.65547ZM101.743 20.6256C98.9798 20.6256 96.7536 18.6519 96.7536 16.2264C96.7536 13.8009 98.9798 11.8272 101.743 11.8272C104.506 11.8272 106.732 13.8009 106.732 16.2264C106.758 18.6519 104.506 20.6256 101.743 20.6256ZM116.526 8.15584C116.526 7.90723 116.34 7.75554 116.044 7.75554H115.533V9.05593H115.774V8.58042H116.041L116.255 9.05593H116.522L116.281 8.53187C116.441 8.4591 116.522 8.33169 116.522 8.15584H116.526ZM116.044 8.35599H115.777V7.95569H116.044C116.207 7.95569 116.285 8.03154 116.285 8.15584C116.285 8.28015 116.229 8.35599 116.044 8.35599Z" fill="#A0FFF4"/>
</g>
<defs>
<clipPath id="clip0_65_21">
<rect width="122" height="26" fill="white"/>
</clipPath>
</defs>
</svg>
