<svg width="80" height="26" viewBox="0 0 80 26" fill="none" xmlns="http://www.w3.org/2000/svg">
<g clip-path="url(#clip0_65_15)">
<path d="M78.7571 18.5731C78.7408 18.561 78.7245 18.5456 78.7083 18.5335C79.1119 18.2879 79.3788 17.8667 79.3788 17.3847V15.623C79.3788 14.865 78.7213 14.2527 77.9076 14.2527H73.6539C72.3292 14.2527 71.3268 14.6165 70.5977 15.1653C70.3927 14.6347 69.8686 14.2527 69.2307 14.2527H64.9769C63.8053 14.2527 62.8843 14.5224 62.1812 14.9681C61.9274 14.5436 61.4684 14.2527 60.9183 14.2527H53.8298C53.257 14.2527 52.7753 14.5621 52.5344 15.0048C52.4335 14.9381 52.3586 14.8623 52.2512 14.8017C51.2228 14.2893 50.1292 14.2498 49.0031 14.2498H44.0984C43.5256 14.2498 43.0439 14.5651 42.8031 15.0077C42.0545 14.556 41.0129 14.2498 39.5255 14.2498H32.7397C32.3296 14.2498 31.9423 14.4042 31.6624 14.6862L30.0546 16.3022L28.5119 14.7046C28.2352 14.4105 27.8381 14.2498 27.4215 14.2498H18.8814C18.0677 14.2498 17.4135 14.8621 17.4135 15.6171V23.8973C17.4135 24.6552 18.071 25.2646 18.8814 25.2646H27.2947C27.7048 25.2646 28.0919 25.1066 28.3718 24.8246L29.9927 23.1908L31.5289 24.8039C31.8056 25.0949 32.2092 25.2616 32.6258 25.2616H36.7559C37.5696 25.2616 38.2237 24.6492 38.2237 23.8973V22.4844H39.4052C40.8405 22.4844 41.8787 22.2081 42.6338 21.7927V23.8973C42.6338 24.6522 43.2912 25.2616 44.1016 25.2616H46.2367C47.0503 25.2616 47.7078 24.6492 47.7078 23.8973V22.2357H48.5084C48.7037 22.2357 48.8404 22.2414 48.9413 22.2475C48.9478 22.3961 48.9477 22.5722 48.9445 22.6904V23.8943C48.9445 24.6492 49.6052 25.2587 50.4124 25.2587H52.5441C52.785 25.2587 52.9998 25.1981 53.195 25.1041C53.3936 25.1951 53.6085 25.2587 53.8428 25.2587H60.9314C61.1624 25.2587 61.374 25.1979 61.5693 25.11C61.7613 25.1979 61.9728 25.2587 62.2071 25.2587H66.344C67.6588 25.2587 68.7327 24.9584 69.5366 24.4279C69.7579 24.916 70.2787 25.2587 70.8841 25.2587H75.0207C78.028 25.2587 79.8247 23.7697 79.8247 21.2776C79.8247 20.1254 79.4894 19.2646 78.7636 18.5672L78.7571 18.5731ZM31.3759 19.7741L34.637 23.1482V16.5083L31.3759 19.7705V19.7741ZM57.7126 2.77724L56.2545 6.07558H59.1869L57.7126 2.77724ZM7.28831 2.77724L5.84644 6.07558H8.74321L7.28831 2.77724ZM40.7656 3.24386C40.5117 3.11046 40.1277 3.09523 39.7599 3.09523H37.1432V4.93271H39.7242C40.1343 4.93271 40.4759 4.92648 40.7721 4.76276C41.0455 4.62935 41.2083 4.33531 41.2083 3.97755C41.2083 3.62282 41.039 3.36506 40.7624 3.24682L40.7656 3.24386ZM49.8656 17.4818C49.6052 17.3393 49.2277 17.3332 48.8534 17.3332H46.2367V19.192H48.8176C49.2342 19.192 49.5857 19.1796 49.8721 19.025C50.1487 18.8673 50.3115 18.5851 50.3115 18.2273C50.305 17.8696 50.1423 17.6152 49.8689 17.4818H49.8656ZM39.5224 17.3302H36.7526V19.4401H39.4963C40.3132 19.4401 40.8209 19.0642 40.8209 18.3487C40.8209 17.6211 40.2904 17.3302 39.5224 17.3302ZM26.3183 17.3332H20.9969V18.8367H25.6575V20.5285H20.9969V22.1753H26.2174L28.642 19.7433L26.3183 17.3332ZM72.0884 0.00296081H69.9142C69.1005 0.00296081 68.4464 0.615327 68.4464 1.37026V2.22534L67.4375 0.663813C67.1706 0.254511 66.6955 0.00296081 66.1812 0.00296081H62.946C62.1356 0.00296081 61.4782 0.615327 61.4782 1.37026V2.53149L60.6971 0.830803C60.466 0.330545 59.9387 0.00296081 59.3496 0.00296081H56.1667C55.8445 0.00296081 55.5351 0.103131 55.291 0.275947C55.0469 0.103131 54.7411 0.00296081 54.4124 0.00296081H52.3618C50.6174 0.00296081 49.3253 0.397127 48.3749 1.16419C48.2675 0.512338 47.685 0.00296081 46.9527 0.00296081H44.7819C44.2026 0.00296081 43.7176 0.324647 43.4735 0.773363C43.3824 0.712726 43.314 0.636669 43.2099 0.582095C42.214 0.0454543 41.166 0.00296081 39.8999 0.00296081H35.0146C34.738 0.00296081 34.5005 0.09368 34.2792 0.214955C34.0611 0.09368 33.8202 0.00296081 33.5435 0.00296081H26.4485C26.149 0.00296081 25.8886 0.10621 25.6575 0.248708C25.4232 0.10621 25.1628 0.00296081 24.8666 0.00296081H21.3256C20.7397 0.00296081 20.2059 0.330402 19.9781 0.836724L18.7153 3.60804L17.3256 0.79705C17.0847 0.311951 16.5607 0.00296081 15.9912 0.00296081H12.525C11.7146 0.00296081 11.0572 0.615327 11.0572 1.37026V2.56169L10.2598 0.830803C10.0287 0.330545 9.49821 0.00296081 8.90912 0.00296081H5.75538C5.16955 0.00296081 4.63907 0.330545 4.40474 0.830803L0.60325 9.111C0.407972 9.53546 0.456829 10.0175 0.723711 10.4025C0.993846 10.7845 1.45601 11.0178 1.95072 11.0178H4.25821C4.8473 11.0178 5.38429 10.6845 5.60886 10.1751L6.05812 9.16844H8.5185L8.96124 10.1686C9.18581 10.681 9.7228 11.0148 10.3184 11.0148H14.6405C15.4542 11.0148 16.1084 10.4024 16.1084 9.6475V9.61374L16.3851 10.2024C16.6194 10.6965 17.1466 11.0178 17.7259 11.0178L19.5942 11.0207C20.1767 11.0207 20.7008 10.7025 20.9351 10.2053L21.215 9.62026V9.65342C21.215 10.4084 21.8723 11.0178 22.6827 11.0178H24.8601C25.1595 11.0178 25.4167 10.9115 25.651 10.772C25.8821 10.9115 26.1425 11.0178 26.4419 11.0178H33.537C33.8137 11.0178 34.0546 10.927 34.2726 10.8058C34.494 10.927 34.7347 11.0178 35.0081 11.0178H37.1335C37.9472 11.0178 38.6013 10.4054 38.6013 9.65046V8.00425H39.4149C39.5972 8.00425 39.7274 8.01003 39.8283 8.01609C39.838 8.15556 39.8348 8.32257 39.8348 8.43475L39.8314 8.61654L39.8413 9.65934C39.8478 10.4082 40.5052 11.0148 41.3091 11.0148H43.4507C43.6915 11.0148 43.9096 10.9448 44.1081 10.8508C44.3131 10.9478 44.5312 11.0148 44.7721 11.0148H46.9429C47.6557 11.0148 48.2188 10.5355 48.3555 9.91397C49.5597 10.8569 51.2553 11.0148 52.1991 11.0148H54.689C55.2814 11.0148 55.8183 10.6751 56.0429 10.1597L56.4758 9.16844H58.9233L59.3724 10.1722C59.6002 10.6785 60.1307 11.0148 60.7263 11.0148H65.0486C65.859 11.0148 66.5164 10.4024 66.5164 9.6475V8.3406L67.8182 10.3539C68.0851 10.7632 68.5603 11.0148 69.0778 11.0148H72.085C72.8987 11.0148 73.553 10.4024 73.553 9.6475V1.3673C73.553 0.612366 72.8954 0 72.085 0L72.0884 0.00296081ZM24.8666 9.6475H22.6892L22.6827 3.16214L19.6038 9.6475H17.7358L14.6504 3.15622V9.6475H10.3249L9.50792 7.80114H5.08491L4.26155 9.6475H1.9539L5.75856 1.3673H8.9123L12.5283 9.20752V1.3673H15.9945L18.774 6.98218L21.3256 1.3673H24.8666V9.6475ZM33.5435 3.09227H28.5705V4.58392H33.4231V6.28224H28.5705V7.93733H33.5435V9.65046H26.4485V1.37026H33.5435V3.09523V3.09227ZM42.0512 5.80614C42.5166 5.9729 42.9137 6.2636 43.1025 6.50312C43.4051 6.91545 43.4572 7.28224 43.4572 8.02201V9.6475H41.3124L41.3026 8.60411C41.3026 8.10688 41.3547 7.39186 40.9674 6.99165C40.6582 6.70059 40.1831 6.63695 39.4183 6.63695H37.14V9.6475H35.0146H35.0115V1.37026H39.8966C40.9837 1.37026 41.7843 1.39771 42.4677 1.7676C43.1415 2.13749 43.5419 2.67681 43.5419 3.60153C43.5419 4.92039 42.5947 5.60294 42.0479 5.80911L42.0512 5.80614ZM46.9527 9.6475H44.7819V1.3673H46.9527V9.6475ZM72.0916 9.6475H69.0843L65.055 3.43217V9.6475H60.7329L59.903 7.80114H55.4897L54.6922 9.6475H52.2056C51.1739 9.6475 49.8721 9.43541 49.1333 8.73201C48.3814 8.02862 47.9941 7.07612 47.9941 5.56928C47.9941 4.34137 48.2285 3.21672 49.1333 2.32838C49.8167 1.66743 50.8908 1.36434 52.3587 1.36434H54.4124V3.13786H52.3978C51.6264 3.13786 51.187 3.24431 50.7639 3.62936C50.4027 3.97802 50.1553 4.63577 50.1553 5.50592C50.1553 6.39122 50.344 7.031 50.741 7.44939C51.0698 7.77683 51.6654 7.87693 52.222 7.87693H53.1755L56.1764 1.3673H59.3593L62.9525 9.19864V1.3673H66.1877L69.9207 7.13377V1.3673H72.0949V9.6475H72.0916ZM53.1332 4.51109L52.2121 6.51555C52.0071 6.51555 51.8705 6.49407 51.7956 6.47588C51.724 6.35157 51.6264 6.0788 51.6264 5.51184C51.6264 4.93882 51.7761 4.642 51.7956 4.61472C51.8575 4.55711 51.9063 4.51109 52.4043 4.51109H53.1332ZM39.4052 21.12H36.7559V23.8973H32.6258L30.009 21.1562L27.2914 23.8973H18.8781V15.6171H27.4183L30.0351 18.3304L32.7364 15.6171H39.5224C41.2083 15.6171 43.1025 16.0566 43.1025 18.3487C43.1025 20.6469 41.2603 21.1261 39.4019 21.12H39.4052ZM51.1512 20.053C51.6199 20.2136 52.0072 20.5044 52.1862 20.747C52.4889 21.1502 52.5278 21.5263 52.5376 22.257V23.8973H50.4059V22.8604C50.4059 22.3632 50.4579 21.6265 50.0609 21.2385C49.7549 20.9444 49.2831 20.8743 48.5052 20.8743H46.2367V23.8973H44.1016V15.6171H49.0064C50.0805 15.6171 50.8615 15.6593 51.5612 16.0049C52.2317 16.3809 52.6516 16.8995 52.6516 17.8424C52.6516 19.1673 51.7012 19.8402 51.1447 20.0494L51.1512 20.053ZM60.9248 17.3302H55.9485V18.8367H60.8012V20.5285H55.9485V22.1753L60.9248 22.1842V23.9032H53.8363V15.623H60.9248V17.3361V17.3302ZM66.3406 23.8878H62.204V22.1084H66.3211C66.7214 22.1084 67.0079 22.063 67.1869 21.9023C67.3301 21.7749 67.4341 21.5867 67.4341 21.3593C67.4341 21.1198 67.3267 20.9291 67.177 20.8139C67.011 20.6866 66.7931 20.6285 66.4188 20.6285C64.4367 20.5679 61.9468 20.6863 61.9468 18.0698C61.9468 16.8631 62.754 15.6052 64.9835 15.6052H69.2372V17.3663H65.3415C64.9542 17.3663 64.7035 17.3815 64.4919 17.5179C64.2576 17.6544 64.1698 17.8516 64.1698 18.1154C64.1698 18.4307 64.3684 18.6366 64.6353 18.7336C64.8631 18.8064 65.1005 18.8278 65.4618 18.8278L66.6043 18.858C67.7564 18.8853 68.5473 19.0706 69.0257 19.5253C69.4423 19.9256 69.6636 20.4316 69.6636 21.2805C69.6636 23.0663 68.4725 23.8969 66.3374 23.8878H66.3406ZM75.0207 23.8878H70.8841V22.1084H75.0045C75.4048 22.1084 75.6913 22.063 75.8703 21.9023C76.0168 21.7749 76.1176 21.5867 76.1176 21.3593C76.1176 21.1198 76.0102 20.9291 75.8573 20.8139C75.6945 20.6866 75.4764 20.6285 75.1021 20.6285C73.1168 20.5679 70.6303 20.6863 70.6303 18.0698C70.6303 16.8631 71.4375 15.6052 73.6669 15.6052H77.9239V17.3663H74.0281C73.6376 17.3663 73.3837 17.3815 73.1754 17.5179C72.941 17.6544 72.8564 17.8516 72.8564 18.1154C72.8564 18.4307 73.0549 18.6366 73.3186 18.7336C73.5464 18.8064 73.7841 18.8278 74.1486 18.8278L75.2877 18.858C76.4399 18.8853 77.2339 19.0706 77.7123 19.5253C78.1289 19.9256 78.3502 20.4316 78.3502 21.2805C78.3502 23.0663 77.1558 23.8969 75.0207 23.8878Z" fill="#A0FFF4"/>
</g>
<defs>
<clipPath id="clip0_65_15">
<rect width="80" height="26" fill="white"/>
</clipPath>
</defs>
</svg>
