<svg width="44" height="40" viewBox="0 0 44 40" fill="none" xmlns="http://www.w3.org/2000/svg">
<g clip-path="url(#clip0_65_5)">
<path d="M42.921 11.7624C42.8221 9.63552 42.4555 8.17439 41.9326 6.90845C41.3936 5.56452 40.5613 4.36178 39.4739 3.36282C38.412 2.34587 37.1236 1.55678 35.7109 1.05581C34.3589 0.563832 32.8123 0.218966 30.5545 0.12597C28.2777 0.0239754 27.5539 0 21.782 0C16.0101 0 15.2861 0.0238934 13.0188 0.116889C10.7578 0.209884 9.20495 0.55475 7.85924 1.04673C6.43061 1.5537 5.15177 2.33665 4.08987 3.3596C3.00884 4.35855 2.17018 5.57073 1.63763 6.89966C1.11465 8.1716 0.748056 9.62651 0.649201 11.7504C0.540779 13.8923 0.515137 14.5732 0.515137 20.0029C0.515137 25.4327 0.540691 26.1135 0.639547 28.2464C0.738403 30.3733 1.10516 31.8344 1.62813 33.1003C2.16706 34.4443 3.00572 35.647 4.08676 36.646C5.14866 37.6629 6.4369 38.452 7.84958 38.953C9.20167 39.445 10.7484 39.7898 13.0061 39.8828C15.2734 39.9758 15.9973 40 21.7692 40C27.5411 40 28.265 39.9788 30.5323 39.8828C32.79 39.7898 34.343 39.445 35.6887 38.953C38.5459 37.915 40.8036 35.7882 41.9101 33.1003C42.4331 31.8254 42.7999 30.3733 42.8987 28.2464C42.9976 26.1135 43.0231 25.4327 43.0231 20.0029C43.0231 14.5732 43.0135 13.8921 42.9146 11.7592L42.921 11.7624ZM35.6854 9.32328C35.6854 10.6462 34.5438 11.7232 33.1343 11.7232C31.728 11.7232 30.5832 10.6492 30.5832 9.32328C30.5832 7.99734 31.7248 6.92339 33.1343 6.92339C34.5438 6.92339 35.6854 7.99734 35.6854 9.32328ZM21.7787 9.72843C15.7485 9.72843 10.8568 14.3302 10.8568 20.0029C10.8568 25.6757 15.7485 30.2774 21.7787 30.2774C27.8089 30.2774 32.7007 25.6757 32.7007 20.0029C32.7007 14.3302 27.8089 9.72843 21.7787 9.72843ZM21.7787 26.6685C17.8691 26.6685 14.6929 23.6838 14.6929 20.0029C14.6929 16.3221 17.8659 13.3373 21.7787 13.3373C25.6915 13.3373 28.8645 16.3221 28.8645 20.0029C28.8645 23.6838 25.6915 26.6685 21.7787 26.6685ZM39.0879 28.0905C38.9955 30.0434 38.648 31.0994 38.3578 31.8014C37.6435 33.5443 36.1734 34.9273 34.3206 35.5992C33.5744 35.8722 32.4423 36.1992 30.3759 36.2862C28.1342 36.3792 27.4612 36.4031 21.7882 36.4031C16.1152 36.4031 15.4328 36.3792 13.2006 36.2862C11.1247 36.1992 10.0021 35.8722 9.25593 35.5992C8.33434 35.2783 7.49562 34.7711 6.81319 34.1052C6.10526 33.4572 5.56634 32.6742 5.22513 31.8072C4.93494 31.1053 4.58734 30.0403 4.49486 28.0964C4.39601 25.9875 4.37061 25.3546 4.37061 20.0179C4.37061 14.6811 4.39282 14.0393 4.49486 11.9394C4.58734 9.98645 4.93494 8.93047 5.22513 8.2285C5.56634 7.36155 6.10527 6.57254 6.81958 5.93057C7.50838 5.2676 8.34073 4.75771 9.26232 4.43972C10.0117 4.16674 11.1406 3.83681 13.207 3.74982C15.4488 3.65682 16.1216 3.63264 21.7946 3.63264C27.474 3.63264 28.1501 3.65682 30.3823 3.74982C32.4583 3.83681 33.5808 4.16374 34.327 4.43972C35.2486 4.76071 36.0873 5.2676 36.7698 5.93057C37.4745 6.57854 38.0166 7.36155 38.3578 8.2285C38.648 8.93047 38.9955 9.99545 39.0879 11.9394C39.1868 14.0513 39.2123 14.6811 39.2123 20.0179C39.2123 25.3546 39.1868 25.9786 39.0879 28.0905Z" fill="#4D4D4D"/>
</g>
<defs>
<clipPath id="clip0_65_5">
<rect width="44" height="40" fill="white"/>
</clipPath>
</defs>
</svg>
