<svg width="150" height="150" viewBox="0 0 150 150" fill="none" xmlns="http://www.w3.org/2000/svg">
<path d="M110.896 109.994H98.715C97.005 109.994 95.6113 108.532 95.6113 106.739V100.993H42.3292C39.9409 100.993 38 98.9568 38 96.4515V72.0627V65.6323V63.1031C38 60.5979 39.9409 58.5619 42.3292 58.5619H43.0361L47.6931 41.3063C48.3429 38.8967 50.737 37.4885 53.037 38.1731L107.858 54.4512C110.155 55.1329 111.495 57.6471 110.845 60.0567L105.418 80.1705V84.3109C106.758 84.4394 108.035 84.9806 109.089 85.8894C110.651 87.2407 111.549 89.2318 111.549 91.3544V94.5682H113.35C113.689 94.5682 114 94.8908 114 95.2496V106.744C114 108.538 112.606 110 110.896 110V109.994ZM90.0964 72.7053H82.7432C82.4041 72.7053 82.1305 72.4185 82.1305 72.0627C82.1305 71.707 82.4041 71.4199 82.7432 71.4199H90.0964C90.4356 71.4199 90.7092 71.707 90.7092 72.0627C90.7092 72.4185 90.4356 72.7053 90.0964 72.7053ZM91.322 94.565H71.7078C71.3686 94.565 71.095 94.2782 71.095 93.9224C71.095 93.5666 71.3686 93.2795 71.7078 93.2795H91.322C91.6611 93.2795 91.9347 93.5666 91.9347 93.9224C91.9347 94.2782 91.6611 94.565 91.322 94.565ZM59.4496 94.565C59.1105 94.565 58.8369 94.2782 58.8369 93.9224V91.3512C58.8369 90.9954 59.1105 90.7086 59.4496 90.7086C59.7888 90.7086 60.0624 90.9954 60.0624 91.3512V93.9224C60.0624 94.2782 59.7888 94.565 59.4496 94.565ZM48.417 94.565C48.0779 94.565 47.8043 94.2782 47.8043 93.9224V91.3512C47.8043 90.9954 48.0779 90.7086 48.417 90.7086C48.7562 90.7086 49.0298 90.9954 49.0298 91.3512V93.9224C49.0298 94.2782 48.7562 94.565 48.417 94.565ZM63.1263 94.565C62.7871 94.565 62.5135 94.2782 62.5135 93.9224V91.3512C62.5135 90.9954 62.7871 90.7086 63.1263 90.7086C63.4654 90.7086 63.739 90.9954 63.739 91.3512V93.9224C63.739 94.2782 63.4654 94.565 63.1263 94.565ZM52.0936 94.565C51.7544 94.565 51.4808 94.2782 51.4808 93.9224V91.3512C51.4808 90.9954 51.7544 90.7086 52.0936 90.7086C52.4327 90.7086 52.7064 90.9954 52.7064 91.3512V93.9224C52.7064 94.2782 52.4327 94.565 52.0936 94.565ZM55.7702 94.565C55.4311 94.565 55.1574 94.2782 55.1574 93.9224V91.3512C55.1574 90.9954 55.4311 90.7086 55.7702 90.7086C56.1094 90.7086 56.3829 90.9954 56.3829 91.3512V93.9224C56.3829 94.2782 56.1094 94.565 55.7702 94.565ZM44.7376 94.565C44.3984 94.565 44.1248 94.2782 44.1248 93.9224V91.3512C44.1248 90.9954 44.3984 90.7086 44.7376 90.7086C45.0768 90.7086 45.3503 90.9954 45.3503 91.3512V93.9224C45.3503 94.2782 45.0768 94.565 44.7376 94.565ZM60.6723 88.1374H47.1886C45.4985 88.1374 44.1248 86.6935 44.1248 84.9207C44.1248 83.1479 45.4985 81.707 47.1886 81.707H60.6723C62.3624 81.707 63.7361 83.1509 63.7361 84.9207C63.7361 86.6935 62.3624 88.1374 60.6723 88.1374ZM47.1886 82.9953C46.174 82.9953 45.3503 83.8594 45.3503 84.9237C45.3503 85.9879 46.1768 86.852 47.1886 86.852H60.6723C61.6869 86.852 62.5106 85.9879 62.5106 84.9237C62.5106 83.8594 61.6869 82.9953 60.6723 82.9953H47.1886ZM104.19 72.7085H96.2212C95.8821 72.7085 95.6085 72.4214 95.6085 72.0657C95.6085 71.7099 95.8821 71.4228 96.2212 71.4228H104.19V66.281H39.2198V71.4228H79.0581C79.3973 71.4228 79.6709 71.7099 79.6709 72.0657C79.6709 72.4214 79.3973 72.7085 79.0581 72.7085H39.2198V96.4545C39.2198 98.2512 40.6136 99.71 42.3236 99.71H95.6056V95.2467C95.6056 94.8909 95.9163 94.565 96.2555 94.565H98.0595V91.6204C98.0595 88.0897 100.323 85.0581 103.443 84.4154C103.691 84.3646 103.939 84.3289 104.187 84.305V80.1135C104.184 80.0866 104.184 80.0628 104.187 80.0359V72.7053L104.19 72.7085ZM39.2198 64.9923H104.19V63.1061C104.19 61.3093 102.796 59.8503 101.086 59.8503H43.5263C43.5064 59.8503 43.4892 59.8503 43.4693 59.8503H42.3264C40.6163 59.8503 39.2227 61.3123 39.2227 63.1061V64.9923H39.2198ZM44.3072 58.5648H101.086C103.475 58.5648 105.416 60.6008 105.416 63.1061V65.6352V72.0657V75.4438L109.659 59.7098C110.127 57.9819 109.166 56.1793 107.519 55.692L52.6978 39.4139C51.0505 38.9266 49.3319 39.9339 48.8674 41.6619L44.3072 58.5677V58.5648ZM104.19 94.5682V88.2063C102.802 88.5292 101.739 89.9523 101.739 91.6055V94.5682H104.19ZM104.777 86.8549C104.786 86.8549 104.794 86.8549 104.803 86.8549C104.811 86.8549 104.82 86.8549 104.828 86.8549C105.943 86.8609 106.969 87.2976 107.77 88.1047C108.622 88.9627 109.095 90.1167 109.095 91.3544V94.5682H110.321V91.3544C110.321 89.6175 109.588 87.9879 108.305 86.8818C107.029 85.7786 105.341 85.3423 103.68 85.6801C101.135 86.2063 99.2851 88.7025 99.2851 91.6233V94.5682H100.511V91.6055C100.511 89.0913 102.349 86.9627 104.606 86.8581C104.663 86.8551 104.72 86.8549 104.774 86.8549H104.777ZM105.416 88.2063V94.5682H107.867V91.3544C107.867 90.4695 107.53 89.6442 106.923 89.0314C106.496 88.6039 105.98 88.3259 105.416 88.2063ZM104.803 106.141C104.464 106.141 104.19 105.854 104.19 105.498V102.173C103.477 101.907 102.964 101.193 102.964 100.356C102.964 99.2915 103.791 98.4275 104.803 98.4275C105.817 98.4275 106.641 99.2945 106.641 100.356C106.641 101.193 106.128 101.91 105.416 102.173V105.498C105.416 105.854 105.142 106.141 104.803 106.141ZM104.803 99.7132C104.467 99.7132 104.19 100 104.19 100.356C104.19 100.712 104.467 100.999 104.803 100.999C105.139 100.999 105.416 100.712 105.416 100.356C105.416 100 105.139 99.7132 104.803 99.7132ZM96.834 95.8566V100.356V106.744C96.834 107.83 97.6748 108.712 98.7122 108.712H110.893C111.928 108.712 112.772 107.83 112.772 106.744V95.8536H110.899H108.519H104.806H101.092H98.7122H96.8368L96.834 95.8566Z" fill="#4D4D4D"/>
</svg>
