<svg width="150" height="150" viewBox="0 0 150 150" fill="none" xmlns="http://www.w3.org/2000/svg">
<path d="M111.278 89.4654L84.5477 99.9952C83.2811 100.494 81.8413 100.473 80.5898 99.9411C79.3232 99.3999 78.3421 98.4015 77.8318 97.1296L54.4095 38.8636C53.3251 36.1665 51.2414 34.0465 48.5472 32.8949C45.8468 31.7463 42.864 31.6982 40.1424 32.7806L36.8284 34.0797C35.34 34.669 34.6141 36.3407 35.2064 37.82C35.7926 39.3024 37.4967 40.018 38.9851 39.4347L42.2899 38.1327C43.5717 37.6276 44.9751 37.6458 46.2417 38.19C47.5114 38.7312 48.4925 39.7264 49.0058 40.9983L72.4281 99.2675C73.5155 101.965 75.5992 104.088 78.2904 105.236C79.6695 105.823 81.1579 106.117 82.6432 106.117C83.6547 106.117 84.6662 105.982 85.6443 105.708C84.6723 106.989 84.0951 108.586 84.0951 110.318C84.0951 114.56 87.567 118 91.8529 118C96.1388 118 99.6138 114.56 99.6138 110.318C99.6138 106.553 96.88 103.426 93.2745 102.767L113.431 94.8234C114.929 94.2371 115.652 92.5624 115.063 91.0831C114.464 89.6037 112.766 88.885 111.278 89.4713V89.4654ZM110.986 74.0011C111.041 74.1394 111.08 74.2628 111.111 74.362C111.135 74.4612 111.144 74.5395 111.144 74.6087C111.144 74.6748 111.132 74.7319 111.105 74.774C111.077 74.8191 111.047 74.8432 111.001 74.8583L106.208 76.7314C106.044 76.7945 105.892 76.8007 105.74 76.7496C105.592 76.6954 105.473 76.566 105.388 76.3526L102.111 68.1137C102.026 67.8973 102.023 67.7199 102.092 67.5846C102.168 67.4463 102.284 67.3501 102.445 67.2839L107.208 65.4229C107.253 65.4048 107.299 65.4018 107.341 65.4108C107.387 65.4229 107.432 65.4558 107.478 65.5039C107.53 65.558 107.578 65.6302 107.63 65.7174C107.681 65.8076 107.733 65.928 107.791 66.0753C107.848 66.2076 107.885 66.3249 107.909 66.4271C107.94 66.5233 107.949 66.6075 107.949 66.6767C107.946 66.7459 107.933 66.797 107.909 66.8391C107.882 66.8782 107.851 66.908 107.806 66.9231L104.398 68.2553L105.318 70.5615L108.204 69.4369C108.246 69.4218 108.289 69.419 108.341 69.431C108.389 69.443 108.435 69.4761 108.483 69.5182C108.529 69.5693 108.577 69.6354 108.626 69.7226C108.678 69.8158 108.726 69.927 108.781 70.0623C108.836 70.2066 108.881 70.321 108.905 70.4203C108.927 70.5135 108.942 70.5975 108.939 70.6637C108.933 70.7238 108.918 70.7809 108.893 70.817C108.866 70.856 108.833 70.8892 108.784 70.9012L105.904 72.0258L106.965 74.6897L110.4 73.3487C110.442 73.3336 110.488 73.3308 110.537 73.3428C110.585 73.3548 110.631 73.3878 110.679 73.4359C110.725 73.481 110.777 73.5533 110.825 73.6435C110.877 73.7367 110.932 73.8509 110.989 73.9953L110.986 74.0011ZM103.617 76.8758C103.672 77.0111 103.711 77.1345 103.739 77.2367C103.766 77.3359 103.775 77.4169 103.775 77.4831C103.772 77.5522 103.757 77.6096 103.733 77.6487C103.705 77.6878 103.672 77.7175 103.626 77.7356L98.8271 79.606C98.6691 79.6662 98.5112 79.6781 98.3623 79.624C98.2165 79.5728 98.095 79.4407 98.01 79.2302L94.7325 70.9884C94.6474 70.7719 94.6414 70.5976 94.7143 70.4593C94.7872 70.321 94.9056 70.2218 95.0666 70.1586L99.8355 68.3002C99.875 68.2792 99.9206 68.2791 99.9661 68.2882C100.012 68.3002 100.057 68.3334 100.103 68.3845C100.154 68.4326 100.2 68.5048 100.252 68.595C100.303 68.6852 100.352 68.8025 100.413 68.9468C100.464 69.0821 100.507 69.1995 100.537 69.3047C100.558 69.404 100.571 69.4879 100.571 69.554C100.571 69.6262 100.558 69.6775 100.531 69.7196C100.51 69.7587 100.473 69.7856 100.431 69.8036L97.0258 71.1388L97.9431 73.445L100.826 72.3204C100.871 72.3053 100.914 72.3025 100.959 72.3145C101.008 72.3295 101.057 72.3595 101.102 72.4046C101.151 72.4497 101.199 72.5218 101.248 72.609C101.3 72.7022 101.348 72.8134 101.403 72.9487C101.461 73.0901 101.503 73.2105 101.527 73.3067C101.549 73.4059 101.564 73.4902 101.561 73.5533C101.561 73.6165 101.546 73.6705 101.515 73.7096C101.491 73.7486 101.455 73.7757 101.409 73.7968L98.5233 74.9214L99.5834 77.5823L103.019 76.2413C103.064 76.2292 103.11 76.2232 103.159 76.2413C103.207 76.2503 103.253 76.2833 103.304 76.3314C103.35 76.3825 103.399 76.4549 103.45 76.5361C103.502 76.6293 103.556 76.7465 103.614 76.8908L103.617 76.8758ZM96.7342 80.1381C96.7555 80.1892 96.7646 80.2404 96.7555 80.2855C96.7524 80.3306 96.719 80.3788 96.6522 80.4329C96.5884 80.484 96.4882 80.5442 96.3484 80.6073C96.2087 80.6735 96.0173 80.7575 95.7713 80.8537C95.5648 80.9319 95.3977 80.9953 95.2701 81.0313C95.1456 81.0674 95.0362 81.0882 94.9542 81.0912C94.8722 81.0943 94.8115 81.0764 94.7598 81.0463C94.7173 81.0193 94.6748 80.9801 94.6292 80.9259L92.9312 79.1488C92.7338 78.9474 92.5485 78.7762 92.3754 78.6288C92.2022 78.4845 92.0321 78.3732 91.859 78.292C91.6919 78.2169 91.5127 78.1779 91.3335 78.1749C91.1513 78.1719 90.9538 78.2108 90.7473 78.292L90.1458 78.5296L91.5795 82.1257C91.5978 82.1768 91.5978 82.2249 91.5795 82.279C91.5674 82.3301 91.5249 82.3814 91.4611 82.4355C91.3973 82.4866 91.3062 82.5468 91.1908 82.6099C91.0723 82.6701 90.9174 82.7392 90.723 82.8114C90.5377 82.8895 90.3797 82.9407 90.2461 82.9737C90.1155 83.0098 90.0092 83.0276 89.9241 83.0336C89.8391 83.0397 89.7753 83.0278 89.7327 83.0008C89.6841 82.9737 89.6538 82.9346 89.6325 82.8865L86.2153 74.305C86.1333 74.0946 86.1302 73.9139 86.1971 73.7756C86.273 73.6373 86.3884 73.5382 86.5525 73.472L89.022 72.5098C89.2741 72.4105 89.4806 72.3354 89.6477 72.2813C89.8147 72.2272 89.9666 72.182 90.1094 72.1459C90.5103 72.0497 90.89 72.0047 91.2545 72.0167C91.6099 72.0288 91.944 72.101 92.2387 72.2273C92.5364 72.3536 92.8006 72.5398 93.0254 72.7864C93.2562 73.0329 93.4446 73.3397 93.5934 73.7216C93.721 74.0373 93.7909 74.341 93.8121 74.6357C93.8395 74.9273 93.8152 75.2041 93.7332 75.4717C93.6603 75.7363 93.5326 75.9886 93.3625 76.2322C93.1924 76.4757 92.9798 76.6954 92.7186 76.9028C92.8887 76.9149 93.0558 76.9448 93.2198 76.9959C93.3899 77.044 93.5509 77.1192 93.7149 77.2094C93.882 77.3026 94.0521 77.4262 94.2191 77.5615C94.3862 77.6998 94.5624 77.8651 94.7416 78.0515L96.2907 79.6031C96.4365 79.7565 96.5398 79.8735 96.6005 79.9487C96.6583 80.0269 96.7008 80.0871 96.719 80.1352L96.7342 80.1381ZM91.6828 74.7017C91.5553 74.389 91.3821 74.1516 91.1543 73.9953C90.9295 73.8389 90.6319 73.7758 90.2734 73.8179C90.1671 73.8299 90.0456 73.8508 89.915 73.8869C89.7844 73.92 89.6052 73.9803 89.3834 74.0675L88.5147 74.4072L89.5839 77.0893L90.5711 76.7043C90.8475 76.5931 91.0723 76.4667 91.2545 76.3194C91.4337 76.172 91.5704 76.0127 91.6585 75.8413C91.7466 75.6669 91.7952 75.4897 91.8013 75.2972C91.8043 75.1048 91.7648 74.9062 91.6859 74.7017H91.6828ZM84.7269 75.1017C84.7846 75.249 84.8272 75.3752 84.8515 75.4805C84.8788 75.5857 84.891 75.673 84.8879 75.7392C84.8849 75.8113 84.8697 75.8655 84.8454 75.9106C84.8241 75.9497 84.7907 75.9828 84.7482 75.9979L81.6256 77.2126L82.6371 79.7564L85.5653 78.6138C85.6108 78.5958 85.6534 78.5927 85.6989 78.6047C85.7445 78.6138 85.79 78.6439 85.8447 78.689C85.8963 78.7401 85.9389 78.8121 85.9936 78.8993C86.0452 78.9925 86.0968 79.1129 86.1576 79.2572C86.2153 79.4015 86.2548 79.5279 86.2821 79.6301C86.3095 79.7323 86.3247 79.8194 86.3186 79.8976C86.3216 79.9698 86.3064 80.0269 86.2821 80.0629C86.2548 80.105 86.2244 80.1351 86.1819 80.1501L83.2537 81.2927L84.654 84.8107C84.6753 84.8618 84.6753 84.919 84.6662 84.9702C84.651 85.0183 84.6085 85.0725 84.5477 85.1296C84.4839 85.1867 84.3928 85.2408 84.2713 85.307C84.1528 85.3731 84.001 85.4391 83.8096 85.5143C83.6243 85.5894 83.4664 85.6438 83.3327 85.6799C83.2021 85.713 83.0958 85.7309 83.0077 85.7339C82.9226 85.7339 82.8588 85.7219 82.8102 85.6949C82.7647 85.6678 82.7282 85.6285 82.707 85.5774L79.2989 77.008C79.2138 76.7945 79.2138 76.6171 79.2776 76.4788C79.3536 76.3435 79.469 76.2443 79.633 76.1781L84.1225 74.4222C84.168 74.4042 84.2136 74.4042 84.2561 74.4193C84.3017 74.4343 84.3503 74.4582 84.4019 74.5124C84.4535 74.5635 84.5052 74.6387 84.5568 74.7349C84.6115 74.8311 84.6662 74.9573 84.7269 75.1017ZM70.074 63.0353C70.3747 63.787 70.9731 64.3915 71.7203 64.7102C72.4736 65.0289 73.318 65.044 74.0774 64.7463L89.9697 58.4831C91.5492 57.8607 92.3207 56.0835 91.695 54.517L86.8046 42.3576C86.1728 40.788 84.3837 40.0271 82.8012 40.6495L66.9058 46.9068C65.3263 47.5323 64.5488 49.3062 65.1836 50.8697L70.077 63.0353H70.074ZM73.8223 69.939C73.4972 70.6817 73.4851 71.5235 73.7858 72.2722L81.5467 91.5702C82.1754 93.1368 83.9675 93.8975 85.5531 93.275L114.057 82.0476C115.64 81.4222 116.411 79.6481 115.779 78.0785L108.025 58.7809C107.721 58.0291 107.132 57.4217 106.378 57.106C105.628 56.7842 104.784 56.7751 104.021 57.0728L75.5172 68.3034C74.7548 68.6071 74.1473 69.1934 73.8223 69.936V69.939Z" fill="#4D4D4D"/>
</svg>
