<svg width="150" height="150" viewBox="0 0 150 150" fill="none" xmlns="http://www.w3.org/2000/svg">
<path d="M113.936 53.9646C113.512 50.1187 110.815 48.2506 107.497 47.2437C100.041 44.9886 93.9953 52.052 88.268 60.1997C80.4288 59.1064 73.2418 58.028 65.4289 56.7709C65.3499 54.5753 65.2417 51.0182 65.1832 49.7491C64.92 43.9578 58.0547 39.954 52.6199 43.1088C45.9829 46.9607 40.0303 54.9923 36.8185 62.6813C36.7688 62.7826 36.7249 62.8896 36.684 62.9998C36.684 62.9998 36.6839 63.003 36.681 63.003C36.2744 64.1232 36.1779 65.7705 36.0346 68.4308C35.9644 69.7237 36.0228 71.0257 36.0228 72.3245C36.6137 84.0531 39.1381 92.0516 44.6549 99.6542C52.2279 110.09 63.8991 112.849 75.1958 106.935C82.687 103.012 91.117 93.7708 93.8637 90.3955C96.2798 87.4314 105.38 72.7475 109.349 66.8162C111.841 63.0864 114.445 58.5612 113.936 53.9585V53.9646ZM53.2605 47.1396C57.0602 44.7206 61.0441 45.8673 61.398 49.7043C61.5004 50.8066 61.5267 54.5603 61.5326 56.1303C60.2075 55.9098 58.8796 55.6983 57.5545 55.4719C54.2112 54.9059 51.2713 55.2394 48.3755 56.9911C46.6585 58.0308 44.8567 59.0855 42.9525 59.6187C42.7361 59.6783 42.5283 59.7378 42.3265 59.7944C43.9148 57.3546 49.0132 49.8416 53.2605 47.1396ZM108.179 60.7746C104.254 67.1706 98.4356 76.0035 95.4783 80.2874C95.0308 80.9339 93.5887 82.7958 92.7492 84.1334C89.7305 77.5646 89.011 70.8678 91.5529 63.6733C93.4425 58.3289 98.7281 53.7499 99.9625 52.5851C102.393 50.2882 105.465 50.5447 108.121 52.1146C111.616 54.1791 109.405 58.7845 108.182 60.7775L108.179 60.7746Z" fill="#4D4D4D"/>
</svg>
