<svg width="44" height="40" viewBox="0 0 44 40" fill="none" xmlns="http://www.w3.org/2000/svg">
<g clip-path="url(#clip0_65_7)">
<path d="M30.0989 13.0763L15.4428 21.371C15.1909 21.509 15.0856 21.7878 15.1717 22.0428L17.082 28.4837C17.1457 28.6607 17.4167 28.6394 17.439 28.4444L17.8568 24.0018C17.8791 23.6658 18.045 23.3507 18.3192 23.1317L30.287 13.3162C30.4146 13.1962 30.2456 12.9802 30.0989 13.0792V13.0763ZM35.7273 0H7.90752C3.85444 0 0.560303 3.10179 0.560303 6.9146V33.0854C0.560303 36.8982 3.85444 40 7.90752 40H35.7273C39.7804 40 43.0745 36.8982 43.0745 33.0854V6.9146C43.0745 3.10179 39.7581 0 35.7273 0ZM36.9456 8.72946L31.569 31.7024C31.3808 32.4733 30.4147 32.7882 29.7642 32.2932L23.4661 27.5925C23.0037 27.2355 22.3117 27.2955 21.9131 27.7305L18.6795 31.2465C18.1119 31.8795 17.0214 31.6604 16.7695 30.8894L13.9122 22.6129C13.7879 22.2769 13.4944 22.0009 13.1373 21.923L7.48975 20.5188C6.45974 20.2638 6.35452 18.9201 7.34308 18.5241L35.4148 7.52043C36.2535 7.20245 37.1368 7.89557 36.9487 8.72653L36.9456 8.72946Z" fill="#4D4D4D"/>
</g>
<defs>
<clipPath id="clip0_65_7">
<rect width="44" height="40" fill="white"/>
</clipPath>
</defs>
</svg>
