<svg width="6" height="8" viewBox="0 0 6 8" fill="none" xmlns="http://www.w3.org/2000/svg">
<g clip-path="url(#clip0_131_2)">
<path d="M1.63479 2.6056C1.73096 2.8941 1.92329 3.08643 2.11562 3.27876C2.21179 3.37493 2.40412 3.4711 2.50028 3.56726C2.59645 3.56726 2.69261 3.66343 2.78878 3.66343C2.88495 3.66343 2.98111 3.66343 3.07728 3.56726C3.17344 3.4711 3.36577 3.37493 3.46194 3.27876C3.55811 3.1826 3.65427 3.08643 3.75044 2.8941C3.65427 2.8941 3.55811 2.8941 3.46194 2.8941C3.36577 2.99027 3.36577 2.99027 3.26961 2.99027H3.07728C2.88495 2.99027 2.78878 2.79794 2.78878 2.70177C2.78878 2.50944 2.98111 2.41327 3.07728 2.41327H3.26961C3.36577 2.41327 3.36577 2.41327 3.46194 2.50944C3.65427 2.50944 3.75044 2.41327 3.8466 2.41327V1.83628C3.8466 1.74011 3.94277 1.54778 3.94277 1.54778C3.8466 0.970787 3.36577 0.489958 2.69261 0.489958C2.11562 0.489958 1.53863 0.970787 1.44246 1.54778C1.53863 1.64395 1.53863 1.74011 1.53863 1.83628V2.41327C1.53863 2.50944 1.53863 2.6056 1.44246 2.6056H1.63479ZM1.25013 2.70177C1.44246 2.70177 1.53863 2.6056 1.53863 2.41327V1.83628C1.53863 1.74011 1.44246 1.64395 1.34629 1.54778C1.34629 0.778455 2.01945 0.201461 2.69261 0.201461C3.46194 0.201461 4.03893 0.778455 4.03893 1.54778C3.94277 1.54778 3.8466 1.64395 3.8466 1.83628V2.41327V2.50944C3.65427 2.6056 3.46194 2.70177 3.17344 2.70177L3.07728 2.6056H2.88495C2.78878 2.6056 2.69261 2.70177 2.69261 2.79794C2.69261 2.8941 2.78878 2.99027 2.88495 2.99027H3.07728C3.17344 2.99027 3.17344 2.99027 3.17344 2.8941C3.46194 2.8941 3.75044 2.79794 3.94277 2.6056C3.94277 2.6056 4.03893 2.6056 4.1351 2.6056C4.32743 2.6056 4.4236 2.50944 4.4236 2.31711V1.74011C4.4236 1.64395 4.32743 1.54778 4.23127 1.45162C4.23127 0.586124 3.46194 -0.0870361 2.59645 -0.0870361C1.73096 -0.0870361 0.961632 0.586124 0.961632 1.45162C0.865466 1.45162 0.7693 1.54778 0.7693 1.74011V2.31711C0.7693 2.50944 0.865466 2.6056 1.0578 2.6056L1.25013 2.70177ZM2.98111 6.2599C2.98111 6.16374 2.88495 6.06757 2.78878 6.06757C2.69261 6.06757 2.59645 6.16374 2.59645 6.2599C2.59645 6.35607 2.69261 6.45223 2.78878 6.45223C2.88495 6.45223 2.98111 6.35607 2.98111 6.2599ZM5.19292 4.81742C5.09676 4.52892 5.00059 4.33659 4.90443 4.14426C4.71209 3.85576 4.4236 3.85576 4.32743 3.75959C4.23127 3.75959 4.1351 3.75959 3.94277 3.75959C3.8466 3.75959 3.75044 3.75959 3.65427 3.75959C3.55811 3.95192 3.17344 4.14426 2.69261 4.14426C2.21179 4.14426 1.82712 3.95192 1.73096 3.75959C1.63479 3.75959 1.53863 3.75959 1.44246 3.75959C1.34629 3.75959 1.25013 3.75959 1.0578 3.75959C0.961632 3.75959 0.7693 3.85576 0.576969 4.04809C0.480803 4.14426 0.288471 4.43275 0.192306 4.72125C-2.56846e-05 4.72125 -0.0961914 4.91358 -0.0961914 5.10591L0.288471 7.31772C0.288471 7.51006 0.480803 7.70239 0.673134 7.70239H4.51976C4.71209 7.70239 4.90443 7.51006 4.90443 7.31772L5.28909 5.10591C5.28909 4.91358 5.19292 4.72125 5.00059 4.72125L5.19292 4.81742ZM5.00059 7.41389C5.00059 7.60622 4.90443 7.70239 4.71209 7.70239H0.865466C0.673134 7.70239 0.576969 7.60622 0.576969 7.41389L0.192306 5.20208C0.192306 5.00975 0.288472 4.91358 0.480803 4.91358H5.09676C5.28909 4.91358 5.38525 5.00975 5.38525 5.20208L5.00059 7.41389ZM4.90443 7.89472H0.673134C0.576969 7.89472 0.576969 7.89472 0.576969 7.99088C0.576969 8.08705 0.576969 8.08705 0.673134 8.08705H4.90443C5.00059 8.08705 5.00059 8.08705 5.00059 7.99088C5.00059 7.89472 5.00059 7.89472 4.90443 7.89472Z" fill="#4D4D4D"/>
</g>
<defs>
<clipPath id="clip0_131_2">
<rect width="5.48145" height="8.00012" fill="white"/>
</clipPath>
</defs>
</svg>
