<svg width="12" height="9" viewBox="0 0 12 9" fill="none" xmlns="http://www.w3.org/2000/svg">
<path d="M7.18769 0C5.57681 0 4.12912 0.959058 3.50224 2.44322C3.46864 2.52194 3.50609 2.61216 3.58385 2.64576C3.66161 2.67936 3.7528 2.64196 3.7864 2.5642C4.36624 1.19524 5.70065 0.310125 7.18769 0.310125C9.22289 0.310125 10.8789 1.96609 10.8789 4.00129C10.8789 6.03649 9.22289 7.69251 7.18769 7.69251C5.69969 7.69251 4.36432 6.80737 3.7864 5.43745C3.7528 5.35873 3.66257 5.32226 3.58385 5.3549C3.50513 5.3885 3.46864 5.47873 3.50224 5.55745C4.13008 7.04161 5.57679 8.0016 7.18863 8.0016C9.39375 8.0016 11.189 6.20737 11.189 4.00129C11.189 1.79522 9.39471 0.000984374 7.18863 0.000984374L7.18769 0Z" fill="#4D4D4D"/>
<path d="M2.44719 4.15467L3.39665 4.15467L5.31664 4.15467C5.40208 4.15467 5.47119 4.08552 5.47119 4.00008C5.47119 3.91464 5.40208 3.84553 5.31664 3.84553L3.39665 3.84553L2.44719 3.84553L0.527196 3.84553L1.43155 2.94024C1.49203 2.87976 1.49203 2.78186 1.43155 2.72138C1.40179 2.69162 1.36242 2.67624 1.3221 2.67624C1.28274 2.67624 1.24337 2.69162 1.21265 2.72138L0.0443374 3.88969C0.0424174 3.89161 0.0414536 3.89452 0.0404936 3.89644C0.0289736 3.90988 0.0184322 3.92331 0.0117122 3.94059C0.0040322 3.95979 0.000180839 3.97994 0.000180837 3.99914L0.000180837 4.00106C0.000180835 4.02026 0.00403219 4.03945 0.0117122 4.05769C0.0193922 4.07689 0.0308749 4.09321 0.0452748 4.10761L1.21363 5.27691C1.27411 5.33739 1.37201 5.33739 1.43249 5.27691C1.49297 5.21643 1.49297 5.1185 1.43249 5.05898L0.527196 4.15369L2.44719 4.15467Z" fill="#4D4D4D"/>
</svg>
