<svg width="7" height="7" viewBox="0 0 7 7" fill="none" xmlns="http://www.w3.org/2000/svg">
<g clip-path="url(#clip0_92_5)">
<path fill-rule="evenodd" clip-rule="evenodd" d="M0.243019 0H2.43019C2.5922 0 2.67321 0.0810063 2.67321 0.243019V2.43019C2.67321 2.5922 2.5922 2.67321 2.43019 2.67321H0.243019C0.0810063 2.67321 0 2.5922 0 2.43019V0.243019C0 0.0810063 0.0810063 0 0.243019 0ZM3.96931 3.72629H6.15648C6.31849 3.72629 6.39949 3.80729 6.39949 3.96931V6.15648C6.39949 6.31849 6.31849 6.39949 6.15648 6.39949H3.96931C3.80729 6.39949 3.72629 6.31849 3.72629 6.15648V3.96931C3.72629 3.80729 3.80729 3.72629 3.96931 3.72629ZM3.96931 0H6.15648C6.31849 0 6.39949 0.0810063 6.39949 0.243019V2.43019C6.39949 2.5922 6.31849 2.67321 6.15648 2.67321H3.96931C3.80729 2.67321 3.72629 2.5922 3.72629 2.43019V0.243019C3.72629 0.0810063 3.80729 0 3.96931 0ZM0.243019 3.72629H2.43019C2.5922 3.72629 2.67321 3.80729 2.67321 3.96931V6.15648C2.67321 6.31849 2.5922 6.39949 2.43019 6.39949H0.243019C0.0810063 6.39949 0 6.31849 0 6.15648V3.96931C0 3.80729 0.0810063 3.72629 0.243019 3.72629Z" fill="#4D4D4D"/>
</g>
<defs>
<clipPath id="clip0_92_5">
<rect width="6.39949" height="6.39949" fill="white"/>
</clipPath>
</defs>
</svg>
