<svg width="7" height="7" viewBox="0 0 7 7" fill="none" xmlns="http://www.w3.org/2000/svg">
<g clip-path="url(#clip0_92_2)">
<path fill-rule="evenodd" clip-rule="evenodd" d="M0.234114 0H2.41918C2.57526 0 2.65329 0.078038 2.65329 0.234114V6.16501C2.65329 6.32108 2.57526 6.39912 2.41918 6.39912H0.234114C0.078038 6.39912 0 6.32108 0 6.16501V0.234114C0 0.078038 0.078038 0 0.234114 0ZM3.97994 0H6.16501C6.32108 0 6.39912 0.078038 6.39912 0.234114V6.16501C6.39912 6.32108 6.32108 6.39912 6.16501 6.39912H3.97994C3.82386 6.39912 3.74583 6.32108 3.74583 6.16501V0.234114C3.74583 0.078038 3.82386 0 3.97994 0Z" fill="#CCCCCC"/>
</g>
<defs>
<clipPath id="clip0_92_2">
<rect width="6.39912" height="6.39912" fill="white"/>
</clipPath>
</defs>
</svg>
