<svg width="80" height="26" viewBox="0 0 80 26" fill="none" xmlns="http://www.w3.org/2000/svg">
<path fill-rule="evenodd" clip-rule="evenodd" d="M4.91772 5.09082L7.8957 24.9069H15.1861L28.7841 0.373062H21.1129L15.3425 11.7485C14.5255 13.3644 13.8225 14.832 13.2204 16.166C13.1065 14.7683 12.986 13.4131 12.8395 12.0214L11.6516 0.373062H0L12.1333 9.29871L4.92106 5.09082H4.91772ZM63.075 24.9069L66.0271 18.916H71.9668L72.4777 24.9069H79.6152L76.5265 0.373062H68.5526L55.726 24.9069H63.075ZM70.2418 9.74757C70.5249 9.19577 70.8016 8.57149 71.0684 7.9166C71.127 8.50175 71.1694 9.04107 71.2019 9.52314L71.6185 13.7103H68.2825L70.2418 9.75054V9.74757ZM38.0436 23.4697C39.6514 24.5854 42.483 25.2616 45.6042 25.2616C52.1004 25.2616 56.4518 21.845 56.4518 16.7605C56.4518 13.9773 54.7172 11.7818 51.1371 10.0324C49.1355 8.98945 47.9182 8.28318 47.9182 7.39787C47.9182 6.5732 48.8588 5.67883 51.0622 5.67883C53.2201 5.67883 54.8766 6.46094 55.176 6.6186L55.9604 7.02185L58.1508 1.54317L57.5715 1.25242C55.9377 0.409563 53.9034 0 51.3518 0C45.1354 0 40.797 3.37791 40.797 8.2198C40.797 11.7307 43.7587 13.6893 46.3657 14.9899C48.8165 16.1693 49.2981 16.8454 49.2981 17.6186C49.2981 19.0829 47.5862 19.6165 46.1216 19.6165C44.2111 19.6165 42.229 19.1038 40.6636 18.2397L39.8922 17.8033L37.5782 23.1274L38.0468 23.4697H38.0436ZM34.0176 24.9069L39.0167 0.373062H32.1592L27.1469 24.9069H34.0176Z" fill="#A0FFF4"/>
</svg>
